%FSLAX45Y45*%
G04 Gerber Fmt 4.5, Leading zero omitted, Abs format (unit mm)*
G04 Created by KiCad (PCBNEW (5.1.12)-1) date 2021-11-24 10:50:31*
%MOMM*%
%LPD*%
G01*
G04 APERTURE LIST*
%TA.AperFunction,Profile*%
%ADD10C,0.050000*%
%TD*%
%ADD11C,0.200000*%
%ADD12C,0.300000*%
G04 APERTURE END LIST*
D10*
X20447000Y-10160000D02*
G75*
G03*
X20447000Y-10160000I-1397000J0D01*
G01*
D11*
X17788890Y-10052050D02*
X17821910Y-10085070D01*
X17821910Y-10052050D02*
X17788890Y-10085070D01*
X17788890Y-10143490D02*
X17821910Y-10176510D01*
X17821910Y-10143490D02*
X17788890Y-10176510D01*
X17789375Y-10455726D02*
X17822395Y-10488746D01*
X17822395Y-10455726D02*
X17789375Y-10488746D01*
X17799051Y-9963151D02*
X17832071Y-9996171D01*
X17832071Y-9963151D02*
X17799051Y-9996171D01*
X17814988Y-10535538D02*
X17848008Y-10568558D01*
X17848008Y-10535538D02*
X17814988Y-10568558D01*
X17826990Y-9775190D02*
X17860010Y-9808210D01*
X17860010Y-9775190D02*
X17826990Y-9808210D01*
X17841112Y-10615185D02*
X17874132Y-10648205D01*
X17874132Y-10615185D02*
X17841112Y-10648205D01*
X17875365Y-10691688D02*
X17908385Y-10724708D01*
X17908385Y-10691688D02*
X17875365Y-10724708D01*
X17900427Y-10237469D02*
X17933447Y-10270489D01*
X17933447Y-10237469D02*
X17900427Y-10270489D01*
X17918981Y-10763267D02*
X17952001Y-10796287D01*
X17952001Y-10763267D02*
X17918981Y-10796287D01*
X17966291Y-10834063D02*
X17999311Y-10867083D01*
X17999311Y-10834063D02*
X17966291Y-10867083D01*
X17987010Y-9686290D02*
X18020030Y-9719310D01*
X18020030Y-9686290D02*
X17987010Y-9719310D01*
X18017490Y-10915650D02*
X18050510Y-10948670D01*
X18050510Y-10915650D02*
X18017490Y-10948670D01*
X18124170Y-9625330D02*
X18157190Y-9658350D01*
X18157190Y-9625330D02*
X18124170Y-9658350D01*
X18155922Y-10753090D02*
X18188942Y-10786110D01*
X18188942Y-10753090D02*
X18155922Y-10786110D01*
X18233390Y-9800590D02*
X18266410Y-9833610D01*
X18266410Y-9800590D02*
X18233390Y-9833610D01*
X18246090Y-10918190D02*
X18279110Y-10951210D01*
X18279110Y-10918190D02*
X18246090Y-10951210D01*
X18373090Y-9879330D02*
X18406110Y-9912350D01*
X18406110Y-9879330D02*
X18373090Y-9912350D01*
X18403570Y-9295130D02*
X18436590Y-9328150D01*
X18436590Y-9295130D02*
X18403570Y-9328150D01*
X18489930Y-9945370D02*
X18522950Y-9978390D01*
X18522950Y-9945370D02*
X18489930Y-9978390D01*
X18510250Y-10554970D02*
X18543270Y-10587990D01*
X18543270Y-10554970D02*
X18510250Y-10587990D01*
X18538190Y-9648190D02*
X18571210Y-9681210D01*
X18571210Y-9648190D02*
X18538190Y-9681210D01*
X18601690Y-9711690D02*
X18634710Y-9744710D01*
X18634710Y-9711690D02*
X18601690Y-9744710D01*
X18611850Y-11098530D02*
X18644870Y-11131550D01*
X18644870Y-11098530D02*
X18611850Y-11131550D01*
X18616930Y-10664190D02*
X18649950Y-10697210D01*
X18649950Y-10664190D02*
X18616930Y-10697210D01*
X18830290Y-9178290D02*
X18863310Y-9211310D01*
X18863310Y-9178290D02*
X18830290Y-9211310D01*
X18931890Y-10130790D02*
X18964910Y-10163810D01*
X18964910Y-10130790D02*
X18931890Y-10163810D01*
X18931890Y-10232390D02*
X18964910Y-10265410D01*
X18964910Y-10232390D02*
X18931890Y-10265410D01*
X19033490Y-9173960D02*
X19066510Y-9206980D01*
X19066510Y-9173960D02*
X19033490Y-9206980D01*
X19033490Y-9945370D02*
X19066510Y-9978390D01*
X19066510Y-9945370D02*
X19033490Y-9978390D01*
X19033490Y-10130790D02*
X19066510Y-10163810D01*
X19066510Y-10130790D02*
X19033490Y-10163810D01*
X19033490Y-10232390D02*
X19066510Y-10265410D01*
X19066510Y-10232390D02*
X19033490Y-10265410D01*
X19108490Y-10816590D02*
X19141510Y-10849610D01*
X19141510Y-10816590D02*
X19108490Y-10849610D01*
X19135090Y-10130790D02*
X19168110Y-10163810D01*
X19168110Y-10130790D02*
X19135090Y-10163810D01*
X19135090Y-10232390D02*
X19168110Y-10265410D01*
X19168110Y-10232390D02*
X19135090Y-10265410D01*
X19173190Y-9521190D02*
X19206210Y-9554210D01*
X19206210Y-9521190D02*
X19173190Y-9554210D01*
X19211290Y-10816590D02*
X19244310Y-10849610D01*
X19244310Y-10816590D02*
X19211290Y-10849610D01*
X19236690Y-9229090D02*
X19269710Y-9262110D01*
X19269710Y-9229090D02*
X19236690Y-9262110D01*
X19516090Y-9108441D02*
X19549110Y-9141461D01*
X19549110Y-9108441D02*
X19516090Y-9141461D01*
X19658329Y-10976610D02*
X19691349Y-11009630D01*
X19691349Y-10976610D02*
X19658329Y-11009630D01*
X19846291Y-10956290D02*
X19879311Y-10989310D01*
X19879311Y-10956290D02*
X19846291Y-10989310D01*
X19942810Y-9432290D02*
X19975830Y-9465310D01*
X19975830Y-9432290D02*
X19942810Y-9465310D01*
X20191730Y-10438130D02*
X20224750Y-10471150D01*
X20224750Y-10438130D02*
X20191730Y-10471150D01*
X20203490Y-10022550D02*
X20236510Y-10055570D01*
X20236510Y-10022550D02*
X20203490Y-10055570D01*
X18828500Y-8890000D02*
G75*
G03*
X18828500Y-8890000I-32500J0D01*
G01*
X18955500Y-8890000D02*
G75*
G03*
X18955500Y-8890000I-32500J0D01*
G01*
X19082500Y-8890000D02*
G75*
G03*
X19082500Y-8890000I-32500J0D01*
G01*
X19209500Y-8890000D02*
G75*
G03*
X19209500Y-8890000I-32500J0D01*
G01*
X19336500Y-8890000D02*
G75*
G03*
X19336500Y-8890000I-32500J0D01*
G01*
X18800000Y-11085000D02*
X18800000Y-11185000D01*
X18750000Y-11135000D02*
X18850000Y-11135000D01*
X19300000Y-11085000D02*
X19300000Y-11185000D01*
X19250000Y-11135000D02*
X19350000Y-11135000D01*
X18742427Y-11447427D02*
X18742427Y-11362573D01*
X18657573Y-11362573D01*
X18657573Y-11447427D01*
X18742427Y-11447427D01*
X19442427Y-11447427D02*
X19442427Y-11362573D01*
X19357573Y-11362573D01*
X19357573Y-11447427D01*
X19442427Y-11447427D01*
D12*
X17936928Y-12025214D02*
X17936928Y-11725214D01*
X18008357Y-11725214D01*
X18051214Y-11739500D01*
X18079786Y-11768071D01*
X18094071Y-11796643D01*
X18108357Y-11853786D01*
X18108357Y-11896643D01*
X18094071Y-11953786D01*
X18079786Y-11982357D01*
X18051214Y-12010929D01*
X18008357Y-12025214D01*
X17936928Y-12025214D01*
X18236928Y-12025214D02*
X18236928Y-11825214D01*
X18236928Y-11882357D02*
X18251214Y-11853786D01*
X18265500Y-11839500D01*
X18294071Y-11825214D01*
X18322643Y-11825214D01*
X18422643Y-12025214D02*
X18422643Y-11825214D01*
X18422643Y-11725214D02*
X18408357Y-11739500D01*
X18422643Y-11753786D01*
X18436928Y-11739500D01*
X18422643Y-11725214D01*
X18422643Y-11753786D01*
X18608357Y-12025214D02*
X18579786Y-12010929D01*
X18565500Y-11982357D01*
X18565500Y-11725214D01*
X18765500Y-12025214D02*
X18736928Y-12010929D01*
X18722643Y-11982357D01*
X18722643Y-11725214D01*
X19108357Y-12025214D02*
X19108357Y-11725214D01*
X19208357Y-11939500D01*
X19308357Y-11725214D01*
X19308357Y-12025214D01*
X19579786Y-12025214D02*
X19579786Y-11868071D01*
X19565500Y-11839500D01*
X19536928Y-11825214D01*
X19479786Y-11825214D01*
X19451214Y-11839500D01*
X19579786Y-12010929D02*
X19551214Y-12025214D01*
X19479786Y-12025214D01*
X19451214Y-12010929D01*
X19436928Y-11982357D01*
X19436928Y-11953786D01*
X19451214Y-11925214D01*
X19479786Y-11910929D01*
X19551214Y-11910929D01*
X19579786Y-11896643D01*
X19722643Y-11825214D02*
X19722643Y-12125214D01*
X19722643Y-11839500D02*
X19751214Y-11825214D01*
X19808357Y-11825214D01*
X19836928Y-11839500D01*
X19851214Y-11853786D01*
X19865500Y-11882357D01*
X19865500Y-11968071D01*
X19851214Y-11996643D01*
X19836928Y-12010929D01*
X19808357Y-12025214D01*
X19751214Y-12025214D01*
X19722643Y-12010929D01*
X19994071Y-11996643D02*
X20008357Y-12010929D01*
X19994071Y-12025214D01*
X19979786Y-12010929D01*
X19994071Y-11996643D01*
X19994071Y-12025214D01*
X19994071Y-11839500D02*
X20008357Y-11853786D01*
X19994071Y-11868071D01*
X19979786Y-11853786D01*
X19994071Y-11839500D01*
X19994071Y-11868071D01*
X17617480Y-12502990D02*
X17650500Y-12536010D01*
X17650500Y-12502990D02*
X17617480Y-12536010D01*
X17994071Y-12355214D02*
X18022643Y-12355214D01*
X18051214Y-12369500D01*
X18065500Y-12383786D01*
X18079786Y-12412357D01*
X18094071Y-12469500D01*
X18094071Y-12540929D01*
X18079786Y-12598071D01*
X18065500Y-12626643D01*
X18051214Y-12640929D01*
X18022643Y-12655214D01*
X17994071Y-12655214D01*
X17965500Y-12640929D01*
X17951214Y-12626643D01*
X17936928Y-12598071D01*
X17922643Y-12540929D01*
X17922643Y-12469500D01*
X17936928Y-12412357D01*
X17951214Y-12383786D01*
X17965500Y-12369500D01*
X17994071Y-12355214D01*
X18222643Y-12626643D02*
X18236928Y-12640929D01*
X18222643Y-12655214D01*
X18208357Y-12640929D01*
X18222643Y-12626643D01*
X18222643Y-12655214D01*
X18336928Y-12355214D02*
X18522643Y-12355214D01*
X18422643Y-12469500D01*
X18465500Y-12469500D01*
X18494071Y-12483786D01*
X18508357Y-12498071D01*
X18522643Y-12526643D01*
X18522643Y-12598071D01*
X18508357Y-12626643D01*
X18494071Y-12640929D01*
X18465500Y-12655214D01*
X18379786Y-12655214D01*
X18351214Y-12640929D01*
X18336928Y-12626643D01*
X18622643Y-12355214D02*
X18808357Y-12355214D01*
X18708357Y-12469500D01*
X18751214Y-12469500D01*
X18779786Y-12483786D01*
X18794071Y-12498071D01*
X18808357Y-12526643D01*
X18808357Y-12598071D01*
X18794071Y-12626643D01*
X18779786Y-12640929D01*
X18751214Y-12655214D01*
X18665500Y-12655214D01*
X18636928Y-12640929D01*
X18622643Y-12626643D01*
X18994071Y-12355214D02*
X19022643Y-12355214D01*
X19051214Y-12369500D01*
X19065500Y-12383786D01*
X19079786Y-12412357D01*
X19094071Y-12469500D01*
X19094071Y-12540929D01*
X19079786Y-12598071D01*
X19065500Y-12626643D01*
X19051214Y-12640929D01*
X19022643Y-12655214D01*
X18994071Y-12655214D01*
X18965500Y-12640929D01*
X18951214Y-12626643D01*
X18936928Y-12598071D01*
X18922643Y-12540929D01*
X18922643Y-12469500D01*
X18936928Y-12412357D01*
X18951214Y-12383786D01*
X18965500Y-12369500D01*
X18994071Y-12355214D01*
X19222643Y-12655214D02*
X19222643Y-12455214D01*
X19222643Y-12483786D02*
X19236928Y-12469500D01*
X19265500Y-12455214D01*
X19308357Y-12455214D01*
X19336928Y-12469500D01*
X19351214Y-12498071D01*
X19351214Y-12655214D01*
X19351214Y-12498071D02*
X19365500Y-12469500D01*
X19394071Y-12455214D01*
X19436928Y-12455214D01*
X19465500Y-12469500D01*
X19479786Y-12498071D01*
X19479786Y-12655214D01*
X19622643Y-12655214D02*
X19622643Y-12455214D01*
X19622643Y-12483786D02*
X19636928Y-12469500D01*
X19665500Y-12455214D01*
X19708357Y-12455214D01*
X19736928Y-12469500D01*
X19751214Y-12498071D01*
X19751214Y-12655214D01*
X19751214Y-12498071D02*
X19765500Y-12469500D01*
X19794071Y-12455214D01*
X19836928Y-12455214D01*
X19865500Y-12469500D01*
X19879786Y-12498071D01*
X19879786Y-12655214D01*
X20465500Y-12340929D02*
X20208357Y-12726643D01*
X20851214Y-12355214D02*
X20879786Y-12355214D01*
X20908357Y-12369500D01*
X20922643Y-12383786D01*
X20936928Y-12412357D01*
X20951214Y-12469500D01*
X20951214Y-12540929D01*
X20936928Y-12598071D01*
X20922643Y-12626643D01*
X20908357Y-12640929D01*
X20879786Y-12655214D01*
X20851214Y-12655214D01*
X20822643Y-12640929D01*
X20808357Y-12626643D01*
X20794071Y-12598071D01*
X20779786Y-12540929D01*
X20779786Y-12469500D01*
X20794071Y-12412357D01*
X20808357Y-12383786D01*
X20822643Y-12369500D01*
X20851214Y-12355214D01*
X21079786Y-12626643D02*
X21094071Y-12640929D01*
X21079786Y-12655214D01*
X21065500Y-12640929D01*
X21079786Y-12626643D01*
X21079786Y-12655214D01*
X21279786Y-12355214D02*
X21308357Y-12355214D01*
X21336928Y-12369500D01*
X21351214Y-12383786D01*
X21365500Y-12412357D01*
X21379786Y-12469500D01*
X21379786Y-12540929D01*
X21365500Y-12598071D01*
X21351214Y-12626643D01*
X21336928Y-12640929D01*
X21308357Y-12655214D01*
X21279786Y-12655214D01*
X21251214Y-12640929D01*
X21236928Y-12626643D01*
X21222643Y-12598071D01*
X21208357Y-12540929D01*
X21208357Y-12469500D01*
X21222643Y-12412357D01*
X21236928Y-12383786D01*
X21251214Y-12369500D01*
X21279786Y-12355214D01*
X21665500Y-12655214D02*
X21494071Y-12655214D01*
X21579786Y-12655214D02*
X21579786Y-12355214D01*
X21551214Y-12398071D01*
X21522643Y-12426643D01*
X21494071Y-12440929D01*
X21765500Y-12355214D02*
X21951214Y-12355214D01*
X21851214Y-12469500D01*
X21894071Y-12469500D01*
X21922643Y-12483786D01*
X21936928Y-12498071D01*
X21951214Y-12526643D01*
X21951214Y-12598071D01*
X21936928Y-12626643D01*
X21922643Y-12640929D01*
X21894071Y-12655214D01*
X21808357Y-12655214D01*
X21779786Y-12640929D01*
X21765500Y-12626643D01*
X22136928Y-12355214D02*
X22165500Y-12355214D01*
X22194071Y-12369500D01*
X22208357Y-12383786D01*
X22222643Y-12412357D01*
X22236928Y-12469500D01*
X22236928Y-12540929D01*
X22222643Y-12598071D01*
X22208357Y-12626643D01*
X22194071Y-12640929D01*
X22165500Y-12655214D01*
X22136928Y-12655214D01*
X22108357Y-12640929D01*
X22094071Y-12626643D01*
X22079786Y-12598071D01*
X22065500Y-12540929D01*
X22065500Y-12469500D01*
X22079786Y-12412357D01*
X22094071Y-12383786D01*
X22108357Y-12369500D01*
X22136928Y-12355214D01*
X22351214Y-12355214D02*
X22351214Y-12412357D01*
X22465500Y-12355214D02*
X22465500Y-12412357D01*
X22908357Y-12769500D02*
X22894071Y-12755214D01*
X22865500Y-12712357D01*
X22851214Y-12683786D01*
X22836928Y-12640929D01*
X22822643Y-12569500D01*
X22822643Y-12512357D01*
X22836928Y-12440929D01*
X22851214Y-12398071D01*
X22865500Y-12369500D01*
X22894071Y-12326643D01*
X22908357Y-12312357D01*
X23151214Y-12455214D02*
X23151214Y-12655214D01*
X23079786Y-12340929D02*
X23008357Y-12555214D01*
X23194071Y-12555214D01*
X23436928Y-12455214D02*
X23436928Y-12655214D01*
X23365500Y-12340929D02*
X23294071Y-12555214D01*
X23479786Y-12555214D01*
X23822643Y-12655214D02*
X23822643Y-12355214D01*
X23951214Y-12655214D02*
X23951214Y-12498071D01*
X23936928Y-12469500D01*
X23908357Y-12455214D01*
X23865500Y-12455214D01*
X23836928Y-12469500D01*
X23822643Y-12483786D01*
X24136928Y-12655214D02*
X24108357Y-12640929D01*
X24094071Y-12626643D01*
X24079786Y-12598071D01*
X24079786Y-12512357D01*
X24094071Y-12483786D01*
X24108357Y-12469500D01*
X24136928Y-12455214D01*
X24179786Y-12455214D01*
X24208357Y-12469500D01*
X24222643Y-12483786D01*
X24236928Y-12512357D01*
X24236928Y-12598071D01*
X24222643Y-12626643D01*
X24208357Y-12640929D01*
X24179786Y-12655214D01*
X24136928Y-12655214D01*
X24408357Y-12655214D02*
X24379786Y-12640929D01*
X24365500Y-12612357D01*
X24365500Y-12355214D01*
X24636928Y-12640929D02*
X24608357Y-12655214D01*
X24551214Y-12655214D01*
X24522643Y-12640929D01*
X24508357Y-12612357D01*
X24508357Y-12498071D01*
X24522643Y-12469500D01*
X24551214Y-12455214D01*
X24608357Y-12455214D01*
X24636928Y-12469500D01*
X24651214Y-12498071D01*
X24651214Y-12526643D01*
X24508357Y-12555214D01*
X24765500Y-12640929D02*
X24794071Y-12655214D01*
X24851214Y-12655214D01*
X24879786Y-12640929D01*
X24894071Y-12612357D01*
X24894071Y-12598071D01*
X24879786Y-12569500D01*
X24851214Y-12555214D01*
X24808357Y-12555214D01*
X24779786Y-12540929D01*
X24765500Y-12512357D01*
X24765500Y-12498071D01*
X24779786Y-12469500D01*
X24808357Y-12455214D01*
X24851214Y-12455214D01*
X24879786Y-12469500D01*
X24994071Y-12769500D02*
X25008357Y-12755214D01*
X25036928Y-12712357D01*
X25051214Y-12683786D01*
X25065500Y-12640929D01*
X25079786Y-12569500D01*
X25079786Y-12512357D01*
X25065500Y-12440929D01*
X25051214Y-12398071D01*
X25036928Y-12369500D01*
X25008357Y-12326643D01*
X24994071Y-12312357D01*
X17650500Y-12915500D02*
G75*
G03*
X17650500Y-12915500I-32500J0D01*
G01*
X17994071Y-12751214D02*
X18022643Y-12751214D01*
X18051214Y-12765500D01*
X18065500Y-12779786D01*
X18079786Y-12808357D01*
X18094071Y-12865500D01*
X18094071Y-12936929D01*
X18079786Y-12994071D01*
X18065500Y-13022643D01*
X18051214Y-13036929D01*
X18022643Y-13051214D01*
X17994071Y-13051214D01*
X17965500Y-13036929D01*
X17951214Y-13022643D01*
X17936928Y-12994071D01*
X17922643Y-12936929D01*
X17922643Y-12865500D01*
X17936928Y-12808357D01*
X17951214Y-12779786D01*
X17965500Y-12765500D01*
X17994071Y-12751214D01*
X18222643Y-13022643D02*
X18236928Y-13036929D01*
X18222643Y-13051214D01*
X18208357Y-13036929D01*
X18222643Y-13022643D01*
X18222643Y-13051214D01*
X18494071Y-12751214D02*
X18436928Y-12751214D01*
X18408357Y-12765500D01*
X18394071Y-12779786D01*
X18365500Y-12822643D01*
X18351214Y-12879786D01*
X18351214Y-12994071D01*
X18365500Y-13022643D01*
X18379786Y-13036929D01*
X18408357Y-13051214D01*
X18465500Y-13051214D01*
X18494071Y-13036929D01*
X18508357Y-13022643D01*
X18522643Y-12994071D01*
X18522643Y-12922643D01*
X18508357Y-12894071D01*
X18494071Y-12879786D01*
X18465500Y-12865500D01*
X18408357Y-12865500D01*
X18379786Y-12879786D01*
X18365500Y-12894071D01*
X18351214Y-12922643D01*
X18794071Y-12751214D02*
X18651214Y-12751214D01*
X18636928Y-12894071D01*
X18651214Y-12879786D01*
X18679786Y-12865500D01*
X18751214Y-12865500D01*
X18779786Y-12879786D01*
X18794071Y-12894071D01*
X18808357Y-12922643D01*
X18808357Y-12994071D01*
X18794071Y-13022643D01*
X18779786Y-13036929D01*
X18751214Y-13051214D01*
X18679786Y-13051214D01*
X18651214Y-13036929D01*
X18636928Y-13022643D01*
X18994071Y-12751214D02*
X19022643Y-12751214D01*
X19051214Y-12765500D01*
X19065500Y-12779786D01*
X19079786Y-12808357D01*
X19094071Y-12865500D01*
X19094071Y-12936929D01*
X19079786Y-12994071D01*
X19065500Y-13022643D01*
X19051214Y-13036929D01*
X19022643Y-13051214D01*
X18994071Y-13051214D01*
X18965500Y-13036929D01*
X18951214Y-13022643D01*
X18936928Y-12994071D01*
X18922643Y-12936929D01*
X18922643Y-12865500D01*
X18936928Y-12808357D01*
X18951214Y-12779786D01*
X18965500Y-12765500D01*
X18994071Y-12751214D01*
X19222643Y-13051214D02*
X19222643Y-12851214D01*
X19222643Y-12879786D02*
X19236928Y-12865500D01*
X19265500Y-12851214D01*
X19308357Y-12851214D01*
X19336928Y-12865500D01*
X19351214Y-12894071D01*
X19351214Y-13051214D01*
X19351214Y-12894071D02*
X19365500Y-12865500D01*
X19394071Y-12851214D01*
X19436928Y-12851214D01*
X19465500Y-12865500D01*
X19479786Y-12894071D01*
X19479786Y-13051214D01*
X19622643Y-13051214D02*
X19622643Y-12851214D01*
X19622643Y-12879786D02*
X19636928Y-12865500D01*
X19665500Y-12851214D01*
X19708357Y-12851214D01*
X19736928Y-12865500D01*
X19751214Y-12894071D01*
X19751214Y-13051214D01*
X19751214Y-12894071D02*
X19765500Y-12865500D01*
X19794071Y-12851214D01*
X19836928Y-12851214D01*
X19865500Y-12865500D01*
X19879786Y-12894071D01*
X19879786Y-13051214D01*
X20465500Y-12736929D02*
X20208357Y-13122643D01*
X20851214Y-12751214D02*
X20879786Y-12751214D01*
X20908357Y-12765500D01*
X20922643Y-12779786D01*
X20936928Y-12808357D01*
X20951214Y-12865500D01*
X20951214Y-12936929D01*
X20936928Y-12994071D01*
X20922643Y-13022643D01*
X20908357Y-13036929D01*
X20879786Y-13051214D01*
X20851214Y-13051214D01*
X20822643Y-13036929D01*
X20808357Y-13022643D01*
X20794071Y-12994071D01*
X20779786Y-12936929D01*
X20779786Y-12865500D01*
X20794071Y-12808357D01*
X20808357Y-12779786D01*
X20822643Y-12765500D01*
X20851214Y-12751214D01*
X21079786Y-13022643D02*
X21094071Y-13036929D01*
X21079786Y-13051214D01*
X21065500Y-13036929D01*
X21079786Y-13022643D01*
X21079786Y-13051214D01*
X21279786Y-12751214D02*
X21308357Y-12751214D01*
X21336928Y-12765500D01*
X21351214Y-12779786D01*
X21365500Y-12808357D01*
X21379786Y-12865500D01*
X21379786Y-12936929D01*
X21365500Y-12994071D01*
X21351214Y-13022643D01*
X21336928Y-13036929D01*
X21308357Y-13051214D01*
X21279786Y-13051214D01*
X21251214Y-13036929D01*
X21236928Y-13022643D01*
X21222643Y-12994071D01*
X21208357Y-12936929D01*
X21208357Y-12865500D01*
X21222643Y-12808357D01*
X21236928Y-12779786D01*
X21251214Y-12765500D01*
X21279786Y-12751214D01*
X21494071Y-12779786D02*
X21508357Y-12765500D01*
X21536928Y-12751214D01*
X21608357Y-12751214D01*
X21636928Y-12765500D01*
X21651214Y-12779786D01*
X21665500Y-12808357D01*
X21665500Y-12836929D01*
X21651214Y-12879786D01*
X21479786Y-13051214D01*
X21665500Y-13051214D01*
X21936928Y-12751214D02*
X21794071Y-12751214D01*
X21779786Y-12894071D01*
X21794071Y-12879786D01*
X21822643Y-12865500D01*
X21894071Y-12865500D01*
X21922643Y-12879786D01*
X21936928Y-12894071D01*
X21951214Y-12922643D01*
X21951214Y-12994071D01*
X21936928Y-13022643D01*
X21922643Y-13036929D01*
X21894071Y-13051214D01*
X21822643Y-13051214D01*
X21794071Y-13036929D01*
X21779786Y-13022643D01*
X22208357Y-12751214D02*
X22151214Y-12751214D01*
X22122643Y-12765500D01*
X22108357Y-12779786D01*
X22079786Y-12822643D01*
X22065500Y-12879786D01*
X22065500Y-12994071D01*
X22079786Y-13022643D01*
X22094071Y-13036929D01*
X22122643Y-13051214D01*
X22179786Y-13051214D01*
X22208357Y-13036929D01*
X22222643Y-13022643D01*
X22236928Y-12994071D01*
X22236928Y-12922643D01*
X22222643Y-12894071D01*
X22208357Y-12879786D01*
X22179786Y-12865500D01*
X22122643Y-12865500D01*
X22094071Y-12879786D01*
X22079786Y-12894071D01*
X22065500Y-12922643D01*
X22351214Y-12751214D02*
X22351214Y-12808357D01*
X22465500Y-12751214D02*
X22465500Y-12808357D01*
X22908357Y-13165500D02*
X22894071Y-13151214D01*
X22865500Y-13108357D01*
X22851214Y-13079786D01*
X22836928Y-13036929D01*
X22822643Y-12965500D01*
X22822643Y-12908357D01*
X22836928Y-12836929D01*
X22851214Y-12794071D01*
X22865500Y-12765500D01*
X22894071Y-12722643D01*
X22908357Y-12708357D01*
X23165500Y-12751214D02*
X23022643Y-12751214D01*
X23008357Y-12894071D01*
X23022643Y-12879786D01*
X23051214Y-12865500D01*
X23122643Y-12865500D01*
X23151214Y-12879786D01*
X23165500Y-12894071D01*
X23179786Y-12922643D01*
X23179786Y-12994071D01*
X23165500Y-13022643D01*
X23151214Y-13036929D01*
X23122643Y-13051214D01*
X23051214Y-13051214D01*
X23022643Y-13036929D01*
X23008357Y-13022643D01*
X23536928Y-13051214D02*
X23536928Y-12751214D01*
X23665500Y-13051214D02*
X23665500Y-12894071D01*
X23651214Y-12865500D01*
X23622643Y-12851214D01*
X23579786Y-12851214D01*
X23551214Y-12865500D01*
X23536928Y-12879786D01*
X23851214Y-13051214D02*
X23822643Y-13036929D01*
X23808357Y-13022643D01*
X23794071Y-12994071D01*
X23794071Y-12908357D01*
X23808357Y-12879786D01*
X23822643Y-12865500D01*
X23851214Y-12851214D01*
X23894071Y-12851214D01*
X23922643Y-12865500D01*
X23936928Y-12879786D01*
X23951214Y-12908357D01*
X23951214Y-12994071D01*
X23936928Y-13022643D01*
X23922643Y-13036929D01*
X23894071Y-13051214D01*
X23851214Y-13051214D01*
X24122643Y-13051214D02*
X24094071Y-13036929D01*
X24079786Y-13008357D01*
X24079786Y-12751214D01*
X24351214Y-13036929D02*
X24322643Y-13051214D01*
X24265500Y-13051214D01*
X24236928Y-13036929D01*
X24222643Y-13008357D01*
X24222643Y-12894071D01*
X24236928Y-12865500D01*
X24265500Y-12851214D01*
X24322643Y-12851214D01*
X24351214Y-12865500D01*
X24365500Y-12894071D01*
X24365500Y-12922643D01*
X24222643Y-12951214D01*
X24479786Y-13036929D02*
X24508357Y-13051214D01*
X24565500Y-13051214D01*
X24594071Y-13036929D01*
X24608357Y-13008357D01*
X24608357Y-12994071D01*
X24594071Y-12965500D01*
X24565500Y-12951214D01*
X24522643Y-12951214D01*
X24494071Y-12936929D01*
X24479786Y-12908357D01*
X24479786Y-12894071D01*
X24494071Y-12865500D01*
X24522643Y-12851214D01*
X24565500Y-12851214D01*
X24594071Y-12865500D01*
X24708357Y-13165500D02*
X24722643Y-13151214D01*
X24751214Y-13108357D01*
X24765500Y-13079786D01*
X24779786Y-13036929D01*
X24794071Y-12965500D01*
X24794071Y-12908357D01*
X24779786Y-12836929D01*
X24765500Y-12794071D01*
X24751214Y-12765500D01*
X24722643Y-12722643D01*
X24708357Y-12708357D01*
X17600500Y-13261500D02*
X17600500Y-13361500D01*
X17550500Y-13311500D02*
X17650500Y-13311500D01*
X18094071Y-13447214D02*
X17922643Y-13447214D01*
X18008357Y-13447214D02*
X18008357Y-13147214D01*
X17979786Y-13190071D01*
X17951214Y-13218643D01*
X17922643Y-13232929D01*
X18222643Y-13418643D02*
X18236928Y-13432929D01*
X18222643Y-13447214D01*
X18208357Y-13432929D01*
X18222643Y-13418643D01*
X18222643Y-13447214D01*
X18422643Y-13147214D02*
X18451214Y-13147214D01*
X18479786Y-13161500D01*
X18494071Y-13175786D01*
X18508357Y-13204357D01*
X18522643Y-13261500D01*
X18522643Y-13332929D01*
X18508357Y-13390071D01*
X18494071Y-13418643D01*
X18479786Y-13432929D01*
X18451214Y-13447214D01*
X18422643Y-13447214D01*
X18394071Y-13432929D01*
X18379786Y-13418643D01*
X18365500Y-13390071D01*
X18351214Y-13332929D01*
X18351214Y-13261500D01*
X18365500Y-13204357D01*
X18379786Y-13175786D01*
X18394071Y-13161500D01*
X18422643Y-13147214D01*
X18708357Y-13147214D02*
X18736928Y-13147214D01*
X18765500Y-13161500D01*
X18779786Y-13175786D01*
X18794071Y-13204357D01*
X18808357Y-13261500D01*
X18808357Y-13332929D01*
X18794071Y-13390071D01*
X18779786Y-13418643D01*
X18765500Y-13432929D01*
X18736928Y-13447214D01*
X18708357Y-13447214D01*
X18679786Y-13432929D01*
X18665500Y-13418643D01*
X18651214Y-13390071D01*
X18636928Y-13332929D01*
X18636928Y-13261500D01*
X18651214Y-13204357D01*
X18665500Y-13175786D01*
X18679786Y-13161500D01*
X18708357Y-13147214D01*
X18994071Y-13147214D02*
X19022643Y-13147214D01*
X19051214Y-13161500D01*
X19065500Y-13175786D01*
X19079786Y-13204357D01*
X19094071Y-13261500D01*
X19094071Y-13332929D01*
X19079786Y-13390071D01*
X19065500Y-13418643D01*
X19051214Y-13432929D01*
X19022643Y-13447214D01*
X18994071Y-13447214D01*
X18965500Y-13432929D01*
X18951214Y-13418643D01*
X18936928Y-13390071D01*
X18922643Y-13332929D01*
X18922643Y-13261500D01*
X18936928Y-13204357D01*
X18951214Y-13175786D01*
X18965500Y-13161500D01*
X18994071Y-13147214D01*
X19222643Y-13447214D02*
X19222643Y-13247214D01*
X19222643Y-13275786D02*
X19236928Y-13261500D01*
X19265500Y-13247214D01*
X19308357Y-13247214D01*
X19336928Y-13261500D01*
X19351214Y-13290071D01*
X19351214Y-13447214D01*
X19351214Y-13290071D02*
X19365500Y-13261500D01*
X19394071Y-13247214D01*
X19436928Y-13247214D01*
X19465500Y-13261500D01*
X19479786Y-13290071D01*
X19479786Y-13447214D01*
X19622643Y-13447214D02*
X19622643Y-13247214D01*
X19622643Y-13275786D02*
X19636928Y-13261500D01*
X19665500Y-13247214D01*
X19708357Y-13247214D01*
X19736928Y-13261500D01*
X19751214Y-13290071D01*
X19751214Y-13447214D01*
X19751214Y-13290071D02*
X19765500Y-13261500D01*
X19794071Y-13247214D01*
X19836928Y-13247214D01*
X19865500Y-13261500D01*
X19879786Y-13290071D01*
X19879786Y-13447214D01*
X20465500Y-13132929D02*
X20208357Y-13518643D01*
X20851214Y-13147214D02*
X20879786Y-13147214D01*
X20908357Y-13161500D01*
X20922643Y-13175786D01*
X20936928Y-13204357D01*
X20951214Y-13261500D01*
X20951214Y-13332929D01*
X20936928Y-13390071D01*
X20922643Y-13418643D01*
X20908357Y-13432929D01*
X20879786Y-13447214D01*
X20851214Y-13447214D01*
X20822643Y-13432929D01*
X20808357Y-13418643D01*
X20794071Y-13390071D01*
X20779786Y-13332929D01*
X20779786Y-13261500D01*
X20794071Y-13204357D01*
X20808357Y-13175786D01*
X20822643Y-13161500D01*
X20851214Y-13147214D01*
X21079786Y-13418643D02*
X21094071Y-13432929D01*
X21079786Y-13447214D01*
X21065500Y-13432929D01*
X21079786Y-13418643D01*
X21079786Y-13447214D01*
X21279786Y-13147214D02*
X21308357Y-13147214D01*
X21336928Y-13161500D01*
X21351214Y-13175786D01*
X21365500Y-13204357D01*
X21379786Y-13261500D01*
X21379786Y-13332929D01*
X21365500Y-13390071D01*
X21351214Y-13418643D01*
X21336928Y-13432929D01*
X21308357Y-13447214D01*
X21279786Y-13447214D01*
X21251214Y-13432929D01*
X21236928Y-13418643D01*
X21222643Y-13390071D01*
X21208357Y-13332929D01*
X21208357Y-13261500D01*
X21222643Y-13204357D01*
X21236928Y-13175786D01*
X21251214Y-13161500D01*
X21279786Y-13147214D01*
X21479786Y-13147214D02*
X21665500Y-13147214D01*
X21565500Y-13261500D01*
X21608357Y-13261500D01*
X21636928Y-13275786D01*
X21651214Y-13290071D01*
X21665500Y-13318643D01*
X21665500Y-13390071D01*
X21651214Y-13418643D01*
X21636928Y-13432929D01*
X21608357Y-13447214D01*
X21522643Y-13447214D01*
X21494071Y-13432929D01*
X21479786Y-13418643D01*
X21808357Y-13447214D02*
X21865500Y-13447214D01*
X21894071Y-13432929D01*
X21908357Y-13418643D01*
X21936928Y-13375786D01*
X21951214Y-13318643D01*
X21951214Y-13204357D01*
X21936928Y-13175786D01*
X21922643Y-13161500D01*
X21894071Y-13147214D01*
X21836928Y-13147214D01*
X21808357Y-13161500D01*
X21794071Y-13175786D01*
X21779786Y-13204357D01*
X21779786Y-13275786D01*
X21794071Y-13304357D01*
X21808357Y-13318643D01*
X21836928Y-13332929D01*
X21894071Y-13332929D01*
X21922643Y-13318643D01*
X21936928Y-13304357D01*
X21951214Y-13275786D01*
X22208357Y-13247214D02*
X22208357Y-13447214D01*
X22136928Y-13132929D02*
X22065500Y-13347214D01*
X22251214Y-13347214D01*
X22351214Y-13147214D02*
X22351214Y-13204357D01*
X22465500Y-13147214D02*
X22465500Y-13204357D01*
X22908357Y-13561500D02*
X22894071Y-13547214D01*
X22865500Y-13504357D01*
X22851214Y-13475786D01*
X22836928Y-13432929D01*
X22822643Y-13361500D01*
X22822643Y-13304357D01*
X22836928Y-13232929D01*
X22851214Y-13190071D01*
X22865500Y-13161500D01*
X22894071Y-13118643D01*
X22908357Y-13104357D01*
X23008357Y-13175786D02*
X23022643Y-13161500D01*
X23051214Y-13147214D01*
X23122643Y-13147214D01*
X23151214Y-13161500D01*
X23165500Y-13175786D01*
X23179786Y-13204357D01*
X23179786Y-13232929D01*
X23165500Y-13275786D01*
X22994071Y-13447214D01*
X23179786Y-13447214D01*
X23536928Y-13447214D02*
X23536928Y-13147214D01*
X23665500Y-13447214D02*
X23665500Y-13290071D01*
X23651214Y-13261500D01*
X23622643Y-13247214D01*
X23579786Y-13247214D01*
X23551214Y-13261500D01*
X23536928Y-13275786D01*
X23851214Y-13447214D02*
X23822643Y-13432929D01*
X23808357Y-13418643D01*
X23794071Y-13390071D01*
X23794071Y-13304357D01*
X23808357Y-13275786D01*
X23822643Y-13261500D01*
X23851214Y-13247214D01*
X23894071Y-13247214D01*
X23922643Y-13261500D01*
X23936928Y-13275786D01*
X23951214Y-13304357D01*
X23951214Y-13390071D01*
X23936928Y-13418643D01*
X23922643Y-13432929D01*
X23894071Y-13447214D01*
X23851214Y-13447214D01*
X24122643Y-13447214D02*
X24094071Y-13432929D01*
X24079786Y-13404357D01*
X24079786Y-13147214D01*
X24351214Y-13432929D02*
X24322643Y-13447214D01*
X24265500Y-13447214D01*
X24236928Y-13432929D01*
X24222643Y-13404357D01*
X24222643Y-13290071D01*
X24236928Y-13261500D01*
X24265500Y-13247214D01*
X24322643Y-13247214D01*
X24351214Y-13261500D01*
X24365500Y-13290071D01*
X24365500Y-13318643D01*
X24222643Y-13347214D01*
X24479786Y-13432929D02*
X24508357Y-13447214D01*
X24565500Y-13447214D01*
X24594071Y-13432929D01*
X24608357Y-13404357D01*
X24608357Y-13390071D01*
X24594071Y-13361500D01*
X24565500Y-13347214D01*
X24522643Y-13347214D01*
X24494071Y-13332929D01*
X24479786Y-13304357D01*
X24479786Y-13290071D01*
X24494071Y-13261500D01*
X24522643Y-13247214D01*
X24565500Y-13247214D01*
X24594071Y-13261500D01*
X24708357Y-13561500D02*
X24722643Y-13547214D01*
X24751214Y-13504357D01*
X24765500Y-13475786D01*
X24779786Y-13432929D01*
X24794071Y-13361500D01*
X24794071Y-13304357D01*
X24779786Y-13232929D01*
X24765500Y-13190071D01*
X24751214Y-13161500D01*
X24722643Y-13118643D01*
X24708357Y-13104357D01*
X17632927Y-13749927D02*
X17632927Y-13665073D01*
X17548073Y-13665073D01*
X17548073Y-13749927D01*
X17632927Y-13749927D01*
X18094071Y-13843214D02*
X17922643Y-13843214D01*
X18008357Y-13843214D02*
X18008357Y-13543214D01*
X17979786Y-13586071D01*
X17951214Y-13614643D01*
X17922643Y-13628929D01*
X18222643Y-13814643D02*
X18236928Y-13828929D01*
X18222643Y-13843214D01*
X18208357Y-13828929D01*
X18222643Y-13814643D01*
X18222643Y-13843214D01*
X18351214Y-13571786D02*
X18365500Y-13557500D01*
X18394071Y-13543214D01*
X18465500Y-13543214D01*
X18494071Y-13557500D01*
X18508357Y-13571786D01*
X18522643Y-13600357D01*
X18522643Y-13628929D01*
X18508357Y-13671786D01*
X18336928Y-13843214D01*
X18522643Y-13843214D01*
X18708357Y-13543214D02*
X18736928Y-13543214D01*
X18765500Y-13557500D01*
X18779786Y-13571786D01*
X18794071Y-13600357D01*
X18808357Y-13657500D01*
X18808357Y-13728929D01*
X18794071Y-13786071D01*
X18779786Y-13814643D01*
X18765500Y-13828929D01*
X18736928Y-13843214D01*
X18708357Y-13843214D01*
X18679786Y-13828929D01*
X18665500Y-13814643D01*
X18651214Y-13786071D01*
X18636928Y-13728929D01*
X18636928Y-13657500D01*
X18651214Y-13600357D01*
X18665500Y-13571786D01*
X18679786Y-13557500D01*
X18708357Y-13543214D01*
X18994071Y-13543214D02*
X19022643Y-13543214D01*
X19051214Y-13557500D01*
X19065500Y-13571786D01*
X19079786Y-13600357D01*
X19094071Y-13657500D01*
X19094071Y-13728929D01*
X19079786Y-13786071D01*
X19065500Y-13814643D01*
X19051214Y-13828929D01*
X19022643Y-13843214D01*
X18994071Y-13843214D01*
X18965500Y-13828929D01*
X18951214Y-13814643D01*
X18936928Y-13786071D01*
X18922643Y-13728929D01*
X18922643Y-13657500D01*
X18936928Y-13600357D01*
X18951214Y-13571786D01*
X18965500Y-13557500D01*
X18994071Y-13543214D01*
X19222643Y-13843214D02*
X19222643Y-13643214D01*
X19222643Y-13671786D02*
X19236928Y-13657500D01*
X19265500Y-13643214D01*
X19308357Y-13643214D01*
X19336928Y-13657500D01*
X19351214Y-13686071D01*
X19351214Y-13843214D01*
X19351214Y-13686071D02*
X19365500Y-13657500D01*
X19394071Y-13643214D01*
X19436928Y-13643214D01*
X19465500Y-13657500D01*
X19479786Y-13686071D01*
X19479786Y-13843214D01*
X19622643Y-13843214D02*
X19622643Y-13643214D01*
X19622643Y-13671786D02*
X19636928Y-13657500D01*
X19665500Y-13643214D01*
X19708357Y-13643214D01*
X19736928Y-13657500D01*
X19751214Y-13686071D01*
X19751214Y-13843214D01*
X19751214Y-13686071D02*
X19765500Y-13657500D01*
X19794071Y-13643214D01*
X19836928Y-13643214D01*
X19865500Y-13657500D01*
X19879786Y-13686071D01*
X19879786Y-13843214D01*
X20465500Y-13528929D02*
X20208357Y-13914643D01*
X20851214Y-13543214D02*
X20879786Y-13543214D01*
X20908357Y-13557500D01*
X20922643Y-13571786D01*
X20936928Y-13600357D01*
X20951214Y-13657500D01*
X20951214Y-13728929D01*
X20936928Y-13786071D01*
X20922643Y-13814643D01*
X20908357Y-13828929D01*
X20879786Y-13843214D01*
X20851214Y-13843214D01*
X20822643Y-13828929D01*
X20808357Y-13814643D01*
X20794071Y-13786071D01*
X20779786Y-13728929D01*
X20779786Y-13657500D01*
X20794071Y-13600357D01*
X20808357Y-13571786D01*
X20822643Y-13557500D01*
X20851214Y-13543214D01*
X21079786Y-13814643D02*
X21094071Y-13828929D01*
X21079786Y-13843214D01*
X21065500Y-13828929D01*
X21079786Y-13814643D01*
X21079786Y-13843214D01*
X21279786Y-13543214D02*
X21308357Y-13543214D01*
X21336928Y-13557500D01*
X21351214Y-13571786D01*
X21365500Y-13600357D01*
X21379786Y-13657500D01*
X21379786Y-13728929D01*
X21365500Y-13786071D01*
X21351214Y-13814643D01*
X21336928Y-13828929D01*
X21308357Y-13843214D01*
X21279786Y-13843214D01*
X21251214Y-13828929D01*
X21236928Y-13814643D01*
X21222643Y-13786071D01*
X21208357Y-13728929D01*
X21208357Y-13657500D01*
X21222643Y-13600357D01*
X21236928Y-13571786D01*
X21251214Y-13557500D01*
X21279786Y-13543214D01*
X21636928Y-13643214D02*
X21636928Y-13843214D01*
X21565500Y-13528929D02*
X21494071Y-13743214D01*
X21679786Y-13743214D01*
X21765500Y-13543214D02*
X21965500Y-13543214D01*
X21836928Y-13843214D01*
X22065500Y-13571786D02*
X22079786Y-13557500D01*
X22108357Y-13543214D01*
X22179786Y-13543214D01*
X22208357Y-13557500D01*
X22222643Y-13571786D01*
X22236928Y-13600357D01*
X22236928Y-13628929D01*
X22222643Y-13671786D01*
X22051214Y-13843214D01*
X22236928Y-13843214D01*
X22351214Y-13543214D02*
X22351214Y-13600357D01*
X22465500Y-13543214D02*
X22465500Y-13600357D01*
X22908357Y-13957500D02*
X22894071Y-13943214D01*
X22865500Y-13900357D01*
X22851214Y-13871786D01*
X22836928Y-13828929D01*
X22822643Y-13757500D01*
X22822643Y-13700357D01*
X22836928Y-13628929D01*
X22851214Y-13586071D01*
X22865500Y-13557500D01*
X22894071Y-13514643D01*
X22908357Y-13500357D01*
X23008357Y-13571786D02*
X23022643Y-13557500D01*
X23051214Y-13543214D01*
X23122643Y-13543214D01*
X23151214Y-13557500D01*
X23165500Y-13571786D01*
X23179786Y-13600357D01*
X23179786Y-13628929D01*
X23165500Y-13671786D01*
X22994071Y-13843214D01*
X23179786Y-13843214D01*
X23536928Y-13843214D02*
X23536928Y-13543214D01*
X23665500Y-13843214D02*
X23665500Y-13686071D01*
X23651214Y-13657500D01*
X23622643Y-13643214D01*
X23579786Y-13643214D01*
X23551214Y-13657500D01*
X23536928Y-13671786D01*
X23851214Y-13843214D02*
X23822643Y-13828929D01*
X23808357Y-13814643D01*
X23794071Y-13786071D01*
X23794071Y-13700357D01*
X23808357Y-13671786D01*
X23822643Y-13657500D01*
X23851214Y-13643214D01*
X23894071Y-13643214D01*
X23922643Y-13657500D01*
X23936928Y-13671786D01*
X23951214Y-13700357D01*
X23951214Y-13786071D01*
X23936928Y-13814643D01*
X23922643Y-13828929D01*
X23894071Y-13843214D01*
X23851214Y-13843214D01*
X24122643Y-13843214D02*
X24094071Y-13828929D01*
X24079786Y-13800357D01*
X24079786Y-13543214D01*
X24351214Y-13828929D02*
X24322643Y-13843214D01*
X24265500Y-13843214D01*
X24236928Y-13828929D01*
X24222643Y-13800357D01*
X24222643Y-13686071D01*
X24236928Y-13657500D01*
X24265500Y-13643214D01*
X24322643Y-13643214D01*
X24351214Y-13657500D01*
X24365500Y-13686071D01*
X24365500Y-13714643D01*
X24222643Y-13743214D01*
X24479786Y-13828929D02*
X24508357Y-13843214D01*
X24565500Y-13843214D01*
X24594071Y-13828929D01*
X24608357Y-13800357D01*
X24608357Y-13786071D01*
X24594071Y-13757500D01*
X24565500Y-13743214D01*
X24522643Y-13743214D01*
X24494071Y-13728929D01*
X24479786Y-13700357D01*
X24479786Y-13686071D01*
X24494071Y-13657500D01*
X24522643Y-13643214D01*
X24565500Y-13643214D01*
X24594071Y-13657500D01*
X24708357Y-13957500D02*
X24722643Y-13943214D01*
X24751214Y-13900357D01*
X24765500Y-13871786D01*
X24779786Y-13828929D01*
X24794071Y-13757500D01*
X24794071Y-13700357D01*
X24779786Y-13628929D01*
X24765500Y-13586071D01*
X24751214Y-13557500D01*
X24722643Y-13514643D01*
X24708357Y-13500357D01*
M02*
