M48
; DRILL file {KiCad (5.1.12)-1} date 11/24/21 10:50:14
; FORMAT={-:-/ absolute / metric / decimal}
; #@! TF.CreationDate,2021-11-24T10:50:14+01:00
; #@! TF.GenerationSoftware,Kicad,Pcbnew,(5.1.12)-1
; #@! TF.FileFunction,Plated,1,4,PTH
FMAT,2
METRIC
T1C0.330
T2C0.650
T3C1.000
T4C1.200
%
G90
G05
T1
X178.054Y-100.686
X178.054Y-101.6
X178.059Y-104.722
X178.156Y-99.797
X178.315Y-105.52
X178.435Y-97.917
X178.576Y-106.317
X178.919Y-107.082
X179.169Y-102.54
X179.355Y-107.798
X179.828Y-108.506
X180.035Y-97.028
X180.34Y-109.322
X181.407Y-96.418
X181.724Y-107.696
X182.499Y-98.171
X182.626Y-109.347
X183.896Y-98.958
X184.201Y-93.116
X185.064Y-99.619
X185.268Y-105.715
X185.547Y-96.647
X186.182Y-97.282
X186.284Y-111.15
X186.334Y-106.807
X188.468Y-91.948
X189.484Y-101.473
X189.484Y-102.489
X190.5Y-91.905
X190.5Y-99.619
X190.5Y-101.473
X190.5Y-102.489
X191.25Y-108.331
X191.516Y-101.473
X191.516Y-102.489
X191.897Y-95.377
X192.278Y-108.331
X192.532Y-92.456
X195.326Y-91.25
X196.748Y-109.931
X198.628Y-109.728
X199.593Y-94.488
X202.082Y-104.546
X202.2Y-100.391
T2
X187.96Y-88.9
X189.23Y-88.9
X190.5Y-88.9
X191.77Y-88.9
X193.04Y-88.9
T3
X188.0Y-111.35
X193.0Y-111.35
T4
X187.0Y-114.05
X194.0Y-114.05
T0
M30
