G04 #@! TF.GenerationSoftware,KiCad,Pcbnew,(5.1.12)-1*
G04 #@! TF.CreationDate,2021-11-24T10:48:37+01:00*
G04 #@! TF.ProjectId,solo-nixie,736f6c6f-2d6e-4697-9869-652e6b696361,rev?*
G04 #@! TF.SameCoordinates,Original*
G04 #@! TF.FileFunction,Copper,L2,Inr*
G04 #@! TF.FilePolarity,Positive*
%FSLAX46Y46*%
G04 Gerber Fmt 4.6, Leading zero omitted, Abs format (unit mm)*
G04 Created by KiCad (PCBNEW (5.1.12)-1) date 2021-11-24 10:48:37*
%MOMM*%
%LPD*%
G01*
G04 APERTURE LIST*
G04 #@! TA.AperFunction,ComponentPad*
%ADD10O,1.000000X1.000000*%
G04 #@! TD*
G04 #@! TA.AperFunction,ComponentPad*
%ADD11C,1.000000*%
G04 #@! TD*
G04 #@! TA.AperFunction,ComponentPad*
%ADD12C,1.600000*%
G04 #@! TD*
G04 #@! TA.AperFunction,ComponentPad*
%ADD13C,1.250000*%
G04 #@! TD*
G04 #@! TA.AperFunction,ViaPad*
%ADD14C,0.685800*%
G04 #@! TD*
G04 #@! TA.AperFunction,Conductor*
%ADD15C,0.152400*%
G04 #@! TD*
G04 #@! TA.AperFunction,Conductor*
%ADD16C,0.304800*%
G04 #@! TD*
G04 #@! TA.AperFunction,Conductor*
%ADD17C,0.127000*%
G04 #@! TD*
G04 APERTURE END LIST*
D10*
X187960000Y-88900000D03*
X189230000Y-88900000D03*
X190500000Y-88900000D03*
X191770000Y-88900000D03*
D11*
X193040000Y-88900000D03*
D12*
X187000000Y-114050000D03*
X194000000Y-114050000D03*
D13*
X188000000Y-111350000D03*
X193000000Y-111350000D03*
D14*
X191516000Y-102489000D03*
X189484000Y-102489000D03*
X191516000Y-101473000D03*
X189484000Y-101473000D03*
X190500000Y-101473000D03*
X190500000Y-102489000D03*
X191897000Y-95377000D03*
X185064400Y-99618800D03*
X191250004Y-108331000D03*
X192278000Y-108331000D03*
X186182000Y-97282000D03*
X190500000Y-91904700D03*
X185547000Y-96647000D03*
X192532000Y-92456000D03*
X185267600Y-105714800D03*
X186283598Y-111150400D03*
X183895996Y-98958401D03*
X181406796Y-96418400D03*
X196748389Y-109931200D03*
X190500000Y-99618800D03*
X178435000Y-97917002D03*
X186334400Y-106807000D03*
X178054000Y-100685600D03*
X178058851Y-104722363D03*
X202082400Y-104546400D03*
X178314983Y-105520483D03*
X202200000Y-100390600D03*
X178576217Y-106316947D03*
X199593200Y-94488000D03*
X178918754Y-107081975D03*
X195326000Y-91249510D03*
X179828013Y-108505733D03*
X188468000Y-91948000D03*
X180340000Y-109321600D03*
X184200800Y-93116400D03*
X179169369Y-102539789D03*
X181724321Y-107696000D03*
X179354907Y-107797774D03*
X180035204Y-97028000D03*
X178155607Y-99796611D03*
X198628006Y-109728000D03*
X178054000Y-101600000D03*
X182626000Y-109347000D03*
X182499000Y-98171000D03*
D15*
X191770000Y-95250000D02*
X191897000Y-95377000D01*
D16*
X187655200Y-99618800D02*
X185064400Y-99618800D01*
X191897000Y-95377000D02*
X187655200Y-99618800D01*
X193852800Y-93421200D02*
X191897000Y-95377000D01*
X193852800Y-91440000D02*
X193852800Y-93421200D01*
X191770000Y-89357200D02*
X193852800Y-91440000D01*
X191770000Y-88900000D02*
X191770000Y-89357200D01*
X183515000Y-106045000D02*
X185801000Y-108331000D01*
X183515000Y-101168200D02*
X183515000Y-106045000D01*
X185064400Y-99618800D02*
X183515000Y-101168200D01*
X185801000Y-108331000D02*
X191069000Y-108331000D01*
D15*
X191069000Y-108331000D02*
X191250004Y-108331000D01*
D16*
X191069000Y-108331000D02*
X192278000Y-108331000D01*
D15*
X184658000Y-96012000D02*
X186944000Y-93726000D01*
X184658000Y-97028000D02*
X184658000Y-96012000D01*
X186944000Y-93726000D02*
X188678700Y-93726000D01*
X185254899Y-97624899D02*
X184658000Y-97028000D01*
X185839101Y-97624899D02*
X185254899Y-97624899D01*
X188678700Y-93726000D02*
X190500000Y-91904700D01*
X186182000Y-97282000D02*
X185839101Y-97624899D01*
X189738000Y-95250000D02*
X192532000Y-92456000D01*
X186944000Y-95250000D02*
X189738000Y-95250000D01*
X185547000Y-96647000D02*
X186944000Y-95250000D01*
X191846200Y-105714800D02*
X185267600Y-105714800D01*
X194614800Y-102946200D02*
X191846200Y-105714800D01*
X194614800Y-90453211D02*
X194614800Y-102946200D01*
X193061589Y-88900000D02*
X194614800Y-90453211D01*
X193040000Y-88900000D02*
X193061589Y-88900000D01*
X189230000Y-89670000D02*
X189230000Y-88900000D01*
X183895996Y-95004004D02*
X189230000Y-89670000D01*
X183895996Y-98958401D02*
X183895996Y-95004004D01*
X187960000Y-88900000D02*
X186814667Y-88900000D01*
X181406796Y-94307871D02*
X181406796Y-96418400D01*
X186814667Y-88900000D02*
X181406796Y-94307871D01*
X181864000Y-101346002D02*
X178435000Y-97917002D01*
X181864000Y-105537000D02*
X181864000Y-101346002D01*
X185801000Y-109474000D02*
X181864000Y-105537000D01*
X193400000Y-108900000D02*
X192826000Y-109474000D01*
X193400000Y-107700000D02*
X193400000Y-108900000D01*
X186563000Y-107442000D02*
X186817000Y-107188000D01*
X186055000Y-107442000D02*
X186563000Y-107442000D01*
X184658000Y-106045000D02*
X186055000Y-107442000D01*
X184658000Y-103886000D02*
X184658000Y-106045000D01*
X188925200Y-99618800D02*
X184658000Y-103886000D01*
X186817000Y-107188000D02*
X192888000Y-107188000D01*
X192826000Y-109474000D02*
X185801000Y-109474000D01*
X192888000Y-107188000D02*
X193400000Y-107700000D01*
X190500000Y-99618800D02*
X188925200Y-99618800D01*
X177584097Y-100215697D02*
X178054000Y-100685600D01*
X185674744Y-109778811D02*
X181533811Y-105637878D01*
X193704811Y-107573744D02*
X193704811Y-109026256D01*
X177584097Y-99496877D02*
X177584097Y-100215697D01*
X186334400Y-106807000D02*
X192938067Y-106807000D01*
X177855873Y-99225101D02*
X177584097Y-99496877D01*
X179158168Y-99225101D02*
X177855873Y-99225101D01*
X192938067Y-106807000D02*
X193704811Y-107573744D01*
X181533811Y-105637878D02*
X181533811Y-101600744D01*
X192952256Y-109778811D02*
X185674744Y-109778811D01*
X193704811Y-109026256D02*
X192952256Y-109778811D01*
X181533811Y-101600744D02*
X179158168Y-99225101D01*
X202082400Y-104546400D02*
X201600000Y-105028800D01*
X178636363Y-104722363D02*
X178058851Y-104722363D01*
X200200000Y-108791000D02*
X200200000Y-109807000D01*
X184623599Y-112623599D02*
X181711600Y-109711600D01*
X181102000Y-108077000D02*
X181102000Y-107188000D01*
X201600000Y-105028800D02*
X201600000Y-107391000D01*
X200200000Y-109807000D02*
X199030589Y-110976411D01*
X181102000Y-107188000D02*
X178636363Y-104722363D01*
X201600000Y-107391000D02*
X200200000Y-108791000D01*
X199030589Y-110976411D02*
X197773089Y-110976411D01*
X197773089Y-110976411D02*
X196125901Y-112623599D01*
X196125901Y-112623599D02*
X184623599Y-112623599D01*
X181711600Y-109711600D02*
X181711600Y-108686600D01*
X181711600Y-108686600D02*
X181102000Y-108077000D01*
X178799916Y-105520483D02*
X178314983Y-105520483D01*
X180721000Y-107441567D02*
X178799916Y-105520483D01*
X180721000Y-108331000D02*
X180721000Y-107441567D01*
X202200000Y-100390600D02*
X202834600Y-101025200D01*
X202834600Y-101025200D02*
X202834600Y-104949900D01*
X181305200Y-109905200D02*
X181305200Y-108915200D01*
X184328410Y-112928410D02*
X181305200Y-109905200D01*
X202000000Y-107499000D02*
X200600000Y-108899000D01*
X202000000Y-105784500D02*
X202000000Y-107499000D01*
X181305200Y-108915200D02*
X180721000Y-108331000D01*
X200600000Y-108899000D02*
X200600000Y-109915000D01*
X202834600Y-104949900D02*
X202000000Y-105784500D01*
X200600000Y-109915000D02*
X199136000Y-111379000D01*
X199136000Y-111379000D02*
X197921000Y-111379000D01*
X197921000Y-111379000D02*
X196371590Y-112928410D01*
X196371590Y-112928410D02*
X184328410Y-112928410D01*
X196236586Y-109258101D02*
X198158107Y-109258101D01*
X185586565Y-110121699D02*
X195372988Y-110121699D01*
X181229000Y-105764134D02*
X185586565Y-110121699D01*
X181229000Y-101727000D02*
X181229000Y-105764134D01*
X179298611Y-99796611D02*
X181229000Y-101727000D01*
X198158107Y-109258101D02*
X198628006Y-109728000D01*
X195372988Y-110121699D02*
X196236586Y-109258101D01*
X178155607Y-99796611D02*
X179298611Y-99796611D01*
X178689000Y-100965000D02*
X178054000Y-101600000D01*
X179959000Y-100965000D02*
X178689000Y-100965000D01*
X180836400Y-101842400D02*
X179959000Y-100965000D01*
X182626000Y-107592200D02*
X180836400Y-105802600D01*
X180836400Y-105802600D02*
X180836400Y-101842400D01*
X182626000Y-109347000D02*
X182626000Y-107592200D01*
X192320516Y-88004951D02*
X193755268Y-88275479D01*
X195153136Y-88696979D01*
X196498282Y-89264675D01*
X197775465Y-89972135D01*
X198970215Y-90811344D01*
X200068993Y-91772793D01*
X201059351Y-92845587D01*
X201930067Y-94017573D01*
X202671276Y-95275471D01*
X203274580Y-96605028D01*
X203733142Y-97991180D01*
X204041768Y-99418221D01*
X204196960Y-100869983D01*
X204196960Y-102330017D01*
X204041768Y-103781779D01*
X203733142Y-105208820D01*
X203274580Y-106594972D01*
X202671276Y-107924529D01*
X201930067Y-109182427D01*
X201059351Y-110354413D01*
X200068993Y-111427207D01*
X198970215Y-112388656D01*
X197775465Y-113227865D01*
X196498282Y-113935325D01*
X195153136Y-114503021D01*
X194808415Y-114606965D01*
X194804621Y-114603171D01*
X194928225Y-114504622D01*
X194999081Y-114314799D01*
X195031544Y-114114800D01*
X195024364Y-113912311D01*
X194977820Y-113715113D01*
X194928225Y-113595378D01*
X194804619Y-113496828D01*
X194251447Y-114050000D01*
X194265590Y-114064143D01*
X194014143Y-114315590D01*
X194000000Y-114301447D01*
X193446828Y-114854619D01*
X193535586Y-114965943D01*
X192320516Y-115195049D01*
X190865138Y-115311539D01*
X189405622Y-115272672D01*
X187958506Y-115078889D01*
X187469595Y-114959445D01*
X187553172Y-114854619D01*
X187000000Y-114301447D01*
X186985858Y-114315590D01*
X186734411Y-114064143D01*
X186748553Y-114050000D01*
X187251447Y-114050000D01*
X187804619Y-114603172D01*
X187928225Y-114504622D01*
X187999081Y-114314799D01*
X188031544Y-114114800D01*
X188026949Y-113985200D01*
X192968456Y-113985200D01*
X192975636Y-114187689D01*
X193022180Y-114384887D01*
X193071775Y-114504622D01*
X193195381Y-114603172D01*
X193748553Y-114050000D01*
X193195381Y-113496828D01*
X193071775Y-113595378D01*
X193000919Y-113785201D01*
X192968456Y-113985200D01*
X188026949Y-113985200D01*
X188024364Y-113912311D01*
X187977820Y-113715113D01*
X187928225Y-113595378D01*
X187804619Y-113496828D01*
X187251447Y-114050000D01*
X186748553Y-114050000D01*
X186195381Y-113496828D01*
X186071775Y-113595378D01*
X186000919Y-113785201D01*
X185968456Y-113985200D01*
X185975636Y-114187689D01*
X186022180Y-114384887D01*
X186071775Y-114504622D01*
X186195379Y-114603171D01*
X186191802Y-114606748D01*
X185166732Y-114237084D01*
X183853706Y-113598600D01*
X182615986Y-112824168D01*
X181467595Y-111922562D01*
X180421544Y-110903996D01*
X179489686Y-109780013D01*
X178682580Y-108563347D01*
X178009369Y-107267784D01*
X177477683Y-105908002D01*
X177093544Y-104499409D01*
X176861306Y-103057964D01*
X176830689Y-102483501D01*
X178597869Y-102483501D01*
X178597869Y-102596077D01*
X178619832Y-102706489D01*
X178662912Y-102810496D01*
X178725456Y-102904099D01*
X178805059Y-102983702D01*
X178898662Y-103046246D01*
X179002669Y-103089326D01*
X179113081Y-103111289D01*
X179225657Y-103111289D01*
X179336069Y-103089326D01*
X179440076Y-103046246D01*
X179533679Y-102983702D01*
X179613282Y-102904099D01*
X179675826Y-102810496D01*
X179718906Y-102706489D01*
X179740869Y-102596077D01*
X179740869Y-102483501D01*
X179718906Y-102373089D01*
X179675826Y-102269082D01*
X179613282Y-102175479D01*
X179533679Y-102095876D01*
X179440076Y-102033332D01*
X179336069Y-101990252D01*
X179225657Y-101968289D01*
X179113081Y-101968289D01*
X179002669Y-101990252D01*
X178898662Y-102033332D01*
X178805059Y-102095876D01*
X178725456Y-102175479D01*
X178662912Y-102269082D01*
X178619832Y-102373089D01*
X178597869Y-102483501D01*
X176830689Y-102483501D01*
X176783600Y-101600000D01*
X176861306Y-100142036D01*
X176965250Y-99496877D01*
X177277824Y-99496877D01*
X177279297Y-99511835D01*
X177279298Y-100200729D01*
X177277824Y-100215697D01*
X177283708Y-100275448D01*
X177301137Y-100332902D01*
X177301138Y-100332903D01*
X177329440Y-100385854D01*
X177367530Y-100432265D01*
X177379153Y-100441804D01*
X177496464Y-100559115D01*
X177482500Y-100629312D01*
X177482500Y-100741888D01*
X177504463Y-100852300D01*
X177547543Y-100956307D01*
X177610087Y-101049910D01*
X177689690Y-101129513D01*
X177709575Y-101142800D01*
X177689690Y-101156087D01*
X177610087Y-101235690D01*
X177547543Y-101329293D01*
X177504463Y-101433300D01*
X177482500Y-101543712D01*
X177482500Y-101656288D01*
X177504463Y-101766700D01*
X177547543Y-101870707D01*
X177610087Y-101964310D01*
X177689690Y-102043913D01*
X177783293Y-102106457D01*
X177887300Y-102149537D01*
X177997712Y-102171500D01*
X178110288Y-102171500D01*
X178220700Y-102149537D01*
X178324707Y-102106457D01*
X178418310Y-102043913D01*
X178497913Y-101964310D01*
X178560457Y-101870707D01*
X178603537Y-101766700D01*
X178625500Y-101656288D01*
X178625500Y-101543712D01*
X178611537Y-101473515D01*
X178815252Y-101269800D01*
X179832749Y-101269800D01*
X180531601Y-101968653D01*
X180531600Y-105787642D01*
X180530127Y-105802600D01*
X180531600Y-105817558D01*
X180531600Y-105817565D01*
X180535233Y-105854446D01*
X180536011Y-105862351D01*
X180553440Y-105919805D01*
X180581742Y-105972756D01*
X180619832Y-106019168D01*
X180631461Y-106028712D01*
X181727248Y-107124500D01*
X181668033Y-107124500D01*
X181557621Y-107146463D01*
X181453614Y-107189543D01*
X181406800Y-107220823D01*
X181406800Y-107202957D01*
X181408273Y-107187999D01*
X181406800Y-107173041D01*
X181406800Y-107173034D01*
X181402389Y-107128249D01*
X181384960Y-107070794D01*
X181356658Y-107017843D01*
X181318568Y-106971432D01*
X181306944Y-106961892D01*
X178862475Y-104517424D01*
X178852931Y-104505795D01*
X178806520Y-104467705D01*
X178753569Y-104439403D01*
X178696114Y-104421974D01*
X178651329Y-104417563D01*
X178651321Y-104417563D01*
X178636363Y-104416090D01*
X178621405Y-104417563D01*
X178542528Y-104417563D01*
X178502764Y-104358053D01*
X178423161Y-104278450D01*
X178329558Y-104215906D01*
X178225551Y-104172826D01*
X178115139Y-104150863D01*
X178002563Y-104150863D01*
X177892151Y-104172826D01*
X177788144Y-104215906D01*
X177694541Y-104278450D01*
X177614938Y-104358053D01*
X177552394Y-104451656D01*
X177509314Y-104555663D01*
X177487351Y-104666075D01*
X177487351Y-104778651D01*
X177509314Y-104889063D01*
X177552394Y-104993070D01*
X177614938Y-105086673D01*
X177694541Y-105166276D01*
X177788144Y-105228820D01*
X177815075Y-105239975D01*
X177808526Y-105249776D01*
X177765446Y-105353783D01*
X177743483Y-105464195D01*
X177743483Y-105576771D01*
X177765446Y-105687183D01*
X177808526Y-105791190D01*
X177871070Y-105884793D01*
X177950673Y-105964396D01*
X178044276Y-106026940D01*
X178074336Y-106039391D01*
X178069760Y-106046240D01*
X178026680Y-106150247D01*
X178004717Y-106260659D01*
X178004717Y-106373235D01*
X178026680Y-106483647D01*
X178069760Y-106587654D01*
X178132304Y-106681257D01*
X178211907Y-106760860D01*
X178305510Y-106823404D01*
X178392368Y-106859381D01*
X178369217Y-106915275D01*
X178347254Y-107025687D01*
X178347254Y-107138263D01*
X178369217Y-107248675D01*
X178412297Y-107352682D01*
X178474841Y-107446285D01*
X178554444Y-107525888D01*
X178648047Y-107588432D01*
X178752054Y-107631512D01*
X178803257Y-107641697D01*
X178783407Y-107741486D01*
X178783407Y-107854062D01*
X178805370Y-107964474D01*
X178848450Y-108068481D01*
X178910994Y-108162084D01*
X178990597Y-108241687D01*
X179084200Y-108304231D01*
X179188207Y-108347311D01*
X179273456Y-108364269D01*
X179256513Y-108449445D01*
X179256513Y-108562021D01*
X179278476Y-108672433D01*
X179321556Y-108776440D01*
X179384100Y-108870043D01*
X179463703Y-108949646D01*
X179557306Y-109012190D01*
X179661313Y-109055270D01*
X179771725Y-109077233D01*
X179822633Y-109077233D01*
X179790463Y-109154900D01*
X179768500Y-109265312D01*
X179768500Y-109377888D01*
X179790463Y-109488300D01*
X179833543Y-109592307D01*
X179896087Y-109685910D01*
X179975690Y-109765513D01*
X180069293Y-109828057D01*
X180173300Y-109871137D01*
X180283712Y-109893100D01*
X180396288Y-109893100D01*
X180506700Y-109871137D01*
X180610707Y-109828057D01*
X180704310Y-109765513D01*
X180783913Y-109685910D01*
X180846457Y-109592307D01*
X180889537Y-109488300D01*
X180911500Y-109377888D01*
X180911500Y-109265312D01*
X180889537Y-109154900D01*
X180846457Y-109050893D01*
X180783913Y-108957290D01*
X180704310Y-108877687D01*
X180610707Y-108815143D01*
X180506700Y-108772063D01*
X180396288Y-108750100D01*
X180345380Y-108750100D01*
X180377550Y-108672433D01*
X180399513Y-108562021D01*
X180399513Y-108449445D01*
X180377550Y-108339033D01*
X180334470Y-108235026D01*
X180271926Y-108141423D01*
X180192323Y-108061820D01*
X180098720Y-107999276D01*
X179994713Y-107956196D01*
X179909464Y-107939238D01*
X179926407Y-107854062D01*
X179926407Y-107741486D01*
X179904444Y-107631074D01*
X179861364Y-107527067D01*
X179798820Y-107433464D01*
X179719217Y-107353861D01*
X179625614Y-107291317D01*
X179521607Y-107248237D01*
X179470404Y-107238052D01*
X179490254Y-107138263D01*
X179490254Y-107025687D01*
X179468291Y-106915275D01*
X179425211Y-106811268D01*
X179362667Y-106717665D01*
X179283064Y-106638062D01*
X179189461Y-106575518D01*
X179102603Y-106539541D01*
X179125754Y-106483647D01*
X179147717Y-106373235D01*
X179147717Y-106299335D01*
X180416201Y-107567820D01*
X180416200Y-108316042D01*
X180414727Y-108331000D01*
X180416200Y-108345958D01*
X180416200Y-108345965D01*
X180420611Y-108390750D01*
X180438040Y-108448205D01*
X180466342Y-108501156D01*
X180504432Y-108547568D01*
X180516061Y-108557112D01*
X181000401Y-109041454D01*
X181000400Y-109890242D01*
X180998927Y-109905200D01*
X181000400Y-109920158D01*
X181000400Y-109920165D01*
X181003491Y-109951543D01*
X181004811Y-109964951D01*
X181022240Y-110022405D01*
X181050542Y-110075356D01*
X181088632Y-110121768D01*
X181100261Y-110131312D01*
X184102307Y-113133360D01*
X184111842Y-113144978D01*
X184123460Y-113154513D01*
X184123466Y-113154519D01*
X184141365Y-113169208D01*
X184158253Y-113183068D01*
X184211204Y-113211370D01*
X184268659Y-113228799D01*
X184313444Y-113233210D01*
X184313452Y-113233210D01*
X184328410Y-113234683D01*
X184343368Y-113233210D01*
X186456532Y-113233210D01*
X186446828Y-113245381D01*
X187000000Y-113798553D01*
X187553172Y-113245381D01*
X187543468Y-113233210D01*
X193456532Y-113233210D01*
X193446828Y-113245381D01*
X194000000Y-113798553D01*
X194553172Y-113245381D01*
X194543468Y-113233210D01*
X196356632Y-113233210D01*
X196371590Y-113234683D01*
X196386548Y-113233210D01*
X196386556Y-113233210D01*
X196431341Y-113228799D01*
X196488796Y-113211370D01*
X196541747Y-113183068D01*
X196588158Y-113144978D01*
X196597702Y-113133349D01*
X198047252Y-111683800D01*
X199121042Y-111683800D01*
X199136000Y-111685273D01*
X199150958Y-111683800D01*
X199150966Y-111683800D01*
X199195751Y-111679389D01*
X199253206Y-111661960D01*
X199306157Y-111633658D01*
X199352568Y-111595568D01*
X199362112Y-111583939D01*
X200804944Y-110141108D01*
X200816568Y-110131568D01*
X200854658Y-110085157D01*
X200882960Y-110032206D01*
X200900389Y-109974751D01*
X200904800Y-109929966D01*
X200904800Y-109929958D01*
X200906273Y-109915000D01*
X200904800Y-109900042D01*
X200904800Y-109025251D01*
X202204944Y-107725108D01*
X202216568Y-107715568D01*
X202254658Y-107669157D01*
X202282960Y-107616206D01*
X202285580Y-107607568D01*
X202300389Y-107558752D01*
X202300897Y-107553597D01*
X202304800Y-107513966D01*
X202304800Y-107513958D01*
X202306273Y-107499000D01*
X202304800Y-107484042D01*
X202304800Y-105910751D01*
X203039544Y-105176008D01*
X203051168Y-105166468D01*
X203089258Y-105120057D01*
X203117560Y-105067106D01*
X203134989Y-105009651D01*
X203139400Y-104964866D01*
X203139400Y-104964858D01*
X203140873Y-104949900D01*
X203139400Y-104934942D01*
X203139400Y-101040158D01*
X203140873Y-101025200D01*
X203139400Y-101010242D01*
X203139400Y-101010234D01*
X203134989Y-100965449D01*
X203131973Y-100955505D01*
X203117560Y-100907994D01*
X203097243Y-100869983D01*
X203089258Y-100855043D01*
X203051168Y-100808632D01*
X203039545Y-100799093D01*
X202757537Y-100517085D01*
X202771500Y-100446888D01*
X202771500Y-100334312D01*
X202749537Y-100223900D01*
X202706457Y-100119893D01*
X202643913Y-100026290D01*
X202564310Y-99946687D01*
X202470707Y-99884143D01*
X202366700Y-99841063D01*
X202256288Y-99819100D01*
X202143712Y-99819100D01*
X202033300Y-99841063D01*
X201929293Y-99884143D01*
X201835690Y-99946687D01*
X201756087Y-100026290D01*
X201693543Y-100119893D01*
X201650463Y-100223900D01*
X201628500Y-100334312D01*
X201628500Y-100446888D01*
X201650463Y-100557300D01*
X201693543Y-100661307D01*
X201756087Y-100754910D01*
X201835690Y-100834513D01*
X201929293Y-100897057D01*
X202033300Y-100940137D01*
X202143712Y-100962100D01*
X202256288Y-100962100D01*
X202326485Y-100948137D01*
X202529800Y-101151452D01*
X202529801Y-104187310D01*
X202526313Y-104182090D01*
X202446710Y-104102487D01*
X202353107Y-104039943D01*
X202249100Y-103996863D01*
X202138688Y-103974900D01*
X202026112Y-103974900D01*
X201915700Y-103996863D01*
X201811693Y-104039943D01*
X201718090Y-104102487D01*
X201638487Y-104182090D01*
X201575943Y-104275693D01*
X201532863Y-104379700D01*
X201510900Y-104490112D01*
X201510900Y-104602688D01*
X201524864Y-104672885D01*
X201395061Y-104802688D01*
X201383432Y-104812232D01*
X201345342Y-104858644D01*
X201317513Y-104910710D01*
X201317040Y-104911595D01*
X201308748Y-104938931D01*
X201299611Y-104969050D01*
X201295200Y-105013835D01*
X201295200Y-105013842D01*
X201293727Y-105028800D01*
X201295200Y-105043758D01*
X201295201Y-107264747D01*
X199995061Y-108564888D01*
X199983432Y-108574432D01*
X199945342Y-108620844D01*
X199930121Y-108649322D01*
X199917040Y-108673795D01*
X199905980Y-108710256D01*
X199899611Y-108731250D01*
X199895200Y-108776035D01*
X199895200Y-108776042D01*
X199893727Y-108791000D01*
X199895200Y-108805958D01*
X199895201Y-109680747D01*
X198904338Y-110671611D01*
X197788047Y-110671611D01*
X197773089Y-110670138D01*
X197758131Y-110671611D01*
X197758123Y-110671611D01*
X197713338Y-110676022D01*
X197655883Y-110693451D01*
X197602932Y-110721753D01*
X197556521Y-110759843D01*
X197546981Y-110771467D01*
X195999650Y-112318799D01*
X184749851Y-112318799D01*
X184458734Y-112027682D01*
X187573765Y-112027682D01*
X187650633Y-112133353D01*
X187810171Y-112186460D01*
X187977004Y-112207421D01*
X188144721Y-112195432D01*
X188306876Y-112150954D01*
X188349367Y-112133353D01*
X188426235Y-112027682D01*
X192573765Y-112027682D01*
X192650633Y-112133353D01*
X192810171Y-112186460D01*
X192977004Y-112207421D01*
X193144721Y-112195432D01*
X193306876Y-112150954D01*
X193349367Y-112133353D01*
X193426235Y-112027682D01*
X193000000Y-111601447D01*
X192573765Y-112027682D01*
X188426235Y-112027682D01*
X188000000Y-111601447D01*
X187573765Y-112027682D01*
X184458734Y-112027682D01*
X183525164Y-111094112D01*
X185712098Y-111094112D01*
X185712098Y-111206688D01*
X185734061Y-111317100D01*
X185777141Y-111421107D01*
X185839685Y-111514710D01*
X185919288Y-111594313D01*
X186012891Y-111656857D01*
X186116898Y-111699937D01*
X186227310Y-111721900D01*
X186339886Y-111721900D01*
X186450298Y-111699937D01*
X186554305Y-111656857D01*
X186647908Y-111594313D01*
X186727511Y-111514710D01*
X186790055Y-111421107D01*
X186829032Y-111327004D01*
X187142579Y-111327004D01*
X187154568Y-111494721D01*
X187199046Y-111656876D01*
X187216647Y-111699367D01*
X187322318Y-111776235D01*
X187748553Y-111350000D01*
X188251447Y-111350000D01*
X188677682Y-111776235D01*
X188783353Y-111699367D01*
X188836460Y-111539829D01*
X188857421Y-111372996D01*
X188854134Y-111327004D01*
X192142579Y-111327004D01*
X192154568Y-111494721D01*
X192199046Y-111656876D01*
X192216647Y-111699367D01*
X192322318Y-111776235D01*
X192748553Y-111350000D01*
X193251447Y-111350000D01*
X193677682Y-111776235D01*
X193783353Y-111699367D01*
X193836460Y-111539829D01*
X193857421Y-111372996D01*
X193845432Y-111205279D01*
X193800954Y-111043124D01*
X193783353Y-111000633D01*
X193677682Y-110923765D01*
X193251447Y-111350000D01*
X192748553Y-111350000D01*
X192322318Y-110923765D01*
X192216647Y-111000633D01*
X192163540Y-111160171D01*
X192142579Y-111327004D01*
X188854134Y-111327004D01*
X188845432Y-111205279D01*
X188800954Y-111043124D01*
X188783353Y-111000633D01*
X188677682Y-110923765D01*
X188251447Y-111350000D01*
X187748553Y-111350000D01*
X187322318Y-110923765D01*
X187216647Y-111000633D01*
X187163540Y-111160171D01*
X187142579Y-111327004D01*
X186829032Y-111327004D01*
X186833135Y-111317100D01*
X186855098Y-111206688D01*
X186855098Y-111094112D01*
X186833135Y-110983700D01*
X186790055Y-110879693D01*
X186727511Y-110786090D01*
X186647908Y-110706487D01*
X186596771Y-110672318D01*
X187573765Y-110672318D01*
X188000000Y-111098553D01*
X188426235Y-110672318D01*
X192573765Y-110672318D01*
X193000000Y-111098553D01*
X193426235Y-110672318D01*
X193349367Y-110566647D01*
X193189829Y-110513540D01*
X193022996Y-110492579D01*
X192855279Y-110504568D01*
X192693124Y-110549046D01*
X192650633Y-110566647D01*
X192573765Y-110672318D01*
X188426235Y-110672318D01*
X188349367Y-110566647D01*
X188189829Y-110513540D01*
X188022996Y-110492579D01*
X187855279Y-110504568D01*
X187693124Y-110549046D01*
X187650633Y-110566647D01*
X187573765Y-110672318D01*
X186596771Y-110672318D01*
X186554305Y-110643943D01*
X186450298Y-110600863D01*
X186339886Y-110578900D01*
X186227310Y-110578900D01*
X186116898Y-110600863D01*
X186012891Y-110643943D01*
X185919288Y-110706487D01*
X185839685Y-110786090D01*
X185777141Y-110879693D01*
X185734061Y-110983700D01*
X185712098Y-111094112D01*
X183525164Y-111094112D01*
X182016400Y-109585349D01*
X182016400Y-108701558D01*
X182017873Y-108686600D01*
X182016400Y-108671642D01*
X182016400Y-108671634D01*
X182011989Y-108626849D01*
X181994560Y-108569394D01*
X181966258Y-108516443D01*
X181928168Y-108470032D01*
X181916544Y-108460492D01*
X181723552Y-108267500D01*
X181780609Y-108267500D01*
X181891021Y-108245537D01*
X181995028Y-108202457D01*
X182088631Y-108139913D01*
X182168234Y-108060310D01*
X182230778Y-107966707D01*
X182273858Y-107862700D01*
X182295821Y-107752288D01*
X182295821Y-107693073D01*
X182321201Y-107718453D01*
X182321200Y-108863323D01*
X182261690Y-108903087D01*
X182182087Y-108982690D01*
X182119543Y-109076293D01*
X182076463Y-109180300D01*
X182054500Y-109290712D01*
X182054500Y-109403288D01*
X182076463Y-109513700D01*
X182119543Y-109617707D01*
X182182087Y-109711310D01*
X182261690Y-109790913D01*
X182355293Y-109853457D01*
X182459300Y-109896537D01*
X182569712Y-109918500D01*
X182682288Y-109918500D01*
X182792700Y-109896537D01*
X182896707Y-109853457D01*
X182990310Y-109790913D01*
X183069913Y-109711310D01*
X183132457Y-109617707D01*
X183175537Y-109513700D01*
X183197500Y-109403288D01*
X183197500Y-109290712D01*
X183175537Y-109180300D01*
X183132457Y-109076293D01*
X183069913Y-108982690D01*
X182990310Y-108903087D01*
X182930800Y-108863323D01*
X182930800Y-107896986D01*
X185360462Y-110326649D01*
X185369997Y-110338267D01*
X185381615Y-110347802D01*
X185381621Y-110347808D01*
X185399520Y-110362497D01*
X185416408Y-110376357D01*
X185469359Y-110404659D01*
X185526814Y-110422088D01*
X185571599Y-110426499D01*
X185571607Y-110426499D01*
X185586565Y-110427972D01*
X185601523Y-110426499D01*
X195358030Y-110426499D01*
X195372988Y-110427972D01*
X195387946Y-110426499D01*
X195387954Y-110426499D01*
X195432739Y-110422088D01*
X195490194Y-110404659D01*
X195543145Y-110376357D01*
X195589556Y-110338267D01*
X195599100Y-110326638D01*
X196225447Y-109700291D01*
X196198852Y-109764500D01*
X196176889Y-109874912D01*
X196176889Y-109987488D01*
X196198852Y-110097900D01*
X196241932Y-110201907D01*
X196304476Y-110295510D01*
X196384079Y-110375113D01*
X196477682Y-110437657D01*
X196581689Y-110480737D01*
X196692101Y-110502700D01*
X196804677Y-110502700D01*
X196915089Y-110480737D01*
X197019096Y-110437657D01*
X197112699Y-110375113D01*
X197192302Y-110295510D01*
X197254846Y-110201907D01*
X197297926Y-110097900D01*
X197319889Y-109987488D01*
X197319889Y-109874912D01*
X197297926Y-109764500D01*
X197254846Y-109660493D01*
X197192302Y-109566890D01*
X197188313Y-109562901D01*
X198031856Y-109562901D01*
X198070469Y-109601515D01*
X198056506Y-109671712D01*
X198056506Y-109784288D01*
X198078469Y-109894700D01*
X198121549Y-109998707D01*
X198184093Y-110092310D01*
X198263696Y-110171913D01*
X198357299Y-110234457D01*
X198461306Y-110277537D01*
X198571718Y-110299500D01*
X198684294Y-110299500D01*
X198794706Y-110277537D01*
X198898713Y-110234457D01*
X198992316Y-110171913D01*
X199071919Y-110092310D01*
X199134463Y-109998707D01*
X199177543Y-109894700D01*
X199199506Y-109784288D01*
X199199506Y-109671712D01*
X199177543Y-109561300D01*
X199134463Y-109457293D01*
X199071919Y-109363690D01*
X198992316Y-109284087D01*
X198898713Y-109221543D01*
X198794706Y-109178463D01*
X198684294Y-109156500D01*
X198571718Y-109156500D01*
X198501521Y-109170463D01*
X198384219Y-109053162D01*
X198374675Y-109041533D01*
X198328264Y-109003443D01*
X198275313Y-108975141D01*
X198217858Y-108957712D01*
X198173073Y-108953301D01*
X198173065Y-108953301D01*
X198158107Y-108951828D01*
X198143149Y-108953301D01*
X196251543Y-108953301D01*
X196236585Y-108951828D01*
X196221627Y-108953301D01*
X196221620Y-108953301D01*
X196182475Y-108957156D01*
X196176834Y-108957712D01*
X196147845Y-108966506D01*
X196119380Y-108975141D01*
X196066429Y-109003443D01*
X196020018Y-109041533D01*
X196010478Y-109053157D01*
X195246737Y-109816899D01*
X193345219Y-109816899D01*
X193909755Y-109252364D01*
X193921379Y-109242824D01*
X193959469Y-109196413D01*
X193987771Y-109143462D01*
X193999913Y-109103437D01*
X194005200Y-109086008D01*
X194006157Y-109076293D01*
X194009611Y-109041222D01*
X194009611Y-109041215D01*
X194011084Y-109026257D01*
X194009611Y-109011299D01*
X194009611Y-107588702D01*
X194011084Y-107573744D01*
X194009611Y-107558786D01*
X194009611Y-107558778D01*
X194005200Y-107513993D01*
X194001487Y-107501751D01*
X193987771Y-107456538D01*
X193980352Y-107442658D01*
X193959469Y-107403587D01*
X193921379Y-107357176D01*
X193909756Y-107347637D01*
X193164179Y-106602061D01*
X193154635Y-106590432D01*
X193108224Y-106552342D01*
X193055273Y-106524040D01*
X192997818Y-106506611D01*
X192953033Y-106502200D01*
X192953025Y-106502200D01*
X192938067Y-106500727D01*
X192923109Y-106502200D01*
X186818077Y-106502200D01*
X186778313Y-106442690D01*
X186698710Y-106363087D01*
X186605107Y-106300543D01*
X186501100Y-106257463D01*
X186390688Y-106235500D01*
X186278112Y-106235500D01*
X186167700Y-106257463D01*
X186063693Y-106300543D01*
X185970090Y-106363087D01*
X185890487Y-106442690D01*
X185827943Y-106536293D01*
X185784863Y-106640300D01*
X185768187Y-106724135D01*
X185329279Y-106285228D01*
X185434300Y-106264337D01*
X185538307Y-106221257D01*
X185631910Y-106158713D01*
X185711513Y-106079110D01*
X185751277Y-106019600D01*
X191831242Y-106019600D01*
X191846200Y-106021073D01*
X191861158Y-106019600D01*
X191861166Y-106019600D01*
X191905951Y-106015189D01*
X191963406Y-105997760D01*
X192016357Y-105969458D01*
X192062768Y-105931368D01*
X192072312Y-105919739D01*
X194819744Y-103172308D01*
X194831368Y-103162768D01*
X194869458Y-103116357D01*
X194897760Y-103063406D01*
X194915189Y-103005951D01*
X194919600Y-102961166D01*
X194919600Y-102961158D01*
X194921073Y-102946200D01*
X194919600Y-102931242D01*
X194919600Y-94431712D01*
X199021700Y-94431712D01*
X199021700Y-94544288D01*
X199043663Y-94654700D01*
X199086743Y-94758707D01*
X199149287Y-94852310D01*
X199228890Y-94931913D01*
X199322493Y-94994457D01*
X199426500Y-95037537D01*
X199536912Y-95059500D01*
X199649488Y-95059500D01*
X199759900Y-95037537D01*
X199863907Y-94994457D01*
X199957510Y-94931913D01*
X200037113Y-94852310D01*
X200099657Y-94758707D01*
X200142737Y-94654700D01*
X200164700Y-94544288D01*
X200164700Y-94431712D01*
X200142737Y-94321300D01*
X200099657Y-94217293D01*
X200037113Y-94123690D01*
X199957510Y-94044087D01*
X199863907Y-93981543D01*
X199759900Y-93938463D01*
X199649488Y-93916500D01*
X199536912Y-93916500D01*
X199426500Y-93938463D01*
X199322493Y-93981543D01*
X199228890Y-94044087D01*
X199149287Y-94123690D01*
X199086743Y-94217293D01*
X199043663Y-94321300D01*
X199021700Y-94431712D01*
X194919600Y-94431712D01*
X194919600Y-91651333D01*
X194961690Y-91693423D01*
X195055293Y-91755967D01*
X195159300Y-91799047D01*
X195269712Y-91821010D01*
X195382288Y-91821010D01*
X195492700Y-91799047D01*
X195596707Y-91755967D01*
X195690310Y-91693423D01*
X195769913Y-91613820D01*
X195832457Y-91520217D01*
X195875537Y-91416210D01*
X195897500Y-91305798D01*
X195897500Y-91193222D01*
X195875537Y-91082810D01*
X195832457Y-90978803D01*
X195769913Y-90885200D01*
X195690310Y-90805597D01*
X195596707Y-90743053D01*
X195492700Y-90699973D01*
X195382288Y-90678010D01*
X195269712Y-90678010D01*
X195159300Y-90699973D01*
X195055293Y-90743053D01*
X194961690Y-90805597D01*
X194919600Y-90847687D01*
X194919600Y-90468168D01*
X194921073Y-90453210D01*
X194919600Y-90438252D01*
X194919600Y-90438245D01*
X194915189Y-90393460D01*
X194897760Y-90336005D01*
X194869458Y-90283054D01*
X194831368Y-90236643D01*
X194819745Y-90227104D01*
X193730221Y-89137581D01*
X193740600Y-89112525D01*
X193768600Y-88971761D01*
X193768600Y-88828239D01*
X193740600Y-88687475D01*
X193685677Y-88554879D01*
X193605940Y-88435545D01*
X193504455Y-88334060D01*
X193385121Y-88254323D01*
X193252525Y-88199400D01*
X193111761Y-88171400D01*
X192968239Y-88171400D01*
X192827475Y-88199400D01*
X192694879Y-88254323D01*
X192575545Y-88334060D01*
X192474060Y-88435545D01*
X192405000Y-88538900D01*
X192335940Y-88435545D01*
X192234455Y-88334060D01*
X192115121Y-88254323D01*
X191982525Y-88199400D01*
X191841761Y-88171400D01*
X191698239Y-88171400D01*
X191557475Y-88199400D01*
X191424879Y-88254323D01*
X191305545Y-88334060D01*
X191204060Y-88435545D01*
X191131680Y-88543869D01*
X191101374Y-88488627D01*
X191009564Y-88379209D01*
X190898172Y-88289805D01*
X190786143Y-88229940D01*
X190677800Y-88252519D01*
X190677800Y-88722200D01*
X190697800Y-88722200D01*
X190697800Y-89077800D01*
X190677800Y-89077800D01*
X190677800Y-89547481D01*
X190786143Y-89570060D01*
X190898172Y-89510195D01*
X191009564Y-89420791D01*
X191101374Y-89311373D01*
X191131680Y-89256131D01*
X191204060Y-89364455D01*
X191305545Y-89465940D01*
X191424879Y-89545677D01*
X191442672Y-89553047D01*
X191451678Y-89569896D01*
X191476877Y-89600600D01*
X191499290Y-89627911D01*
X191513827Y-89639841D01*
X193471800Y-91597815D01*
X193471801Y-93263384D01*
X191929686Y-94805500D01*
X191840712Y-94805500D01*
X191730300Y-94827463D01*
X191626293Y-94870543D01*
X191532690Y-94933087D01*
X191453087Y-95012690D01*
X191390543Y-95106293D01*
X191347463Y-95210300D01*
X191325500Y-95320712D01*
X191325500Y-95409685D01*
X187497386Y-99237800D01*
X185491623Y-99237800D01*
X185428710Y-99174887D01*
X185335107Y-99112343D01*
X185231100Y-99069263D01*
X185120688Y-99047300D01*
X185008112Y-99047300D01*
X184897700Y-99069263D01*
X184793693Y-99112343D01*
X184700090Y-99174887D01*
X184620487Y-99254490D01*
X184557943Y-99348093D01*
X184514863Y-99452100D01*
X184492900Y-99562512D01*
X184492900Y-99651485D01*
X183258832Y-100885554D01*
X183244289Y-100897489D01*
X183212666Y-100936023D01*
X183196678Y-100955504D01*
X183161300Y-101021692D01*
X183161299Y-101021693D01*
X183139513Y-101093512D01*
X183134698Y-101142405D01*
X183132157Y-101168200D01*
X183134000Y-101186910D01*
X183134001Y-106026280D01*
X183132157Y-106045000D01*
X183139514Y-106119688D01*
X183161299Y-106191507D01*
X183196678Y-106257696D01*
X183220153Y-106286300D01*
X183244290Y-106315711D01*
X183258827Y-106327641D01*
X185518359Y-108587174D01*
X185530289Y-108601711D01*
X185548968Y-108617040D01*
X185588303Y-108649322D01*
X185634268Y-108673891D01*
X185654492Y-108684701D01*
X185726311Y-108706487D01*
X185782287Y-108712000D01*
X185782289Y-108712000D01*
X185800999Y-108713843D01*
X185819709Y-108712000D01*
X190822781Y-108712000D01*
X190885694Y-108774913D01*
X190979297Y-108837457D01*
X191083304Y-108880537D01*
X191193716Y-108902500D01*
X191306292Y-108902500D01*
X191416704Y-108880537D01*
X191520711Y-108837457D01*
X191614314Y-108774913D01*
X191677227Y-108712000D01*
X191850777Y-108712000D01*
X191913690Y-108774913D01*
X192007293Y-108837457D01*
X192111300Y-108880537D01*
X192221712Y-108902500D01*
X192334288Y-108902500D01*
X192444700Y-108880537D01*
X192548707Y-108837457D01*
X192642310Y-108774913D01*
X192721913Y-108695310D01*
X192784457Y-108601707D01*
X192827537Y-108497700D01*
X192849500Y-108387288D01*
X192849500Y-108274712D01*
X192827537Y-108164300D01*
X192784457Y-108060293D01*
X192721913Y-107966690D01*
X192642310Y-107887087D01*
X192548707Y-107824543D01*
X192444700Y-107781463D01*
X192334288Y-107759500D01*
X192221712Y-107759500D01*
X192111300Y-107781463D01*
X192007293Y-107824543D01*
X191913690Y-107887087D01*
X191850777Y-107950000D01*
X191677227Y-107950000D01*
X191614314Y-107887087D01*
X191520711Y-107824543D01*
X191416704Y-107781463D01*
X191306292Y-107759500D01*
X191193716Y-107759500D01*
X191083304Y-107781463D01*
X190979297Y-107824543D01*
X190885694Y-107887087D01*
X190822781Y-107950000D01*
X185958815Y-107950000D01*
X183896000Y-105887186D01*
X183896000Y-101326014D01*
X185031715Y-100190300D01*
X185120688Y-100190300D01*
X185231100Y-100168337D01*
X185335107Y-100125257D01*
X185428710Y-100062713D01*
X185491623Y-99999800D01*
X187636490Y-99999800D01*
X187655200Y-100001643D01*
X187673910Y-99999800D01*
X187673913Y-99999800D01*
X187729889Y-99994287D01*
X187801708Y-99972501D01*
X187867896Y-99937122D01*
X187925911Y-99889511D01*
X187937846Y-99874968D01*
X191864315Y-95948500D01*
X191953288Y-95948500D01*
X192063700Y-95926537D01*
X192167707Y-95883457D01*
X192261310Y-95820913D01*
X192340913Y-95741310D01*
X192403457Y-95647707D01*
X192446537Y-95543700D01*
X192468500Y-95433288D01*
X192468500Y-95344314D01*
X194108974Y-93703841D01*
X194123511Y-93691911D01*
X194147050Y-93663228D01*
X194171122Y-93633897D01*
X194206501Y-93567708D01*
X194220652Y-93521057D01*
X194228287Y-93495889D01*
X194233800Y-93439913D01*
X194233800Y-93439910D01*
X194235643Y-93421200D01*
X194233800Y-93402490D01*
X194233800Y-91458709D01*
X194235643Y-91439999D01*
X194231530Y-91398243D01*
X194228287Y-91365311D01*
X194206501Y-91293492D01*
X194171123Y-91227305D01*
X194171122Y-91227303D01*
X194135439Y-91183824D01*
X194123511Y-91169289D01*
X194108975Y-91157360D01*
X192326005Y-89374390D01*
X192335940Y-89364455D01*
X192405000Y-89261100D01*
X192474060Y-89364455D01*
X192575545Y-89465940D01*
X192694879Y-89545677D01*
X192827475Y-89600600D01*
X192968239Y-89628600D01*
X193111761Y-89628600D01*
X193252525Y-89600600D01*
X193308113Y-89577575D01*
X194310000Y-90579463D01*
X194310001Y-102819947D01*
X191719949Y-105410000D01*
X185751277Y-105410000D01*
X185711513Y-105350490D01*
X185631910Y-105270887D01*
X185538307Y-105208343D01*
X185434300Y-105165263D01*
X185323888Y-105143300D01*
X185211312Y-105143300D01*
X185100900Y-105165263D01*
X184996893Y-105208343D01*
X184962800Y-105231123D01*
X184962800Y-104012251D01*
X188137051Y-100838000D01*
X188772800Y-100838000D01*
X188772800Y-103124000D01*
X188774264Y-103138866D01*
X188778600Y-103153160D01*
X188785642Y-103166334D01*
X188795118Y-103177882D01*
X188806666Y-103187358D01*
X188819840Y-103194400D01*
X188834134Y-103198736D01*
X188849000Y-103200200D01*
X192151000Y-103200200D01*
X192165866Y-103198736D01*
X192180160Y-103194400D01*
X192193334Y-103187358D01*
X192204882Y-103177882D01*
X192214358Y-103166334D01*
X192221400Y-103153160D01*
X192225736Y-103138866D01*
X192227200Y-103124000D01*
X192227200Y-100838000D01*
X192225736Y-100823134D01*
X192221400Y-100808840D01*
X192214358Y-100795666D01*
X192204882Y-100784118D01*
X192193334Y-100774642D01*
X192180160Y-100767600D01*
X192165866Y-100763264D01*
X192151000Y-100761800D01*
X188849000Y-100761800D01*
X188834134Y-100763264D01*
X188819840Y-100767600D01*
X188806666Y-100774642D01*
X188795118Y-100784118D01*
X188785642Y-100795666D01*
X188778600Y-100808840D01*
X188774264Y-100823134D01*
X188772800Y-100838000D01*
X188137051Y-100838000D01*
X189051452Y-99923600D01*
X190016323Y-99923600D01*
X190056087Y-99983110D01*
X190135690Y-100062713D01*
X190229293Y-100125257D01*
X190333300Y-100168337D01*
X190443712Y-100190300D01*
X190556288Y-100190300D01*
X190666700Y-100168337D01*
X190770707Y-100125257D01*
X190864310Y-100062713D01*
X190943913Y-99983110D01*
X191006457Y-99889507D01*
X191049537Y-99785500D01*
X191071500Y-99675088D01*
X191071500Y-99562512D01*
X191049537Y-99452100D01*
X191006457Y-99348093D01*
X190943913Y-99254490D01*
X190864310Y-99174887D01*
X190770707Y-99112343D01*
X190666700Y-99069263D01*
X190556288Y-99047300D01*
X190443712Y-99047300D01*
X190333300Y-99069263D01*
X190229293Y-99112343D01*
X190135690Y-99174887D01*
X190056087Y-99254490D01*
X190016323Y-99314000D01*
X188940157Y-99314000D01*
X188925199Y-99312527D01*
X188910241Y-99314000D01*
X188910234Y-99314000D01*
X188871089Y-99317855D01*
X188865448Y-99318411D01*
X188812863Y-99334363D01*
X188807994Y-99335840D01*
X188755043Y-99364142D01*
X188708632Y-99402232D01*
X188699092Y-99413856D01*
X184453061Y-103659888D01*
X184441432Y-103669432D01*
X184403342Y-103715844D01*
X184375040Y-103768795D01*
X184357611Y-103826250D01*
X184353200Y-103871035D01*
X184353200Y-103871042D01*
X184351727Y-103886000D01*
X184353200Y-103900958D01*
X184353201Y-106030032D01*
X184351727Y-106045000D01*
X184357611Y-106104751D01*
X184375040Y-106162205D01*
X184375041Y-106162206D01*
X184403343Y-106215157D01*
X184441433Y-106261568D01*
X184453057Y-106271108D01*
X185828892Y-107646944D01*
X185838432Y-107658568D01*
X185884843Y-107696658D01*
X185937794Y-107724960D01*
X185977819Y-107737102D01*
X185995248Y-107742389D01*
X186000889Y-107742945D01*
X186040034Y-107746800D01*
X186040041Y-107746800D01*
X186054999Y-107748273D01*
X186069957Y-107746800D01*
X186548042Y-107746800D01*
X186563000Y-107748273D01*
X186577958Y-107746800D01*
X186577966Y-107746800D01*
X186622751Y-107742389D01*
X186680206Y-107724960D01*
X186733157Y-107696658D01*
X186779568Y-107658568D01*
X186789112Y-107646939D01*
X186943252Y-107492800D01*
X192761749Y-107492800D01*
X193095200Y-107826252D01*
X193095201Y-108773746D01*
X192699749Y-109169200D01*
X185927252Y-109169200D01*
X182168800Y-105410749D01*
X182168800Y-101360959D01*
X182170273Y-101346001D01*
X182168800Y-101331043D01*
X182168800Y-101331036D01*
X182164389Y-101286251D01*
X182162450Y-101279857D01*
X182159399Y-101269800D01*
X182146960Y-101228796D01*
X182118658Y-101175845D01*
X182080568Y-101129434D01*
X182068944Y-101119894D01*
X179063762Y-98114712D01*
X181927500Y-98114712D01*
X181927500Y-98227288D01*
X181949463Y-98337700D01*
X181992543Y-98441707D01*
X182055087Y-98535310D01*
X182134690Y-98614913D01*
X182228293Y-98677457D01*
X182332300Y-98720537D01*
X182442712Y-98742500D01*
X182555288Y-98742500D01*
X182665700Y-98720537D01*
X182769707Y-98677457D01*
X182863310Y-98614913D01*
X182942913Y-98535310D01*
X183005457Y-98441707D01*
X183048537Y-98337700D01*
X183070500Y-98227288D01*
X183070500Y-98114712D01*
X183048537Y-98004300D01*
X183005457Y-97900293D01*
X182942913Y-97806690D01*
X182863310Y-97727087D01*
X182769707Y-97664543D01*
X182665700Y-97621463D01*
X182555288Y-97599500D01*
X182442712Y-97599500D01*
X182332300Y-97621463D01*
X182228293Y-97664543D01*
X182134690Y-97727087D01*
X182055087Y-97806690D01*
X181992543Y-97900293D01*
X181949463Y-98004300D01*
X181927500Y-98114712D01*
X179063762Y-98114712D01*
X178992536Y-98043487D01*
X179006500Y-97973290D01*
X179006500Y-97860714D01*
X178984537Y-97750302D01*
X178941457Y-97646295D01*
X178878913Y-97552692D01*
X178799310Y-97473089D01*
X178705707Y-97410545D01*
X178601700Y-97367465D01*
X178491288Y-97345502D01*
X178378712Y-97345502D01*
X178268300Y-97367465D01*
X178164293Y-97410545D01*
X178070690Y-97473089D01*
X177991087Y-97552692D01*
X177928543Y-97646295D01*
X177885463Y-97750302D01*
X177863500Y-97860714D01*
X177863500Y-97973290D01*
X177885463Y-98083702D01*
X177928543Y-98187709D01*
X177991087Y-98281312D01*
X178070690Y-98360915D01*
X178164293Y-98423459D01*
X178268300Y-98466539D01*
X178378712Y-98488502D01*
X178491288Y-98488502D01*
X178561485Y-98474538D01*
X179007248Y-98920301D01*
X177870830Y-98920301D01*
X177855872Y-98918828D01*
X177840914Y-98920301D01*
X177840907Y-98920301D01*
X177801762Y-98924156D01*
X177796121Y-98924712D01*
X177782749Y-98928769D01*
X177738667Y-98942141D01*
X177685716Y-98970443D01*
X177639305Y-99008533D01*
X177629765Y-99020157D01*
X177379158Y-99270765D01*
X177367529Y-99280309D01*
X177329439Y-99326721D01*
X177310249Y-99362625D01*
X177301137Y-99379672D01*
X177285857Y-99430044D01*
X177283708Y-99437127D01*
X177279297Y-99481912D01*
X177279297Y-99481919D01*
X177277824Y-99496877D01*
X176965250Y-99496877D01*
X177093544Y-98700591D01*
X177477683Y-97291998D01*
X177602917Y-96971712D01*
X179463704Y-96971712D01*
X179463704Y-97084288D01*
X179485667Y-97194700D01*
X179528747Y-97298707D01*
X179591291Y-97392310D01*
X179670894Y-97471913D01*
X179764497Y-97534457D01*
X179868504Y-97577537D01*
X179978916Y-97599500D01*
X180091492Y-97599500D01*
X180201904Y-97577537D01*
X180305911Y-97534457D01*
X180399514Y-97471913D01*
X180479117Y-97392310D01*
X180541661Y-97298707D01*
X180584741Y-97194700D01*
X180606704Y-97084288D01*
X180606704Y-96971712D01*
X180584741Y-96861300D01*
X180541661Y-96757293D01*
X180479117Y-96663690D01*
X180399514Y-96584087D01*
X180305911Y-96521543D01*
X180201904Y-96478463D01*
X180091492Y-96456500D01*
X179978916Y-96456500D01*
X179868504Y-96478463D01*
X179764497Y-96521543D01*
X179670894Y-96584087D01*
X179591291Y-96663690D01*
X179528747Y-96757293D01*
X179485667Y-96861300D01*
X179463704Y-96971712D01*
X177602917Y-96971712D01*
X177841275Y-96362112D01*
X180835296Y-96362112D01*
X180835296Y-96474688D01*
X180857259Y-96585100D01*
X180900339Y-96689107D01*
X180962883Y-96782710D01*
X181042486Y-96862313D01*
X181136089Y-96924857D01*
X181240096Y-96967937D01*
X181350508Y-96989900D01*
X181463084Y-96989900D01*
X181573496Y-96967937D01*
X181677503Y-96924857D01*
X181771106Y-96862313D01*
X181850709Y-96782710D01*
X181913253Y-96689107D01*
X181956333Y-96585100D01*
X181978296Y-96474688D01*
X181978296Y-96362112D01*
X181956333Y-96251700D01*
X181913253Y-96147693D01*
X181850709Y-96054090D01*
X181771106Y-95974487D01*
X181711596Y-95934723D01*
X181711596Y-94434122D01*
X183085606Y-93060112D01*
X183629300Y-93060112D01*
X183629300Y-93172688D01*
X183651263Y-93283100D01*
X183694343Y-93387107D01*
X183756887Y-93480710D01*
X183836490Y-93560313D01*
X183930093Y-93622857D01*
X184034100Y-93665937D01*
X184144512Y-93687900D01*
X184257088Y-93687900D01*
X184367500Y-93665937D01*
X184471507Y-93622857D01*
X184565110Y-93560313D01*
X184644713Y-93480710D01*
X184707257Y-93387107D01*
X184750337Y-93283100D01*
X184772300Y-93172688D01*
X184772300Y-93060112D01*
X184750337Y-92949700D01*
X184707257Y-92845693D01*
X184644713Y-92752090D01*
X184565110Y-92672487D01*
X184471507Y-92609943D01*
X184367500Y-92566863D01*
X184257088Y-92544900D01*
X184144512Y-92544900D01*
X184034100Y-92566863D01*
X183930093Y-92609943D01*
X183836490Y-92672487D01*
X183756887Y-92752090D01*
X183694343Y-92845693D01*
X183651263Y-92949700D01*
X183629300Y-93060112D01*
X183085606Y-93060112D01*
X186940920Y-89204800D01*
X187297622Y-89204800D01*
X187314323Y-89245121D01*
X187394060Y-89364455D01*
X187495545Y-89465940D01*
X187614879Y-89545677D01*
X187747475Y-89600600D01*
X187888239Y-89628600D01*
X188031761Y-89628600D01*
X188172525Y-89600600D01*
X188305121Y-89545677D01*
X188424455Y-89465940D01*
X188525940Y-89364455D01*
X188595000Y-89261100D01*
X188664060Y-89364455D01*
X188765545Y-89465940D01*
X188884879Y-89545677D01*
X188912026Y-89556922D01*
X183691053Y-94777896D01*
X183679429Y-94787436D01*
X183641339Y-94833847D01*
X183631471Y-94852310D01*
X183613036Y-94886799D01*
X183595607Y-94944253D01*
X183589723Y-95004004D01*
X183591197Y-95018972D01*
X183591196Y-98474724D01*
X183531686Y-98514488D01*
X183452083Y-98594091D01*
X183389539Y-98687694D01*
X183346459Y-98791701D01*
X183324496Y-98902113D01*
X183324496Y-99014689D01*
X183346459Y-99125101D01*
X183389539Y-99229108D01*
X183452083Y-99322711D01*
X183531686Y-99402314D01*
X183625289Y-99464858D01*
X183729296Y-99507938D01*
X183839708Y-99529901D01*
X183952284Y-99529901D01*
X184062696Y-99507938D01*
X184166703Y-99464858D01*
X184260306Y-99402314D01*
X184339909Y-99322711D01*
X184402453Y-99229108D01*
X184445533Y-99125101D01*
X184467496Y-99014689D01*
X184467496Y-98902113D01*
X184445533Y-98791701D01*
X184402453Y-98687694D01*
X184339909Y-98594091D01*
X184260306Y-98514488D01*
X184200796Y-98474724D01*
X184200796Y-96012000D01*
X184351727Y-96012000D01*
X184353201Y-96026968D01*
X184353200Y-97013042D01*
X184351727Y-97028000D01*
X184353200Y-97042958D01*
X184353200Y-97042965D01*
X184357611Y-97087750D01*
X184375040Y-97145205D01*
X184403342Y-97198156D01*
X184441432Y-97244568D01*
X184453061Y-97254112D01*
X185028791Y-97829843D01*
X185038331Y-97841467D01*
X185084742Y-97879557D01*
X185137693Y-97907859D01*
X185195148Y-97925288D01*
X185239933Y-97929699D01*
X185239941Y-97929699D01*
X185254899Y-97931172D01*
X185269857Y-97929699D01*
X185824143Y-97929699D01*
X185839101Y-97931172D01*
X185854059Y-97929699D01*
X185854067Y-97929699D01*
X185898852Y-97925288D01*
X185956307Y-97907859D01*
X186009258Y-97879557D01*
X186055669Y-97841467D01*
X186057009Y-97839834D01*
X186125712Y-97853500D01*
X186238288Y-97853500D01*
X186348700Y-97831537D01*
X186452707Y-97788457D01*
X186546310Y-97725913D01*
X186625913Y-97646310D01*
X186688457Y-97552707D01*
X186731537Y-97448700D01*
X186753500Y-97338288D01*
X186753500Y-97225712D01*
X186731537Y-97115300D01*
X186688457Y-97011293D01*
X186625913Y-96917690D01*
X186546310Y-96838087D01*
X186452707Y-96775543D01*
X186348700Y-96732463D01*
X186238288Y-96710500D01*
X186125712Y-96710500D01*
X186116709Y-96712291D01*
X186118500Y-96703288D01*
X186118500Y-96590712D01*
X186104536Y-96520515D01*
X187070252Y-95554800D01*
X189723042Y-95554800D01*
X189738000Y-95556273D01*
X189752958Y-95554800D01*
X189752966Y-95554800D01*
X189797751Y-95550389D01*
X189855206Y-95532960D01*
X189908157Y-95504658D01*
X189954568Y-95466568D01*
X189964112Y-95454939D01*
X192405515Y-93013537D01*
X192475712Y-93027500D01*
X192588288Y-93027500D01*
X192698700Y-93005537D01*
X192802707Y-92962457D01*
X192896310Y-92899913D01*
X192975913Y-92820310D01*
X193038457Y-92726707D01*
X193081537Y-92622700D01*
X193103500Y-92512288D01*
X193103500Y-92399712D01*
X193081537Y-92289300D01*
X193038457Y-92185293D01*
X192975913Y-92091690D01*
X192896310Y-92012087D01*
X192802707Y-91949543D01*
X192698700Y-91906463D01*
X192588288Y-91884500D01*
X192475712Y-91884500D01*
X192365300Y-91906463D01*
X192261293Y-91949543D01*
X192167690Y-92012087D01*
X192088087Y-92091690D01*
X192025543Y-92185293D01*
X191982463Y-92289300D01*
X191960500Y-92399712D01*
X191960500Y-92512288D01*
X191974463Y-92582485D01*
X189611749Y-94945200D01*
X186958957Y-94945200D01*
X186943999Y-94943727D01*
X186929041Y-94945200D01*
X186929034Y-94945200D01*
X186889889Y-94949055D01*
X186884248Y-94949611D01*
X186866819Y-94954898D01*
X186826794Y-94967040D01*
X186773843Y-94995342D01*
X186727432Y-95033432D01*
X186717892Y-95045056D01*
X185673485Y-96089464D01*
X185603288Y-96075500D01*
X185490712Y-96075500D01*
X185380300Y-96097463D01*
X185276293Y-96140543D01*
X185182690Y-96203087D01*
X185103087Y-96282690D01*
X185040543Y-96376293D01*
X184997463Y-96480300D01*
X184975500Y-96590712D01*
X184975500Y-96703288D01*
X184997463Y-96813700D01*
X185040543Y-96917707D01*
X185103087Y-97011310D01*
X185182690Y-97090913D01*
X185276293Y-97153457D01*
X185380300Y-97196537D01*
X185490712Y-97218500D01*
X185603288Y-97218500D01*
X185612291Y-97216709D01*
X185610500Y-97225712D01*
X185610500Y-97320099D01*
X185381151Y-97320099D01*
X184962800Y-96901749D01*
X184962800Y-96138251D01*
X187070252Y-94030800D01*
X188663742Y-94030800D01*
X188678700Y-94032273D01*
X188693658Y-94030800D01*
X188693666Y-94030800D01*
X188738451Y-94026389D01*
X188795906Y-94008960D01*
X188848857Y-93980658D01*
X188895268Y-93942568D01*
X188904812Y-93930939D01*
X190373515Y-92462237D01*
X190443712Y-92476200D01*
X190556288Y-92476200D01*
X190666700Y-92454237D01*
X190770707Y-92411157D01*
X190864310Y-92348613D01*
X190943913Y-92269010D01*
X191006457Y-92175407D01*
X191049537Y-92071400D01*
X191071500Y-91960988D01*
X191071500Y-91848412D01*
X191049537Y-91738000D01*
X191006457Y-91633993D01*
X190943913Y-91540390D01*
X190864310Y-91460787D01*
X190770707Y-91398243D01*
X190666700Y-91355163D01*
X190556288Y-91333200D01*
X190443712Y-91333200D01*
X190333300Y-91355163D01*
X190229293Y-91398243D01*
X190135690Y-91460787D01*
X190056087Y-91540390D01*
X189993543Y-91633993D01*
X189950463Y-91738000D01*
X189928500Y-91848412D01*
X189928500Y-91960988D01*
X189942463Y-92031185D01*
X188552449Y-93421200D01*
X186958957Y-93421200D01*
X186943999Y-93419727D01*
X186929041Y-93421200D01*
X186929034Y-93421200D01*
X186889889Y-93425055D01*
X186884248Y-93425611D01*
X186870876Y-93429668D01*
X186826794Y-93443040D01*
X186773843Y-93471342D01*
X186727432Y-93509432D01*
X186717892Y-93521056D01*
X184453057Y-95785892D01*
X184441433Y-95795432D01*
X184403343Y-95841843D01*
X184388901Y-95868863D01*
X184375040Y-95894795D01*
X184357611Y-95952249D01*
X184351727Y-96012000D01*
X184200796Y-96012000D01*
X184200796Y-95130255D01*
X187439339Y-91891712D01*
X187896500Y-91891712D01*
X187896500Y-92004288D01*
X187918463Y-92114700D01*
X187961543Y-92218707D01*
X188024087Y-92312310D01*
X188103690Y-92391913D01*
X188197293Y-92454457D01*
X188301300Y-92497537D01*
X188411712Y-92519500D01*
X188524288Y-92519500D01*
X188634700Y-92497537D01*
X188738707Y-92454457D01*
X188832310Y-92391913D01*
X188911913Y-92312310D01*
X188974457Y-92218707D01*
X189017537Y-92114700D01*
X189039500Y-92004288D01*
X189039500Y-91891712D01*
X189017537Y-91781300D01*
X188974457Y-91677293D01*
X188911913Y-91583690D01*
X188832310Y-91504087D01*
X188738707Y-91441543D01*
X188634700Y-91398463D01*
X188524288Y-91376500D01*
X188411712Y-91376500D01*
X188301300Y-91398463D01*
X188197293Y-91441543D01*
X188103690Y-91504087D01*
X188024087Y-91583690D01*
X187961543Y-91677293D01*
X187918463Y-91781300D01*
X187896500Y-91891712D01*
X187439339Y-91891712D01*
X189434945Y-89896107D01*
X189446568Y-89886568D01*
X189484658Y-89840157D01*
X189512960Y-89787206D01*
X189527267Y-89740043D01*
X189530389Y-89729752D01*
X189530897Y-89724597D01*
X189534800Y-89684966D01*
X189534800Y-89684958D01*
X189536273Y-89670000D01*
X189534800Y-89655042D01*
X189534800Y-89562378D01*
X189575121Y-89545677D01*
X189694455Y-89465940D01*
X189795940Y-89364455D01*
X189868320Y-89256131D01*
X189898626Y-89311373D01*
X189990436Y-89420791D01*
X190101828Y-89510195D01*
X190213857Y-89570060D01*
X190322200Y-89547481D01*
X190322200Y-89077800D01*
X190302200Y-89077800D01*
X190302200Y-88722200D01*
X190322200Y-88722200D01*
X190322200Y-88252519D01*
X190213857Y-88229940D01*
X190101828Y-88289805D01*
X189990436Y-88379209D01*
X189898626Y-88488627D01*
X189868320Y-88543869D01*
X189795940Y-88435545D01*
X189694455Y-88334060D01*
X189575121Y-88254323D01*
X189442525Y-88199400D01*
X189301761Y-88171400D01*
X189158239Y-88171400D01*
X189017475Y-88199400D01*
X188884879Y-88254323D01*
X188765545Y-88334060D01*
X188664060Y-88435545D01*
X188595000Y-88538900D01*
X188525940Y-88435545D01*
X188424455Y-88334060D01*
X188305121Y-88254323D01*
X188172525Y-88199400D01*
X188031761Y-88171400D01*
X187888239Y-88171400D01*
X187747475Y-88199400D01*
X187614879Y-88254323D01*
X187495545Y-88334060D01*
X187394060Y-88435545D01*
X187314323Y-88554879D01*
X187297622Y-88595200D01*
X186829625Y-88595200D01*
X186814667Y-88593727D01*
X186799709Y-88595200D01*
X186799701Y-88595200D01*
X186754916Y-88599611D01*
X186697461Y-88617040D01*
X186644510Y-88645342D01*
X186627622Y-88659202D01*
X186609723Y-88673891D01*
X186609717Y-88673897D01*
X186598099Y-88683432D01*
X186588564Y-88695050D01*
X181201857Y-94081759D01*
X181190228Y-94091303D01*
X181152138Y-94137715D01*
X181123836Y-94190666D01*
X181106407Y-94248121D01*
X181101996Y-94292906D01*
X181101996Y-94292913D01*
X181100523Y-94307871D01*
X181101996Y-94322829D01*
X181101997Y-95934723D01*
X181042486Y-95974487D01*
X180962883Y-96054090D01*
X180900339Y-96147693D01*
X180857259Y-96251700D01*
X180835296Y-96362112D01*
X177841275Y-96362112D01*
X178009369Y-95932216D01*
X178682580Y-94636653D01*
X179489686Y-93419987D01*
X180421544Y-92296004D01*
X181467595Y-91277438D01*
X182615986Y-90375832D01*
X183853706Y-89601400D01*
X185166732Y-88962916D01*
X186540186Y-88467616D01*
X187958506Y-88121111D01*
X189405622Y-87927328D01*
X190865138Y-87888461D01*
X192320516Y-88004951D01*
G04 #@! TA.AperFunction,Conductor*
D17*
G36*
X192320516Y-88004951D02*
G01*
X193755268Y-88275479D01*
X195153136Y-88696979D01*
X196498282Y-89264675D01*
X197775465Y-89972135D01*
X198970215Y-90811344D01*
X200068993Y-91772793D01*
X201059351Y-92845587D01*
X201930067Y-94017573D01*
X202671276Y-95275471D01*
X203274580Y-96605028D01*
X203733142Y-97991180D01*
X204041768Y-99418221D01*
X204196960Y-100869983D01*
X204196960Y-102330017D01*
X204041768Y-103781779D01*
X203733142Y-105208820D01*
X203274580Y-106594972D01*
X202671276Y-107924529D01*
X201930067Y-109182427D01*
X201059351Y-110354413D01*
X200068993Y-111427207D01*
X198970215Y-112388656D01*
X197775465Y-113227865D01*
X196498282Y-113935325D01*
X195153136Y-114503021D01*
X194808415Y-114606965D01*
X194804621Y-114603171D01*
X194928225Y-114504622D01*
X194999081Y-114314799D01*
X195031544Y-114114800D01*
X195024364Y-113912311D01*
X194977820Y-113715113D01*
X194928225Y-113595378D01*
X194804619Y-113496828D01*
X194251447Y-114050000D01*
X194265590Y-114064143D01*
X194014143Y-114315590D01*
X194000000Y-114301447D01*
X193446828Y-114854619D01*
X193535586Y-114965943D01*
X192320516Y-115195049D01*
X190865138Y-115311539D01*
X189405622Y-115272672D01*
X187958506Y-115078889D01*
X187469595Y-114959445D01*
X187553172Y-114854619D01*
X187000000Y-114301447D01*
X186985858Y-114315590D01*
X186734411Y-114064143D01*
X186748553Y-114050000D01*
X187251447Y-114050000D01*
X187804619Y-114603172D01*
X187928225Y-114504622D01*
X187999081Y-114314799D01*
X188031544Y-114114800D01*
X188026949Y-113985200D01*
X192968456Y-113985200D01*
X192975636Y-114187689D01*
X193022180Y-114384887D01*
X193071775Y-114504622D01*
X193195381Y-114603172D01*
X193748553Y-114050000D01*
X193195381Y-113496828D01*
X193071775Y-113595378D01*
X193000919Y-113785201D01*
X192968456Y-113985200D01*
X188026949Y-113985200D01*
X188024364Y-113912311D01*
X187977820Y-113715113D01*
X187928225Y-113595378D01*
X187804619Y-113496828D01*
X187251447Y-114050000D01*
X186748553Y-114050000D01*
X186195381Y-113496828D01*
X186071775Y-113595378D01*
X186000919Y-113785201D01*
X185968456Y-113985200D01*
X185975636Y-114187689D01*
X186022180Y-114384887D01*
X186071775Y-114504622D01*
X186195379Y-114603171D01*
X186191802Y-114606748D01*
X185166732Y-114237084D01*
X183853706Y-113598600D01*
X182615986Y-112824168D01*
X181467595Y-111922562D01*
X180421544Y-110903996D01*
X179489686Y-109780013D01*
X178682580Y-108563347D01*
X178009369Y-107267784D01*
X177477683Y-105908002D01*
X177093544Y-104499409D01*
X176861306Y-103057964D01*
X176830689Y-102483501D01*
X178597869Y-102483501D01*
X178597869Y-102596077D01*
X178619832Y-102706489D01*
X178662912Y-102810496D01*
X178725456Y-102904099D01*
X178805059Y-102983702D01*
X178898662Y-103046246D01*
X179002669Y-103089326D01*
X179113081Y-103111289D01*
X179225657Y-103111289D01*
X179336069Y-103089326D01*
X179440076Y-103046246D01*
X179533679Y-102983702D01*
X179613282Y-102904099D01*
X179675826Y-102810496D01*
X179718906Y-102706489D01*
X179740869Y-102596077D01*
X179740869Y-102483501D01*
X179718906Y-102373089D01*
X179675826Y-102269082D01*
X179613282Y-102175479D01*
X179533679Y-102095876D01*
X179440076Y-102033332D01*
X179336069Y-101990252D01*
X179225657Y-101968289D01*
X179113081Y-101968289D01*
X179002669Y-101990252D01*
X178898662Y-102033332D01*
X178805059Y-102095876D01*
X178725456Y-102175479D01*
X178662912Y-102269082D01*
X178619832Y-102373089D01*
X178597869Y-102483501D01*
X176830689Y-102483501D01*
X176783600Y-101600000D01*
X176861306Y-100142036D01*
X176965250Y-99496877D01*
X177277824Y-99496877D01*
X177279297Y-99511835D01*
X177279298Y-100200729D01*
X177277824Y-100215697D01*
X177283708Y-100275448D01*
X177301137Y-100332902D01*
X177301138Y-100332903D01*
X177329440Y-100385854D01*
X177367530Y-100432265D01*
X177379153Y-100441804D01*
X177496464Y-100559115D01*
X177482500Y-100629312D01*
X177482500Y-100741888D01*
X177504463Y-100852300D01*
X177547543Y-100956307D01*
X177610087Y-101049910D01*
X177689690Y-101129513D01*
X177709575Y-101142800D01*
X177689690Y-101156087D01*
X177610087Y-101235690D01*
X177547543Y-101329293D01*
X177504463Y-101433300D01*
X177482500Y-101543712D01*
X177482500Y-101656288D01*
X177504463Y-101766700D01*
X177547543Y-101870707D01*
X177610087Y-101964310D01*
X177689690Y-102043913D01*
X177783293Y-102106457D01*
X177887300Y-102149537D01*
X177997712Y-102171500D01*
X178110288Y-102171500D01*
X178220700Y-102149537D01*
X178324707Y-102106457D01*
X178418310Y-102043913D01*
X178497913Y-101964310D01*
X178560457Y-101870707D01*
X178603537Y-101766700D01*
X178625500Y-101656288D01*
X178625500Y-101543712D01*
X178611537Y-101473515D01*
X178815252Y-101269800D01*
X179832749Y-101269800D01*
X180531601Y-101968653D01*
X180531600Y-105787642D01*
X180530127Y-105802600D01*
X180531600Y-105817558D01*
X180531600Y-105817565D01*
X180535233Y-105854446D01*
X180536011Y-105862351D01*
X180553440Y-105919805D01*
X180581742Y-105972756D01*
X180619832Y-106019168D01*
X180631461Y-106028712D01*
X181727248Y-107124500D01*
X181668033Y-107124500D01*
X181557621Y-107146463D01*
X181453614Y-107189543D01*
X181406800Y-107220823D01*
X181406800Y-107202957D01*
X181408273Y-107187999D01*
X181406800Y-107173041D01*
X181406800Y-107173034D01*
X181402389Y-107128249D01*
X181384960Y-107070794D01*
X181356658Y-107017843D01*
X181318568Y-106971432D01*
X181306944Y-106961892D01*
X178862475Y-104517424D01*
X178852931Y-104505795D01*
X178806520Y-104467705D01*
X178753569Y-104439403D01*
X178696114Y-104421974D01*
X178651329Y-104417563D01*
X178651321Y-104417563D01*
X178636363Y-104416090D01*
X178621405Y-104417563D01*
X178542528Y-104417563D01*
X178502764Y-104358053D01*
X178423161Y-104278450D01*
X178329558Y-104215906D01*
X178225551Y-104172826D01*
X178115139Y-104150863D01*
X178002563Y-104150863D01*
X177892151Y-104172826D01*
X177788144Y-104215906D01*
X177694541Y-104278450D01*
X177614938Y-104358053D01*
X177552394Y-104451656D01*
X177509314Y-104555663D01*
X177487351Y-104666075D01*
X177487351Y-104778651D01*
X177509314Y-104889063D01*
X177552394Y-104993070D01*
X177614938Y-105086673D01*
X177694541Y-105166276D01*
X177788144Y-105228820D01*
X177815075Y-105239975D01*
X177808526Y-105249776D01*
X177765446Y-105353783D01*
X177743483Y-105464195D01*
X177743483Y-105576771D01*
X177765446Y-105687183D01*
X177808526Y-105791190D01*
X177871070Y-105884793D01*
X177950673Y-105964396D01*
X178044276Y-106026940D01*
X178074336Y-106039391D01*
X178069760Y-106046240D01*
X178026680Y-106150247D01*
X178004717Y-106260659D01*
X178004717Y-106373235D01*
X178026680Y-106483647D01*
X178069760Y-106587654D01*
X178132304Y-106681257D01*
X178211907Y-106760860D01*
X178305510Y-106823404D01*
X178392368Y-106859381D01*
X178369217Y-106915275D01*
X178347254Y-107025687D01*
X178347254Y-107138263D01*
X178369217Y-107248675D01*
X178412297Y-107352682D01*
X178474841Y-107446285D01*
X178554444Y-107525888D01*
X178648047Y-107588432D01*
X178752054Y-107631512D01*
X178803257Y-107641697D01*
X178783407Y-107741486D01*
X178783407Y-107854062D01*
X178805370Y-107964474D01*
X178848450Y-108068481D01*
X178910994Y-108162084D01*
X178990597Y-108241687D01*
X179084200Y-108304231D01*
X179188207Y-108347311D01*
X179273456Y-108364269D01*
X179256513Y-108449445D01*
X179256513Y-108562021D01*
X179278476Y-108672433D01*
X179321556Y-108776440D01*
X179384100Y-108870043D01*
X179463703Y-108949646D01*
X179557306Y-109012190D01*
X179661313Y-109055270D01*
X179771725Y-109077233D01*
X179822633Y-109077233D01*
X179790463Y-109154900D01*
X179768500Y-109265312D01*
X179768500Y-109377888D01*
X179790463Y-109488300D01*
X179833543Y-109592307D01*
X179896087Y-109685910D01*
X179975690Y-109765513D01*
X180069293Y-109828057D01*
X180173300Y-109871137D01*
X180283712Y-109893100D01*
X180396288Y-109893100D01*
X180506700Y-109871137D01*
X180610707Y-109828057D01*
X180704310Y-109765513D01*
X180783913Y-109685910D01*
X180846457Y-109592307D01*
X180889537Y-109488300D01*
X180911500Y-109377888D01*
X180911500Y-109265312D01*
X180889537Y-109154900D01*
X180846457Y-109050893D01*
X180783913Y-108957290D01*
X180704310Y-108877687D01*
X180610707Y-108815143D01*
X180506700Y-108772063D01*
X180396288Y-108750100D01*
X180345380Y-108750100D01*
X180377550Y-108672433D01*
X180399513Y-108562021D01*
X180399513Y-108449445D01*
X180377550Y-108339033D01*
X180334470Y-108235026D01*
X180271926Y-108141423D01*
X180192323Y-108061820D01*
X180098720Y-107999276D01*
X179994713Y-107956196D01*
X179909464Y-107939238D01*
X179926407Y-107854062D01*
X179926407Y-107741486D01*
X179904444Y-107631074D01*
X179861364Y-107527067D01*
X179798820Y-107433464D01*
X179719217Y-107353861D01*
X179625614Y-107291317D01*
X179521607Y-107248237D01*
X179470404Y-107238052D01*
X179490254Y-107138263D01*
X179490254Y-107025687D01*
X179468291Y-106915275D01*
X179425211Y-106811268D01*
X179362667Y-106717665D01*
X179283064Y-106638062D01*
X179189461Y-106575518D01*
X179102603Y-106539541D01*
X179125754Y-106483647D01*
X179147717Y-106373235D01*
X179147717Y-106299335D01*
X180416201Y-107567820D01*
X180416200Y-108316042D01*
X180414727Y-108331000D01*
X180416200Y-108345958D01*
X180416200Y-108345965D01*
X180420611Y-108390750D01*
X180438040Y-108448205D01*
X180466342Y-108501156D01*
X180504432Y-108547568D01*
X180516061Y-108557112D01*
X181000401Y-109041454D01*
X181000400Y-109890242D01*
X180998927Y-109905200D01*
X181000400Y-109920158D01*
X181000400Y-109920165D01*
X181003491Y-109951543D01*
X181004811Y-109964951D01*
X181022240Y-110022405D01*
X181050542Y-110075356D01*
X181088632Y-110121768D01*
X181100261Y-110131312D01*
X184102307Y-113133360D01*
X184111842Y-113144978D01*
X184123460Y-113154513D01*
X184123466Y-113154519D01*
X184141365Y-113169208D01*
X184158253Y-113183068D01*
X184211204Y-113211370D01*
X184268659Y-113228799D01*
X184313444Y-113233210D01*
X184313452Y-113233210D01*
X184328410Y-113234683D01*
X184343368Y-113233210D01*
X186456532Y-113233210D01*
X186446828Y-113245381D01*
X187000000Y-113798553D01*
X187553172Y-113245381D01*
X187543468Y-113233210D01*
X193456532Y-113233210D01*
X193446828Y-113245381D01*
X194000000Y-113798553D01*
X194553172Y-113245381D01*
X194543468Y-113233210D01*
X196356632Y-113233210D01*
X196371590Y-113234683D01*
X196386548Y-113233210D01*
X196386556Y-113233210D01*
X196431341Y-113228799D01*
X196488796Y-113211370D01*
X196541747Y-113183068D01*
X196588158Y-113144978D01*
X196597702Y-113133349D01*
X198047252Y-111683800D01*
X199121042Y-111683800D01*
X199136000Y-111685273D01*
X199150958Y-111683800D01*
X199150966Y-111683800D01*
X199195751Y-111679389D01*
X199253206Y-111661960D01*
X199306157Y-111633658D01*
X199352568Y-111595568D01*
X199362112Y-111583939D01*
X200804944Y-110141108D01*
X200816568Y-110131568D01*
X200854658Y-110085157D01*
X200882960Y-110032206D01*
X200900389Y-109974751D01*
X200904800Y-109929966D01*
X200904800Y-109929958D01*
X200906273Y-109915000D01*
X200904800Y-109900042D01*
X200904800Y-109025251D01*
X202204944Y-107725108D01*
X202216568Y-107715568D01*
X202254658Y-107669157D01*
X202282960Y-107616206D01*
X202285580Y-107607568D01*
X202300389Y-107558752D01*
X202300897Y-107553597D01*
X202304800Y-107513966D01*
X202304800Y-107513958D01*
X202306273Y-107499000D01*
X202304800Y-107484042D01*
X202304800Y-105910751D01*
X203039544Y-105176008D01*
X203051168Y-105166468D01*
X203089258Y-105120057D01*
X203117560Y-105067106D01*
X203134989Y-105009651D01*
X203139400Y-104964866D01*
X203139400Y-104964858D01*
X203140873Y-104949900D01*
X203139400Y-104934942D01*
X203139400Y-101040158D01*
X203140873Y-101025200D01*
X203139400Y-101010242D01*
X203139400Y-101010234D01*
X203134989Y-100965449D01*
X203131973Y-100955505D01*
X203117560Y-100907994D01*
X203097243Y-100869983D01*
X203089258Y-100855043D01*
X203051168Y-100808632D01*
X203039545Y-100799093D01*
X202757537Y-100517085D01*
X202771500Y-100446888D01*
X202771500Y-100334312D01*
X202749537Y-100223900D01*
X202706457Y-100119893D01*
X202643913Y-100026290D01*
X202564310Y-99946687D01*
X202470707Y-99884143D01*
X202366700Y-99841063D01*
X202256288Y-99819100D01*
X202143712Y-99819100D01*
X202033300Y-99841063D01*
X201929293Y-99884143D01*
X201835690Y-99946687D01*
X201756087Y-100026290D01*
X201693543Y-100119893D01*
X201650463Y-100223900D01*
X201628500Y-100334312D01*
X201628500Y-100446888D01*
X201650463Y-100557300D01*
X201693543Y-100661307D01*
X201756087Y-100754910D01*
X201835690Y-100834513D01*
X201929293Y-100897057D01*
X202033300Y-100940137D01*
X202143712Y-100962100D01*
X202256288Y-100962100D01*
X202326485Y-100948137D01*
X202529800Y-101151452D01*
X202529801Y-104187310D01*
X202526313Y-104182090D01*
X202446710Y-104102487D01*
X202353107Y-104039943D01*
X202249100Y-103996863D01*
X202138688Y-103974900D01*
X202026112Y-103974900D01*
X201915700Y-103996863D01*
X201811693Y-104039943D01*
X201718090Y-104102487D01*
X201638487Y-104182090D01*
X201575943Y-104275693D01*
X201532863Y-104379700D01*
X201510900Y-104490112D01*
X201510900Y-104602688D01*
X201524864Y-104672885D01*
X201395061Y-104802688D01*
X201383432Y-104812232D01*
X201345342Y-104858644D01*
X201317513Y-104910710D01*
X201317040Y-104911595D01*
X201308748Y-104938931D01*
X201299611Y-104969050D01*
X201295200Y-105013835D01*
X201295200Y-105013842D01*
X201293727Y-105028800D01*
X201295200Y-105043758D01*
X201295201Y-107264747D01*
X199995061Y-108564888D01*
X199983432Y-108574432D01*
X199945342Y-108620844D01*
X199930121Y-108649322D01*
X199917040Y-108673795D01*
X199905980Y-108710256D01*
X199899611Y-108731250D01*
X199895200Y-108776035D01*
X199895200Y-108776042D01*
X199893727Y-108791000D01*
X199895200Y-108805958D01*
X199895201Y-109680747D01*
X198904338Y-110671611D01*
X197788047Y-110671611D01*
X197773089Y-110670138D01*
X197758131Y-110671611D01*
X197758123Y-110671611D01*
X197713338Y-110676022D01*
X197655883Y-110693451D01*
X197602932Y-110721753D01*
X197556521Y-110759843D01*
X197546981Y-110771467D01*
X195999650Y-112318799D01*
X184749851Y-112318799D01*
X184458734Y-112027682D01*
X187573765Y-112027682D01*
X187650633Y-112133353D01*
X187810171Y-112186460D01*
X187977004Y-112207421D01*
X188144721Y-112195432D01*
X188306876Y-112150954D01*
X188349367Y-112133353D01*
X188426235Y-112027682D01*
X192573765Y-112027682D01*
X192650633Y-112133353D01*
X192810171Y-112186460D01*
X192977004Y-112207421D01*
X193144721Y-112195432D01*
X193306876Y-112150954D01*
X193349367Y-112133353D01*
X193426235Y-112027682D01*
X193000000Y-111601447D01*
X192573765Y-112027682D01*
X188426235Y-112027682D01*
X188000000Y-111601447D01*
X187573765Y-112027682D01*
X184458734Y-112027682D01*
X183525164Y-111094112D01*
X185712098Y-111094112D01*
X185712098Y-111206688D01*
X185734061Y-111317100D01*
X185777141Y-111421107D01*
X185839685Y-111514710D01*
X185919288Y-111594313D01*
X186012891Y-111656857D01*
X186116898Y-111699937D01*
X186227310Y-111721900D01*
X186339886Y-111721900D01*
X186450298Y-111699937D01*
X186554305Y-111656857D01*
X186647908Y-111594313D01*
X186727511Y-111514710D01*
X186790055Y-111421107D01*
X186829032Y-111327004D01*
X187142579Y-111327004D01*
X187154568Y-111494721D01*
X187199046Y-111656876D01*
X187216647Y-111699367D01*
X187322318Y-111776235D01*
X187748553Y-111350000D01*
X188251447Y-111350000D01*
X188677682Y-111776235D01*
X188783353Y-111699367D01*
X188836460Y-111539829D01*
X188857421Y-111372996D01*
X188854134Y-111327004D01*
X192142579Y-111327004D01*
X192154568Y-111494721D01*
X192199046Y-111656876D01*
X192216647Y-111699367D01*
X192322318Y-111776235D01*
X192748553Y-111350000D01*
X193251447Y-111350000D01*
X193677682Y-111776235D01*
X193783353Y-111699367D01*
X193836460Y-111539829D01*
X193857421Y-111372996D01*
X193845432Y-111205279D01*
X193800954Y-111043124D01*
X193783353Y-111000633D01*
X193677682Y-110923765D01*
X193251447Y-111350000D01*
X192748553Y-111350000D01*
X192322318Y-110923765D01*
X192216647Y-111000633D01*
X192163540Y-111160171D01*
X192142579Y-111327004D01*
X188854134Y-111327004D01*
X188845432Y-111205279D01*
X188800954Y-111043124D01*
X188783353Y-111000633D01*
X188677682Y-110923765D01*
X188251447Y-111350000D01*
X187748553Y-111350000D01*
X187322318Y-110923765D01*
X187216647Y-111000633D01*
X187163540Y-111160171D01*
X187142579Y-111327004D01*
X186829032Y-111327004D01*
X186833135Y-111317100D01*
X186855098Y-111206688D01*
X186855098Y-111094112D01*
X186833135Y-110983700D01*
X186790055Y-110879693D01*
X186727511Y-110786090D01*
X186647908Y-110706487D01*
X186596771Y-110672318D01*
X187573765Y-110672318D01*
X188000000Y-111098553D01*
X188426235Y-110672318D01*
X192573765Y-110672318D01*
X193000000Y-111098553D01*
X193426235Y-110672318D01*
X193349367Y-110566647D01*
X193189829Y-110513540D01*
X193022996Y-110492579D01*
X192855279Y-110504568D01*
X192693124Y-110549046D01*
X192650633Y-110566647D01*
X192573765Y-110672318D01*
X188426235Y-110672318D01*
X188349367Y-110566647D01*
X188189829Y-110513540D01*
X188022996Y-110492579D01*
X187855279Y-110504568D01*
X187693124Y-110549046D01*
X187650633Y-110566647D01*
X187573765Y-110672318D01*
X186596771Y-110672318D01*
X186554305Y-110643943D01*
X186450298Y-110600863D01*
X186339886Y-110578900D01*
X186227310Y-110578900D01*
X186116898Y-110600863D01*
X186012891Y-110643943D01*
X185919288Y-110706487D01*
X185839685Y-110786090D01*
X185777141Y-110879693D01*
X185734061Y-110983700D01*
X185712098Y-111094112D01*
X183525164Y-111094112D01*
X182016400Y-109585349D01*
X182016400Y-108701558D01*
X182017873Y-108686600D01*
X182016400Y-108671642D01*
X182016400Y-108671634D01*
X182011989Y-108626849D01*
X181994560Y-108569394D01*
X181966258Y-108516443D01*
X181928168Y-108470032D01*
X181916544Y-108460492D01*
X181723552Y-108267500D01*
X181780609Y-108267500D01*
X181891021Y-108245537D01*
X181995028Y-108202457D01*
X182088631Y-108139913D01*
X182168234Y-108060310D01*
X182230778Y-107966707D01*
X182273858Y-107862700D01*
X182295821Y-107752288D01*
X182295821Y-107693073D01*
X182321201Y-107718453D01*
X182321200Y-108863323D01*
X182261690Y-108903087D01*
X182182087Y-108982690D01*
X182119543Y-109076293D01*
X182076463Y-109180300D01*
X182054500Y-109290712D01*
X182054500Y-109403288D01*
X182076463Y-109513700D01*
X182119543Y-109617707D01*
X182182087Y-109711310D01*
X182261690Y-109790913D01*
X182355293Y-109853457D01*
X182459300Y-109896537D01*
X182569712Y-109918500D01*
X182682288Y-109918500D01*
X182792700Y-109896537D01*
X182896707Y-109853457D01*
X182990310Y-109790913D01*
X183069913Y-109711310D01*
X183132457Y-109617707D01*
X183175537Y-109513700D01*
X183197500Y-109403288D01*
X183197500Y-109290712D01*
X183175537Y-109180300D01*
X183132457Y-109076293D01*
X183069913Y-108982690D01*
X182990310Y-108903087D01*
X182930800Y-108863323D01*
X182930800Y-107896986D01*
X185360462Y-110326649D01*
X185369997Y-110338267D01*
X185381615Y-110347802D01*
X185381621Y-110347808D01*
X185399520Y-110362497D01*
X185416408Y-110376357D01*
X185469359Y-110404659D01*
X185526814Y-110422088D01*
X185571599Y-110426499D01*
X185571607Y-110426499D01*
X185586565Y-110427972D01*
X185601523Y-110426499D01*
X195358030Y-110426499D01*
X195372988Y-110427972D01*
X195387946Y-110426499D01*
X195387954Y-110426499D01*
X195432739Y-110422088D01*
X195490194Y-110404659D01*
X195543145Y-110376357D01*
X195589556Y-110338267D01*
X195599100Y-110326638D01*
X196225447Y-109700291D01*
X196198852Y-109764500D01*
X196176889Y-109874912D01*
X196176889Y-109987488D01*
X196198852Y-110097900D01*
X196241932Y-110201907D01*
X196304476Y-110295510D01*
X196384079Y-110375113D01*
X196477682Y-110437657D01*
X196581689Y-110480737D01*
X196692101Y-110502700D01*
X196804677Y-110502700D01*
X196915089Y-110480737D01*
X197019096Y-110437657D01*
X197112699Y-110375113D01*
X197192302Y-110295510D01*
X197254846Y-110201907D01*
X197297926Y-110097900D01*
X197319889Y-109987488D01*
X197319889Y-109874912D01*
X197297926Y-109764500D01*
X197254846Y-109660493D01*
X197192302Y-109566890D01*
X197188313Y-109562901D01*
X198031856Y-109562901D01*
X198070469Y-109601515D01*
X198056506Y-109671712D01*
X198056506Y-109784288D01*
X198078469Y-109894700D01*
X198121549Y-109998707D01*
X198184093Y-110092310D01*
X198263696Y-110171913D01*
X198357299Y-110234457D01*
X198461306Y-110277537D01*
X198571718Y-110299500D01*
X198684294Y-110299500D01*
X198794706Y-110277537D01*
X198898713Y-110234457D01*
X198992316Y-110171913D01*
X199071919Y-110092310D01*
X199134463Y-109998707D01*
X199177543Y-109894700D01*
X199199506Y-109784288D01*
X199199506Y-109671712D01*
X199177543Y-109561300D01*
X199134463Y-109457293D01*
X199071919Y-109363690D01*
X198992316Y-109284087D01*
X198898713Y-109221543D01*
X198794706Y-109178463D01*
X198684294Y-109156500D01*
X198571718Y-109156500D01*
X198501521Y-109170463D01*
X198384219Y-109053162D01*
X198374675Y-109041533D01*
X198328264Y-109003443D01*
X198275313Y-108975141D01*
X198217858Y-108957712D01*
X198173073Y-108953301D01*
X198173065Y-108953301D01*
X198158107Y-108951828D01*
X198143149Y-108953301D01*
X196251543Y-108953301D01*
X196236585Y-108951828D01*
X196221627Y-108953301D01*
X196221620Y-108953301D01*
X196182475Y-108957156D01*
X196176834Y-108957712D01*
X196147845Y-108966506D01*
X196119380Y-108975141D01*
X196066429Y-109003443D01*
X196020018Y-109041533D01*
X196010478Y-109053157D01*
X195246737Y-109816899D01*
X193345219Y-109816899D01*
X193909755Y-109252364D01*
X193921379Y-109242824D01*
X193959469Y-109196413D01*
X193987771Y-109143462D01*
X193999913Y-109103437D01*
X194005200Y-109086008D01*
X194006157Y-109076293D01*
X194009611Y-109041222D01*
X194009611Y-109041215D01*
X194011084Y-109026257D01*
X194009611Y-109011299D01*
X194009611Y-107588702D01*
X194011084Y-107573744D01*
X194009611Y-107558786D01*
X194009611Y-107558778D01*
X194005200Y-107513993D01*
X194001487Y-107501751D01*
X193987771Y-107456538D01*
X193980352Y-107442658D01*
X193959469Y-107403587D01*
X193921379Y-107357176D01*
X193909756Y-107347637D01*
X193164179Y-106602061D01*
X193154635Y-106590432D01*
X193108224Y-106552342D01*
X193055273Y-106524040D01*
X192997818Y-106506611D01*
X192953033Y-106502200D01*
X192953025Y-106502200D01*
X192938067Y-106500727D01*
X192923109Y-106502200D01*
X186818077Y-106502200D01*
X186778313Y-106442690D01*
X186698710Y-106363087D01*
X186605107Y-106300543D01*
X186501100Y-106257463D01*
X186390688Y-106235500D01*
X186278112Y-106235500D01*
X186167700Y-106257463D01*
X186063693Y-106300543D01*
X185970090Y-106363087D01*
X185890487Y-106442690D01*
X185827943Y-106536293D01*
X185784863Y-106640300D01*
X185768187Y-106724135D01*
X185329279Y-106285228D01*
X185434300Y-106264337D01*
X185538307Y-106221257D01*
X185631910Y-106158713D01*
X185711513Y-106079110D01*
X185751277Y-106019600D01*
X191831242Y-106019600D01*
X191846200Y-106021073D01*
X191861158Y-106019600D01*
X191861166Y-106019600D01*
X191905951Y-106015189D01*
X191963406Y-105997760D01*
X192016357Y-105969458D01*
X192062768Y-105931368D01*
X192072312Y-105919739D01*
X194819744Y-103172308D01*
X194831368Y-103162768D01*
X194869458Y-103116357D01*
X194897760Y-103063406D01*
X194915189Y-103005951D01*
X194919600Y-102961166D01*
X194919600Y-102961158D01*
X194921073Y-102946200D01*
X194919600Y-102931242D01*
X194919600Y-94431712D01*
X199021700Y-94431712D01*
X199021700Y-94544288D01*
X199043663Y-94654700D01*
X199086743Y-94758707D01*
X199149287Y-94852310D01*
X199228890Y-94931913D01*
X199322493Y-94994457D01*
X199426500Y-95037537D01*
X199536912Y-95059500D01*
X199649488Y-95059500D01*
X199759900Y-95037537D01*
X199863907Y-94994457D01*
X199957510Y-94931913D01*
X200037113Y-94852310D01*
X200099657Y-94758707D01*
X200142737Y-94654700D01*
X200164700Y-94544288D01*
X200164700Y-94431712D01*
X200142737Y-94321300D01*
X200099657Y-94217293D01*
X200037113Y-94123690D01*
X199957510Y-94044087D01*
X199863907Y-93981543D01*
X199759900Y-93938463D01*
X199649488Y-93916500D01*
X199536912Y-93916500D01*
X199426500Y-93938463D01*
X199322493Y-93981543D01*
X199228890Y-94044087D01*
X199149287Y-94123690D01*
X199086743Y-94217293D01*
X199043663Y-94321300D01*
X199021700Y-94431712D01*
X194919600Y-94431712D01*
X194919600Y-91651333D01*
X194961690Y-91693423D01*
X195055293Y-91755967D01*
X195159300Y-91799047D01*
X195269712Y-91821010D01*
X195382288Y-91821010D01*
X195492700Y-91799047D01*
X195596707Y-91755967D01*
X195690310Y-91693423D01*
X195769913Y-91613820D01*
X195832457Y-91520217D01*
X195875537Y-91416210D01*
X195897500Y-91305798D01*
X195897500Y-91193222D01*
X195875537Y-91082810D01*
X195832457Y-90978803D01*
X195769913Y-90885200D01*
X195690310Y-90805597D01*
X195596707Y-90743053D01*
X195492700Y-90699973D01*
X195382288Y-90678010D01*
X195269712Y-90678010D01*
X195159300Y-90699973D01*
X195055293Y-90743053D01*
X194961690Y-90805597D01*
X194919600Y-90847687D01*
X194919600Y-90468168D01*
X194921073Y-90453210D01*
X194919600Y-90438252D01*
X194919600Y-90438245D01*
X194915189Y-90393460D01*
X194897760Y-90336005D01*
X194869458Y-90283054D01*
X194831368Y-90236643D01*
X194819745Y-90227104D01*
X193730221Y-89137581D01*
X193740600Y-89112525D01*
X193768600Y-88971761D01*
X193768600Y-88828239D01*
X193740600Y-88687475D01*
X193685677Y-88554879D01*
X193605940Y-88435545D01*
X193504455Y-88334060D01*
X193385121Y-88254323D01*
X193252525Y-88199400D01*
X193111761Y-88171400D01*
X192968239Y-88171400D01*
X192827475Y-88199400D01*
X192694879Y-88254323D01*
X192575545Y-88334060D01*
X192474060Y-88435545D01*
X192405000Y-88538900D01*
X192335940Y-88435545D01*
X192234455Y-88334060D01*
X192115121Y-88254323D01*
X191982525Y-88199400D01*
X191841761Y-88171400D01*
X191698239Y-88171400D01*
X191557475Y-88199400D01*
X191424879Y-88254323D01*
X191305545Y-88334060D01*
X191204060Y-88435545D01*
X191131680Y-88543869D01*
X191101374Y-88488627D01*
X191009564Y-88379209D01*
X190898172Y-88289805D01*
X190786143Y-88229940D01*
X190677800Y-88252519D01*
X190677800Y-88722200D01*
X190697800Y-88722200D01*
X190697800Y-89077800D01*
X190677800Y-89077800D01*
X190677800Y-89547481D01*
X190786143Y-89570060D01*
X190898172Y-89510195D01*
X191009564Y-89420791D01*
X191101374Y-89311373D01*
X191131680Y-89256131D01*
X191204060Y-89364455D01*
X191305545Y-89465940D01*
X191424879Y-89545677D01*
X191442672Y-89553047D01*
X191451678Y-89569896D01*
X191476877Y-89600600D01*
X191499290Y-89627911D01*
X191513827Y-89639841D01*
X193471800Y-91597815D01*
X193471801Y-93263384D01*
X191929686Y-94805500D01*
X191840712Y-94805500D01*
X191730300Y-94827463D01*
X191626293Y-94870543D01*
X191532690Y-94933087D01*
X191453087Y-95012690D01*
X191390543Y-95106293D01*
X191347463Y-95210300D01*
X191325500Y-95320712D01*
X191325500Y-95409685D01*
X187497386Y-99237800D01*
X185491623Y-99237800D01*
X185428710Y-99174887D01*
X185335107Y-99112343D01*
X185231100Y-99069263D01*
X185120688Y-99047300D01*
X185008112Y-99047300D01*
X184897700Y-99069263D01*
X184793693Y-99112343D01*
X184700090Y-99174887D01*
X184620487Y-99254490D01*
X184557943Y-99348093D01*
X184514863Y-99452100D01*
X184492900Y-99562512D01*
X184492900Y-99651485D01*
X183258832Y-100885554D01*
X183244289Y-100897489D01*
X183212666Y-100936023D01*
X183196678Y-100955504D01*
X183161300Y-101021692D01*
X183161299Y-101021693D01*
X183139513Y-101093512D01*
X183134698Y-101142405D01*
X183132157Y-101168200D01*
X183134000Y-101186910D01*
X183134001Y-106026280D01*
X183132157Y-106045000D01*
X183139514Y-106119688D01*
X183161299Y-106191507D01*
X183196678Y-106257696D01*
X183220153Y-106286300D01*
X183244290Y-106315711D01*
X183258827Y-106327641D01*
X185518359Y-108587174D01*
X185530289Y-108601711D01*
X185548968Y-108617040D01*
X185588303Y-108649322D01*
X185634268Y-108673891D01*
X185654492Y-108684701D01*
X185726311Y-108706487D01*
X185782287Y-108712000D01*
X185782289Y-108712000D01*
X185800999Y-108713843D01*
X185819709Y-108712000D01*
X190822781Y-108712000D01*
X190885694Y-108774913D01*
X190979297Y-108837457D01*
X191083304Y-108880537D01*
X191193716Y-108902500D01*
X191306292Y-108902500D01*
X191416704Y-108880537D01*
X191520711Y-108837457D01*
X191614314Y-108774913D01*
X191677227Y-108712000D01*
X191850777Y-108712000D01*
X191913690Y-108774913D01*
X192007293Y-108837457D01*
X192111300Y-108880537D01*
X192221712Y-108902500D01*
X192334288Y-108902500D01*
X192444700Y-108880537D01*
X192548707Y-108837457D01*
X192642310Y-108774913D01*
X192721913Y-108695310D01*
X192784457Y-108601707D01*
X192827537Y-108497700D01*
X192849500Y-108387288D01*
X192849500Y-108274712D01*
X192827537Y-108164300D01*
X192784457Y-108060293D01*
X192721913Y-107966690D01*
X192642310Y-107887087D01*
X192548707Y-107824543D01*
X192444700Y-107781463D01*
X192334288Y-107759500D01*
X192221712Y-107759500D01*
X192111300Y-107781463D01*
X192007293Y-107824543D01*
X191913690Y-107887087D01*
X191850777Y-107950000D01*
X191677227Y-107950000D01*
X191614314Y-107887087D01*
X191520711Y-107824543D01*
X191416704Y-107781463D01*
X191306292Y-107759500D01*
X191193716Y-107759500D01*
X191083304Y-107781463D01*
X190979297Y-107824543D01*
X190885694Y-107887087D01*
X190822781Y-107950000D01*
X185958815Y-107950000D01*
X183896000Y-105887186D01*
X183896000Y-101326014D01*
X185031715Y-100190300D01*
X185120688Y-100190300D01*
X185231100Y-100168337D01*
X185335107Y-100125257D01*
X185428710Y-100062713D01*
X185491623Y-99999800D01*
X187636490Y-99999800D01*
X187655200Y-100001643D01*
X187673910Y-99999800D01*
X187673913Y-99999800D01*
X187729889Y-99994287D01*
X187801708Y-99972501D01*
X187867896Y-99937122D01*
X187925911Y-99889511D01*
X187937846Y-99874968D01*
X191864315Y-95948500D01*
X191953288Y-95948500D01*
X192063700Y-95926537D01*
X192167707Y-95883457D01*
X192261310Y-95820913D01*
X192340913Y-95741310D01*
X192403457Y-95647707D01*
X192446537Y-95543700D01*
X192468500Y-95433288D01*
X192468500Y-95344314D01*
X194108974Y-93703841D01*
X194123511Y-93691911D01*
X194147050Y-93663228D01*
X194171122Y-93633897D01*
X194206501Y-93567708D01*
X194220652Y-93521057D01*
X194228287Y-93495889D01*
X194233800Y-93439913D01*
X194233800Y-93439910D01*
X194235643Y-93421200D01*
X194233800Y-93402490D01*
X194233800Y-91458709D01*
X194235643Y-91439999D01*
X194231530Y-91398243D01*
X194228287Y-91365311D01*
X194206501Y-91293492D01*
X194171123Y-91227305D01*
X194171122Y-91227303D01*
X194135439Y-91183824D01*
X194123511Y-91169289D01*
X194108975Y-91157360D01*
X192326005Y-89374390D01*
X192335940Y-89364455D01*
X192405000Y-89261100D01*
X192474060Y-89364455D01*
X192575545Y-89465940D01*
X192694879Y-89545677D01*
X192827475Y-89600600D01*
X192968239Y-89628600D01*
X193111761Y-89628600D01*
X193252525Y-89600600D01*
X193308113Y-89577575D01*
X194310000Y-90579463D01*
X194310001Y-102819947D01*
X191719949Y-105410000D01*
X185751277Y-105410000D01*
X185711513Y-105350490D01*
X185631910Y-105270887D01*
X185538307Y-105208343D01*
X185434300Y-105165263D01*
X185323888Y-105143300D01*
X185211312Y-105143300D01*
X185100900Y-105165263D01*
X184996893Y-105208343D01*
X184962800Y-105231123D01*
X184962800Y-104012251D01*
X188137051Y-100838000D01*
X188772800Y-100838000D01*
X188772800Y-103124000D01*
X188774264Y-103138866D01*
X188778600Y-103153160D01*
X188785642Y-103166334D01*
X188795118Y-103177882D01*
X188806666Y-103187358D01*
X188819840Y-103194400D01*
X188834134Y-103198736D01*
X188849000Y-103200200D01*
X192151000Y-103200200D01*
X192165866Y-103198736D01*
X192180160Y-103194400D01*
X192193334Y-103187358D01*
X192204882Y-103177882D01*
X192214358Y-103166334D01*
X192221400Y-103153160D01*
X192225736Y-103138866D01*
X192227200Y-103124000D01*
X192227200Y-100838000D01*
X192225736Y-100823134D01*
X192221400Y-100808840D01*
X192214358Y-100795666D01*
X192204882Y-100784118D01*
X192193334Y-100774642D01*
X192180160Y-100767600D01*
X192165866Y-100763264D01*
X192151000Y-100761800D01*
X188849000Y-100761800D01*
X188834134Y-100763264D01*
X188819840Y-100767600D01*
X188806666Y-100774642D01*
X188795118Y-100784118D01*
X188785642Y-100795666D01*
X188778600Y-100808840D01*
X188774264Y-100823134D01*
X188772800Y-100838000D01*
X188137051Y-100838000D01*
X189051452Y-99923600D01*
X190016323Y-99923600D01*
X190056087Y-99983110D01*
X190135690Y-100062713D01*
X190229293Y-100125257D01*
X190333300Y-100168337D01*
X190443712Y-100190300D01*
X190556288Y-100190300D01*
X190666700Y-100168337D01*
X190770707Y-100125257D01*
X190864310Y-100062713D01*
X190943913Y-99983110D01*
X191006457Y-99889507D01*
X191049537Y-99785500D01*
X191071500Y-99675088D01*
X191071500Y-99562512D01*
X191049537Y-99452100D01*
X191006457Y-99348093D01*
X190943913Y-99254490D01*
X190864310Y-99174887D01*
X190770707Y-99112343D01*
X190666700Y-99069263D01*
X190556288Y-99047300D01*
X190443712Y-99047300D01*
X190333300Y-99069263D01*
X190229293Y-99112343D01*
X190135690Y-99174887D01*
X190056087Y-99254490D01*
X190016323Y-99314000D01*
X188940157Y-99314000D01*
X188925199Y-99312527D01*
X188910241Y-99314000D01*
X188910234Y-99314000D01*
X188871089Y-99317855D01*
X188865448Y-99318411D01*
X188812863Y-99334363D01*
X188807994Y-99335840D01*
X188755043Y-99364142D01*
X188708632Y-99402232D01*
X188699092Y-99413856D01*
X184453061Y-103659888D01*
X184441432Y-103669432D01*
X184403342Y-103715844D01*
X184375040Y-103768795D01*
X184357611Y-103826250D01*
X184353200Y-103871035D01*
X184353200Y-103871042D01*
X184351727Y-103886000D01*
X184353200Y-103900958D01*
X184353201Y-106030032D01*
X184351727Y-106045000D01*
X184357611Y-106104751D01*
X184375040Y-106162205D01*
X184375041Y-106162206D01*
X184403343Y-106215157D01*
X184441433Y-106261568D01*
X184453057Y-106271108D01*
X185828892Y-107646944D01*
X185838432Y-107658568D01*
X185884843Y-107696658D01*
X185937794Y-107724960D01*
X185977819Y-107737102D01*
X185995248Y-107742389D01*
X186000889Y-107742945D01*
X186040034Y-107746800D01*
X186040041Y-107746800D01*
X186054999Y-107748273D01*
X186069957Y-107746800D01*
X186548042Y-107746800D01*
X186563000Y-107748273D01*
X186577958Y-107746800D01*
X186577966Y-107746800D01*
X186622751Y-107742389D01*
X186680206Y-107724960D01*
X186733157Y-107696658D01*
X186779568Y-107658568D01*
X186789112Y-107646939D01*
X186943252Y-107492800D01*
X192761749Y-107492800D01*
X193095200Y-107826252D01*
X193095201Y-108773746D01*
X192699749Y-109169200D01*
X185927252Y-109169200D01*
X182168800Y-105410749D01*
X182168800Y-101360959D01*
X182170273Y-101346001D01*
X182168800Y-101331043D01*
X182168800Y-101331036D01*
X182164389Y-101286251D01*
X182162450Y-101279857D01*
X182159399Y-101269800D01*
X182146960Y-101228796D01*
X182118658Y-101175845D01*
X182080568Y-101129434D01*
X182068944Y-101119894D01*
X179063762Y-98114712D01*
X181927500Y-98114712D01*
X181927500Y-98227288D01*
X181949463Y-98337700D01*
X181992543Y-98441707D01*
X182055087Y-98535310D01*
X182134690Y-98614913D01*
X182228293Y-98677457D01*
X182332300Y-98720537D01*
X182442712Y-98742500D01*
X182555288Y-98742500D01*
X182665700Y-98720537D01*
X182769707Y-98677457D01*
X182863310Y-98614913D01*
X182942913Y-98535310D01*
X183005457Y-98441707D01*
X183048537Y-98337700D01*
X183070500Y-98227288D01*
X183070500Y-98114712D01*
X183048537Y-98004300D01*
X183005457Y-97900293D01*
X182942913Y-97806690D01*
X182863310Y-97727087D01*
X182769707Y-97664543D01*
X182665700Y-97621463D01*
X182555288Y-97599500D01*
X182442712Y-97599500D01*
X182332300Y-97621463D01*
X182228293Y-97664543D01*
X182134690Y-97727087D01*
X182055087Y-97806690D01*
X181992543Y-97900293D01*
X181949463Y-98004300D01*
X181927500Y-98114712D01*
X179063762Y-98114712D01*
X178992536Y-98043487D01*
X179006500Y-97973290D01*
X179006500Y-97860714D01*
X178984537Y-97750302D01*
X178941457Y-97646295D01*
X178878913Y-97552692D01*
X178799310Y-97473089D01*
X178705707Y-97410545D01*
X178601700Y-97367465D01*
X178491288Y-97345502D01*
X178378712Y-97345502D01*
X178268300Y-97367465D01*
X178164293Y-97410545D01*
X178070690Y-97473089D01*
X177991087Y-97552692D01*
X177928543Y-97646295D01*
X177885463Y-97750302D01*
X177863500Y-97860714D01*
X177863500Y-97973290D01*
X177885463Y-98083702D01*
X177928543Y-98187709D01*
X177991087Y-98281312D01*
X178070690Y-98360915D01*
X178164293Y-98423459D01*
X178268300Y-98466539D01*
X178378712Y-98488502D01*
X178491288Y-98488502D01*
X178561485Y-98474538D01*
X179007248Y-98920301D01*
X177870830Y-98920301D01*
X177855872Y-98918828D01*
X177840914Y-98920301D01*
X177840907Y-98920301D01*
X177801762Y-98924156D01*
X177796121Y-98924712D01*
X177782749Y-98928769D01*
X177738667Y-98942141D01*
X177685716Y-98970443D01*
X177639305Y-99008533D01*
X177629765Y-99020157D01*
X177379158Y-99270765D01*
X177367529Y-99280309D01*
X177329439Y-99326721D01*
X177310249Y-99362625D01*
X177301137Y-99379672D01*
X177285857Y-99430044D01*
X177283708Y-99437127D01*
X177279297Y-99481912D01*
X177279297Y-99481919D01*
X177277824Y-99496877D01*
X176965250Y-99496877D01*
X177093544Y-98700591D01*
X177477683Y-97291998D01*
X177602917Y-96971712D01*
X179463704Y-96971712D01*
X179463704Y-97084288D01*
X179485667Y-97194700D01*
X179528747Y-97298707D01*
X179591291Y-97392310D01*
X179670894Y-97471913D01*
X179764497Y-97534457D01*
X179868504Y-97577537D01*
X179978916Y-97599500D01*
X180091492Y-97599500D01*
X180201904Y-97577537D01*
X180305911Y-97534457D01*
X180399514Y-97471913D01*
X180479117Y-97392310D01*
X180541661Y-97298707D01*
X180584741Y-97194700D01*
X180606704Y-97084288D01*
X180606704Y-96971712D01*
X180584741Y-96861300D01*
X180541661Y-96757293D01*
X180479117Y-96663690D01*
X180399514Y-96584087D01*
X180305911Y-96521543D01*
X180201904Y-96478463D01*
X180091492Y-96456500D01*
X179978916Y-96456500D01*
X179868504Y-96478463D01*
X179764497Y-96521543D01*
X179670894Y-96584087D01*
X179591291Y-96663690D01*
X179528747Y-96757293D01*
X179485667Y-96861300D01*
X179463704Y-96971712D01*
X177602917Y-96971712D01*
X177841275Y-96362112D01*
X180835296Y-96362112D01*
X180835296Y-96474688D01*
X180857259Y-96585100D01*
X180900339Y-96689107D01*
X180962883Y-96782710D01*
X181042486Y-96862313D01*
X181136089Y-96924857D01*
X181240096Y-96967937D01*
X181350508Y-96989900D01*
X181463084Y-96989900D01*
X181573496Y-96967937D01*
X181677503Y-96924857D01*
X181771106Y-96862313D01*
X181850709Y-96782710D01*
X181913253Y-96689107D01*
X181956333Y-96585100D01*
X181978296Y-96474688D01*
X181978296Y-96362112D01*
X181956333Y-96251700D01*
X181913253Y-96147693D01*
X181850709Y-96054090D01*
X181771106Y-95974487D01*
X181711596Y-95934723D01*
X181711596Y-94434122D01*
X183085606Y-93060112D01*
X183629300Y-93060112D01*
X183629300Y-93172688D01*
X183651263Y-93283100D01*
X183694343Y-93387107D01*
X183756887Y-93480710D01*
X183836490Y-93560313D01*
X183930093Y-93622857D01*
X184034100Y-93665937D01*
X184144512Y-93687900D01*
X184257088Y-93687900D01*
X184367500Y-93665937D01*
X184471507Y-93622857D01*
X184565110Y-93560313D01*
X184644713Y-93480710D01*
X184707257Y-93387107D01*
X184750337Y-93283100D01*
X184772300Y-93172688D01*
X184772300Y-93060112D01*
X184750337Y-92949700D01*
X184707257Y-92845693D01*
X184644713Y-92752090D01*
X184565110Y-92672487D01*
X184471507Y-92609943D01*
X184367500Y-92566863D01*
X184257088Y-92544900D01*
X184144512Y-92544900D01*
X184034100Y-92566863D01*
X183930093Y-92609943D01*
X183836490Y-92672487D01*
X183756887Y-92752090D01*
X183694343Y-92845693D01*
X183651263Y-92949700D01*
X183629300Y-93060112D01*
X183085606Y-93060112D01*
X186940920Y-89204800D01*
X187297622Y-89204800D01*
X187314323Y-89245121D01*
X187394060Y-89364455D01*
X187495545Y-89465940D01*
X187614879Y-89545677D01*
X187747475Y-89600600D01*
X187888239Y-89628600D01*
X188031761Y-89628600D01*
X188172525Y-89600600D01*
X188305121Y-89545677D01*
X188424455Y-89465940D01*
X188525940Y-89364455D01*
X188595000Y-89261100D01*
X188664060Y-89364455D01*
X188765545Y-89465940D01*
X188884879Y-89545677D01*
X188912026Y-89556922D01*
X183691053Y-94777896D01*
X183679429Y-94787436D01*
X183641339Y-94833847D01*
X183631471Y-94852310D01*
X183613036Y-94886799D01*
X183595607Y-94944253D01*
X183589723Y-95004004D01*
X183591197Y-95018972D01*
X183591196Y-98474724D01*
X183531686Y-98514488D01*
X183452083Y-98594091D01*
X183389539Y-98687694D01*
X183346459Y-98791701D01*
X183324496Y-98902113D01*
X183324496Y-99014689D01*
X183346459Y-99125101D01*
X183389539Y-99229108D01*
X183452083Y-99322711D01*
X183531686Y-99402314D01*
X183625289Y-99464858D01*
X183729296Y-99507938D01*
X183839708Y-99529901D01*
X183952284Y-99529901D01*
X184062696Y-99507938D01*
X184166703Y-99464858D01*
X184260306Y-99402314D01*
X184339909Y-99322711D01*
X184402453Y-99229108D01*
X184445533Y-99125101D01*
X184467496Y-99014689D01*
X184467496Y-98902113D01*
X184445533Y-98791701D01*
X184402453Y-98687694D01*
X184339909Y-98594091D01*
X184260306Y-98514488D01*
X184200796Y-98474724D01*
X184200796Y-96012000D01*
X184351727Y-96012000D01*
X184353201Y-96026968D01*
X184353200Y-97013042D01*
X184351727Y-97028000D01*
X184353200Y-97042958D01*
X184353200Y-97042965D01*
X184357611Y-97087750D01*
X184375040Y-97145205D01*
X184403342Y-97198156D01*
X184441432Y-97244568D01*
X184453061Y-97254112D01*
X185028791Y-97829843D01*
X185038331Y-97841467D01*
X185084742Y-97879557D01*
X185137693Y-97907859D01*
X185195148Y-97925288D01*
X185239933Y-97929699D01*
X185239941Y-97929699D01*
X185254899Y-97931172D01*
X185269857Y-97929699D01*
X185824143Y-97929699D01*
X185839101Y-97931172D01*
X185854059Y-97929699D01*
X185854067Y-97929699D01*
X185898852Y-97925288D01*
X185956307Y-97907859D01*
X186009258Y-97879557D01*
X186055669Y-97841467D01*
X186057009Y-97839834D01*
X186125712Y-97853500D01*
X186238288Y-97853500D01*
X186348700Y-97831537D01*
X186452707Y-97788457D01*
X186546310Y-97725913D01*
X186625913Y-97646310D01*
X186688457Y-97552707D01*
X186731537Y-97448700D01*
X186753500Y-97338288D01*
X186753500Y-97225712D01*
X186731537Y-97115300D01*
X186688457Y-97011293D01*
X186625913Y-96917690D01*
X186546310Y-96838087D01*
X186452707Y-96775543D01*
X186348700Y-96732463D01*
X186238288Y-96710500D01*
X186125712Y-96710500D01*
X186116709Y-96712291D01*
X186118500Y-96703288D01*
X186118500Y-96590712D01*
X186104536Y-96520515D01*
X187070252Y-95554800D01*
X189723042Y-95554800D01*
X189738000Y-95556273D01*
X189752958Y-95554800D01*
X189752966Y-95554800D01*
X189797751Y-95550389D01*
X189855206Y-95532960D01*
X189908157Y-95504658D01*
X189954568Y-95466568D01*
X189964112Y-95454939D01*
X192405515Y-93013537D01*
X192475712Y-93027500D01*
X192588288Y-93027500D01*
X192698700Y-93005537D01*
X192802707Y-92962457D01*
X192896310Y-92899913D01*
X192975913Y-92820310D01*
X193038457Y-92726707D01*
X193081537Y-92622700D01*
X193103500Y-92512288D01*
X193103500Y-92399712D01*
X193081537Y-92289300D01*
X193038457Y-92185293D01*
X192975913Y-92091690D01*
X192896310Y-92012087D01*
X192802707Y-91949543D01*
X192698700Y-91906463D01*
X192588288Y-91884500D01*
X192475712Y-91884500D01*
X192365300Y-91906463D01*
X192261293Y-91949543D01*
X192167690Y-92012087D01*
X192088087Y-92091690D01*
X192025543Y-92185293D01*
X191982463Y-92289300D01*
X191960500Y-92399712D01*
X191960500Y-92512288D01*
X191974463Y-92582485D01*
X189611749Y-94945200D01*
X186958957Y-94945200D01*
X186943999Y-94943727D01*
X186929041Y-94945200D01*
X186929034Y-94945200D01*
X186889889Y-94949055D01*
X186884248Y-94949611D01*
X186866819Y-94954898D01*
X186826794Y-94967040D01*
X186773843Y-94995342D01*
X186727432Y-95033432D01*
X186717892Y-95045056D01*
X185673485Y-96089464D01*
X185603288Y-96075500D01*
X185490712Y-96075500D01*
X185380300Y-96097463D01*
X185276293Y-96140543D01*
X185182690Y-96203087D01*
X185103087Y-96282690D01*
X185040543Y-96376293D01*
X184997463Y-96480300D01*
X184975500Y-96590712D01*
X184975500Y-96703288D01*
X184997463Y-96813700D01*
X185040543Y-96917707D01*
X185103087Y-97011310D01*
X185182690Y-97090913D01*
X185276293Y-97153457D01*
X185380300Y-97196537D01*
X185490712Y-97218500D01*
X185603288Y-97218500D01*
X185612291Y-97216709D01*
X185610500Y-97225712D01*
X185610500Y-97320099D01*
X185381151Y-97320099D01*
X184962800Y-96901749D01*
X184962800Y-96138251D01*
X187070252Y-94030800D01*
X188663742Y-94030800D01*
X188678700Y-94032273D01*
X188693658Y-94030800D01*
X188693666Y-94030800D01*
X188738451Y-94026389D01*
X188795906Y-94008960D01*
X188848857Y-93980658D01*
X188895268Y-93942568D01*
X188904812Y-93930939D01*
X190373515Y-92462237D01*
X190443712Y-92476200D01*
X190556288Y-92476200D01*
X190666700Y-92454237D01*
X190770707Y-92411157D01*
X190864310Y-92348613D01*
X190943913Y-92269010D01*
X191006457Y-92175407D01*
X191049537Y-92071400D01*
X191071500Y-91960988D01*
X191071500Y-91848412D01*
X191049537Y-91738000D01*
X191006457Y-91633993D01*
X190943913Y-91540390D01*
X190864310Y-91460787D01*
X190770707Y-91398243D01*
X190666700Y-91355163D01*
X190556288Y-91333200D01*
X190443712Y-91333200D01*
X190333300Y-91355163D01*
X190229293Y-91398243D01*
X190135690Y-91460787D01*
X190056087Y-91540390D01*
X189993543Y-91633993D01*
X189950463Y-91738000D01*
X189928500Y-91848412D01*
X189928500Y-91960988D01*
X189942463Y-92031185D01*
X188552449Y-93421200D01*
X186958957Y-93421200D01*
X186943999Y-93419727D01*
X186929041Y-93421200D01*
X186929034Y-93421200D01*
X186889889Y-93425055D01*
X186884248Y-93425611D01*
X186870876Y-93429668D01*
X186826794Y-93443040D01*
X186773843Y-93471342D01*
X186727432Y-93509432D01*
X186717892Y-93521056D01*
X184453057Y-95785892D01*
X184441433Y-95795432D01*
X184403343Y-95841843D01*
X184388901Y-95868863D01*
X184375040Y-95894795D01*
X184357611Y-95952249D01*
X184351727Y-96012000D01*
X184200796Y-96012000D01*
X184200796Y-95130255D01*
X187439339Y-91891712D01*
X187896500Y-91891712D01*
X187896500Y-92004288D01*
X187918463Y-92114700D01*
X187961543Y-92218707D01*
X188024087Y-92312310D01*
X188103690Y-92391913D01*
X188197293Y-92454457D01*
X188301300Y-92497537D01*
X188411712Y-92519500D01*
X188524288Y-92519500D01*
X188634700Y-92497537D01*
X188738707Y-92454457D01*
X188832310Y-92391913D01*
X188911913Y-92312310D01*
X188974457Y-92218707D01*
X189017537Y-92114700D01*
X189039500Y-92004288D01*
X189039500Y-91891712D01*
X189017537Y-91781300D01*
X188974457Y-91677293D01*
X188911913Y-91583690D01*
X188832310Y-91504087D01*
X188738707Y-91441543D01*
X188634700Y-91398463D01*
X188524288Y-91376500D01*
X188411712Y-91376500D01*
X188301300Y-91398463D01*
X188197293Y-91441543D01*
X188103690Y-91504087D01*
X188024087Y-91583690D01*
X187961543Y-91677293D01*
X187918463Y-91781300D01*
X187896500Y-91891712D01*
X187439339Y-91891712D01*
X189434945Y-89896107D01*
X189446568Y-89886568D01*
X189484658Y-89840157D01*
X189512960Y-89787206D01*
X189527267Y-89740043D01*
X189530389Y-89729752D01*
X189530897Y-89724597D01*
X189534800Y-89684966D01*
X189534800Y-89684958D01*
X189536273Y-89670000D01*
X189534800Y-89655042D01*
X189534800Y-89562378D01*
X189575121Y-89545677D01*
X189694455Y-89465940D01*
X189795940Y-89364455D01*
X189868320Y-89256131D01*
X189898626Y-89311373D01*
X189990436Y-89420791D01*
X190101828Y-89510195D01*
X190213857Y-89570060D01*
X190322200Y-89547481D01*
X190322200Y-89077800D01*
X190302200Y-89077800D01*
X190302200Y-88722200D01*
X190322200Y-88722200D01*
X190322200Y-88252519D01*
X190213857Y-88229940D01*
X190101828Y-88289805D01*
X189990436Y-88379209D01*
X189898626Y-88488627D01*
X189868320Y-88543869D01*
X189795940Y-88435545D01*
X189694455Y-88334060D01*
X189575121Y-88254323D01*
X189442525Y-88199400D01*
X189301761Y-88171400D01*
X189158239Y-88171400D01*
X189017475Y-88199400D01*
X188884879Y-88254323D01*
X188765545Y-88334060D01*
X188664060Y-88435545D01*
X188595000Y-88538900D01*
X188525940Y-88435545D01*
X188424455Y-88334060D01*
X188305121Y-88254323D01*
X188172525Y-88199400D01*
X188031761Y-88171400D01*
X187888239Y-88171400D01*
X187747475Y-88199400D01*
X187614879Y-88254323D01*
X187495545Y-88334060D01*
X187394060Y-88435545D01*
X187314323Y-88554879D01*
X187297622Y-88595200D01*
X186829625Y-88595200D01*
X186814667Y-88593727D01*
X186799709Y-88595200D01*
X186799701Y-88595200D01*
X186754916Y-88599611D01*
X186697461Y-88617040D01*
X186644510Y-88645342D01*
X186627622Y-88659202D01*
X186609723Y-88673891D01*
X186609717Y-88673897D01*
X186598099Y-88683432D01*
X186588564Y-88695050D01*
X181201857Y-94081759D01*
X181190228Y-94091303D01*
X181152138Y-94137715D01*
X181123836Y-94190666D01*
X181106407Y-94248121D01*
X181101996Y-94292906D01*
X181101996Y-94292913D01*
X181100523Y-94307871D01*
X181101996Y-94322829D01*
X181101997Y-95934723D01*
X181042486Y-95974487D01*
X180962883Y-96054090D01*
X180900339Y-96147693D01*
X180857259Y-96251700D01*
X180835296Y-96362112D01*
X177841275Y-96362112D01*
X178009369Y-95932216D01*
X178682580Y-94636653D01*
X179489686Y-93419987D01*
X180421544Y-92296004D01*
X181467595Y-91277438D01*
X182615986Y-90375832D01*
X183853706Y-89601400D01*
X185166732Y-88962916D01*
X186540186Y-88467616D01*
X187958506Y-88121111D01*
X189405622Y-87927328D01*
X190865138Y-87888461D01*
X192320516Y-88004951D01*
G37*
G04 #@! TD.AperFunction*
M02*
