G04 #@! TF.GenerationSoftware,KiCad,Pcbnew,(5.1.12)-1*
G04 #@! TF.CreationDate,2021-11-24T10:48:37+01:00*
G04 #@! TF.ProjectId,solo-nixie,736f6c6f-2d6e-4697-9869-652e6b696361,rev?*
G04 #@! TF.SameCoordinates,Original*
G04 #@! TF.FileFunction,Soldermask,Top*
G04 #@! TF.FilePolarity,Negative*
%FSLAX46Y46*%
G04 Gerber Fmt 4.6, Leading zero omitted, Abs format (unit mm)*
G04 Created by KiCad (PCBNEW (5.1.12)-1) date 2021-11-24 10:48:37*
%MOMM*%
%LPD*%
G01*
G04 APERTURE LIST*
%ADD10C,0.120000*%
%ADD11O,1.000102X1.000102*%
%ADD12C,1.000102*%
%ADD13C,0.127000*%
%ADD14C,1.600102*%
%ADD15C,1.250102*%
G04 APERTURE END LIST*
D10*
X202955537Y-103932183D02*
X202977535Y-103791029D01*
X203390609Y-103614438D02*
X203524429Y-103683487D01*
X202728882Y-103174014D02*
X202771144Y-103226446D01*
X203225847Y-102391977D02*
X203175407Y-102436599D01*
X203148212Y-101851488D02*
X203149134Y-101708634D01*
X202926205Y-104120386D02*
X203914277Y-104274379D01*
X203383966Y-102926446D02*
X203418876Y-102356085D01*
X203296506Y-103599772D02*
X203390609Y-103614438D01*
X203323817Y-102350266D02*
X203225847Y-102391977D01*
X203418876Y-102356085D02*
X203323817Y-102350266D01*
X203244285Y-102870188D02*
X203383966Y-102926446D01*
X203383966Y-102926446D02*
X203479027Y-102932264D01*
X203432382Y-102091424D02*
X203289837Y-102042883D01*
X203122059Y-102528750D02*
X203113331Y-102671340D01*
X203175407Y-102436599D02*
X203122059Y-102528750D01*
X203624526Y-102893462D02*
X203725404Y-102804220D01*
X203603864Y-103792255D02*
X203636250Y-103893691D01*
X202987922Y-104033617D02*
X202955537Y-103932183D01*
X203787480Y-102569480D02*
X203745769Y-102471509D01*
X203552535Y-104121613D02*
X203443767Y-104201049D01*
X202823575Y-103184184D02*
X202781313Y-103131752D01*
X203479027Y-102932264D02*
X203624526Y-102893462D01*
X202771144Y-103226446D02*
X202823575Y-103184184D01*
X203039252Y-103704260D02*
X203148022Y-103624825D01*
X203067359Y-104142386D02*
X202987922Y-104033617D01*
X202977535Y-103791029D02*
X203039252Y-103704260D01*
X203614251Y-104034844D02*
X203552535Y-104121613D01*
X203524429Y-103683487D02*
X203603864Y-103792255D01*
X203725404Y-102804220D02*
X203778753Y-102712069D01*
X203148022Y-103624825D02*
X203296506Y-103599772D01*
X203195215Y-101947033D02*
X203148212Y-101851488D01*
X203778753Y-102712069D02*
X203787480Y-102569480D01*
X203060308Y-103209607D02*
X203723164Y-103280797D01*
X203155043Y-102769309D02*
X203244285Y-102870188D01*
X203636250Y-103893691D02*
X203614251Y-104034844D01*
X202781313Y-103131752D02*
X202728882Y-103174014D01*
X203813328Y-102093885D02*
X203146673Y-102089579D01*
X203113331Y-102671340D02*
X203155043Y-102769309D01*
X203289837Y-102042883D02*
X203195215Y-101947033D01*
X203745769Y-102471509D02*
X203656526Y-102370631D01*
X201236410Y-94687777D02*
X201206498Y-94819102D01*
X203773810Y-100618730D02*
X203760391Y-100476505D01*
X203141796Y-101263089D02*
X203136169Y-101120342D01*
X203193129Y-101356377D02*
X203141796Y-101263089D01*
X203292045Y-101447790D02*
X203193129Y-101356377D01*
X203165820Y-99569291D02*
X203634427Y-99484634D01*
X203436666Y-101489745D02*
X203292045Y-101447790D01*
X203416907Y-100891556D02*
X203363232Y-100322654D01*
X203072699Y-99053825D02*
X203541305Y-98969168D01*
X202305874Y-97117458D02*
X202252681Y-96984874D01*
X202389226Y-95648313D02*
X201711235Y-95793410D01*
X202995914Y-97648782D02*
X203116239Y-97558241D01*
X203166446Y-100771696D02*
X203270209Y-100857567D01*
X203178070Y-100387955D02*
X203135134Y-100439837D01*
X202910653Y-99228269D02*
X202940583Y-99126081D01*
X203003775Y-99743734D02*
X203033704Y-99641547D01*
X203817323Y-101474741D02*
X203151174Y-101500999D01*
X203735347Y-100718021D02*
X203773810Y-100618730D01*
X203013256Y-97090193D02*
X202085167Y-97462551D01*
X203110091Y-100681352D02*
X203166446Y-100771696D01*
X202940583Y-99126081D02*
X203072699Y-99053825D01*
X203268415Y-100331601D02*
X203178070Y-100387955D01*
X203363232Y-100322654D02*
X203268415Y-100331601D01*
X203278564Y-98645981D02*
X203403950Y-98562590D01*
X202228343Y-97906004D02*
X202995914Y-97648782D01*
X202628039Y-96272492D02*
X202651303Y-96209294D01*
X202564841Y-96249228D02*
X202628039Y-96272492D01*
X203424948Y-98458202D02*
X203387512Y-98320338D01*
X201711235Y-95793410D02*
X202210232Y-95312031D01*
X202571310Y-97267506D02*
X202385531Y-97188117D01*
X202385531Y-97188117D02*
X202305874Y-97117458D01*
X203704037Y-100386161D02*
X203600274Y-100300290D01*
X203760391Y-100476505D02*
X203704037Y-100386161D01*
X203029172Y-99884315D02*
X203003775Y-99743734D01*
X203649477Y-100821783D02*
X203735347Y-100718021D01*
X203403950Y-98562590D02*
X203424948Y-98458202D01*
X202376265Y-96781364D02*
X202818212Y-96604051D01*
X202252681Y-96984874D02*
X202261412Y-96878753D01*
X203511724Y-100882611D02*
X203649477Y-100821783D01*
X202651303Y-96209294D02*
X202588105Y-96186030D01*
X203416907Y-100891556D02*
X203511724Y-100882611D01*
X203270209Y-100857567D02*
X203416907Y-100891556D01*
X203096672Y-100539127D02*
X203110091Y-100681352D01*
X201216894Y-94925072D02*
X201292953Y-95045998D01*
X203092963Y-99969571D02*
X203029172Y-99884315D01*
X203135134Y-100439837D02*
X203096672Y-100539127D01*
X203033704Y-99641547D02*
X203165820Y-99569291D01*
X201890231Y-96129694D02*
X202389226Y-95648313D01*
X203258941Y-100084757D02*
X203092963Y-99969571D01*
X201331984Y-94571411D02*
X201236410Y-94687777D01*
X203387512Y-98320338D02*
X203316600Y-98240905D01*
X202589793Y-97935543D02*
X202483879Y-97619485D01*
X203116239Y-97558241D02*
X203131127Y-97452807D01*
X201206498Y-94819102D02*
X201216894Y-94925072D01*
X203316600Y-98240905D02*
X203141299Y-98140477D01*
X203131127Y-97452807D02*
X203100866Y-97362504D01*
X202999842Y-99454105D02*
X202936050Y-99368850D01*
X203727548Y-100000100D02*
X203071499Y-100118619D01*
X202819014Y-98770767D02*
X203278564Y-98645981D01*
X202210232Y-95312031D02*
X201532241Y-95457130D01*
X202681750Y-98265262D02*
X203325119Y-98090562D01*
X202261412Y-96878753D02*
X202376265Y-96781364D01*
X203165820Y-99569291D02*
X202999842Y-99454105D01*
X202936050Y-99368850D02*
X202910653Y-99228269D01*
X200377409Y-93502315D02*
X200362479Y-93636172D01*
X201837762Y-94928354D02*
X201867675Y-94797030D01*
X199861431Y-93118960D02*
X199832240Y-93016559D01*
X201292953Y-95045998D02*
X201383968Y-95101264D01*
X201498877Y-94128808D02*
X200955471Y-94515014D01*
X199133328Y-91537623D02*
X198998943Y-91546648D01*
X198797610Y-92066380D02*
X198905167Y-92160401D01*
X199384293Y-91757004D02*
X199343929Y-91658472D01*
X200570600Y-93896551D02*
X200704458Y-93911480D01*
X200449608Y-92774144D02*
X200478798Y-92876543D01*
X198757247Y-91967850D02*
X198797610Y-92066380D01*
X199343929Y-91658472D02*
X199236372Y-91564451D01*
X200817540Y-94320939D02*
X200734782Y-94204496D01*
X200808840Y-93279392D02*
X200674983Y-93264462D01*
X199429694Y-92593329D02*
X199328269Y-92560910D01*
X199328269Y-92560910D02*
X199226012Y-92461153D01*
X200191888Y-93268347D02*
X200057331Y-93262415D01*
X200994697Y-93435645D02*
X200905501Y-93324054D01*
X201002032Y-93673627D02*
X201016963Y-93539770D01*
X199564371Y-92591661D02*
X199429694Y-92593329D01*
X200920173Y-93800020D02*
X201002032Y-93673627D01*
X199957898Y-93224325D02*
X199861431Y-93118960D01*
X200353140Y-92668777D02*
X200449608Y-92774144D01*
X200086521Y-93364815D02*
X200824087Y-92689540D01*
X200057331Y-93262415D02*
X199957898Y-93224325D01*
X199008212Y-92187229D02*
X199142597Y-92178205D01*
X199236372Y-91564451D02*
X199133328Y-91537623D01*
X199964233Y-92249970D02*
X199498699Y-92727173D01*
X200704458Y-93911480D02*
X200845779Y-93859482D01*
X200905501Y-93324054D02*
X200808840Y-93279392D01*
X200119150Y-92624755D02*
X200253706Y-92630688D01*
X199393317Y-91891388D02*
X199384293Y-91757004D01*
X200911528Y-94370983D02*
X200817540Y-94320939D01*
X199832240Y-93016559D02*
X199838172Y-92882004D01*
X199335149Y-92030284D02*
X199393317Y-91891388D01*
X198779564Y-91797613D02*
X198752735Y-91900657D01*
X201188360Y-94349497D02*
X201044329Y-94393441D01*
X199911384Y-92750413D02*
X199981627Y-92686102D01*
X199272469Y-92101990D02*
X199335149Y-92030284D01*
X201016963Y-93539770D02*
X200994697Y-93435645D01*
X200478798Y-92876543D02*
X200472866Y-93011100D01*
X199698214Y-92522657D02*
X199564371Y-92591661D01*
X198905167Y-92160401D02*
X199008212Y-92187229D01*
X200384745Y-93740297D02*
X200473940Y-93851888D01*
X198752735Y-91900657D02*
X198757247Y-91967850D01*
X201781220Y-94570133D02*
X201690206Y-94514868D01*
X200253706Y-92630688D02*
X200353140Y-92668777D01*
X200473940Y-93851888D02*
X200570600Y-93896551D01*
X201867675Y-94797030D02*
X201857278Y-94691060D01*
X200005441Y-93799631D02*
X200786574Y-93175266D01*
X201661570Y-95095427D02*
X201742188Y-95044722D01*
X201383968Y-95101264D02*
X201515290Y-95131176D01*
X199981627Y-92686102D02*
X200119150Y-92624755D01*
X200362479Y-93636172D02*
X200384745Y-93740297D01*
X201515290Y-95131176D02*
X201661570Y-95095427D01*
X199142597Y-92178205D02*
X199272469Y-92101990D01*
X201412602Y-94520705D02*
X201331984Y-94571411D01*
X201558882Y-94484956D02*
X201412602Y-94520705D01*
X201742188Y-95044722D02*
X201837762Y-94928354D01*
X200845779Y-93859482D02*
X200920173Y-93800020D01*
X201690206Y-94514868D02*
X201558882Y-94484956D01*
X201044329Y-94393441D02*
X200911528Y-94370983D01*
X201857278Y-94691060D02*
X201781220Y-94570133D01*
X199838172Y-92882004D02*
X199911384Y-92750413D01*
X197494050Y-91001669D02*
X197585467Y-91121330D01*
X196825538Y-89870389D02*
X196719129Y-89866555D01*
X198613161Y-91047970D02*
X198726313Y-91135176D01*
X198375086Y-91044848D02*
X198470941Y-90998482D01*
X197722219Y-90580999D02*
X197815124Y-90528972D01*
X196191652Y-89541195D02*
X196062063Y-89481071D01*
X197903570Y-90992004D02*
X197733368Y-90818834D01*
X197733368Y-90818834D02*
X197681342Y-90725929D01*
X195715134Y-90002543D02*
X195781487Y-90085820D01*
X195668824Y-89876068D02*
X195715134Y-90002543D01*
X197695462Y-90620390D02*
X197722219Y-90580999D01*
X197681342Y-90725929D02*
X197695462Y-90620390D01*
X196867154Y-90489869D02*
X196977398Y-90387291D01*
X196445345Y-90368126D02*
X196506124Y-90455554D01*
X195725835Y-89640044D02*
X195685753Y-89726437D01*
X196304313Y-89750948D02*
X196258003Y-89624473D01*
X198142537Y-91346585D02*
X198122117Y-91451088D01*
X198122117Y-91451088D02*
X198206200Y-91576011D01*
X197960053Y-90569849D02*
X198078228Y-90650117D01*
X197815124Y-90528972D02*
X197960053Y-90569849D01*
X195685753Y-89726437D02*
X195668824Y-89876068D01*
X197848573Y-91242474D02*
X197941476Y-91190447D01*
X196737928Y-90527833D02*
X196867154Y-90489869D01*
X196950931Y-89938834D02*
X196825538Y-89870389D01*
X198319351Y-91663217D02*
X198461570Y-91712705D01*
X198810395Y-91260099D02*
X198789975Y-91364603D01*
X198325598Y-91187067D02*
X198346019Y-91082564D01*
X198577845Y-91561837D02*
X198531481Y-91465983D01*
X196407381Y-90238900D02*
X196445345Y-90368126D01*
X195781487Y-90085820D02*
X195911076Y-90145945D01*
X198371963Y-91282923D02*
X198325598Y-91187067D01*
X198206200Y-91576011D02*
X198319351Y-91663217D01*
X196719129Y-89866555D02*
X196589902Y-89904521D01*
X196287386Y-89900580D02*
X196304313Y-89750948D01*
X197011712Y-90026262D02*
X196950931Y-89938834D01*
X198726313Y-91135176D02*
X198810395Y-91260099D01*
X198842243Y-91725909D02*
X198779564Y-91797613D01*
X198470941Y-90998482D02*
X198613161Y-91047970D01*
X198557425Y-91666340D02*
X198577845Y-91561837D01*
X198461570Y-91712705D02*
X198557425Y-91666340D01*
X197539035Y-90346177D02*
X197523265Y-90280703D01*
X197585467Y-91121330D02*
X197703642Y-91201597D01*
X197049675Y-90155488D02*
X197011712Y-90026262D01*
X197023028Y-90303695D02*
X197049675Y-90155488D01*
X196247305Y-89986971D02*
X196287386Y-89900580D01*
X197955597Y-91084908D02*
X197903570Y-90992004D01*
X196258003Y-89624473D02*
X196191652Y-89541195D01*
X197508170Y-90896130D02*
X197494050Y-91001669D01*
X197523265Y-90280703D02*
X197457795Y-90296475D01*
X196631518Y-90524000D02*
X196737928Y-90527833D01*
X197473565Y-90361945D02*
X197539035Y-90346177D01*
X196143985Y-90096519D02*
X196247305Y-89986971D01*
X196977398Y-90387291D02*
X197023028Y-90303695D01*
X196506124Y-90455554D02*
X196631518Y-90524000D01*
X198169646Y-90769776D02*
X198155525Y-90875316D01*
X199272469Y-92101990D02*
X198842243Y-91725909D01*
X198346019Y-91082564D02*
X198375086Y-91044848D01*
X197703642Y-91201597D02*
X197848573Y-91242474D01*
X198078228Y-90650117D02*
X198169646Y-90769776D01*
X197941476Y-91190447D02*
X197955597Y-91084908D01*
X195955629Y-89484187D02*
X195829154Y-89530497D01*
X198531481Y-91465983D02*
X198371963Y-91282923D01*
X196062063Y-89481071D02*
X195955629Y-89484187D01*
X195829154Y-89530497D02*
X195725835Y-89640044D01*
X184049515Y-89789268D02*
X183943138Y-89793926D01*
X196017510Y-90142830D02*
X196143985Y-90096519D01*
X195911076Y-90145945D02*
X196017510Y-90142830D01*
X194443337Y-89340299D02*
X194605715Y-88892649D01*
X194439387Y-89490831D02*
X194443337Y-89340299D01*
X186337662Y-89439941D02*
X186231952Y-89427164D01*
X185696887Y-89062190D02*
X185815371Y-88969255D01*
X185639272Y-89183933D02*
X185696887Y-89062190D01*
X185488306Y-89645524D02*
X185474709Y-89495553D01*
X184336343Y-90011190D02*
X184290066Y-89927951D01*
X183721216Y-90080753D02*
X183749012Y-90228751D01*
X185103946Y-89241882D02*
X184973052Y-89299110D01*
X195139388Y-89795404D02*
X195005093Y-89746690D01*
X186145278Y-88901869D02*
X186267019Y-88959485D01*
X185764270Y-89392096D02*
X185687367Y-89318450D01*
X186475436Y-89542393D02*
X186398532Y-89468748D01*
X194512680Y-89568072D02*
X194439387Y-89490831D01*
X194752741Y-89604498D02*
X194646974Y-89616786D01*
X184495632Y-89514648D02*
X184939386Y-90410797D01*
X195245156Y-89783115D02*
X195139388Y-89795404D01*
X185687367Y-89318450D02*
X185639272Y-89183933D01*
X185994729Y-88905127D02*
X186145278Y-88901869D01*
X185815371Y-88969255D02*
X185994729Y-88905127D01*
X184907503Y-89743540D02*
X185008362Y-89855357D01*
X185210285Y-89247362D02*
X185103946Y-89241882D01*
X184035840Y-90450671D02*
X184142217Y-90446014D01*
X183906324Y-90413709D02*
X184035840Y-90450671D01*
X185133776Y-89904469D02*
X185240114Y-89909948D01*
X183749012Y-90228751D02*
X183795289Y-90311990D01*
X185371008Y-89852721D02*
X185439195Y-89770937D01*
X185439195Y-89770937D02*
X185488306Y-89645524D01*
X194646974Y-89616786D02*
X194512680Y-89568072D01*
X194935751Y-89518916D02*
X194752741Y-89604498D01*
X186507500Y-89632071D02*
X186475436Y-89542393D01*
X194935751Y-89518916D02*
X195098129Y-89071265D01*
X185008362Y-89855357D02*
X185133776Y-89904469D01*
X185335698Y-89296472D02*
X185210285Y-89247362D01*
X185474709Y-89495553D02*
X185436558Y-89408291D01*
X194931801Y-89669449D02*
X194935751Y-89518916D01*
X184142217Y-90446014D02*
X184267076Y-90376599D01*
X195005093Y-89746690D02*
X194931801Y-89669449D01*
X184290066Y-89927951D02*
X184179031Y-89826229D01*
X195428165Y-89697532D02*
X195245156Y-89783115D01*
X183818279Y-89863341D02*
X183758178Y-89951237D01*
X186449885Y-89753814D02*
X186507500Y-89632071D01*
X195590545Y-89249884D02*
X195363213Y-89876595D01*
X186398532Y-89468748D02*
X186337662Y-89439941D01*
X183758178Y-89951237D02*
X183721216Y-90080753D01*
X186331400Y-89846749D02*
X186449885Y-89753814D01*
X184179031Y-89826229D02*
X184049515Y-89789268D01*
X185240114Y-89909948D02*
X185371008Y-89852721D01*
X184855755Y-89506308D02*
X184869352Y-89656278D01*
X184973052Y-89299110D02*
X184904867Y-89380893D01*
X183943138Y-89793926D02*
X183818279Y-89863341D01*
X185879752Y-89856520D02*
X186001495Y-89914134D01*
X184904867Y-89380893D02*
X184855755Y-89506308D01*
X185930853Y-89433678D02*
X185825143Y-89420904D01*
X186152044Y-89910877D02*
X186331400Y-89846749D01*
X184869352Y-89656278D02*
X184907503Y-89743540D01*
X183795289Y-90311990D02*
X183906324Y-90413709D01*
X186001495Y-89914134D02*
X186152044Y-89910877D01*
X185436558Y-89408291D02*
X185335698Y-89296472D01*
X186231952Y-89427164D02*
X185930853Y-89433678D01*
X185825143Y-89420904D02*
X185764270Y-89392096D01*
X181269453Y-92932053D02*
X181271279Y-92999372D01*
X180366077Y-93292015D02*
X180469278Y-93318231D01*
X180754333Y-93061062D02*
X180744513Y-92926734D01*
X180130214Y-92836595D02*
X180103996Y-92939796D01*
X180728116Y-93164263D02*
X180754333Y-93061062D01*
X180103996Y-92939796D02*
X180113816Y-93074124D01*
X181224087Y-91709286D02*
X181310800Y-92552674D01*
X180847466Y-92073335D02*
X181687423Y-92188623D01*
X182076540Y-92169423D02*
X182072431Y-92236642D01*
X182072431Y-92236642D02*
X182139649Y-92240751D01*
X181096591Y-92768322D02*
X180612578Y-92309872D01*
X182143758Y-92173534D02*
X182076540Y-92169423D01*
X181271279Y-92999372D02*
X181338597Y-92997546D01*
X181336772Y-92930227D02*
X181269453Y-92932053D01*
X180667530Y-92797315D02*
X180595456Y-92735060D01*
X180294003Y-93229761D02*
X180366077Y-93292015D01*
X181338597Y-92997546D02*
X181336772Y-92930227D01*
X180223597Y-92728483D02*
X180130214Y-92836595D01*
X180321888Y-92687535D02*
X180223597Y-92728483D01*
X180536443Y-93313322D02*
X180634735Y-93272374D01*
X180667530Y-92797315D02*
X180294003Y-93229761D01*
X180469278Y-93318231D02*
X180536443Y-93313322D01*
X180456216Y-92677717D02*
X180321888Y-92687535D01*
X180744513Y-92926734D02*
X180667530Y-92797315D01*
X180634735Y-93272374D02*
X180728116Y-93164263D01*
X184327177Y-90288702D02*
X184364139Y-90159186D01*
X184364139Y-90159186D02*
X184336343Y-90011190D01*
X184267076Y-90376599D02*
X184327177Y-90288702D01*
X183593832Y-90469395D02*
X182880061Y-90943972D01*
X181805400Y-91216402D02*
X182427501Y-91999338D01*
X182949458Y-91584605D02*
X181805400Y-91216402D01*
X180595456Y-92735060D02*
X180456216Y-92677717D01*
X182327359Y-90801668D02*
X182949458Y-91584605D01*
X181918771Y-91991104D02*
X181477012Y-91491810D01*
X182139649Y-92240751D02*
X182143758Y-92173534D01*
D11*
X187960000Y-88900000D03*
X189230000Y-88900000D03*
X190500000Y-88900000D03*
X191770000Y-88900000D03*
D12*
X193040000Y-88900000D03*
D13*
G36*
X189456990Y-106724441D02*
G01*
X189857010Y-104724339D01*
X190957094Y-104724339D01*
X191357114Y-106724441D01*
X189456990Y-106724441D01*
G37*
G36*
X192133338Y-106516453D02*
G01*
X191479714Y-104584303D01*
X192432415Y-104034261D01*
X193778893Y-105566391D01*
X192133338Y-106516453D01*
G37*
G36*
X194416743Y-104979501D02*
G01*
X192884613Y-103633023D01*
X193434655Y-102680322D01*
X195366805Y-103333946D01*
X194416743Y-104979501D01*
G37*
G36*
X195556140Y-102488108D02*
G01*
X193556038Y-102088088D01*
X193556038Y-100988004D01*
X195556140Y-100587984D01*
X195556140Y-102488108D01*
G37*
G36*
X195348152Y-99811760D02*
G01*
X193416002Y-100465384D01*
X192865960Y-99512683D01*
X194398090Y-98166205D01*
X195348152Y-99811760D01*
G37*
G36*
X193847803Y-97664956D02*
G01*
X192501325Y-99197086D01*
X191548624Y-98647044D01*
X192202248Y-96714894D01*
X193847803Y-97664956D01*
G37*
G36*
X191356409Y-96525559D02*
G01*
X190956389Y-98525661D01*
X189856305Y-98525661D01*
X189456285Y-96525559D01*
X191356409Y-96525559D01*
G37*
G36*
X188680061Y-96733547D02*
G01*
X189333685Y-98665697D01*
X188380984Y-99215739D01*
X187034506Y-97683609D01*
X188680061Y-96733547D01*
G37*
G36*
X186533257Y-98233896D02*
G01*
X188065387Y-99580374D01*
X187515345Y-100533075D01*
X185583195Y-99879451D01*
X186533257Y-98233896D01*
G37*
G36*
X185357258Y-100588688D02*
G01*
X187357360Y-100988708D01*
X187357360Y-102088792D01*
X185357258Y-102488812D01*
X185357258Y-100588688D01*
G37*
G36*
X185565246Y-103265036D02*
G01*
X187497396Y-102611412D01*
X188047438Y-103564113D01*
X186515308Y-104910591D01*
X185565246Y-103265036D01*
G37*
G36*
X187102198Y-105548442D02*
G01*
X188448676Y-104016312D01*
X189401377Y-104566354D01*
X188747753Y-106498504D01*
X187102198Y-105548442D01*
G37*
D14*
X187000000Y-114050000D03*
X194000000Y-114050000D03*
D15*
X188000000Y-111350000D03*
X193000000Y-111350000D03*
G36*
G01*
X184266943Y-98496385D02*
X184666943Y-97803565D01*
G75*
G02*
X184667013Y-97803546I44J-25D01*
G01*
X185533039Y-98303546D01*
G75*
G02*
X185533057Y-98303615I-26J-44D01*
G01*
X185133057Y-98996435D01*
G75*
G02*
X185132987Y-98996454I-44J25D01*
G01*
X184266961Y-98496454D01*
G75*
G02*
X184266943Y-98496385I26J44D01*
G01*
G37*
G36*
G01*
X181886687Y-98219109D02*
X182286687Y-97526289D01*
G75*
G02*
X182286757Y-97526270I44J-25D01*
G01*
X183152783Y-98026270D01*
G75*
G02*
X183152801Y-98026339I-26J-44D01*
G01*
X182752801Y-98719159D01*
G75*
G02*
X182752731Y-98719178I-44J25D01*
G01*
X181886705Y-98219178D01*
G75*
G02*
X181886687Y-98219109I26J44D01*
G01*
G37*
G36*
G01*
X182836687Y-96573661D02*
X183236687Y-95880841D01*
G75*
G02*
X183236757Y-95880822I44J-25D01*
G01*
X184102783Y-96380822D01*
G75*
G02*
X184102801Y-96380891I-26J-44D01*
G01*
X183702801Y-97073711D01*
G75*
G02*
X183702731Y-97073730I-44J25D01*
G01*
X182836705Y-96573730D01*
G75*
G02*
X182836687Y-96573661I26J44D01*
G01*
G37*
G36*
G01*
X184666943Y-105396435D02*
X184266943Y-104703615D01*
G75*
G02*
X184266962Y-104703546I44J25D01*
G01*
X185132988Y-104203546D01*
G75*
G02*
X185133057Y-104203565I25J-44D01*
G01*
X185533057Y-104896385D01*
G75*
G02*
X185533039Y-104896454I-44J-25D01*
G01*
X184667013Y-105396454D01*
G75*
G02*
X184666943Y-105396435I-26J44D01*
G01*
G37*
G36*
G01*
X183236687Y-107319159D02*
X182836687Y-106626339D01*
G75*
G02*
X182836706Y-106626270I44J25D01*
G01*
X183702732Y-106126270D01*
G75*
G02*
X183702801Y-106126289I25J-44D01*
G01*
X184102801Y-106819109D01*
G75*
G02*
X184102783Y-106819178I-44J-25D01*
G01*
X183236757Y-107319178D01*
G75*
G02*
X183236687Y-107319159I-26J44D01*
G01*
G37*
G36*
G01*
X182286687Y-105673711D02*
X181886687Y-104980891D01*
G75*
G02*
X181886706Y-104980822I44J25D01*
G01*
X182752732Y-104480822D01*
G75*
G02*
X182752801Y-104480841I25J-44D01*
G01*
X183152801Y-105173661D01*
G75*
G02*
X183152783Y-105173730I-44J-25D01*
G01*
X182286757Y-105673730D01*
G75*
G02*
X182286687Y-105673711I-26J44D01*
G01*
G37*
G36*
G01*
X183499949Y-102025400D02*
X183499949Y-101225400D01*
G75*
G02*
X183500000Y-101225349I51J0D01*
G01*
X184500000Y-101225349D01*
G75*
G02*
X184500051Y-101225400I0J-51D01*
G01*
X184500051Y-102025400D01*
G75*
G02*
X184500000Y-102025451I-51J0D01*
G01*
X183500000Y-102025451D01*
G75*
G02*
X183499949Y-102025400I0J51D01*
G01*
G37*
G36*
G01*
X181299949Y-102975400D02*
X181299949Y-102175400D01*
G75*
G02*
X181300000Y-102175349I51J0D01*
G01*
X182300000Y-102175349D01*
G75*
G02*
X182300051Y-102175400I0J-51D01*
G01*
X182300051Y-102975400D01*
G75*
G02*
X182300000Y-102975451I-51J0D01*
G01*
X181300000Y-102975451D01*
G75*
G02*
X181299949Y-102975400I0J51D01*
G01*
G37*
G36*
G01*
X181299949Y-101075400D02*
X181299949Y-100275400D01*
G75*
G02*
X181300000Y-100275349I51J0D01*
G01*
X182300000Y-100275349D01*
G75*
G02*
X182300051Y-100275400I0J-51D01*
G01*
X182300051Y-101075400D01*
G75*
G02*
X182300000Y-101075451I-51J0D01*
G01*
X181300000Y-101075451D01*
G75*
G02*
X181299949Y-101075400I0J51D01*
G01*
G37*
G36*
G01*
X186653565Y-95719571D02*
X187346385Y-95319571D01*
G75*
G02*
X187346454Y-95319589I25J-44D01*
G01*
X187846454Y-96185615D01*
G75*
G02*
X187846436Y-96185685I-44J-26D01*
G01*
X187153616Y-96585685D01*
G75*
G02*
X187153546Y-96585666I-26J44D01*
G01*
X186653546Y-95719640D01*
G75*
G02*
X186653565Y-95719571I44J25D01*
G01*
G37*
G36*
G01*
X184730841Y-94289315D02*
X185423661Y-93889315D01*
G75*
G02*
X185423730Y-93889333I25J-44D01*
G01*
X185923730Y-94755359D01*
G75*
G02*
X185923712Y-94755429I-44J-26D01*
G01*
X185230892Y-95155429D01*
G75*
G02*
X185230822Y-95155410I-26J44D01*
G01*
X184730822Y-94289384D01*
G75*
G02*
X184730841Y-94289315I44J25D01*
G01*
G37*
G36*
G01*
X186376289Y-93339315D02*
X187069109Y-92939315D01*
G75*
G02*
X187069178Y-92939333I25J-44D01*
G01*
X187569178Y-93805359D01*
G75*
G02*
X187569160Y-93805429I-44J-26D01*
G01*
X186876340Y-94205429D01*
G75*
G02*
X186876270Y-94205410I-26J44D01*
G01*
X186376270Y-93339384D01*
G75*
G02*
X186376289Y-93339315I44J25D01*
G01*
G37*
G36*
G01*
X190100000Y-94599949D02*
X190900000Y-94599949D01*
G75*
G02*
X190900051Y-94600000I0J-51D01*
G01*
X190900051Y-95600000D01*
G75*
G02*
X190900000Y-95600051I-51J0D01*
G01*
X190100000Y-95600051D01*
G75*
G02*
X190099949Y-95600000I0J51D01*
G01*
X190099949Y-94600000D01*
G75*
G02*
X190100000Y-94599949I51J0D01*
G01*
G37*
G36*
G01*
X189150000Y-92399949D02*
X189950000Y-92399949D01*
G75*
G02*
X189950051Y-92400000I0J-51D01*
G01*
X189950051Y-93400000D01*
G75*
G02*
X189950000Y-93400051I-51J0D01*
G01*
X189150000Y-93400051D01*
G75*
G02*
X189149949Y-93400000I0J51D01*
G01*
X189149949Y-92400000D01*
G75*
G02*
X189150000Y-92399949I51J0D01*
G01*
G37*
G36*
G01*
X191050000Y-92399949D02*
X191850000Y-92399949D01*
G75*
G02*
X191850051Y-92400000I0J-51D01*
G01*
X191850051Y-93400000D01*
G75*
G02*
X191850000Y-93400051I-51J0D01*
G01*
X191050000Y-93400051D01*
G75*
G02*
X191049949Y-93400000I0J51D01*
G01*
X191049949Y-92400000D01*
G75*
G02*
X191050000Y-92399949I51J0D01*
G01*
G37*
G36*
G01*
X193653616Y-95319571D02*
X194346436Y-95719571D01*
G75*
G02*
X194346454Y-95719640I-26J-44D01*
G01*
X193846454Y-96585666D01*
G75*
G02*
X193846384Y-96585685I-44J25D01*
G01*
X193153564Y-96185685D01*
G75*
G02*
X193153546Y-96185616I26J44D01*
G01*
X193653546Y-95319590D01*
G75*
G02*
X193653616Y-95319571I44J-25D01*
G01*
G37*
G36*
G01*
X193930892Y-92939315D02*
X194623712Y-93339315D01*
G75*
G02*
X194623730Y-93339384I-26J-44D01*
G01*
X194123730Y-94205410D01*
G75*
G02*
X194123660Y-94205429I-44J25D01*
G01*
X193430840Y-93805429D01*
G75*
G02*
X193430822Y-93805360I26J44D01*
G01*
X193930822Y-92939334D01*
G75*
G02*
X193930892Y-92939315I44J-25D01*
G01*
G37*
G36*
G01*
X195576340Y-93889315D02*
X196269160Y-94289315D01*
G75*
G02*
X196269178Y-94289384I-26J-44D01*
G01*
X195769178Y-95155410D01*
G75*
G02*
X195769108Y-95155429I-44J25D01*
G01*
X195076288Y-94755429D01*
G75*
G02*
X195076270Y-94755360I26J44D01*
G01*
X195576270Y-93889334D01*
G75*
G02*
X195576340Y-93889315I44J-25D01*
G01*
G37*
G36*
G01*
X196380429Y-97753565D02*
X196780429Y-98446384D01*
G75*
G02*
X196780411Y-98446454I-44J-26D01*
G01*
X195914385Y-98946454D01*
G75*
G02*
X195914315Y-98946435I-26J44D01*
G01*
X195514315Y-98253615D01*
G75*
G02*
X195514334Y-98253546I44J25D01*
G01*
X196380360Y-97753546D01*
G75*
G02*
X196380429Y-97753565I25J-44D01*
G01*
G37*
G36*
G01*
X197810685Y-95830841D02*
X198210685Y-96523660D01*
G75*
G02*
X198210667Y-96523730I-44J-26D01*
G01*
X197344641Y-97023730D01*
G75*
G02*
X197344571Y-97023711I-26J44D01*
G01*
X196944571Y-96330891D01*
G75*
G02*
X196944590Y-96330822I44J25D01*
G01*
X197810616Y-95830822D01*
G75*
G02*
X197810685Y-95830841I25J-44D01*
G01*
G37*
G36*
G01*
X198760685Y-97476289D02*
X199160685Y-98169108D01*
G75*
G02*
X199160667Y-98169178I-44J-26D01*
G01*
X198294641Y-98669178D01*
G75*
G02*
X198294571Y-98669159I-26J44D01*
G01*
X197894571Y-97976339D01*
G75*
G02*
X197894590Y-97976270I44J25D01*
G01*
X198760616Y-97476270D01*
G75*
G02*
X198760685Y-97476289I25J-44D01*
G01*
G37*
G36*
G01*
X197500051Y-101200000D02*
X197500051Y-102000000D01*
G75*
G02*
X197500000Y-102000051I-51J0D01*
G01*
X196500000Y-102000051D01*
G75*
G02*
X196499949Y-102000000I0J51D01*
G01*
X196499949Y-101200000D01*
G75*
G02*
X196500000Y-101199949I51J0D01*
G01*
X197500000Y-101199949D01*
G75*
G02*
X197500051Y-101200000I0J-51D01*
G01*
G37*
G36*
G01*
X199700051Y-100250000D02*
X199700051Y-101050000D01*
G75*
G02*
X199700000Y-101050051I-51J0D01*
G01*
X198700000Y-101050051D01*
G75*
G02*
X198699949Y-101050000I0J51D01*
G01*
X198699949Y-100250000D01*
G75*
G02*
X198700000Y-100249949I51J0D01*
G01*
X199700000Y-100249949D01*
G75*
G02*
X199700051Y-100250000I0J-51D01*
G01*
G37*
G36*
G01*
X199700051Y-102150000D02*
X199700051Y-102950000D01*
G75*
G02*
X199700000Y-102950051I-51J0D01*
G01*
X198700000Y-102950051D01*
G75*
G02*
X198699949Y-102950000I0J51D01*
G01*
X198699949Y-102150000D01*
G75*
G02*
X198700000Y-102149949I51J0D01*
G01*
X199700000Y-102149949D01*
G75*
G02*
X199700051Y-102150000I0J-51D01*
G01*
G37*
G36*
G01*
X196733057Y-104703615D02*
X196333057Y-105396435D01*
G75*
G02*
X196332987Y-105396454I-44J25D01*
G01*
X195466961Y-104896454D01*
G75*
G02*
X195466943Y-104896385I26J44D01*
G01*
X195866943Y-104203565D01*
G75*
G02*
X195867013Y-104203546I44J-25D01*
G01*
X196733039Y-104703546D01*
G75*
G02*
X196733057Y-104703615I-26J-44D01*
G01*
G37*
G36*
G01*
X199113313Y-104980891D02*
X198713313Y-105673711D01*
G75*
G02*
X198713243Y-105673730I-44J25D01*
G01*
X197847217Y-105173730D01*
G75*
G02*
X197847199Y-105173661I26J44D01*
G01*
X198247199Y-104480841D01*
G75*
G02*
X198247269Y-104480822I44J-25D01*
G01*
X199113295Y-104980822D01*
G75*
G02*
X199113313Y-104980891I-26J-44D01*
G01*
G37*
G36*
G01*
X198163313Y-106626339D02*
X197763313Y-107319159D01*
G75*
G02*
X197763243Y-107319178I-44J25D01*
G01*
X196897217Y-106819178D01*
G75*
G02*
X196897199Y-106819109I26J44D01*
G01*
X197297199Y-106126289D01*
G75*
G02*
X197297269Y-106126270I44J-25D01*
G01*
X198163295Y-106626270D01*
G75*
G02*
X198163313Y-106626339I-26J-44D01*
G01*
G37*
G36*
G01*
X194296436Y-107433057D02*
X193603616Y-107833057D01*
G75*
G02*
X193603546Y-107833038I-26J44D01*
G01*
X193103546Y-106967012D01*
G75*
G02*
X193103565Y-106966943I44J25D01*
G01*
X193796385Y-106566943D01*
G75*
G02*
X193796454Y-106566962I25J-44D01*
G01*
X194296454Y-107432988D01*
G75*
G02*
X194296436Y-107433057I-44J-25D01*
G01*
G37*
G36*
G01*
X196219160Y-108863313D02*
X195526340Y-109263313D01*
G75*
G02*
X195526270Y-109263294I-26J44D01*
G01*
X195026270Y-108397268D01*
G75*
G02*
X195026289Y-108397199I44J25D01*
G01*
X195719109Y-107997199D01*
G75*
G02*
X195719178Y-107997218I25J-44D01*
G01*
X196219178Y-108863244D01*
G75*
G02*
X196219160Y-108863313I-44J-25D01*
G01*
G37*
G36*
G01*
X194573712Y-109813313D02*
X193880892Y-110213313D01*
G75*
G02*
X193880822Y-110213294I-26J44D01*
G01*
X193380822Y-109347268D01*
G75*
G02*
X193380841Y-109347199I44J25D01*
G01*
X194073661Y-108947199D01*
G75*
G02*
X194073730Y-108947218I25J-44D01*
G01*
X194573730Y-109813244D01*
G75*
G02*
X194573712Y-109813313I-44J-25D01*
G01*
G37*
G36*
G01*
X187396385Y-107833057D02*
X186703564Y-107433057D01*
G75*
G02*
X186703546Y-107432988I26J44D01*
G01*
X187203546Y-106566962D01*
G75*
G02*
X187203616Y-106566943I44J-25D01*
G01*
X187896436Y-106966943D01*
G75*
G02*
X187896454Y-106967012I-26J-44D01*
G01*
X187396454Y-107833038D01*
G75*
G02*
X187396385Y-107833057I-44J25D01*
G01*
G37*
G36*
G01*
X187119109Y-110213313D02*
X186426288Y-109813313D01*
G75*
G02*
X186426270Y-109813244I26J44D01*
G01*
X186926270Y-108947218D01*
G75*
G02*
X186926340Y-108947199I44J-25D01*
G01*
X187619160Y-109347199D01*
G75*
G02*
X187619178Y-109347268I-26J-44D01*
G01*
X187119178Y-110213294D01*
G75*
G02*
X187119109Y-110213313I-44J25D01*
G01*
G37*
G36*
G01*
X185473661Y-109263313D02*
X184780840Y-108863313D01*
G75*
G02*
X184780822Y-108863244I26J44D01*
G01*
X185280822Y-107997218D01*
G75*
G02*
X185280892Y-107997199I44J-25D01*
G01*
X185973712Y-108397199D01*
G75*
G02*
X185973730Y-108397268I-26J-44D01*
G01*
X185473730Y-109263294D01*
G75*
G02*
X185473661Y-109263313I-44J25D01*
G01*
G37*
G36*
G01*
X190199974Y-109959949D02*
X190800026Y-109959949D01*
G75*
G02*
X191100051Y-110259974I0J-300025D01*
G01*
X191100051Y-110860026D01*
G75*
G02*
X190800026Y-111160051I-300025J0D01*
G01*
X190199974Y-111160051D01*
G75*
G02*
X189899949Y-110860026I0J300025D01*
G01*
X189899949Y-110259974D01*
G75*
G02*
X190199974Y-109959949I300025J0D01*
G01*
G37*
G36*
G01*
X190199974Y-112359949D02*
X190800026Y-112359949D01*
G75*
G02*
X191100051Y-112659974I0J-300025D01*
G01*
X191100051Y-113260026D01*
G75*
G02*
X190800026Y-113560051I-300025J0D01*
G01*
X190199974Y-113560051D01*
G75*
G02*
X189899949Y-113260026I0J300025D01*
G01*
X189899949Y-112659974D01*
G75*
G02*
X190199974Y-112359949I300025J0D01*
G01*
G37*
G36*
G01*
X180225205Y-97743877D02*
X179705544Y-97443851D01*
G75*
G02*
X179595728Y-97034010I150013J259829D01*
G01*
X179895754Y-96514350D01*
G75*
G02*
X180305596Y-96404533I259829J-150012D01*
G01*
X180825256Y-96704559D01*
G75*
G02*
X180935072Y-97114400I-150013J-259829D01*
G01*
X180635046Y-97634060D01*
G75*
G02*
X180225205Y-97743877I-259829J150012D01*
G01*
G37*
G36*
G01*
X181425205Y-95665417D02*
X180905544Y-95365391D01*
G75*
G02*
X180795728Y-94955550I150013J259829D01*
G01*
X181095754Y-94435890D01*
G75*
G02*
X181505596Y-94326073I259829J-150012D01*
G01*
X182025256Y-94626099D01*
G75*
G02*
X182135072Y-95035940I-150013J-259829D01*
G01*
X181835046Y-95555600D01*
G75*
G02*
X181425205Y-95665417I-259829J150012D01*
G01*
G37*
G36*
G01*
X182033256Y-108571476D02*
X181513596Y-108871502D01*
G75*
G02*
X181103754Y-108761685I-150013J259829D01*
G01*
X180803728Y-108242025D01*
G75*
G02*
X180913545Y-107832184I259829J150012D01*
G01*
X181433205Y-107532158D01*
G75*
G02*
X181843046Y-107641975I150012J-259829D01*
G01*
X182143072Y-108161635D01*
G75*
G02*
X182033256Y-108571476I-259829J-150012D01*
G01*
G37*
G36*
G01*
X180833256Y-106493016D02*
X180313596Y-106793042D01*
G75*
G02*
X179903754Y-106683225I-150013J259829D01*
G01*
X179603728Y-106163565D01*
G75*
G02*
X179713545Y-105753724I259829J150012D01*
G01*
X180233205Y-105453698D01*
G75*
G02*
X180643046Y-105563515I150012J-259829D01*
G01*
X180943072Y-106083175D01*
G75*
G02*
X180833256Y-106493016I-259829J-150012D01*
G01*
G37*
G36*
G01*
X179674826Y-103409451D02*
X179074774Y-103409451D01*
G75*
G02*
X178774749Y-103109426I0J300025D01*
G01*
X178774749Y-102509374D01*
G75*
G02*
X179074774Y-102209349I300025J0D01*
G01*
X179674826Y-102209349D01*
G75*
G02*
X179974851Y-102509374I0J-300025D01*
G01*
X179974851Y-103109426D01*
G75*
G02*
X179674826Y-103409451I-300025J0D01*
G01*
G37*
G36*
G01*
X179674826Y-101009451D02*
X179074774Y-101009451D01*
G75*
G02*
X178774749Y-100709426I0J300025D01*
G01*
X178774749Y-100109374D01*
G75*
G02*
X179074774Y-99809349I300025J0D01*
G01*
X179674826Y-99809349D01*
G75*
G02*
X179974851Y-100109374I0J-300025D01*
G01*
X179974851Y-100709426D01*
G75*
G02*
X179674826Y-101009451I-300025J0D01*
G01*
G37*
G36*
G01*
X183526099Y-93125255D02*
X183226073Y-92605595D01*
G75*
G02*
X183335890Y-92195754I259829J150012D01*
G01*
X183855550Y-91895728D01*
G75*
G02*
X184265391Y-92005545I150012J-259829D01*
G01*
X184565417Y-92525205D01*
G75*
G02*
X184455601Y-92935046I-259829J-150012D01*
G01*
X183935941Y-93235072D01*
G75*
G02*
X183526099Y-93125255I-150013J259829D01*
G01*
G37*
G36*
G01*
X185604559Y-91925255D02*
X185304533Y-91405595D01*
G75*
G02*
X185414350Y-90995754I259829J150012D01*
G01*
X185934010Y-90695728D01*
G75*
G02*
X186343851Y-90805545I150012J-259829D01*
G01*
X186643877Y-91325205D01*
G75*
G02*
X186534061Y-91735046I-259829J-150012D01*
G01*
X186014401Y-92035072D01*
G75*
G02*
X185604559Y-91925255I-150013J259829D01*
G01*
G37*
G36*
G01*
X188699949Y-90774826D02*
X188699949Y-90174774D01*
G75*
G02*
X188999974Y-89874749I300025J0D01*
G01*
X189600026Y-89874749D01*
G75*
G02*
X189900051Y-90174774I0J-300025D01*
G01*
X189900051Y-90774826D01*
G75*
G02*
X189600026Y-91074851I-300025J0D01*
G01*
X188999974Y-91074851D01*
G75*
G02*
X188699949Y-90774826I0J300025D01*
G01*
G37*
G36*
G01*
X191099949Y-90774826D02*
X191099949Y-90174774D01*
G75*
G02*
X191399974Y-89874749I300025J0D01*
G01*
X192000026Y-89874749D01*
G75*
G02*
X192300051Y-90174774I0J-300025D01*
G01*
X192300051Y-90774826D01*
G75*
G02*
X192000026Y-91074851I-300025J0D01*
G01*
X191399974Y-91074851D01*
G75*
G02*
X191099949Y-90774826I0J300025D01*
G01*
G37*
G36*
G01*
X194353698Y-91307805D02*
X194653724Y-90788145D01*
G75*
G02*
X195063566Y-90678328I259829J-150012D01*
G01*
X195583226Y-90978354D01*
G75*
G02*
X195693042Y-91388195I-150013J-259829D01*
G01*
X195393016Y-91907855D01*
G75*
G02*
X194983174Y-92017672I-259829J150012D01*
G01*
X194463514Y-91717646D01*
G75*
G02*
X194353698Y-91307805I150013J259829D01*
G01*
G37*
G36*
G01*
X196432158Y-92507805D02*
X196732184Y-91988145D01*
G75*
G02*
X197142026Y-91878328I259829J-150012D01*
G01*
X197661686Y-92178354D01*
G75*
G02*
X197771502Y-92588195I-150013J-259829D01*
G01*
X197471476Y-93107855D01*
G75*
G02*
X197061634Y-93217672I-259829J150012D01*
G01*
X196541974Y-92917646D01*
G75*
G02*
X196432158Y-92507805I150013J259829D01*
G01*
G37*
G36*
G01*
X198949345Y-94600699D02*
X199469005Y-94300673D01*
G75*
G02*
X199878846Y-94410489I150012J-259829D01*
G01*
X200178872Y-94930149D01*
G75*
G02*
X200069056Y-95339991I-259829J-150013D01*
G01*
X199549396Y-95640017D01*
G75*
G02*
X199139554Y-95530200I-150013J259829D01*
G01*
X198839528Y-95010540D01*
G75*
G02*
X198949345Y-94600699I259829J150012D01*
G01*
G37*
G36*
G01*
X200149345Y-96679159D02*
X200669005Y-96379133D01*
G75*
G02*
X201078846Y-96488949I150012J-259829D01*
G01*
X201378872Y-97008609D01*
G75*
G02*
X201269056Y-97418451I-259829J-150013D01*
G01*
X200749396Y-97718477D01*
G75*
G02*
X200339554Y-97608660I-150013J259829D01*
G01*
X200039528Y-97089000D01*
G75*
G02*
X200149345Y-96679159I259829J150012D01*
G01*
G37*
G36*
G01*
X201350574Y-99790549D02*
X201950626Y-99790549D01*
G75*
G02*
X202250651Y-100090574I0J-300025D01*
G01*
X202250651Y-100690626D01*
G75*
G02*
X201950626Y-100990651I-300025J0D01*
G01*
X201350574Y-100990651D01*
G75*
G02*
X201050549Y-100690626I0J300025D01*
G01*
X201050549Y-100090574D01*
G75*
G02*
X201350574Y-99790549I300025J0D01*
G01*
G37*
G36*
G01*
X201350574Y-102190549D02*
X201950626Y-102190549D01*
G75*
G02*
X202250651Y-102490574I0J-300025D01*
G01*
X202250651Y-103090626D01*
G75*
G02*
X201950626Y-103390651I-300025J0D01*
G01*
X201350574Y-103390651D01*
G75*
G02*
X201050549Y-103090626I0J300025D01*
G01*
X201050549Y-102490574D01*
G75*
G02*
X201350574Y-102190549I300025J0D01*
G01*
G37*
G36*
G01*
X200774796Y-105456123D02*
X201294456Y-105756149D01*
G75*
G02*
X201404272Y-106165990I-150013J-259829D01*
G01*
X201104246Y-106685650D01*
G75*
G02*
X200694404Y-106795467I-259829J150012D01*
G01*
X200174744Y-106495441D01*
G75*
G02*
X200064928Y-106085600I150013J259829D01*
G01*
X200364954Y-105565940D01*
G75*
G02*
X200774796Y-105456123I259829J-150012D01*
G01*
G37*
G36*
G01*
X199574796Y-107534583D02*
X200094456Y-107834609D01*
G75*
G02*
X200204272Y-108244450I-150013J-259829D01*
G01*
X199904246Y-108764110D01*
G75*
G02*
X199494404Y-108873927I-259829J150012D01*
G01*
X198974744Y-108573901D01*
G75*
G02*
X198864928Y-108164060I150013J259829D01*
G01*
X199164954Y-107644400D01*
G75*
G02*
X199574796Y-107534583I259829J-150012D01*
G01*
G37*
G36*
G01*
X197471476Y-110066745D02*
X197771502Y-110586404D01*
G75*
G02*
X197661686Y-110996246I-259829J-150013D01*
G01*
X197142026Y-111296272D01*
G75*
G02*
X196732184Y-111186455I-150013J259829D01*
G01*
X196432158Y-110666795D01*
G75*
G02*
X196541975Y-110256954I259829J150012D01*
G01*
X197061635Y-109956928D01*
G75*
G02*
X197471476Y-110066745I150012J-259829D01*
G01*
G37*
G36*
G01*
X195393016Y-111266745D02*
X195693042Y-111786404D01*
G75*
G02*
X195583226Y-112196246I-259829J-150013D01*
G01*
X195063566Y-112496272D01*
G75*
G02*
X194653724Y-112386455I-150013J259829D01*
G01*
X194353698Y-111866795D01*
G75*
G02*
X194463515Y-111456954I259829J150012D01*
G01*
X194983175Y-111156928D01*
G75*
G02*
X195393016Y-111266745I150012J-259829D01*
G01*
G37*
G36*
G01*
X186646302Y-111866795D02*
X186346276Y-112386455D01*
G75*
G02*
X185936434Y-112496272I-259829J150012D01*
G01*
X185416774Y-112196246D01*
G75*
G02*
X185306958Y-111786405I150013J259829D01*
G01*
X185606984Y-111266745D01*
G75*
G02*
X186016826Y-111156928I259829J-150012D01*
G01*
X186536486Y-111456954D01*
G75*
G02*
X186646302Y-111866795I-150013J-259829D01*
G01*
G37*
G36*
G01*
X184567842Y-110666795D02*
X184267816Y-111186455D01*
G75*
G02*
X183857974Y-111296272I-259829J150012D01*
G01*
X183338314Y-110996246D01*
G75*
G02*
X183228498Y-110586405I150013J259829D01*
G01*
X183528524Y-110066745D01*
G75*
G02*
X183938366Y-109956928I259829J-150012D01*
G01*
X184458026Y-110256954D01*
G75*
G02*
X184567842Y-110666795I-150013J-259829D01*
G01*
G37*
M02*
