G04 #@! TF.GenerationSoftware,KiCad,Pcbnew,(5.1.12)-1*
G04 #@! TF.CreationDate,2021-11-24T10:48:37+01:00*
G04 #@! TF.ProjectId,solo-nixie,736f6c6f-2d6e-4697-9869-652e6b696361,rev?*
G04 #@! TF.SameCoordinates,Original*
G04 #@! TF.FileFunction,Soldermask,Bot*
G04 #@! TF.FilePolarity,Negative*
%FSLAX46Y46*%
G04 Gerber Fmt 4.6, Leading zero omitted, Abs format (unit mm)*
G04 Created by KiCad (PCBNEW (5.1.12)-1) date 2021-11-24 10:48:37*
%MOMM*%
%LPD*%
G01*
G04 APERTURE LIST*
%ADD10C,0.120000*%
%ADD11O,1.000102X1.000102*%
%ADD12C,1.000102*%
%ADD13C,1.600102*%
%ADD14C,1.250102*%
G04 APERTURE END LIST*
D10*
X195867093Y-89344838D02*
X195973541Y-89342268D01*
X195689880Y-89945576D02*
X195623956Y-89861960D01*
X195192219Y-89733732D02*
X195447928Y-89118055D01*
X195925609Y-90003790D02*
X195819160Y-90006360D01*
X195100897Y-89953616D02*
X195126608Y-90015858D01*
X196113104Y-89828845D02*
X196072581Y-89915033D01*
X197552426Y-90983620D02*
X197434097Y-90903581D01*
X196849052Y-90376080D02*
X196881770Y-90506734D01*
X195988964Y-89980959D02*
X195925609Y-90003790D01*
X197077534Y-89902328D02*
X196734757Y-90474124D01*
X197434097Y-90903581D02*
X197381888Y-90810780D01*
X196532457Y-89608656D02*
X196216250Y-90195561D01*
X195623956Y-89861960D02*
X195578290Y-89735249D01*
X194868534Y-88900123D02*
X194734144Y-88851670D01*
X195595981Y-89585707D02*
X196113104Y-89828845D01*
X194963310Y-89339248D02*
X194995611Y-89249655D01*
X197450314Y-90454637D02*
X197569795Y-90362986D01*
X197396955Y-90533522D02*
X197450314Y-90454637D01*
X195126608Y-90015858D02*
X195064366Y-90041570D01*
X195038654Y-89979328D02*
X195100897Y-89953616D01*
X194999267Y-89099115D02*
X194941975Y-88977221D01*
X194995611Y-89249655D02*
X194999267Y-89099115D01*
X197724115Y-90984771D02*
X197657992Y-90997535D01*
X194941975Y-88977221D02*
X194868534Y-88900123D01*
X196425859Y-90308491D02*
X196551625Y-90376250D01*
X196102821Y-89403052D02*
X196168748Y-89486669D01*
X196351766Y-89944029D02*
X196325930Y-90092382D01*
X194734144Y-88851670D02*
X194628401Y-88864165D01*
X195740383Y-89390503D02*
X195867093Y-89344838D01*
X194748167Y-89514777D02*
X194870060Y-89457486D01*
X197356361Y-90678534D02*
X197396955Y-90533522D01*
X197870276Y-90853676D02*
X197816917Y-90932563D01*
X196938971Y-90596543D02*
X197061497Y-90669995D01*
X196364601Y-90221398D02*
X196425859Y-90308491D01*
X195819160Y-90006360D02*
X195689880Y-89945576D01*
X194628401Y-88864165D02*
X194506505Y-88921456D01*
X196168748Y-89486669D02*
X196214411Y-89613378D01*
X195595981Y-89585707D02*
X195636506Y-89499520D01*
X196072581Y-89915033D02*
X195988964Y-89980959D01*
X197381888Y-90810780D02*
X197356361Y-90678534D01*
X196881770Y-90506734D02*
X196938971Y-90596543D01*
X195064366Y-90041570D02*
X195038654Y-89979328D01*
X197657992Y-90997535D02*
X197552426Y-90983620D01*
X197816917Y-90932563D02*
X197724115Y-90984771D01*
X195636506Y-89499520D02*
X195740383Y-89390503D01*
X196881661Y-90229069D02*
X196849052Y-90376080D01*
X197396955Y-90533522D02*
X197870276Y-90853676D01*
X194870060Y-89457486D02*
X194963310Y-89339248D01*
X196325930Y-90092382D02*
X196364601Y-90221398D01*
X195973541Y-89342268D02*
X196102821Y-89403052D01*
X195578290Y-89735249D02*
X195595981Y-89585707D01*
X181467154Y-92229245D02*
X181464892Y-92363911D01*
X181067670Y-91953123D02*
X181202339Y-91955385D01*
X181815345Y-91220660D02*
X181927020Y-91131571D01*
X185808426Y-89242642D02*
X185808328Y-89092058D01*
X182402581Y-91422260D02*
X182387523Y-91556102D01*
X182165009Y-91124461D02*
X182291323Y-91206438D01*
X182126948Y-91763979D02*
X181993106Y-91748920D01*
X181346977Y-91625478D02*
X182007104Y-92376631D01*
X184764119Y-90482924D02*
X184700387Y-90461170D01*
X183943783Y-89784309D02*
X184431392Y-90657372D01*
X182572898Y-91154410D02*
X183283218Y-90674681D01*
X185100579Y-89224130D02*
X184887849Y-90044841D01*
X194642423Y-89527275D02*
X194748167Y-89514777D01*
X194508034Y-89478820D02*
X194642423Y-89527275D01*
X194434591Y-89401723D02*
X194508034Y-89478820D01*
X194377299Y-89279829D02*
X194434591Y-89401723D01*
X194328847Y-89414218D02*
X194668012Y-88473492D01*
X186184643Y-88865935D02*
X186305149Y-88926091D01*
X185943727Y-88896209D02*
X186079224Y-88850945D01*
X185838602Y-89332972D02*
X185808426Y-89242642D01*
X182231095Y-91741810D02*
X182126948Y-91763979D01*
X185734363Y-89940920D02*
X185795932Y-89968206D01*
X182031166Y-91109403D02*
X182165009Y-91124461D01*
X181202339Y-91955385D02*
X181335877Y-92024981D01*
X186410765Y-89242250D02*
X186395775Y-89347668D01*
X181993106Y-91748920D02*
X181866791Y-91666944D01*
X185868483Y-88971550D02*
X185943727Y-88896209D01*
X184785876Y-90419191D02*
X184764119Y-90482924D01*
X184620675Y-89434053D02*
X185367754Y-89834918D01*
X183361741Y-90109382D02*
X183849351Y-90982444D01*
X181464892Y-92363911D02*
X181429529Y-92464346D01*
X181335877Y-92024981D02*
X181402080Y-92093444D01*
X186079224Y-88850945D02*
X186184643Y-88865935D01*
X185808328Y-89092058D02*
X185868483Y-88971550D01*
X182291323Y-91206438D02*
X182350716Y-91280889D01*
X185929030Y-89453381D02*
X185838602Y-89332972D01*
X186049537Y-89513538D02*
X185929030Y-89453381D01*
X186154956Y-89528527D02*
X186049537Y-89513538D01*
X186290453Y-89483263D02*
X186154956Y-89528527D01*
X186380589Y-89151920D02*
X186410765Y-89242250D01*
X182342770Y-91652721D02*
X182231095Y-91741810D01*
X186365696Y-89407923D02*
X186290453Y-89483263D01*
X184617201Y-90183715D02*
X184323365Y-89585297D01*
X185838602Y-89332972D02*
X186380589Y-89151920D01*
X184722143Y-90397436D02*
X184785876Y-90419191D01*
X181807398Y-91592493D02*
X181755533Y-91451122D01*
X185648651Y-89718788D02*
X185408658Y-89096817D01*
X181770591Y-91317279D02*
X181815345Y-91220660D01*
X180966105Y-91985094D02*
X181067670Y-91953123D01*
X183849351Y-90982444D02*
X183943783Y-89784309D01*
X181866791Y-91666944D02*
X181807398Y-91592493D01*
X181755533Y-91451122D02*
X181770591Y-91317279D01*
X181402080Y-92093444D02*
X181467154Y-92229245D01*
X182387523Y-91556102D02*
X182342770Y-91652721D01*
X186395775Y-89347668D02*
X186365696Y-89407923D01*
X181927020Y-91131571D02*
X182031166Y-91109403D01*
X185768647Y-90029774D02*
X185707077Y-90002489D01*
X184700387Y-90461170D02*
X184722143Y-90397436D01*
X180863407Y-92084399D02*
X180966105Y-91985094D01*
X185795932Y-89968206D02*
X185768647Y-90029774D01*
X181429529Y-92464346D02*
X181326831Y-92563653D01*
X182350716Y-91280889D02*
X182402581Y-91422260D01*
X180828045Y-92184834D02*
X180863407Y-92084399D01*
X185707077Y-90002489D02*
X185734363Y-89940920D01*
X180605894Y-93198137D02*
X180726401Y-92922128D01*
X180581020Y-93368018D02*
X180577518Y-93300767D01*
X180690649Y-93530899D02*
X180619896Y-93467146D01*
X181143916Y-93170139D02*
X181083664Y-93308144D01*
X181136917Y-93035633D02*
X181143916Y-93170139D01*
X181326831Y-92563653D02*
X181225265Y-92595624D01*
X181083664Y-93308144D02*
X180956157Y-93449649D01*
X180825783Y-92319503D02*
X180828045Y-92184834D01*
X180890857Y-92455302D02*
X180825783Y-92319503D01*
X180751278Y-92752247D02*
X180712403Y-92653118D01*
X180957059Y-92523767D02*
X180890857Y-92455302D01*
X180213259Y-92780245D02*
X180153005Y-92918251D01*
X180340764Y-92638740D02*
X180213259Y-92780245D01*
X180577518Y-93300767D02*
X180605894Y-93198137D01*
X180956157Y-93449649D02*
X180825152Y-93523900D01*
X181090597Y-92593361D02*
X180957059Y-92523767D01*
X181225265Y-92595624D02*
X181090597Y-92593361D01*
X180153005Y-92918251D02*
X180160005Y-93052754D01*
X180712403Y-92653118D02*
X180606274Y-92557489D01*
X180754779Y-92819500D02*
X180751278Y-92752247D01*
X180471769Y-92564489D02*
X180340764Y-92638740D01*
X180726401Y-92922128D02*
X180754779Y-92819500D01*
X180619896Y-93467146D02*
X180581020Y-93368018D01*
X180825152Y-93523900D02*
X180690649Y-93530899D01*
X180606274Y-92557489D02*
X180471769Y-92564489D01*
X200150853Y-93215919D02*
X200174606Y-93319715D01*
X200170378Y-93014834D02*
X200150853Y-93215919D01*
X197925937Y-90431411D02*
X197978145Y-90524214D01*
X199300544Y-91732729D02*
X199433885Y-91662756D01*
X198457813Y-91589359D02*
X198501987Y-91686245D01*
X198843941Y-91717571D02*
X199143132Y-91347109D01*
X198717137Y-91798792D02*
X198843941Y-91717571D01*
X198094478Y-91357136D02*
X198205617Y-91446892D01*
X197978145Y-90524214D02*
X198003672Y-90656458D01*
X197702042Y-90337458D02*
X197807608Y-90351374D01*
X201070510Y-93442658D02*
X201137116Y-93452583D01*
X198050304Y-91260251D02*
X198094478Y-91357136D01*
X200174606Y-93319715D02*
X200265386Y-93430018D01*
X198205617Y-91446892D02*
X198309628Y-91469683D01*
X199674165Y-91893792D02*
X199678127Y-92095783D01*
X198970495Y-92075987D02*
X199300544Y-91732729D01*
X200503239Y-93419282D02*
X200870922Y-93116679D01*
X201663219Y-95387346D02*
X201575244Y-95327362D01*
X202087910Y-94877890D02*
X202157491Y-95002659D01*
X202023921Y-95349763D02*
X201940744Y-95396149D01*
X202162290Y-95109028D02*
X202125496Y-95238593D01*
X201999936Y-94817906D02*
X202087910Y-94877890D01*
X200538058Y-92712231D02*
X199765928Y-93347696D01*
X199638517Y-91793455D02*
X199674165Y-91893792D01*
X199593196Y-92677972D02*
X199819630Y-92922591D01*
X198501987Y-91686245D02*
X198613126Y-91776000D01*
X198028921Y-91059355D02*
X198050304Y-91260251D01*
X201537659Y-94966659D02*
X201639231Y-94855490D01*
X199445618Y-93009243D02*
X200039696Y-92459331D01*
X197807608Y-90351374D02*
X197925937Y-90431411D01*
X198309628Y-91469683D02*
X198436432Y-91388464D01*
X201050745Y-94476899D02*
X201712560Y-94270195D01*
X200841645Y-94158462D02*
X201503463Y-93951759D01*
X198436432Y-91388464D02*
X198457813Y-91589359D01*
X200176881Y-92397233D02*
X200276523Y-92434776D01*
X198328113Y-90688892D02*
X197909246Y-91207540D01*
X198613126Y-91776000D02*
X198717137Y-91798792D01*
X201914762Y-95861209D02*
X201913550Y-95967679D01*
X201958802Y-95733925D02*
X201914762Y-95861209D01*
X199433885Y-91662756D02*
X199535540Y-91694442D01*
X202066486Y-95628663D02*
X201958802Y-95733925D01*
X198436432Y-91388464D02*
X198735621Y-91018002D01*
X202409136Y-95462180D02*
X201809500Y-95753525D01*
X201505664Y-95202595D02*
X201500867Y-95096224D01*
X201060584Y-93509264D02*
X201070510Y-93442658D01*
X199535540Y-91694442D02*
X199638517Y-91793455D01*
X201575244Y-95327362D02*
X201505664Y-95202595D01*
X201792783Y-95424139D02*
X201663219Y-95387346D01*
X200362675Y-93473294D02*
X200503239Y-93419282D01*
X197569795Y-90362986D02*
X197702042Y-90337458D01*
X201940744Y-95396149D02*
X201792783Y-95424139D01*
X202125496Y-95238593D02*
X202023921Y-95349763D01*
X202157491Y-95002659D02*
X202162290Y-95109028D01*
X199348078Y-92439040D02*
X199810147Y-91958481D01*
X201870371Y-94781114D02*
X201999936Y-94817906D01*
X201722411Y-94809103D02*
X201870371Y-94781114D01*
X200039696Y-92459331D02*
X200176881Y-92397233D01*
X201639231Y-94855490D02*
X201722411Y-94809103D01*
X201500867Y-95096224D02*
X201537659Y-94966659D01*
X201712560Y-94270195D02*
X201259842Y-94795338D01*
X201503463Y-93951759D02*
X201050745Y-94476899D01*
X201137116Y-93452583D02*
X201127192Y-93519191D01*
X200265386Y-93430018D02*
X200362675Y-93473294D01*
X200276523Y-92434776D02*
X200341217Y-92504669D01*
X203901820Y-101605967D02*
X203854108Y-101701160D01*
X203279394Y-99993373D02*
X203378759Y-100031645D01*
X203252907Y-102516668D02*
X203211698Y-102418487D01*
X203757958Y-99995122D02*
X203658593Y-99956852D01*
X203576055Y-102681276D02*
X203481025Y-102674971D01*
X203235294Y-101462454D02*
X203283007Y-101367264D01*
X203853397Y-102987231D02*
X203194484Y-102885855D01*
X203303090Y-103432538D02*
X203773743Y-103504951D01*
X203219825Y-103034292D02*
X203158277Y-103121181D01*
X203211698Y-102418487D02*
X203221155Y-102275943D01*
X203481025Y-102674971D02*
X203341633Y-102618000D01*
X203832748Y-100274954D02*
X203819054Y-100132756D01*
X203661412Y-100482816D02*
X203708810Y-100478248D01*
X203886358Y-102320070D02*
X203876903Y-102462613D01*
X203522000Y-102057281D02*
X203617031Y-102063584D01*
X203505516Y-100354311D02*
X203562047Y-100444545D01*
X203901961Y-101463111D02*
X203901820Y-101605967D01*
X203435289Y-100121877D02*
X203505516Y-100354311D01*
X203708810Y-100478248D02*
X203799045Y-100421719D01*
X203521244Y-101224642D02*
X203616482Y-101224734D01*
X203819054Y-100132756D02*
X203757958Y-99995122D01*
X203721751Y-102643218D02*
X203576055Y-102681276D01*
X203235155Y-101605312D02*
X203235294Y-101462454D01*
X203845147Y-102221889D02*
X203886358Y-102320070D01*
X203756421Y-102120557D02*
X203845147Y-102221889D01*
X203617031Y-102063584D02*
X203756421Y-102120557D01*
X203759290Y-101272495D02*
X203854435Y-101367826D01*
X203378339Y-101272121D02*
X203521244Y-101224642D01*
X203378759Y-100031645D02*
X203435289Y-100121877D01*
X203562047Y-100444545D02*
X203661412Y-100482816D01*
X203089482Y-103881467D02*
X203223436Y-103950254D01*
X203854435Y-101367826D02*
X203901961Y-101463111D01*
X203876903Y-102462613D02*
X203823084Y-102554492D01*
X203056899Y-103780094D02*
X203089482Y-103881467D01*
X203274972Y-102184066D02*
X203376304Y-102095339D01*
X203616482Y-101224734D02*
X203759290Y-101272495D01*
X203136554Y-103262377D02*
X203169135Y-103363747D01*
X203823084Y-102554492D02*
X203721751Y-102643218D01*
X203283007Y-101367264D02*
X203378339Y-101272121D01*
X203876755Y-100796921D02*
X203831498Y-100846791D01*
X203223436Y-103950254D02*
X203694089Y-104022667D01*
X203140171Y-103552009D02*
X203078623Y-103638898D01*
X203382745Y-102914819D02*
X203219825Y-103034292D01*
X203854108Y-101701160D02*
X203758775Y-101796304D01*
X203341633Y-102618000D02*
X203252907Y-102516668D01*
X203377824Y-101795929D02*
X203282679Y-101700597D01*
X203078623Y-103638898D02*
X203056899Y-103780094D01*
X203282679Y-101700597D02*
X203235155Y-101605312D01*
X203826890Y-100751663D02*
X203876755Y-100796921D01*
X203781631Y-100801530D02*
X203826890Y-100751663D01*
X203376304Y-102095339D02*
X203522000Y-102057281D01*
X203799045Y-100421719D02*
X203832748Y-100274954D01*
X203303090Y-103432538D02*
X203140171Y-103552009D01*
X203169135Y-103363747D02*
X203303090Y-103432538D01*
X203221155Y-102275943D02*
X203274972Y-102184066D01*
X203158277Y-103121181D02*
X203136554Y-103262377D01*
X202916956Y-98579109D02*
X202989376Y-98465550D01*
X202921889Y-98821871D02*
X202891034Y-98682386D01*
X203125739Y-97273614D02*
X203140053Y-97168100D01*
X202988955Y-98904575D02*
X202921889Y-98821871D01*
X203242001Y-98946138D02*
X203149012Y-98966709D01*
X202694572Y-96167683D02*
X202775233Y-96237195D01*
X202401459Y-97067911D02*
X203347883Y-96744983D01*
X202953885Y-97812787D02*
X202829104Y-97897084D01*
X203140053Y-97168100D02*
X203093918Y-97032897D01*
X202946533Y-97485706D02*
X203066358Y-97394505D01*
X203320792Y-97710302D02*
X202678704Y-97889653D01*
X202705815Y-97517525D02*
X202856396Y-97516460D01*
X203361337Y-98383266D02*
X203474896Y-98455685D01*
X202829104Y-97897084D02*
X202763001Y-98014432D01*
X202830315Y-96369005D02*
X202823101Y-96475240D01*
X202891034Y-98682386D02*
X202916956Y-98579109D01*
X203404896Y-99571331D02*
X203466732Y-99658015D01*
X203169152Y-100338868D02*
X203155458Y-100196668D01*
X202218483Y-96263420D02*
X202331931Y-96164400D01*
X202462969Y-97248183D02*
X202509102Y-97383387D01*
X203068212Y-99576075D02*
X203046019Y-99434951D01*
X203137445Y-99709798D02*
X203068212Y-99576075D01*
X203211566Y-98367626D02*
X203361337Y-98383266D01*
X203149012Y-98966709D02*
X203045735Y-98940784D01*
X202536663Y-97021779D02*
X202477283Y-97142670D01*
X202509102Y-97383387D02*
X202584925Y-97458144D01*
X203018096Y-96958139D02*
X202897204Y-96898759D01*
X203541961Y-98538388D02*
X203572821Y-98677874D01*
X202763001Y-98014432D02*
X202742758Y-98118970D01*
X203066358Y-97394505D02*
X203125739Y-97273614D01*
X202477283Y-97142670D02*
X202462969Y-97248183D01*
X203704592Y-99331384D02*
X203635358Y-99197659D01*
X203701937Y-99621027D02*
X203726785Y-99472506D01*
X203118575Y-98388199D02*
X203242001Y-98946138D01*
X203546897Y-98781148D02*
X203474476Y-98894711D01*
X203093918Y-97032897D02*
X203018096Y-96958139D01*
X203045735Y-98940784D02*
X202988955Y-98904575D01*
X202823101Y-96475240D02*
X202771949Y-96599836D01*
X202989376Y-98465550D02*
X203118575Y-98388199D01*
X202331931Y-96164400D02*
X202419804Y-96127678D01*
X203189161Y-100049904D02*
X203279394Y-99993373D01*
X202742758Y-98118970D02*
X202781191Y-98256560D01*
X203155458Y-100196668D02*
X203189161Y-100049904D01*
X203329614Y-100514771D02*
X203230249Y-100476502D01*
X203466732Y-99658015D02*
X203568212Y-99690262D01*
X203118575Y-98388199D02*
X203211566Y-98367626D01*
X203320866Y-99343524D02*
X203404896Y-99571331D01*
X202856396Y-97516460D02*
X202946533Y-97485706D01*
X202569976Y-96116531D02*
X202694572Y-96167683D01*
X202775233Y-96237195D02*
X202830315Y-96369005D01*
X203230249Y-100476502D02*
X203169152Y-100338868D01*
X203635358Y-99197659D02*
X203533879Y-99165413D01*
X203726785Y-99472506D02*
X203704592Y-99331384D01*
X203474896Y-98455685D02*
X203541961Y-98538388D01*
X202584925Y-97458144D02*
X202705815Y-97517525D01*
X202419804Y-96127678D02*
X202569976Y-96116531D01*
X203572821Y-98677874D02*
X203546897Y-98781148D01*
X203615253Y-99682864D02*
X203701937Y-99621027D01*
X203568212Y-99690262D02*
X203615253Y-99682864D01*
X203259031Y-99256840D02*
X203320866Y-99343524D01*
X203157550Y-99224596D02*
X203259031Y-99256840D01*
X203070868Y-99286429D02*
X203157550Y-99224596D01*
X203046019Y-99434951D02*
X203070868Y-99286429D01*
X203238925Y-99742045D02*
X203137445Y-99709798D01*
X201913550Y-95967679D02*
X201975981Y-96096173D01*
X202167333Y-96388017D02*
X202218483Y-96263420D01*
X202160117Y-96494251D02*
X202167333Y-96388017D01*
X202295860Y-96695573D02*
X202215199Y-96626062D01*
X201981088Y-96930338D02*
X202903760Y-96544752D01*
X202215199Y-96626062D02*
X202160117Y-96494251D01*
X202420454Y-96746725D02*
X202295860Y-96695573D01*
G36*
G01*
X197472949Y-107238534D02*
X197472949Y-105613466D01*
G75*
G02*
X197910466Y-105175949I437517J0D01*
G01*
X199535534Y-105175949D01*
G75*
G02*
X199973051Y-105613466I0J-437517D01*
G01*
X199973051Y-107238534D01*
G75*
G02*
X199535534Y-107676051I-437517J0D01*
G01*
X197910466Y-107676051D01*
G75*
G02*
X197472949Y-107238534I0J437517D01*
G01*
G37*
G36*
G01*
X193472949Y-107238534D02*
X193472949Y-105613466D01*
G75*
G02*
X193910466Y-105175949I437517J0D01*
G01*
X195535534Y-105175949D01*
G75*
G02*
X195973051Y-105613466I0J-437517D01*
G01*
X195973051Y-107238534D01*
G75*
G02*
X195535534Y-107676051I-437517J0D01*
G01*
X193910466Y-107676051D01*
G75*
G02*
X193472949Y-107238534I0J437517D01*
G01*
G37*
D11*
X187960000Y-88900000D03*
X189230000Y-88900000D03*
X190500000Y-88900000D03*
X191770000Y-88900000D03*
D12*
X193040000Y-88900000D03*
G36*
G01*
X197964949Y-99175026D02*
X197964949Y-97674974D01*
G75*
G02*
X198214974Y-97424949I250025J0D01*
G01*
X198715026Y-97424949D01*
G75*
G02*
X198965051Y-97674974I0J-250025D01*
G01*
X198965051Y-99175026D01*
G75*
G02*
X198715026Y-99425051I-250025J0D01*
G01*
X198214974Y-99425051D01*
G75*
G02*
X197964949Y-99175026I0J250025D01*
G01*
G37*
G36*
G01*
X194214949Y-97125026D02*
X194214949Y-96724974D01*
G75*
G02*
X194414974Y-96524949I200025J0D01*
G01*
X195515026Y-96524949D01*
G75*
G02*
X195715051Y-96724974I0J-200025D01*
G01*
X195715051Y-97125026D01*
G75*
G02*
X195515026Y-97325051I-200025J0D01*
G01*
X194414974Y-97325051D01*
G75*
G02*
X194214949Y-97125026I0J200025D01*
G01*
G37*
G36*
G01*
X194214949Y-100125026D02*
X194214949Y-99724974D01*
G75*
G02*
X194414974Y-99524949I200025J0D01*
G01*
X195515026Y-99524949D01*
G75*
G02*
X195715051Y-99724974I0J-200025D01*
G01*
X195715051Y-100125026D01*
G75*
G02*
X195515026Y-100325051I-200025J0D01*
G01*
X194414974Y-100325051D01*
G75*
G02*
X194214949Y-100125026I0J200025D01*
G01*
G37*
G36*
G01*
X196264949Y-98625026D02*
X196264949Y-98224974D01*
G75*
G02*
X196464974Y-98024949I200025J0D01*
G01*
X198565026Y-98024949D01*
G75*
G02*
X198765051Y-98224974I0J-200025D01*
G01*
X198765051Y-98625026D01*
G75*
G02*
X198565026Y-98825051I-200025J0D01*
G01*
X196464974Y-98825051D01*
G75*
G02*
X196264949Y-98625026I0J200025D01*
G01*
G37*
G36*
G01*
X194164949Y-97675026D02*
X194164949Y-97274974D01*
G75*
G02*
X194364974Y-97074949I200025J0D01*
G01*
X195465026Y-97074949D01*
G75*
G02*
X195665051Y-97274974I0J-200025D01*
G01*
X195665051Y-97675026D01*
G75*
G02*
X195465026Y-97875051I-200025J0D01*
G01*
X194364974Y-97875051D01*
G75*
G02*
X194164949Y-97675026I0J200025D01*
G01*
G37*
G36*
G01*
X194164949Y-99575026D02*
X194164949Y-99174974D01*
G75*
G02*
X194364974Y-98974949I200025J0D01*
G01*
X195465026Y-98974949D01*
G75*
G02*
X195665051Y-99174974I0J-200025D01*
G01*
X195665051Y-99575026D01*
G75*
G02*
X195465026Y-99775051I-200025J0D01*
G01*
X194364974Y-99775051D01*
G75*
G02*
X194164949Y-99575026I0J200025D01*
G01*
G37*
G36*
G01*
X188210026Y-94472051D02*
X187709974Y-94472051D01*
G75*
G02*
X187459949Y-94222026I0J250025D01*
G01*
X187459949Y-92721974D01*
G75*
G02*
X187709974Y-92471949I250025J0D01*
G01*
X188210026Y-92471949D01*
G75*
G02*
X188460051Y-92721974I0J-250025D01*
G01*
X188460051Y-94222026D01*
G75*
G02*
X188210026Y-94472051I-250025J0D01*
G01*
G37*
G36*
G01*
X193290026Y-94472051D02*
X192789974Y-94472051D01*
G75*
G02*
X192539949Y-94222026I0J250025D01*
G01*
X192539949Y-92721974D01*
G75*
G02*
X192789974Y-92471949I250025J0D01*
G01*
X193290026Y-92471949D01*
G75*
G02*
X193540051Y-92721974I0J-250025D01*
G01*
X193540051Y-94222026D01*
G75*
G02*
X193290026Y-94472051I-250025J0D01*
G01*
G37*
G36*
G01*
X185670026Y-94472051D02*
X185169974Y-94472051D01*
G75*
G02*
X184919949Y-94222026I0J250025D01*
G01*
X184919949Y-92721974D01*
G75*
G02*
X185169974Y-92471949I250025J0D01*
G01*
X185670026Y-92471949D01*
G75*
G02*
X185920051Y-92721974I0J-250025D01*
G01*
X185920051Y-94222026D01*
G75*
G02*
X185670026Y-94472051I-250025J0D01*
G01*
G37*
G36*
G01*
X190750026Y-94472051D02*
X190249974Y-94472051D01*
G75*
G02*
X189999949Y-94222026I0J250025D01*
G01*
X189999949Y-92721974D01*
G75*
G02*
X190249974Y-92471949I250025J0D01*
G01*
X190750026Y-92471949D01*
G75*
G02*
X191000051Y-92721974I0J-250025D01*
G01*
X191000051Y-94222026D01*
G75*
G02*
X190750026Y-94472051I-250025J0D01*
G01*
G37*
G36*
G01*
X196080000Y-94472051D02*
X195080000Y-94472051D01*
G75*
G02*
X195079949Y-94472000I0J51D01*
G01*
X195079949Y-92472000D01*
G75*
G02*
X195080000Y-92471949I51J0D01*
G01*
X196080000Y-92471949D01*
G75*
G02*
X196080051Y-92472000I0J-51D01*
G01*
X196080051Y-94472000D01*
G75*
G02*
X196080000Y-94472051I-51J0D01*
G01*
G37*
G36*
G01*
X182812841Y-109953353D02*
X182496857Y-110372678D01*
G75*
G02*
X182129204Y-110424349I-209662J157991D01*
G01*
X181430356Y-109897730D01*
G75*
G02*
X181378685Y-109530077I157991J209662D01*
G01*
X181694669Y-109110752D01*
G75*
G02*
X182062322Y-109059081I209662J-157991D01*
G01*
X182761170Y-109585700D01*
G75*
G02*
X182812841Y-109953353I-157991J-209662D01*
G01*
G37*
G36*
G01*
X185687929Y-112119887D02*
X185371945Y-112539212D01*
G75*
G02*
X185004292Y-112590883I-209662J157991D01*
G01*
X184305444Y-112064264D01*
G75*
G02*
X184253773Y-111696611I157991J209662D01*
G01*
X184569757Y-111277286D01*
G75*
G02*
X184937410Y-111225615I209662J-157991D01*
G01*
X185636258Y-111752234D01*
G75*
G02*
X185687929Y-112119887I-157991J-209662D01*
G01*
G37*
G36*
G01*
X181946227Y-111103389D02*
X181630243Y-111522714D01*
G75*
G02*
X181262590Y-111574385I-209662J157991D01*
G01*
X180563742Y-111047766D01*
G75*
G02*
X180512071Y-110680113I157991J209662D01*
G01*
X180828055Y-110260788D01*
G75*
G02*
X181195708Y-110209117I209662J-157991D01*
G01*
X181894556Y-110735736D01*
G75*
G02*
X181946227Y-111103389I-157991J-209662D01*
G01*
G37*
G36*
G01*
X184821315Y-113269923D02*
X184505331Y-113689248D01*
G75*
G02*
X184137678Y-113740919I-209662J157991D01*
G01*
X183438830Y-113214300D01*
G75*
G02*
X183387159Y-112846647I157991J209662D01*
G01*
X183703143Y-112427322D01*
G75*
G02*
X184070796Y-112375651I209662J-157991D01*
G01*
X184769644Y-112902270D01*
G75*
G02*
X184821315Y-113269923I-157991J-209662D01*
G01*
G37*
G36*
G01*
X196430243Y-111277286D02*
X196746227Y-111696611D01*
G75*
G02*
X196694556Y-112064264I-209662J-157991D01*
G01*
X195995708Y-112590883D01*
G75*
G02*
X195628055Y-112539212I-157991J209662D01*
G01*
X195312071Y-112119887D01*
G75*
G02*
X195363742Y-111752234I209662J157991D01*
G01*
X196062590Y-111225615D01*
G75*
G02*
X196430243Y-111277286I157991J-209662D01*
G01*
G37*
G36*
G01*
X199305331Y-109110752D02*
X199621315Y-109530077D01*
G75*
G02*
X199569644Y-109897730I-209662J-157991D01*
G01*
X198870796Y-110424349D01*
G75*
G02*
X198503143Y-110372678I-157991J209662D01*
G01*
X198187159Y-109953353D01*
G75*
G02*
X198238830Y-109585700I209662J157991D01*
G01*
X198937678Y-109059081D01*
G75*
G02*
X199305331Y-109110752I157991J-209662D01*
G01*
G37*
G36*
G01*
X197296857Y-112427322D02*
X197612841Y-112846647D01*
G75*
G02*
X197561170Y-113214300I-209662J-157991D01*
G01*
X196862322Y-113740919D01*
G75*
G02*
X196494669Y-113689248I-157991J209662D01*
G01*
X196178685Y-113269923D01*
G75*
G02*
X196230356Y-112902270I209662J157991D01*
G01*
X196929204Y-112375651D01*
G75*
G02*
X197296857Y-112427322I157991J-209662D01*
G01*
G37*
G36*
G01*
X200171945Y-110260788D02*
X200487929Y-110680113D01*
G75*
G02*
X200436258Y-111047766I-209662J-157991D01*
G01*
X199737410Y-111574385D01*
G75*
G02*
X199369757Y-111522714I-157991J209662D01*
G01*
X199053773Y-111103389D01*
G75*
G02*
X199105444Y-110735736I209662J157991D01*
G01*
X199804292Y-110209117D01*
G75*
G02*
X200171945Y-110260788I157991J-209662D01*
G01*
G37*
D13*
X187000000Y-114050000D03*
X194000000Y-114050000D03*
D14*
X188000000Y-111350000D03*
X193000000Y-111350000D03*
G36*
G01*
X189425051Y-110312474D02*
X189425051Y-111887526D01*
G75*
G02*
X189312526Y-112000051I-112525J0D01*
G01*
X189087474Y-112000051D01*
G75*
G02*
X188974949Y-111887526I0J112525D01*
G01*
X188974949Y-110312474D01*
G75*
G02*
X189087474Y-110199949I112525J0D01*
G01*
X189312526Y-110199949D01*
G75*
G02*
X189425051Y-110312474I0J-112525D01*
G01*
G37*
G36*
G01*
X190000051Y-110474974D02*
X190000051Y-111725026D01*
G75*
G02*
X189925026Y-111800051I-75025J0D01*
G01*
X189774974Y-111800051D01*
G75*
G02*
X189699949Y-111725026I0J75025D01*
G01*
X189699949Y-110474974D01*
G75*
G02*
X189774974Y-110399949I75025J0D01*
G01*
X189925026Y-110399949D01*
G75*
G02*
X190000051Y-110474974I0J-75025D01*
G01*
G37*
G36*
G01*
X190650051Y-110474974D02*
X190650051Y-111725026D01*
G75*
G02*
X190575026Y-111800051I-75025J0D01*
G01*
X190424974Y-111800051D01*
G75*
G02*
X190349949Y-111725026I0J75025D01*
G01*
X190349949Y-110474974D01*
G75*
G02*
X190424974Y-110399949I75025J0D01*
G01*
X190575026Y-110399949D01*
G75*
G02*
X190650051Y-110474974I0J-75025D01*
G01*
G37*
G36*
G01*
X191300051Y-110474974D02*
X191300051Y-111725026D01*
G75*
G02*
X191225026Y-111800051I-75025J0D01*
G01*
X191074974Y-111800051D01*
G75*
G02*
X190999949Y-111725026I0J75025D01*
G01*
X190999949Y-110474974D01*
G75*
G02*
X191074974Y-110399949I75025J0D01*
G01*
X191225026Y-110399949D01*
G75*
G02*
X191300051Y-110474974I0J-75025D01*
G01*
G37*
G36*
G01*
X192025051Y-110200000D02*
X192025051Y-112000000D01*
G75*
G02*
X192025000Y-112000051I-51J0D01*
G01*
X191575000Y-112000051D01*
G75*
G02*
X191574949Y-112000000I0J51D01*
G01*
X191574949Y-110200000D01*
G75*
G02*
X191575000Y-110199949I51J0D01*
G01*
X192025000Y-110199949D01*
G75*
G02*
X192025051Y-110200000I0J-51D01*
G01*
G37*
G36*
G01*
X193723000Y-101486949D02*
X195723000Y-101486949D01*
G75*
G02*
X195723051Y-101487000I0J-51D01*
G01*
X195723051Y-103237000D01*
G75*
G02*
X195723000Y-103237051I-51J0D01*
G01*
X193723000Y-103237051D01*
G75*
G02*
X193722949Y-103237000I0J51D01*
G01*
X193722949Y-101487000D01*
G75*
G02*
X193723000Y-101486949I51J0D01*
G01*
G37*
G36*
G01*
X199723051Y-101487000D02*
X199723051Y-103237000D01*
G75*
G02*
X199723000Y-103237051I-51J0D01*
G01*
X197723000Y-103237051D01*
G75*
G02*
X197722949Y-103237000I0J51D01*
G01*
X197722949Y-101487000D01*
G75*
G02*
X197723000Y-101486949I51J0D01*
G01*
X199723000Y-101486949D01*
G75*
G02*
X199723051Y-101487000I0J-51D01*
G01*
G37*
G36*
G01*
X184976255Y-101094808D02*
X184216078Y-101854985D01*
G75*
G02*
X184127654Y-101854985I-44212J44212D01*
G01*
X184039229Y-101766560D01*
G75*
G02*
X184039229Y-101678136I44212J44212D01*
G01*
X184799406Y-100917959D01*
G75*
G02*
X184887830Y-100917959I44212J-44212D01*
G01*
X184976255Y-101006384D01*
G75*
G02*
X184976255Y-101094808I-44212J-44212D01*
G01*
G37*
G36*
G01*
X184622701Y-100741254D02*
X183862524Y-101501431D01*
G75*
G02*
X183774100Y-101501431I-44212J44212D01*
G01*
X183685675Y-101413006D01*
G75*
G02*
X183685675Y-101324582I44212J44212D01*
G01*
X184445852Y-100564405D01*
G75*
G02*
X184534276Y-100564405I44212J-44212D01*
G01*
X184622701Y-100652830D01*
G75*
G02*
X184622701Y-100741254I-44212J-44212D01*
G01*
G37*
G36*
G01*
X184269148Y-100387701D02*
X183508971Y-101147878D01*
G75*
G02*
X183420547Y-101147878I-44212J44212D01*
G01*
X183332122Y-101059453D01*
G75*
G02*
X183332122Y-100971029I44212J44212D01*
G01*
X184092299Y-100210852D01*
G75*
G02*
X184180723Y-100210852I44212J-44212D01*
G01*
X184269148Y-100299277D01*
G75*
G02*
X184269148Y-100387701I-44212J-44212D01*
G01*
G37*
G36*
G01*
X183915595Y-100034148D02*
X183155418Y-100794325D01*
G75*
G02*
X183066994Y-100794325I-44212J44212D01*
G01*
X182978569Y-100705900D01*
G75*
G02*
X182978569Y-100617476I44212J44212D01*
G01*
X183738746Y-99857299D01*
G75*
G02*
X183827170Y-99857299I44212J-44212D01*
G01*
X183915595Y-99945724D01*
G75*
G02*
X183915595Y-100034148I-44212J-44212D01*
G01*
G37*
G36*
G01*
X183562041Y-99680594D02*
X182801864Y-100440771D01*
G75*
G02*
X182713440Y-100440771I-44212J44212D01*
G01*
X182625015Y-100352346D01*
G75*
G02*
X182625015Y-100263922I44212J44212D01*
G01*
X183385192Y-99503745D01*
G75*
G02*
X183473616Y-99503745I44212J-44212D01*
G01*
X183562041Y-99592170D01*
G75*
G02*
X183562041Y-99680594I-44212J-44212D01*
G01*
G37*
G36*
G01*
X181864985Y-100352346D02*
X181776560Y-100440771D01*
G75*
G02*
X181688136Y-100440771I-44212J44212D01*
G01*
X180927959Y-99680594D01*
G75*
G02*
X180927959Y-99592170I44212J44212D01*
G01*
X181016384Y-99503745D01*
G75*
G02*
X181104808Y-99503745I44212J-44212D01*
G01*
X181864985Y-100263922D01*
G75*
G02*
X181864985Y-100352346I-44212J-44212D01*
G01*
G37*
G36*
G01*
X181511431Y-100705900D02*
X181423006Y-100794325D01*
G75*
G02*
X181334582Y-100794325I-44212J44212D01*
G01*
X180574405Y-100034148D01*
G75*
G02*
X180574405Y-99945724I44212J44212D01*
G01*
X180662830Y-99857299D01*
G75*
G02*
X180751254Y-99857299I44212J-44212D01*
G01*
X181511431Y-100617476D01*
G75*
G02*
X181511431Y-100705900I-44212J-44212D01*
G01*
G37*
G36*
G01*
X181157878Y-101059453D02*
X181069453Y-101147878D01*
G75*
G02*
X180981029Y-101147878I-44212J44212D01*
G01*
X180220852Y-100387701D01*
G75*
G02*
X180220852Y-100299277I44212J44212D01*
G01*
X180309277Y-100210852D01*
G75*
G02*
X180397701Y-100210852I44212J-44212D01*
G01*
X181157878Y-100971029D01*
G75*
G02*
X181157878Y-101059453I-44212J-44212D01*
G01*
G37*
G36*
G01*
X180804325Y-101413006D02*
X180715900Y-101501431D01*
G75*
G02*
X180627476Y-101501431I-44212J44212D01*
G01*
X179867299Y-100741254D01*
G75*
G02*
X179867299Y-100652830I44212J44212D01*
G01*
X179955724Y-100564405D01*
G75*
G02*
X180044148Y-100564405I44212J-44212D01*
G01*
X180804325Y-101324582D01*
G75*
G02*
X180804325Y-101413006I-44212J-44212D01*
G01*
G37*
G36*
G01*
X180450771Y-101766560D02*
X180362346Y-101854985D01*
G75*
G02*
X180273922Y-101854985I-44212J44212D01*
G01*
X179513745Y-101094808D01*
G75*
G02*
X179513745Y-101006384I44212J44212D01*
G01*
X179602170Y-100917959D01*
G75*
G02*
X179690594Y-100917959I44212J-44212D01*
G01*
X180450771Y-101678136D01*
G75*
G02*
X180450771Y-101766560I-44212J-44212D01*
G01*
G37*
G36*
G01*
X180450771Y-102791864D02*
X179690594Y-103552041D01*
G75*
G02*
X179602170Y-103552041I-44212J44212D01*
G01*
X179513745Y-103463616D01*
G75*
G02*
X179513745Y-103375192I44212J44212D01*
G01*
X180273922Y-102615015D01*
G75*
G02*
X180362346Y-102615015I44212J-44212D01*
G01*
X180450771Y-102703440D01*
G75*
G02*
X180450771Y-102791864I-44212J-44212D01*
G01*
G37*
G36*
G01*
X180804325Y-103145418D02*
X180044148Y-103905595D01*
G75*
G02*
X179955724Y-103905595I-44212J44212D01*
G01*
X179867299Y-103817170D01*
G75*
G02*
X179867299Y-103728746I44212J44212D01*
G01*
X180627476Y-102968569D01*
G75*
G02*
X180715900Y-102968569I44212J-44212D01*
G01*
X180804325Y-103056994D01*
G75*
G02*
X180804325Y-103145418I-44212J-44212D01*
G01*
G37*
G36*
G01*
X181157878Y-103498971D02*
X180397701Y-104259148D01*
G75*
G02*
X180309277Y-104259148I-44212J44212D01*
G01*
X180220852Y-104170723D01*
G75*
G02*
X180220852Y-104082299I44212J44212D01*
G01*
X180981029Y-103322122D01*
G75*
G02*
X181069453Y-103322122I44212J-44212D01*
G01*
X181157878Y-103410547D01*
G75*
G02*
X181157878Y-103498971I-44212J-44212D01*
G01*
G37*
G36*
G01*
X181511431Y-103852524D02*
X180751254Y-104612701D01*
G75*
G02*
X180662830Y-104612701I-44212J44212D01*
G01*
X180574405Y-104524276D01*
G75*
G02*
X180574405Y-104435852I44212J44212D01*
G01*
X181334582Y-103675675D01*
G75*
G02*
X181423006Y-103675675I44212J-44212D01*
G01*
X181511431Y-103764100D01*
G75*
G02*
X181511431Y-103852524I-44212J-44212D01*
G01*
G37*
G36*
G01*
X181864985Y-104206078D02*
X181104808Y-104966255D01*
G75*
G02*
X181016384Y-104966255I-44212J44212D01*
G01*
X180927959Y-104877830D01*
G75*
G02*
X180927959Y-104789406I44212J44212D01*
G01*
X181688136Y-104029229D01*
G75*
G02*
X181776560Y-104029229I44212J-44212D01*
G01*
X181864985Y-104117654D01*
G75*
G02*
X181864985Y-104206078I-44212J-44212D01*
G01*
G37*
G36*
G01*
X183562041Y-104877830D02*
X183473616Y-104966255D01*
G75*
G02*
X183385192Y-104966255I-44212J44212D01*
G01*
X182625015Y-104206078D01*
G75*
G02*
X182625015Y-104117654I44212J44212D01*
G01*
X182713440Y-104029229D01*
G75*
G02*
X182801864Y-104029229I44212J-44212D01*
G01*
X183562041Y-104789406D01*
G75*
G02*
X183562041Y-104877830I-44212J-44212D01*
G01*
G37*
G36*
G01*
X183915595Y-104524276D02*
X183827170Y-104612701D01*
G75*
G02*
X183738746Y-104612701I-44212J44212D01*
G01*
X182978569Y-103852524D01*
G75*
G02*
X182978569Y-103764100I44212J44212D01*
G01*
X183066994Y-103675675D01*
G75*
G02*
X183155418Y-103675675I44212J-44212D01*
G01*
X183915595Y-104435852D01*
G75*
G02*
X183915595Y-104524276I-44212J-44212D01*
G01*
G37*
G36*
G01*
X184269148Y-104170723D02*
X184180723Y-104259148D01*
G75*
G02*
X184092299Y-104259148I-44212J44212D01*
G01*
X183332122Y-103498971D01*
G75*
G02*
X183332122Y-103410547I44212J44212D01*
G01*
X183420547Y-103322122D01*
G75*
G02*
X183508971Y-103322122I44212J-44212D01*
G01*
X184269148Y-104082299D01*
G75*
G02*
X184269148Y-104170723I-44212J-44212D01*
G01*
G37*
G36*
G01*
X184622701Y-103817170D02*
X184534276Y-103905595D01*
G75*
G02*
X184445852Y-103905595I-44212J44212D01*
G01*
X183685675Y-103145418D01*
G75*
G02*
X183685675Y-103056994I44212J44212D01*
G01*
X183774100Y-102968569D01*
G75*
G02*
X183862524Y-102968569I44212J-44212D01*
G01*
X184622701Y-103728746D01*
G75*
G02*
X184622701Y-103817170I-44212J-44212D01*
G01*
G37*
G36*
G01*
X185161851Y-103560861D02*
X184985074Y-103737638D01*
G75*
G02*
X184985002Y-103737638I-36J36D01*
G01*
X183995053Y-102747689D01*
G75*
G02*
X183995053Y-102747617I36J36D01*
G01*
X184171830Y-102570840D01*
G75*
G02*
X184171902Y-102570840I36J-36D01*
G01*
X185161851Y-103560789D01*
G75*
G02*
X185161851Y-103560861I-36J-36D01*
G01*
G37*
G36*
G01*
X182799026Y-98701051D02*
X182198974Y-98701051D01*
G75*
G02*
X181898949Y-98401026I0J300025D01*
G01*
X181898949Y-97800974D01*
G75*
G02*
X182198974Y-97500949I300025J0D01*
G01*
X182799026Y-97500949D01*
G75*
G02*
X183099051Y-97800974I0J-300025D01*
G01*
X183099051Y-98401026D01*
G75*
G02*
X182799026Y-98701051I-300025J0D01*
G01*
G37*
G36*
G01*
X182799026Y-96301051D02*
X182198974Y-96301051D01*
G75*
G02*
X181898949Y-96001026I0J300025D01*
G01*
X181898949Y-95400974D01*
G75*
G02*
X182198974Y-95100949I300025J0D01*
G01*
X182799026Y-95100949D01*
G75*
G02*
X183099051Y-95400974I0J-300025D01*
G01*
X183099051Y-96001026D01*
G75*
G02*
X182799026Y-96301051I-300025J0D01*
G01*
G37*
G36*
G01*
X187752026Y-105559051D02*
X187151974Y-105559051D01*
G75*
G02*
X186851949Y-105259026I0J300025D01*
G01*
X186851949Y-104658974D01*
G75*
G02*
X187151974Y-104358949I300025J0D01*
G01*
X187752026Y-104358949D01*
G75*
G02*
X188052051Y-104658974I0J-300025D01*
G01*
X188052051Y-105259026D01*
G75*
G02*
X187752026Y-105559051I-300025J0D01*
G01*
G37*
G36*
G01*
X187752026Y-103159051D02*
X187151974Y-103159051D01*
G75*
G02*
X186851949Y-102859026I0J300025D01*
G01*
X186851949Y-102258974D01*
G75*
G02*
X187151974Y-101958949I300025J0D01*
G01*
X187752026Y-101958949D01*
G75*
G02*
X188052051Y-102258974I0J-300025D01*
G01*
X188052051Y-102859026D01*
G75*
G02*
X187752026Y-103159051I-300025J0D01*
G01*
G37*
G36*
G01*
X193213026Y-100225051D02*
X192612974Y-100225051D01*
G75*
G02*
X192312949Y-99925026I0J300025D01*
G01*
X192312949Y-99324974D01*
G75*
G02*
X192612974Y-99024949I300025J0D01*
G01*
X193213026Y-99024949D01*
G75*
G02*
X193513051Y-99324974I0J-300025D01*
G01*
X193513051Y-99925026D01*
G75*
G02*
X193213026Y-100225051I-300025J0D01*
G01*
G37*
G36*
G01*
X193213026Y-97825051D02*
X192612974Y-97825051D01*
G75*
G02*
X192312949Y-97525026I0J300025D01*
G01*
X192312949Y-96924974D01*
G75*
G02*
X192612974Y-96624949I300025J0D01*
G01*
X193213026Y-96624949D01*
G75*
G02*
X193513051Y-96924974I0J-300025D01*
G01*
X193513051Y-97525026D01*
G75*
G02*
X193213026Y-97825051I-300025J0D01*
G01*
G37*
G36*
G01*
X189183974Y-101958949D02*
X189784026Y-101958949D01*
G75*
G02*
X190084051Y-102258974I0J-300025D01*
G01*
X190084051Y-102859026D01*
G75*
G02*
X189784026Y-103159051I-300025J0D01*
G01*
X189183974Y-103159051D01*
G75*
G02*
X188883949Y-102859026I0J300025D01*
G01*
X188883949Y-102258974D01*
G75*
G02*
X189183974Y-101958949I300025J0D01*
G01*
G37*
G36*
G01*
X189183974Y-104358949D02*
X189784026Y-104358949D01*
G75*
G02*
X190084051Y-104658974I0J-300025D01*
G01*
X190084051Y-105259026D01*
G75*
G02*
X189784026Y-105559051I-300025J0D01*
G01*
X189183974Y-105559051D01*
G75*
G02*
X188883949Y-105259026I0J300025D01*
G01*
X188883949Y-104658974D01*
G75*
G02*
X189183974Y-104358949I300025J0D01*
G01*
G37*
G36*
G01*
X192300051Y-108030974D02*
X192300051Y-108631026D01*
G75*
G02*
X192000026Y-108931051I-300025J0D01*
G01*
X191399974Y-108931051D01*
G75*
G02*
X191099949Y-108631026I0J300025D01*
G01*
X191099949Y-108030974D01*
G75*
G02*
X191399974Y-107730949I300025J0D01*
G01*
X192000026Y-107730949D01*
G75*
G02*
X192300051Y-108030974I0J-300025D01*
G01*
G37*
G36*
G01*
X189900051Y-108030974D02*
X189900051Y-108631026D01*
G75*
G02*
X189600026Y-108931051I-300025J0D01*
G01*
X188999974Y-108931051D01*
G75*
G02*
X188699949Y-108631026I0J300025D01*
G01*
X188699949Y-108030974D01*
G75*
G02*
X188999974Y-107730949I300025J0D01*
G01*
X189600026Y-107730949D01*
G75*
G02*
X189900051Y-108030974I0J-300025D01*
G01*
G37*
G36*
G01*
X191215974Y-101958949D02*
X191816026Y-101958949D01*
G75*
G02*
X192116051Y-102258974I0J-300025D01*
G01*
X192116051Y-102859026D01*
G75*
G02*
X191816026Y-103159051I-300025J0D01*
G01*
X191215974Y-103159051D01*
G75*
G02*
X190915949Y-102859026I0J300025D01*
G01*
X190915949Y-102258974D01*
G75*
G02*
X191215974Y-101958949I300025J0D01*
G01*
G37*
G36*
G01*
X191215974Y-104358949D02*
X191816026Y-104358949D01*
G75*
G02*
X192116051Y-104658974I0J-300025D01*
G01*
X192116051Y-105259026D01*
G75*
G02*
X191816026Y-105559051I-300025J0D01*
G01*
X191215974Y-105559051D01*
G75*
G02*
X190915949Y-105259026I0J300025D01*
G01*
X190915949Y-104658974D01*
G75*
G02*
X191215974Y-104358949I300025J0D01*
G01*
G37*
M02*
