0
SECTION
2
HEADER
9
$INSUNITS
70
4
9
$ACADVER
1
AC1014
9
$HANDSEED
5
FFFF
0
ENDSEC
0
SECTION
2
TABLES
0
TABLE
2
VPORT
5
8
100
AcDbSymbolTable
0
ENDTAB
0
TABLE
2
LTYPE
5
5
100
AcDbSymbolTable
0
LTYPE
5
14
100
AcDbSymbolTableRecord
100
AcDbLinetypeTableRecord
2
BYBLOCK
70
0
0
LTYPE
5
15
100
AcDbSymbolTableRecord
100
AcDbLinetypeTableRecord
2
BYLAYER
70
0
0
ENDTAB
0
TABLE
2
LAYER
5
2
100
AcDbSymbolTable
70
2
0
LAYER
5
50
100
AcDbSymbolTableRecord
100
AcDbLayerTableRecord
2
0
70
0
6
CONTINUOUS
0
ENDTAB
0
TABLE
2
STYLE
5
3
100
AcDbSymbolTable
70
1
0
STYLE
5
11
100
AcDbSymbolTableRecord
100
AcDbTextStyleTableRecord
2
STANDARD
70
0
0
ENDTAB
0
TABLE
2
VIEW
5
6
100
AcDbSymbolTable
70
0
0
ENDTAB
0
TABLE
2
UCS
5
7
100
AcDbSymbolTable
70
0
0
ENDTAB
0
TABLE
2
APPID
5
9
100
AcDbSymbolTable
70
2
0
APPID
5
12
100
AcDbSymbolTableRecord
100
AcDbRegAppTableRecord
2
ACAD
70
0
0
ENDTAB
0
TABLE
2
DIMSTYLE
5
A
100
AcDbSymbolTable
70
1
0
ENDTAB
0
TABLE
2
BLOCK_RECORD
5
1
100
AcDbSymbolTable
70
1
0
BLOCK_RECORD
5
1F
100
AcDbSymbolTableRecord
100
AcDbBlockTableRecord
2
*MODEL_SPACE
0
BLOCK_RECORD
5
1B
100
AcDbSymbolTableRecord
100
AcDbBlockTableRecord
2
*PAPER_SPACE
0
ENDTAB
0
ENDSEC
0
SECTION
2
BLOCKS
0
BLOCK
5
20
100
AcDbEntity
100
AcDbBlockBegin
2
*MODEL_SPACE
0
ENDBLK
5
21
100
AcDbEntity
100
AcDbBlockEnd
0
BLOCK
5
1C
100
AcDbEntity
100
AcDbBlockBegin
2
*PAPER_SPACE
0
ENDBLK
5
1D
100
AcDbEntity
100
AcDbBlockEnd
0
ENDSEC
0
SECTION
2
ENTITIES
0
LINE
5
100
100
AcDbEntity
8
0
100
AcDbLine
10
-13.098834203652208
20
0.84476333272110793
30
6.7063991946718335e-17
11
-13.1169717508663
21
0.27362260538263744
31
-2.9158346627885064e-18
0
LINE
5
101
100
AcDbEntity
8
0
100
AcDbLine
10
-13.1169717508663
20
0.27362260538263744
30
-2.9158346627885064e-18
11
-13.021781648260287
21
0.27059968143817215
31
-1.4579136816623895e-17
0
LINE
5
102
100
AcDbEntity
8
0
100
AcDbLine
10
-13.021781648260287
20
0.27059968143817215
30
-1.4579136816623901e-17
11
-12.92508004644791
21
0.31517180761427954
31
-2.0410792455706435e-17
0
LINE
5
103
100
AcDbEntity
8
0
100
AcDbLine
10
-12.92508004644791
20
0.31517180761427954
30
-2.0410792455706441e-17
11
-12.875973531990237
21
0.3612554341791856
31
-2.0410787893541605e-17
0
LINE
5
104
100
AcDbEntity
8
0
100
AcDbLine
10
-12.875973531990237
20
0.36125543417918549
30
-2.0410787893541605e-17
11
-12.825355519508632
21
0.45493407363053162
31
-1.4579141378788749e-17
0
LINE
5
105
100
AcDbEntity
8
0
100
AcDbLine
10
-12.825355519508634
20
0.45493407363053173
30
-1.4579141378788746e-17
11
-12.820821132409502
21
0.59771926477368242
31
2.9158164141291747e-18
0
LINE
5
106
100
AcDbEntity
8
0
100
AcDbLine
10
-12.820821132409502
20
0.59771926477368242
30
2.9158164141291786e-18
11
-12.865393296706568
21
0.69442083984289371
31
2.0410775347588312e-17
0
LINE
5
107
100
AcDbEntity
8
0
100
AcDbLine
10
-12.865393296706568
20
0.69442083984289371
30
2.0410775347588306e-17
11
-12.9575604747769
21
0.79263388501043752
31
4.3737381936341503e-17
0
LINE
5
108
100
AcDbEntity
8
0
100
AcDbLine
10
-12.957560474776898
20
0.79263388501043741
30
4.3737381936341503e-17
11
-13.098834203652208
21
0.84476333272110793
31
6.7063991946718335e-17
0
LINE
5
109
100
AcDbEntity
8
0
100
AcDbLine
10
-13.098834203652208
20
0.84476333272110793
30
6.7063991946718335e-17
11
-13.194024306258221
21
0.84778625666557317
31
7.8727294100553719e-17
0
LINE
5
110
100
AcDbEntity
8
0
100
AcDbLine
10
-13.194024306258221
20
0.84778625666557339
30
7.8727294100553707e-17
11
-13.338320996903345
21
0.80472558433559871
31
9.0390604238177564e-17
0
LINE
5
111
100
AcDbEntity
8
0
100
AcDbLine
10
-13.338320996903343
20
0.80472558433559871
30
9.0390604238177564e-17
11
-13.436534024045038
21
0.7125583870569856
31
9.0390601957095143e-17
0
LINE
5
112
100
AcDbEntity
8
0
100
AcDbLine
10
-13.436534024045038
20
0.7125583870569856
30
9.0390601957095167e-17
11
-13.487151999588116
21
0.61887973711467292
31
8.4558949739636265e-17
0
LINE
5
113
100
AcDbEntity
8
0
100
AcDbLine
10
-13.487151999588118
20
0.61887973711467281
30
8.455894973963624e-17
11
-13.491686386687249
21
0.47609454597152212
31
6.7063991946718311e-17
0
LINE
5
114
100
AcDbEntity
8
0
100
AcDbLine
10
-13.491686386687249
20
0.47609454597152212
30
6.7063991946718323e-17
11
-13.447114259328711
21
0.37939298139327737
31
4.9569038715965241e-17
0
LINE
5
115
100
AcDbEntity
8
0
100
AcDbLine
10
-13.447114259328707
20
0.37939298139327732
30
4.9569038715965247e-17
11
-13.354947081849593
21
0.28117991760866734
31
2.6242429846129632e-17
0
LINE
5
116
100
AcDbEntity
8
0
100
AcDbLine
10
-12.495090759446947
20
1.1626390460686034
30
-3.2074090047376995e-17
11
-12.546258094183667
21
1.1188548983142728
31
-3.2074091187918199e-17
0
LINE
5
117
100
AcDbEntity
8
0
100
AcDbLine
10
-12.546258094183667
20
1.1188548983142728
30
-3.2074091187918199e-17
11
-12.502473956436528
21
1.0676875550143508
31
-4.37373944822948e-17
0
LINE
5
118
100
AcDbEntity
8
0
100
AcDbLine
10
-12.502473956436528
20
1.0676875550143505
30
-4.37373944822948e-17
11
-12.451306621699809
21
1.1114717027686811
31
-4.3737393341753595e-17
0
LINE
5
119
100
AcDbEntity
8
0
100
AcDbLine
10
-12.451306621699809
20
1.1114717027686811
30
-4.3737393341753595e-17
11
-12.495090759446947
21
1.1626390460686034
31
-3.2074090047376995e-17
0
LINE
5
120
100
AcDbEntity
8
0
100
AcDbLine
10
-12.78363677539331
20
1.1373128871782519
30
-2.9158358033297276e-18
11
-13.448297231343476
21
1.1889952675493032
31
7.872729752217735e-17
0
LINE
5
121
100
AcDbEntity
8
0
100
AcDbLine
10
-13.351025805036056
20
2.040573986306728
30
1.108013841479307e-16
11
-12.752876164290281
21
1.4397095265270712
31
-3.4989924710165518e-17
0
LINE
5
122
100
AcDbEntity
8
0
100
AcDbLine
10
-13.414612621953117
20
1.5206382034255561
30
4.6653208615341547e-17
11
-12.689289347373219
21
1.9596453094082431
31
2.915825082242363e-17
0
LINE
5
123
100
AcDbEntity
8
0
100
AcDbLine
10
-12.344146660419071
20
2.2585539321266053
30
-3.2074090047376995e-17
11
-12.398971211606096
21
2.2194461793686964
31
-3.2074091187918199e-17
0
LINE
5
124
100
AcDbEntity
8
0
100
AcDbLine
10
-12.398971211606096
20
2.2194461793686964
30
-3.2074091187918199e-17
11
-12.359863469570648
21
2.1646216205330662
31
-4.37373944822948e-17
0
LINE
5
125
100
AcDbEntity
8
0
100
AcDbLine
10
-12.359863469570648
20
2.1646216205330666
30
-4.37373944822948e-17
11
-12.305038918383623
21
2.2037293732909755
31
-4.3737393341753595e-17
0
LINE
5
126
100
AcDbEntity
8
0
100
AcDbLine
10
-12.305038918383623
20
2.2037293732909751
30
-4.3737393341753595e-17
11
-12.344146660419071
21
2.2585539321266053
31
-3.2074090047376995e-17
0
LINE
5
127
100
AcDbEntity
8
0
100
AcDbLine
10
-12.633801944662277
20
2.2587381945629987
30
-2.9158358033297276e-18
11
-13.291328144188114
21
2.3687558616979061
31
7.872729752217735e-17
0
LINE
5
128
100
AcDbEntity
8
0
100
AcDbLine
10
-13.06480572407845
20
3.4402366043184971
30
1.2538051640238977e-16
11
-12.088624210162607
21
3.2232807777018495
31
2.9158255384588367e-18
0
LINE
5
129
100
AcDbEntity
8
0
100
AcDbLine
10
-12.088624210162607
20
3.2232807777018491
30
2.9158255384588498e-18
11
-13.209442952599193
21
2.7894488798871446
31
4.373738307688272e-17
0
LINE
5
130
100
AcDbEntity
8
0
100
AcDbLine
10
-13.209442952599193
20
2.7894488798871455
30
4.3737383076882701e-17
11
-12.23326143868335
21
2.5724930532704975
31
-7.8727307787048232e-17
0
LINE
5
131
100
AcDbEntity
8
0
100
AcDbLine
10
-12.289676168683677
20
4.4954780985120433
30
8.4558949739636253e-17
11
-12.545721812322981
21
3.677471574216236
31
-2.0410787893541611e-17
0
LINE
5
132
100
AcDbEntity
8
0
100
AcDbLine
10
-11.824866577598105
20
4.9912814426314007
30
5.831641952588023e-18
11
-11.833474744817455
21
5.0974123613502869
31
2.3326600886047158e-17
0
LINE
5
133
100
AcDbEntity
8
0
100
AcDbLine
10
-11.833474744817455
20
5.0974123613502869
30
2.3326600886047149e-17
11
-11.886256859696026
21
5.221326199574575
31
4.6653207474800343e-17
0
LINE
5
134
100
AcDbEntity
8
0
100
AcDbLine
10
-11.886256859696026
20
5.221326199574575
30
4.6653207474800349e-17
11
-12.000995923083032
21
5.3188489821539626
31
6.9979817485177181e-17
0
LINE
5
135
100
AcDbEntity
8
0
100
AcDbLine
10
-12.000995923083034
20
5.3188489821539626
30
6.9979817485177181e-17
11
-12.089343894472959
21
5.3544148317094287
31
8.1643119639012577e-17
0
LINE
5
136
100
AcDbEntity
8
0
100
AcDbLine
10
-12.089343894472957
20
5.3544148317094287
30
8.1643119639012553e-17
11
-12.239648848929114
21
5.3635896395317708
31
9.330642977663641e-17
0
LINE
5
137
100
AcDbEntity
8
0
100
AcDbLine
10
-12.239648848929114
20
5.3635896395317708
30
9.330642977663641e-17
11
-12.363562676830394
21
5.310807500418413
31
9.3306427495553989e-17
0
LINE
5
138
100
AcDbEntity
8
0
100
AcDbLine
10
-12.363562676830394
20
5.310807500418413
30
9.3306427495554001e-17
11
-12.443302515558766
21
5.2402424451667713
31
8.7474775278095099e-17
0
LINE
5
139
100
AcDbEntity
8
0
100
AcDbLine
10
-12.443302515558766
20
5.2402424451667704
30
8.7474775278095086e-17
11
-12.496651303803743
21
5.1077204535240872
31
6.9979817485177169e-17
0
LINE
5
140
100
AcDbEntity
8
0
100
AcDbLine
10
-12.496651303803743
20
5.1077204535240872
30
6.9979817485177169e-17
11
-12.488043167664246
21
5.0015895573564286
31
5.2484864254424081e-17
0
LINE
5
141
100
AcDbEntity
8
0
100
AcDbLine
10
-12.488043167664246
20
5.0015895573564286
30
5.2484864254424093e-17
11
-12.435261059741565
21
4.8776757018532422
31
2.9158255384588472e-17
0
LINE
5
142
100
AcDbEntity
8
0
100
AcDbLine
10
-12.435261059741565
20
4.8776757018532422
30
2.9158255384588472e-17
11
-12.320521958318817
21
4.7801529140015253
31
5.8316419525880191e-18
0
LINE
5
143
100
AcDbEntity
8
0
100
AcDbLine
10
-12.320521958318817
20
4.7801529140015253
30
5.8316419525880114e-18
11
-12.232173986928892
21
4.7445870644460602
31
-5.8316602012473777e-18
0
LINE
5
144
100
AcDbEntity
8
0
100
AcDbLine
10
-12.232173986928892
20
4.7445870644460602
30
-5.8316602012473662e-18
11
-12.081869070508475
21
4.7354122618960464
31
-1.7494966917247589e-17
0
LINE
5
145
100
AcDbEntity
8
0
100
AcDbLine
10
-12.081869070508475
20
4.7354122618960464
30
-1.7494966917247589e-17
11
-11.957955235651305
21
4.7881944182883016
31
-1.7494962355082753e-17
0
LINE
5
146
100
AcDbEntity
8
0
100
AcDbLine
10
-11.957955235651305
20
4.7881944182883016
30
-1.7494962355082759e-17
11
-11.878215365843081
21
4.8587594509887166
31
-1.1663315840329906e-17
0
LINE
5
147
100
AcDbEntity
8
0
100
AcDbLine
10
-11.878215365843083
20
4.8587594509887175
30
-1.1663315840329901e-17
11
-11.824866577598108
21
4.9912814426314007
31
5.8316419525880191e-18
0
LINE
5
148
100
AcDbEntity
8
0
100
AcDbLine
10
-12.189688785759095
20
5.8049779065336482
30
8.455894973963624e-17
11
-11.280862720699943
21
5.3878024491023213
31
-3.7905741124294705e-17
0
LINE
5
149
100
AcDbEntity
8
0
100
AcDbLine
10
-11.296637667211723
20
6.0931385535934348
30
5.831641952588023e-18
11
-11.295114389971605
21
6.1996071033038564
31
2.3326600886047158e-17
0
LINE
5
150
100
AcDbEntity
8
0
100
AcDbLine
10
-11.295114389971603
20
6.1996071033038564
30
2.3326600886047149e-17
11
-11.335873823884906
21
6.3279786714238924
31
4.6653207474800343e-17
0
LINE
5
151
100
AcDbEntity
8
0
100
AcDbLine
10
-11.335873823884908
20
6.3279786714238924
30
4.6653207474800349e-17
11
-11.440819070950667
21
6.4359705271689469
31
6.9979817485177181e-17
0
LINE
5
152
100
AcDbEntity
8
0
100
AcDbLine
10
-11.440819070950667
20
6.435970527168946
30
6.9979817485177181e-17
11
-11.525384567981515
21
6.4797765817190021
31
8.1643119639012577e-17
0
LINE
5
153
100
AcDbEntity
8
0
100
AcDbLine
10
-11.525384567981519
20
6.4797765817190029
30
8.1643119639012553e-17
11
-11.674135911243084
21
6.5032029410290573
31
9.330642977663641e-17
0
LINE
5
154
100
AcDbEntity
8
0
100
AcDbLine
10
-11.674135911243084
20
6.5032029410290573
30
9.330642977663641e-17
11
-11.802507471391479
21
6.4624434820091352
31
9.3306427495553989e-17
0
LINE
5
155
100
AcDbEntity
8
0
100
AcDbLine
10
-11.802507471391479
20
6.4624434820091352
30
9.3306427495554001e-17
11
-11.888596278740707
21
6.3997810039837493
31
8.7474775278095099e-17
0
LINE
5
156
100
AcDbEntity
8
0
100
AcDbLine
10
-11.888596278740707
20
6.3997810039837493
30
8.7474775278095086e-17
11
-11.954305377700772
21
6.2729327253592153
31
6.9979817485177169e-17
0
LINE
5
157
100
AcDbEntity
8
0
100
AcDbLine
10
-11.95430537770077
20
6.2729327253592153
30
6.9979817485177169e-17
11
-11.955828683735401
21
6.1664642010533379
31
5.2484864254424081e-17
0
LINE
5
158
100
AcDbEntity
8
0
100
AcDbLine
10
-11.955828683735401
20
6.166464201053337
30
5.2484864254424093e-17
11
-11.915069258389588
21
6.0380926163941702
31
2.9158255384588472e-17
0
LINE
5
159
100
AcDbEntity
8
0
100
AcDbLine
10
-11.915069258389588
20
6.0380926163941719
30
2.9158255384588472e-17
11
-11.810123973961824
21
5.9301007517837032
31
5.8316419525880191e-18
0
LINE
5
160
100
AcDbEntity
8
0
100
AcDbLine
10
-11.810123973961824
20
5.9301007517837032
30
5.8316419525880114e-18
11
-11.725558476930974
21
5.8862946972336472
31
-5.8316602012473777e-18
0
LINE
5
161
100
AcDbEntity
8
0
100
AcDbLine
10
-11.725558476930974
20
5.8862946972336463
30
-5.8316602012473662e-18
11
-11.576807171031414
21
5.8628683467890061
31
-1.7494966917247589e-17
0
LINE
5
162
100
AcDbEntity
8
0
100
AcDbLine
10
-11.576807171031412
20
5.8628683467890061
30
-1.7494966917247589e-17
11
-11.448435602315525
21
5.9036278223480583
31
-1.7494962355082753e-17
0
LINE
5
163
100
AcDbEntity
8
0
100
AcDbLine
10
-11.448435602315525
20
5.9036278223480601
30
-1.7494962355082759e-17
11
-11.362346766171784
21
5.9662902749689017
31
-1.1663315840329906e-17
0
LINE
5
164
100
AcDbEntity
8
0
100
AcDbLine
10
-11.362346766171784
20
5.9662902749689009
30
-1.1663315840329901e-17
11
-11.296637667211719
21
6.0931385535934348
31
5.8316419525880191e-18
0
LINE
5
165
100
AcDbEntity
8
0
100
AcDbLine
10
-10.898878309901148
20
6.410348434198486
30
-6.7064010195377678e-17
11
-10.768008939626451
21
6.4421886984299723
31
-6.7064005633212836e-17
0
LINE
5
166
100
AcDbEntity
8
0
100
AcDbLine
10
-10.768008939626451
20
6.4421886984299732
30
-6.7064005633212836e-17
11
-10.653059685556311
21
6.5394636381148619
31
-5.540069891721261e-17
0
LINE
5
167
100
AcDbEntity
8
0
100
AcDbLine
10
-10.653059685556315
20
6.5394636381148619
30
-5.540069891721261e-17
11
-10.554030547690731
21
6.7021732532531519
31
-3.2074090047376995e-17
0
LINE
5
168
100
AcDbEntity
8
0
100
AcDbLine
10
-10.554030547690729
20
6.7021732532531519
30
-3.2074090047376995e-17
11
-10.520436094962493
21
6.8489627362756984
31
-8.7474834586237989e-18
0
LINE
5
169
100
AcDbEntity
8
0
100
AcDbLine
10
-10.520436094962493
20
6.8489627362756975
30
-8.7474834586237989e-18
11
-10.552276317687658
21
6.9798321030936883
31
1.45791231301294e-17
0
LINE
5
170
100
AcDbEntity
8
0
100
AcDbLine
10
-10.55227631768766
20
6.9798321030936883
30
1.45791231301294e-17
11
-10.633631109345618
21
7.029346662342534
31
2.6242425283964787e-17
0
LINE
5
171
100
AcDbEntity
8
0
100
AcDbLine
10
-10.633631109345618
20
7.029346662342534
30
2.6242425283964784e-17
11
-10.739743185469973
21
7.0381838178068072
31
3.2074075220341265e-17
0
LINE
5
172
100
AcDbEntity
8
0
100
AcDbLine
10
-10.739743185469973
20
7.0381838178068072
30
3.2074075220341278e-17
11
-10.805177897587722
21
7.0222637130145493
31
3.2074078641964903e-17
0
LINE
5
173
100
AcDbEntity
8
0
100
AcDbLine
10
-10.805177897587722
20
7.0222637130145502
30
3.2074078641964891e-17
11
-10.89536986234949
21
6.9656661850698285
31
2.6242425283964778e-17
0
LINE
5
174
100
AcDbEntity
8
0
100
AcDbLine
10
-10.89536986234949
20
6.9656661850698276
30
2.6242425283964784e-17
11
-11.125268382944252
21
6.7711163568903174
31
2.9158209762940096e-18
0
LINE
5
175
100
AcDbEntity
8
0
100
AcDbLine
10
-11.125268382944252
20
6.7711163568903174
30
2.9158209762940134e-18
11
-11.21546035738997
21
6.7145188130344078
31
-2.9158346627885198e-18
0
LINE
5
176
100
AcDbEntity
8
0
100
AcDbLine
10
-11.21546035738997
20
6.7145188130344096
30
-2.9158346627885218e-18
11
-11.280895032843372
21
6.698598696829853
31
-2.9158346627885218e-18
0
LINE
5
177
100
AcDbEntity
8
0
100
AcDbLine
10
-11.28089503284337
20
6.698598696829853
30
-2.9158346627885218e-18
11
-11.387007123493643
21
6.7074358284273448
31
2.915811851964333e-18
0
LINE
5
178
100
AcDbEntity
8
0
100
AcDbLine
10
-11.387007123493644
20
6.7074358284273448
30
2.9158118519643284e-18
11
-11.509039374625329
21
6.7817077060363982
31
2.0410774207047092e-17
0
LINE
5
179
100
AcDbEntity
8
0
100
AcDbLine
10
-11.509039374625329
20
6.7817077060363973
30
2.0410774207047086e-17
11
-11.540879587666549
21
6.9125770887655751
31
4.3737383076882701e-17
0
LINE
5
180
100
AcDbEntity
8
0
100
AcDbLine
10
-11.540879587666549
20
6.912577088765576
30
4.3737383076882714e-17
11
-11.507285125254366
21
7.0593665876993095
31
6.7063991946718323e-17
0
LINE
5
181
100
AcDbEntity
8
0
100
AcDbLine
10
-11.507285125254366
20
7.0593665876993095
30
6.7063991946718323e-17
11
-11.408255987388785
21
7.2220762028375995
31
9.0390600816553932e-17
0
LINE
5
182
100
AcDbEntity
8
0
100
AcDbLine
10
-11.408255987388785
20
7.2220762028375995
30
9.0390600816553932e-17
11
-11.293306743002592
21
7.3193511266113012
31
1.0205390525147174e-16
0
LINE
5
183
100
AcDbEntity
8
0
100
AcDbLine
10
-11.293306743002592
20
7.3193511266113003
30
1.0205390525147174e-16
11
-11.162437382411843
21
7.3511913749315996
31
1.0205390753255416e-16
0
LINE
5
184
100
AcDbEntity
8
0
100
AcDbLine
10
-3.7339432179837919
20
12.992993199357807
30
1.4870712527222538e-16
11
-3.5162118130976867
21
12.362883982260469
31
6.7063991946718311e-17
0
LINE
5
185
100
AcDbEntity
8
0
100
AcDbLine
10
-3.5784207963508781
20
12.542915217325499
30
9.0390605378718799e-17
11
-3.6667874648855343
21
12.361235080316892
31
5.5400690933424162e-17
0
LINE
5
186
100
AcDbEntity
8
0
100
AcDbLine
10
-3.6667874648855343
20
12.361235080316892
30
5.540069093342415e-17
11
-3.7412508041138404
21
12.28512277144401
31
3.7905731999965016e-17
0
LINE
5
187
100
AcDbEntity
8
0
100
AcDbLine
10
-3.7412508041138404
20
12.28512277144401
30
3.7905731999965034e-17
11
-3.8762742128075689
21
12.238466040087461
31
2.0410774207047111e-17
0
LINE
5
188
100
AcDbEntity
8
0
100
AcDbLine
10
-3.8762742128075689
20
12.238466040087461
30
2.0410774207047104e-17
11
-3.9818420470266362
21
12.252369386998856
31
1.4579127692294248e-17
0
LINE
5
189
100
AcDbEntity
8
0
100
AcDbLine
10
-3.9818420470266362
20
12.252369386998856
30
1.4579127692294245e-17
11
-4.0735066047544883
21
12.371840543795942
31
2.6242429846129632e-17
0
LINE
5
190
100
AcDbEntity
8
0
100
AcDbLine
10
-4.0735066047544883
20
12.371840543795942
30
2.6242429846129638e-17
11
-4.2290290263874022
21
12.82191852582825
31
8.4558949739636265e-17
0
LINE
5
191
100
AcDbEntity
8
0
100
AcDbLine
10
-4.0735066047544883
20
12.371840543795942
30
2.6242429846129638e-17
11
-4.1618732820916673
21
12.190160403745665
31
-8.7474857397062029e-18
0
LINE
5
192
100
AcDbEntity
8
0
100
AcDbLine
10
-4.1618732820916682
20
12.190160403745665
30
-8.7474857397062106e-18
11
-4.2363366125174515
21
12.114048097914454
31
-2.6242443532624136e-17
0
LINE
5
193
100
AcDbEntity
8
0
100
AcDbLine
10
-4.2363366125174515
20
12.114048097914454
30
-2.6242443532624133e-17
11
-4.3713599860010897
21
12.067391378724592
31
-4.3737396763377214e-17
0
LINE
5
194
100
AcDbEntity
8
0
100
AcDbLine
10
-4.3713599860010897
20
12.067391378724592
30
-4.3737396763377202e-17
11
-4.4769278202201566
21
12.081294725635987
31
-4.9569043278130065e-17
0
LINE
5
195
100
AcDbEntity
8
0
100
AcDbLine
10
-4.4769278202201566
20
12.081294725635988
30
-4.9569043278130089e-17
11
-4.5685924131581004
21
12.200765870266387
31
-3.7905745686459541e-17
0
LINE
5
196
100
AcDbEntity
8
0
100
AcDbLine
10
-4.5685924131581004
20
12.200765870266387
30
-3.7905745686459516e-17
11
-4.7241148347910142
21
12.650843852298696
31
2.0410774207047104e-17
0
LINE
5
197
100
AcDbEntity
8
0
100
AcDbLine
10
-2.9209345988101814
20
12.498339933248214
30
5.831641952588023e-18
11
-2.8401797231431338
21
12.567741104037982
31
2.3326600886047158e-17
0
LINE
5
198
100
AcDbEntity
8
0
100
AcDbLine
10
-2.8401797231431338
20
12.567741104037982
30
2.3326600886047149e-17
11
-2.771034307174399
21
12.683324417734383
31
4.6653207474800343e-17
0
LINE
5
199
100
AcDbEntity
8
0
100
AcDbLine
10
-2.771034307174399
20
12.683324417734383
30
4.6653207474800349e-17
11
-2.7596805638977386
21
12.833480464241214
31
6.9979817485177181e-17
0
LINE
5
200
100
AcDbEntity
8
0
100
AcDbLine
10
-2.7596805638977386
20
12.833480464241216
30
6.9979817485177181e-17
11
-2.7828995195232227
21
12.925844817771022
31
8.1643119639012577e-17
0
LINE
5
201
100
AcDbEntity
8
0
100
AcDbLine
10
-2.7828995195232222
20
12.925844817771022
30
8.1643119639012553e-17
11
-2.8639101569230019
21
13.052781940240084
31
9.330642977663641e-17
0
LINE
5
202
100
AcDbEntity
8
0
100
AcDbLine
10
-2.8639101569230019
20
13.052781940240084
30
9.330642977663641e-17
11
-2.9794934841427039
21
13.121927333603294
31
9.3306427495553989e-17
0
LINE
5
203
100
AcDbEntity
8
0
100
AcDbLine
10
-2.9794934841427043
20
13.121927333603294
30
9.3306427495554001e-17
11
-3.0834673245174589
21
13.144890552472157
31
8.7474775278095099e-17
0
LINE
5
204
100
AcDbEntity
8
0
100
AcDbLine
10
-3.083467324517458
20
13.144890552472157
30
8.7474775278095086e-17
11
-3.2220138909409926
21
13.110062109951707
31
6.9979817485177169e-17
0
LINE
5
205
100
AcDbEntity
8
0
100
AcDbLine
10
-3.2220138909409926
20
13.110062109951707
30
6.9979817485177169e-17
11
-3.3027687666580565
21
13.04066097756132
31
5.2484864254424081e-17
0
LINE
5
206
100
AcDbEntity
8
0
100
AcDbLine
10
-3.3027687666580565
20
13.040660977561323
30
5.2484864254424093e-17
11
-3.3719142006912035
21
12.925077659323811
31
2.9158255384588472e-17
0
LINE
5
207
100
AcDbEntity
8
0
100
AcDbLine
10
-3.3719142006912035
20
12.92507765932381
30
2.9158255384588472e-17
11
-3.3832679258534357
21
12.774921578958709
31
5.8316419525880191e-18
0
LINE
5
208
100
AcDbEntity
8
0
100
AcDbLine
10
-3.3832679258534357
20
12.774921578958709
30
5.8316419525880114e-18
11
-3.3600489702279517
21
12.682557225428903
31
-5.8316602012473777e-18
0
LINE
5
209
100
AcDbEntity
8
0
100
AcDbLine
10
-3.3600489702279517
20
12.682557225428903
30
-5.8316602012473662e-18
11
-3.2790383509426007
21
12.55562013681811
31
-1.7494966917247589e-17
0
LINE
5
210
100
AcDbEntity
8
0
100
AcDbLine
10
-3.2790383509426007
20
12.55562013681811
30
-1.7494966917247589e-17
11
-3.163455005658486
21
12.486474747996009
31
-1.7494962355082753e-17
0
LINE
5
211
100
AcDbEntity
8
0
100
AcDbLine
10
-3.163455005658486
20
12.486474747996009
30
-1.7494962355082759e-17
11
-3.0594811652337164
21
12.463511490727765
31
-1.1663315840329906e-17
0
LINE
5
212
100
AcDbEntity
8
0
100
AcDbLine
10
-3.0594811652337155
20
12.463511490727765
30
-1.1663315840329901e-17
11
-2.9209345988101814
21
12.498339933248214
31
5.8316419525880191e-18
0
LINE
5
213
100
AcDbEntity
8
0
100
AcDbLine
10
-2.4767348055555853
20
12.738434364499797
30
-2.0410792455706435e-17
11
-2.3659063996856791
21
12.661899020019213
31
-2.0410787893541596e-17
0
LINE
5
214
100
AcDbEntity
8
0
100
AcDbLine
10
-2.3659063996856786
20
12.661899020019213
30
-2.0410787893541605e-17
11
-2.2636512782625449
21
12.63220456229082
31
-1.4579141378788749e-17
0
LINE
5
215
100
AcDbEntity
8
0
100
AcDbLine
10
-2.2636512782625449
20
12.63220456229082
30
-1.4579141378788746e-17
11
-2.1231284513084203
21
12.65792433252642
31
2.9158164141291747e-18
0
LINE
5
216
100
AcDbEntity
8
0
100
AcDbLine
10
-2.1231284513084208
20
12.65792433252642
30
2.9158164141291786e-18
11
-2.0380198431572443
21
12.721911809969749
31
2.0410775347588312e-17
0
LINE
5
217
100
AcDbEntity
8
0
100
AcDbLine
10
-2.0380198431572443
20
12.721911809969749
30
2.0410775347588306e-17
11
-1.9614844736476222
21
12.832740182548957
31
4.3737381936341503e-17
0
LINE
5
218
100
AcDbEntity
8
0
100
AcDbLine
10
-1.9614844736476222
20
12.832740182548957
30
4.3737381936341503e-17
11
-1.9403633046188609
21
12.981836265689369
31
6.7063991946718323e-17
0
LINE
5
219
100
AcDbEntity
8
0
100
AcDbLine
10
-1.9403633046188613
20
12.981836265689367
30
6.7063991946718335e-17
11
-1.9575098136379596
21
13.075518125896
31
7.8727294100553719e-17
0
LINE
5
220
100
AcDbEntity
8
0
100
AcDbLine
10
-1.9575098136379596
20
13.075518125896
30
7.8727294100553707e-17
11
-2.0300705298448705
21
13.207467733308011
31
9.0390604238177564e-17
0
LINE
5
221
100
AcDbEntity
8
0
100
AcDbLine
10
-2.03007052984487
20
13.207467733308015
30
9.0390604238177564e-17
11
-2.1408989173926889
21
13.284003081142073
31
9.0390601957095143e-17
0
LINE
5
222
100
AcDbEntity
8
0
100
AcDbLine
10
-2.1408989173926893
20
13.284003081142071
30
9.0390601957095167e-17
11
-2.2431540412699151
21
13.313697500549551
31
8.4558949739636265e-17
0
LINE
5
223
100
AcDbEntity
8
0
100
AcDbLine
10
-2.2431540412699151
20
13.313697500549551
30
8.455894973963624e-17
11
-2.3836768682240401
21
13.287977730313951
31
6.7063991946718311e-17
0
LINE
5
224
100
AcDbEntity
8
0
100
AcDbLine
10
-2.3836768682240401
20
13.287977730313953
30
6.7063991946718323e-17
11
-2.4687854739211237
21
13.223990291191539
31
4.9569038715965241e-17
0
LINE
5
225
100
AcDbEntity
8
0
100
AcDbLine
10
-2.4687854739211232
20
13.223990291191539
30
4.9569038715965247e-17
11
-2.5453208617528333
21
13.113161915258855
31
2.6242429846129632e-17
0
LINE
5
226
100
AcDbEntity
8
0
100
AcDbLine
10
-1.5707188233121128
20
13.313781034668317
30
7.2895646445259659e-17
11
-1.5297623986535331
21
13.367238672268744
31
8.4558949739636265e-17
0
LINE
5
227
100
AcDbEntity
8
0
100
AcDbLine
10
-1.5297623986535331
20
13.367238672268744
30
8.4558949739636253e-17
11
-1.5832200442641233
21
13.408195086472199
31
8.455894859909503e-17
0
LINE
5
228
100
AcDbEntity
8
0
100
AcDbLine
10
-1.5832200442641238
20
13.408195086472201
30
8.455894859909503e-17
11
-1.6241764689227034
21
13.354737448871774
31
7.2895645304718436e-17
0
LINE
5
229
100
AcDbEntity
8
0
100
AcDbLine
10
-1.2076523184058627
20
12.920420480962441
30
-1.7494966917247598e-17
11
-1.1522083912057997
21
12.829514806696876
31
-2.3326613432000451e-17
0
LINE
5
230
100
AcDbEntity
8
0
100
AcDbLine
10
-1.1522083912057999
20
12.829514806696876
30
-2.3326613432000457e-17
11
-1.0058588206087609
21
12.794052982261972
31
-1.1663315840329909e-17
0
LINE
5
231
100
AcDbEntity
8
0
100
AcDbLine
10
-1.0058588206087609
20
12.794052982261974
30
-1.1663315840329901e-17
11
-0.86350563656972001
21
12.806042247047513
31
5.8316419525880191e-18
0
LINE
5
232
100
AcDbEntity
8
0
100
AcDbLine
10
-0.86350563656972001
20
12.806042247047513
30
5.8316419525880191e-18
11
-0.72514888549052425
21
12.865482597145441
31
2.9158254244047267e-17
0
LINE
5
233
100
AcDbEntity
8
0
100
AcDbLine
10
-0.72514888549052414
20
12.865482597145441
30
2.9158254244047261e-17
11
-0.68569066834369763
21
12.964381116425125
31
4.665320861534156e-17
0
LINE
5
234
100
AcDbEntity
8
0
100
AcDbLine
10
-0.68569066834369763
20
12.964381116425125
30
4.6653208615341566e-17
11
-0.74113457082909606
21
13.055286830157002
31
5.2484863113882883e-17
0
LINE
5
235
100
AcDbEntity
8
0
100
AcDbLine
10
-0.74113457082909617
20
13.055286830157002
30
5.2484863113882877e-17
11
-0.84003310788790919
21
13.094745036460239
31
4.6653209755882764e-17
0
LINE
5
236
100
AcDbEntity
8
0
100
AcDbLine
10
-0.84003310788790919
20
13.094745036460239
30
4.6653209755882776e-17
11
-1.0812848197053937
21
13.122213978759545
31
2.3326599745505957e-17
0
LINE
5
237
100
AcDbEntity
8
0
100
AcDbLine
10
-1.0812848197053937
20
13.122213978759545
30
2.3326599745505938e-17
11
-1.1801833382034679
21
13.161672186626001
31
1.7494948668588243e-17
0
LINE
5
238
100
AcDbEntity
8
0
100
AcDbLine
10
-1.1801833382034677
20
13.161672186626001
30
1.7494948668588243e-17
11
-1.2356272654035307
21
13.252577860891568
31
2.3326595183341096e-17
0
LINE
5
239
100
AcDbEntity
8
0
100
AcDbLine
10
-1.2356272654035307
20
13.252577860891568
30
2.3326595183341102e-17
11
-1.2396236922094503
21
13.300028984107044
31
2.9158255384588472e-17
0
LINE
5
240
100
AcDbEntity
8
0
100
AcDbLine
10
-1.2396236922094503
20
13.300028984107044
30
2.9158255384588466e-17
11
-1.2001654472215155
21
13.398927505731562
31
4.6653213177506395e-17
0
LINE
5
241
100
AcDbEntity
8
0
100
AcDbLine
10
-1.2001654472215155
20
13.398927505731562
30
4.6653213177506395e-17
11
-1.0618087208569846
21
13.458367816363179
31
6.9979817485177181e-17
0
LINE
5
242
100
AcDbEntity
8
0
100
AcDbLine
10
-1.0618087208569846
20
13.458367816363179
30
6.9979817485177144e-17
11
-0.91945553681794356
21
13.470357081148718
31
8.7474775278095074e-17
0
LINE
5
243
100
AcDbEntity
8
0
100
AcDbLine
10
-0.91945553681794356
20
13.470357081148718
30
8.7474775278095086e-17
11
-0.77310594150624001
21
13.434895296180127
31
9.9138080853554101e-17
0
LINE
5
244
100
AcDbEntity
8
0
100
AcDbLine
10
-0.77310594150624001
20
13.434895296180127
30
9.9138080853554126e-17
11
-0.71766204214728546
21
13.343989619569728
31
9.3306430917177645e-17
0
LINE
5
245
100
AcDbEntity
8
0
100
AcDbLine
10
-0.43117640278061026
20
12.969571173971403
30
-1.7494966917247598e-17
11
-0.3812799958366202
21
12.875506200409919
31
-2.3326613432000451e-17
0
LINE
5
246
100
AcDbEntity
8
0
100
AcDbLine
10
-0.38127999583662009
20
12.875506200409919
30
-2.3326613432000457e-17
11
-0.23731865078090963
21
12.831337558412002
31
-1.1663315840329909e-17
0
LINE
5
247
100
AcDbEntity
8
0
100
AcDbLine
10
-0.23731865078090963
20
12.831337558412002
30
-1.1663315840329901e-17
11
-0.094502822368470477
21
12.834774218275824
31
5.8316419525880191e-18
0
LINE
5
248
100
AcDbEntity
8
0
100
AcDbLine
10
-0.09450282236847049
20
12.834774218275824
30
5.8316419525880191e-18
11
0.047167442848044909
21
12.885816178881162
31
2.9158254244047267e-17
0
LINE
5
249
100
AcDbEntity
8
0
100
AcDbLine
10
0.047167442848044909
20
12.885816178881162
30
2.9158254244047261e-17
11
0.092481609903585393
21
12.982172259541301
31
4.665320861534156e-17
0
LINE
5
250
100
AcDbEntity
8
0
100
AcDbLine
10
0.092481609903585393
20
12.982172259541301
30
4.6653208615341566e-17
11
0.04258522999500796
21
13.076237271017042
31
5.2484863113882883e-17
0
LINE
5
251
100
AcDbEntity
8
0
100
AcDbLine
10
0.042585229995007967
20
13.076237271017042
30
5.2484863113882877e-17
11
-0.053770869062145704
21
13.121551428313962
31
4.6653209755882764e-17
0
LINE
5
252
100
AcDbEntity
8
0
100
AcDbLine
10
-0.053770869062145718
20
13.121551428313962
30
4.6653209755882776e-17
11
-0.29294278722120803
21
13.163428925971106
31
2.3326599745505957e-17
0
LINE
5
253
100
AcDbEntity
8
0
100
AcDbLine
10
-0.29294278722120803
20
13.163428925971104
30
2.3326599745505938e-17
11
-0.38929886765730071
21
13.208743083716111
31
1.7494948668588243e-17
0
LINE
5
254
100
AcDbEntity
8
0
100
AcDbLine
10
-0.38929886765730071
20
13.208743083716115
30
1.7494948668588243e-17
11
-0.43919527460129082
21
13.3028080572776
31
2.3326595183341096e-17
0
LINE
5
255
100
AcDbEntity
8
0
100
AcDbLine
10
-0.43919527460129087
20
13.3028080572776
30
2.3326595183341102e-17
11
-0.44034082938286284
21
13.350413395485283
31
2.9158255384588472e-17
0
LINE
5
256
100
AcDbEntity
8
0
100
AcDbLine
10
-0.44034082938286284
20
13.350413395485281
30
2.9158255384588466e-17
11
-0.39502663439573094
21
13.446769476817552
31
4.6653213177506395e-17
0
LINE
5
257
100
AcDbEntity
8
0
100
AcDbLine
10
-0.39502663439573094
20
13.446769476817552
30
4.6653213177506395e-17
11
-0.25335639621462824
21
13.497811399508635
31
6.9979817485177181e-17
0
LINE
5
258
100
AcDbEntity
8
0
100
AcDbLine
10
-0.25335639621462835
20
13.497811399508636
30
6.9979817485177144e-17
11
-0.11054056780218918
21
13.501248059372459
31
8.7474775278095074e-17
0
LINE
5
259
100
AcDbEntity
8
0
100
AcDbLine
10
-0.11054056780218913
20
13.501248059372459
30
8.7474775278095086e-17
11
0.033420804288934097
21
13.457079455288799
31
9.9138080853554101e-17
0
LINE
5
260
100
AcDbEntity
8
0
100
AcDbLine
10
0.033420804288934083
20
13.457079455288795
30
9.9138080853554126e-17
11
0.083317183301332809
21
13.363014481055178
31
9.3306430917177645e-17
0
LINE
5
261
100
AcDbEntity
8
0
100
AcDbLine
10
0.92233811118011411
20
13.093600535824505
30
6.7063991946718335e-17
11
0.35131483953000187
21
13.115120858258491
31
-2.9158346627885064e-18
0
LINE
5
262
100
AcDbEntity
8
0
100
AcDbLine
10
0.35131483953000187
20
13.115120858258491
30
-2.9158346627885064e-18
11
0.34772811982582008
21
13.019950331596711
31
-1.4579136816623895e-17
0
LINE
5
263
100
AcDbEntity
8
0
100
AcDbLine
10
0.34772811982582019
20
13.019950331596711
30
-1.4579136816623901e-17
11
0.3917266620495638
21
12.922986407856364
31
-2.0410792455706435e-17
0
LINE
5
264
100
AcDbEntity
8
0
100
AcDbLine
10
0.39172666204956375
20
12.922986407856364
30
-2.0410792455706441e-17
11
0.43751860275483878
21
12.873607783270415
31
-2.0410787893541605e-17
0
LINE
5
265
100
AcDbEntity
8
0
100
AcDbLine
10
0.43751860275483884
20
12.873607783270417
30
-2.0410787893541605e-17
11
0.53089576816156381
21
12.822435763008871
31
-1.4579141378788749e-17
0
LINE
5
266
100
AcDbEntity
8
0
100
AcDbLine
10
0.53089576816156381
20
12.822435763008869
30
-1.4579141378788746e-17
11
0.67365159538071073
21
12.817055682049629
31
2.9158164141291747e-18
0
LINE
5
267
100
AcDbEntity
8
0
100
AcDbLine
10
0.67365159538071073
20
12.817055682049631
30
2.9158164141291786e-18
11
0.77061549260416651
21
12.861054262552074
31
2.0410775347588312e-17
0
LINE
5
268
100
AcDbEntity
8
0
100
AcDbLine
10
0.77061549260416651
20
12.861054262552074
30
2.0410775347588306e-17
11
0.86937275758336696
21
12.952638068808191
31
4.3737381936341503e-17
0
LINE
5
269
100
AcDbEntity
8
0
100
AcDbLine
10
0.86937275758336696
20
12.952638068808191
30
4.3737381936341503e-17
11
0.92233811118011411
21
13.093600535824505
31
6.7063991946718335e-17
0
LINE
5
270
100
AcDbEntity
8
0
100
AcDbLine
10
0.92233811118011411
20
13.093600535824505
30
6.7063991946718335e-17
11
0.92592483088429578
21
13.188771062486286
31
7.8727294100553719e-17
0
LINE
5
271
100
AcDbEntity
8
0
100
AcDbLine
10
0.92592483088429589
20
13.188771062486286
30
7.8727294100553707e-17
11
0.88371964060898933
21
13.33332028713474
31
9.0390604238177564e-17
0
LINE
5
272
100
AcDbEntity
8
0
100
AcDbLine
10
0.88371964060898933
20
13.333320287134743
30
9.0390604238177564e-17
11
0.79213581503815245
21
13.432077534202186
31
9.0390601957095143e-17
0
LINE
5
273
100
AcDbEntity
8
0
100
AcDbLine
10
0.79213581503815234
20
13.432077534202186
30
9.0390601957095167e-17
11
0.69875863892184342
21
13.483249517588
31
8.4558949739636265e-17
0
LINE
5
274
100
AcDbEntity
8
0
100
AcDbLine
10
0.69875863892184342
20
13.483249517588
30
8.455894973963624e-17
11
0.5560028117026965
21
13.48862959854724
31
6.7063991946718311e-17
0
LINE
5
275
100
AcDbEntity
8
0
100
AcDbLine
10
0.55600281170269639
20
13.488629598547238
30
6.7063991946718323e-17
11
0.4590389251888245
21
13.444631054920528
31
4.9569038715965241e-17
0
LINE
5
276
100
AcDbEntity
8
0
100
AcDbLine
10
0.45903892518882461
20
13.444631054920528
30
4.9569038715965247e-17
11
0.36028164159638654
21
13.353047249365895
31
2.6242429846129632e-17
0
LINE
5
277
100
AcDbEntity
8
0
100
AcDbLine
10
1.5530672475952247
20
13.41394003029238
30
9.9138079713012891e-17
11
1.4915925629922948
21
12.750113657437495
31
1.7494946387505816e-17
0
LINE
5
278
100
AcDbEntity
8
0
100
AcDbLine
10
1.5179388573750263
20
13.034610684973643
30
5.2484861973341679e-17
11
1.4573495420188185
21
12.896753219983095
31
2.9158251962964859e-17
0
LINE
5
279
100
AcDbEntity
8
0
100
AcDbLine
10
1.4573495420188185
20
12.896753219983095
30
2.9158251962964853e-17
11
1.353735109851667
21
12.810702999755552
31
5.831645374211652e-18
0
LINE
5
280
100
AcDbEntity
8
0
100
AcDbLine
10
1.353735109851667
20
12.81070299975555
30
5.8316453742116482e-18
11
1.2545117314416296
21
12.77206890046633
31
-1.1663313559247485e-17
0
LINE
5
281
100
AcDbEntity
8
0
100
AcDbLine
10
1.2545117314416296
20
12.77206890046633
30
-1.1663313559247479e-17
11
1.1122632176735572
21
12.785242047657695
31
-2.9158271352165399e-17
0
LINE
5
282
100
AcDbEntity
8
0
100
AcDbLine
10
2.3496979216070284
20
12.624500381638931
30
3.4989901899341334e-17
11
2.4979302512900969
21
13.613453112694518
31
1.5745460188760194e-16
0
LINE
5
283
100
AcDbEntity
8
0
100
AcDbLine
10
2.3708739694934784
20
12.765779348481352
30
5.2484859692259252e-17
11
2.2625706361625131
21
12.685710759484595
31
2.9158253103506057e-17
0
LINE
5
284
100
AcDbEntity
8
0
100
AcDbLine
10
2.2625706361625131
20
12.685710759484595
30
2.9158253103506051e-17
11
2.1613259780975862
21
12.652735110313504
31
1.1663293029505703e-17
0
LINE
5
285
100
AcDbEntity
8
0
100
AcDbLine
10
2.1613259780975862
20
12.652735110313504
30
1.1663293029505716e-17
11
2.0200470112551661
21
12.673911158199955
31
-5.8316647634122048e-18
0
LINE
5
286
100
AcDbEntity
8
0
100
AcDbLine
10
2.0200470112551661
20
12.673911158199955
30
-5.8316647634122048e-18
11
1.9329197442313277
21
12.735121533284577
31
-1.1663311278165058e-17
0
LINE
5
287
100
AcDbEntity
8
0
100
AcDbLine
10
1.9329197442313277
20
12.735121533284575
30
-1.166331127816507e-17
11
1.8528511156321743
21
12.843424853716947
31
-1.1663315840329909e-17
0
LINE
5
288
100
AcDbEntity
8
0
100
AcDbLine
10
1.8528511156321743
20
12.843424853716947
30
-1.1663315840329901e-17
11
1.8269341868516027
21
12.991762501347491
31
-9.1243296754355289e-24
0
LINE
5
289
100
AcDbEntity
8
0
100
AcDbLine
10
1.8269341868516027
20
12.991762501347491
30
-9.1243296619540193e-24
11
1.8410515484278469
21
13.085948454681535
31
1.1663293029505728e-17
0
LINE
5
290
100
AcDbEntity
8
0
100
AcDbLine
10
1.8410515484278469
20
13.085948454681533
30
1.1663293029505716e-17
11
1.9093205785034029
21
13.220168777577186
31
3.498990646150617e-17
0
LINE
5
291
100
AcDbEntity
8
0
100
AcDbLine
10
1.9093205785034031
20
13.220168777577186
30
3.4989906461506164e-17
11
2.0176239302550454
21
13.300237363812901
31
5.8316515331341785e-17
0
LINE
5
292
100
AcDbEntity
8
0
100
AcDbLine
10
2.0176239302550454
20
13.300237363812901
30
5.8316515331341785e-17
11
2.1188685643772116
21
13.33321297890368
31
7.5811468562094861e-17
0
LINE
5
293
100
AcDbEntity
8
0
100
AcDbLine
10
2.1188685643772116
20
13.33321297890368
30
7.5811468562094861e-17
11
2.2601475312196317
21
13.312036931017229
31
9.3306426355012778e-17
0
LINE
5
294
100
AcDbEntity
8
0
100
AcDbLine
10
2.2601475312196322
20
13.312036931017229
30
9.3306426355012791e-17
11
2.3472748221862307
21
13.25082659001292
31
9.9138079713012903e-17
0
LINE
5
295
100
AcDbEntity
8
0
100
AcDbLine
10
2.3472748221862307
20
13.25082659001292
30
9.9138079713012903e-17
11
2.4273434323647076
21
13.142523272341592
31
9.9138081994095337e-17
0
LINE
5
296
100
AcDbEntity
8
0
100
AcDbLine
10
2.5603253383177238
20
12.235559009280095
30
-7.5811482248589374e-17
11
2.7744542970252599
21
13.212364500591834
31
4.6653208615341572e-17
0
LINE
5
297
100
AcDbEntity
8
0
100
AcDbLine
10
2.6622915019136189
20
12.70070444841007
30
-1.7494966917247589e-17
11
2.7349273877268896
21
12.587282128761125
31
-1.7494962355082753e-17
0
LINE
5
298
100
AcDbEntity
8
0
100
AcDbLine
10
2.7349273877268891
20
12.587282128761125
30
-1.7494962355082759e-17
11
2.8177598447362957
21
12.52037432097438
31
-1.1663315840329906e-17
0
LINE
5
299
100
AcDbEntity
8
0
100
AcDbLine
10
2.8177598447362957
20
12.52037432097438
30
-1.1663315840329901e-17
11
2.9573035019474743
21
12.489784466311765
31
5.8316419525880191e-18
0
LINE
5
300
100
AcDbEntity
8
0
100
AcDbLine
10
2.9573035019474743
20
12.489784466311761
30
5.831641952588023e-18
11
3.0605292151317327
21
12.515905809856687
31
2.3326600886047158e-17
0
LINE
5
301
100
AcDbEntity
8
0
100
AcDbLine
10
3.0605292151317327
20
12.515905809856688
30
2.3326600886047149e-17
11
3.173951544998173
21
12.58854165529266
31
4.6653207474800343e-17
0
LINE
5
302
100
AcDbEntity
8
0
100
AcDbLine
10
3.173951544998173
20
12.58854165529266
30
4.6653207474800349e-17
11
3.2510559490321116
21
12.71788869494771
31
6.9979817485177181e-17
0
LINE
5
303
100
AcDbEntity
8
0
100
AcDbLine
10
3.2510559490321116
20
12.71788869494771
30
6.9979817485177181e-17
11
3.2714491801559058
21
12.810917775495938
31
8.1643119639012577e-17
0
LINE
5
304
100
AcDbEntity
8
0
100
AcDbLine
10
3.2714491801559058
20
12.810917775495938
30
8.1643119639012553e-17
11
3.2555244934241228
21
12.960658086652082
31
9.330642977663641e-17
0
LINE
5
305
100
AcDbEntity
8
0
100
AcDbLine
10
3.2555244934241232
20
12.960658086652082
30
9.330642977663641e-17
11
3.1828886258052713
21
13.074080402312568
31
9.3306427495553989e-17
0
LINE
5
306
100
AcDbEntity
8
0
100
AcDbLine
10
3.1828886258052713
20
13.074080402312568
30
9.3306427495554001e-17
11
3.1000561517217311
21
13.140988175704706
31
8.7474775278095099e-17
0
LINE
5
307
100
AcDbEntity
8
0
100
AcDbLine
10
3.1000561517217311
20
13.140988175704704
30
8.7474775278095086e-17
11
2.9605124945105525
21
13.17157803036732
31
6.9979817485177169e-17
0
LINE
5
308
100
AcDbEntity
8
0
100
AcDbLine
10
2.9605124945105525
20
13.171578030367321
30
6.9979817485177169e-17
11
2.8572867984004278
21
13.145456721217002
31
5.2484864254424081e-17
0
LINE
5
309
100
AcDbEntity
8
0
100
AcDbLine
10
2.8572867984004278
20
13.145456721217002
30
5.2484864254424093e-17
11
2.7438644503395695
21
13.072820879769493
31
2.9158255384588472e-17
0
LINE
5
310
100
AcDbEntity
8
0
100
AcDbLine
10
3.9281005007399972
20
12.919590994606583
30
9.9138079713012891e-17
11
3.7488424026890677
21
12.277476421942277
31
1.7494946387505816e-17
0
LINE
5
311
100
AcDbEntity
8
0
100
AcDbLine
10
3.8256673047157017
20
12.552668391907247
30
5.2484861973341679e-17
11
3.7413895283649685
21
12.427876556427798
31
2.9158251962964859e-17
0
LINE
5
312
100
AcDbEntity
8
0
100
AcDbLine
10
3.7413895283649676
20
12.427876556427799
30
2.9158251962964853e-17
11
3.624050583692473
21
12.36175422269951
31
5.831645374211652e-18
0
LINE
5
313
100
AcDbEntity
8
0
100
AcDbLine
10
3.624050583692473
20
12.36175422269951
30
5.8316453742116482e-18
11
3.519515784972219
21
12.341497166953255
31
-1.1663313559247485e-17
0
LINE
5
314
100
AcDbEntity
8
0
100
AcDbLine
10
3.5195157849722198
20
12.341497166953255
30
-1.1663313559247479e-17
11
3.3819197999897344
21
12.379909617966572
31
-2.9158271352165399e-17
0
LINE
5
315
100
AcDbEntity
8
0
100
AcDbLine
10
4.3452745356283735
20
12.077207840704446
30
5.831641952588023e-18
11
4.450785546137749
21
12.09153610341426
31
2.3326600886047158e-17
0
LINE
5
316
100
AcDbEntity
8
0
100
AcDbLine
10
4.450785546137749
20
12.09153610341426
30
2.3326600886047149e-17
11
4.5716674591880695
21
12.150934369818462
31
4.6653207474800343e-17
0
LINE
5
317
100
AcDbEntity
8
0
100
AcDbLine
10
4.5716674591880695
20
12.150934369818462
30
4.6653207474800349e-17
11
4.662850239240214
21
12.270773622198126
31
6.9979817485177181e-17
0
LINE
5
318
100
AcDbEntity
8
0
100
AcDbLine
10
4.662850239240214
20
12.270773622198124
30
6.9979817485177181e-17
11
4.6935920507423683
21
12.360913706116893
31
8.1643119639012577e-17
0
LINE
5
319
100
AcDbEntity
8
0
100
AcDbLine
10
4.6935920507423683
20
12.360913706116893
30
8.1643119639012553e-17
11
4.6946347412711749
21
12.511494811269914
31
9.330642977663641e-17
0
LINE
5
320
100
AcDbEntity
8
0
100
AcDbLine
10
4.6946347412711749
20
12.511494811269916
30
9.330642977663641e-17
11
4.6352364512251638
21
12.632376712703257
31
9.3306427495553989e-17
0
LINE
5
321
100
AcDbEntity
8
0
100
AcDbLine
10
4.6352364512251647
20
12.632376712703257
30
9.3306427495554001e-17
11
4.5604672642427726
21
12.708188569171003
31
8.7474775278095099e-17
0
LINE
5
322
100
AcDbEntity
8
0
100
AcDbLine
10
4.5604672642427726
20
12.708188569171003
30
8.7474775278095086e-17
11
4.4252571031058263
21
12.754301298449064
31
6.9979817485177169e-17
0
LINE
5
323
100
AcDbEntity
8
0
100
AcDbLine
10
4.4252571031058254
20
12.754301298449064
30
6.9979817485177169e-17
11
4.3197461134359774
21
12.739973067991833
31
5.2484864254424081e-17
0
LINE
5
324
100
AcDbEntity
8
0
100
AcDbLine
10
4.3197461134359774
20
12.739973067991833
30
5.2484864254424093e-17
11
4.1988641827562612
21
12.680574807600047
31
2.9158255384588472e-17
0
LINE
5
325
100
AcDbEntity
8
0
100
AcDbLine
10
4.1988641827562612
20
12.680574807600047
30
2.9158255384588472e-17
11
4.1076813994939858
21
12.560735516955388
31
5.8316419525880191e-18
0
LINE
5
326
100
AcDbEntity
8
0
100
AcDbLine
10
4.1076813994939858
20
12.560735516955388
30
5.8316419525880114e-18
11
4.0769395879918315
21
12.470595433036618
31
-5.8316602012473777e-18
0
LINE
5
327
100
AcDbEntity
8
0
100
AcDbLine
10
4.0769395879918315
20
12.470595433036618
30
-5.8316602012473662e-18
11
4.0758969006731558
21
12.320014366148593
31
-1.7494966917247589e-17
0
LINE
5
328
100
AcDbEntity
8
0
100
AcDbLine
10
4.0758969006731558
20
12.320014366148593
30
-1.7494966917247589e-17
11
4.1352952083485617
21
12.199132458702838
31
-1.7494962355082753e-17
0
LINE
5
329
100
AcDbEntity
8
0
100
AcDbLine
10
4.1352952083485617
20
12.199132458702838
30
-1.7494962355082759e-17
11
4.2100643744914272
21
12.123320569982507
31
-1.1663315840329906e-17
0
LINE
5
330
100
AcDbEntity
8
0
100
AcDbLine
10
4.2100643744914272
20
12.123320569982507
30
-1.1663315840329901e-17
11
4.3452745356283735
21
12.077207840704446
31
5.8316419525880191e-18
0
LINE
5
331
100
AcDbEntity
8
0
100
AcDbLine
10
5.491437730726374
20
11.61089702783017
30
4.3737383076882714e-17
11
5.5762877813818719
21
12.299029462796948
31
1.0205390753255417e-16
0
LINE
5
332
100
AcDbEntity
8
0
100
AcDbLine
10
5.5762877813818719
20
12.299029462796948
30
1.0205390753255417e-16
11
5.1407036297486659
21
11.759592510043866
31
-2.9158346627885295e-18
0
LINE
5
333
100
AcDbEntity
8
0
100
AcDbLine
10
5.1407036297486659
20
11.759592510043866
30
-2.9158346627885218e-18
11
5.2255536804041647
21
12.447724945010645
31
5.5400689792882939e-17
0
LINE
5
334
100
AcDbEntity
8
0
100
AcDbLine
10
5.2255536804041647
20
12.447724945010648
30
5.5400689792882939e-17
11
4.7899695287709596
21
11.908287992257565
31
-4.956905240245976e-17
0
LINE
5
335
100
AcDbEntity
8
0
100
AcDbLine
10
6.0909349371611139
20
11.942547243041199
30
7.2895646445259659e-17
11
6.1546887942200161
21
11.964240408986853
31
8.4558949739636265e-17
0
LINE
5
336
100
AcDbEntity
8
0
100
AcDbLine
10
6.1546887942200161
20
11.964240408986853
30
8.4558949739636253e-17
11
6.1329956158055277
21
12.027994261803052
31
8.455894859909503e-17
0
LINE
5
337
100
AcDbEntity
8
0
100
AcDbLine
10
6.1329956158055277
20
12.027994261803052
30
8.455894859909503e-17
11
6.0692417587466263
21
12.006301095857399
31
7.2895645304718436e-17
0
LINE
5
338
100
AcDbEntity
8
0
100
AcDbLine
10
6.9686545475110258
20
11.571192780631778
30
1.1663303522484841e-16
11
6.4817266601107146
21
10.697750503611818
31
-5.8316556390825429e-18
0
LINE
5
339
100
AcDbEntity
8
0
100
AcDbLine
10
6.7367841232118808
20
11.155267883713869
30
5.8316515331341785e-17
11
6.5424455147102361
21
11.100051531633856
31
2.3326600886047161e-17
0
LINE
5
340
100
AcDbEntity
8
0
100
AcDbLine
10
6.5424455147102343
20
11.100051531633856
30
2.3326600886047149e-17
11
6.4360734832658961
21
11.104833098050369
31
5.8316419525880153e-18
0
LINE
5
341
100
AcDbEntity
8
0
100
AcDbLine
10
6.4360734832658961
20
11.104833098050369
30
5.831641952588023e-18
11
6.3112960011752204
21
11.174394232595903
31
-1.1663315840329897e-17
0
LINE
5
342
100
AcDbEntity
8
0
100
AcDbLine
10
6.3112960011752204
20
11.174394232595901
30
-1.1663315840329901e-17
11
6.2512980917484366
21
11.262360825922338
31
-1.7494962355082756e-17
0
LINE
5
343
100
AcDbEntity
8
0
100
AcDbLine
10
6.2512980917484366
20
11.262360825922338
30
-1.7494962355082759e-17
11
6.2792667105715729
21
11.410325364954508
31
-5.8316602012473739e-18
0
LINE
5
344
100
AcDbEntity
8
0
100
AcDbLine
10
6.2792667105715738
20
11.41032536495451
30
-5.8316602012473662e-18
11
6.5111371348707188
21
11.826250261872421
31
5.2484859692259252e-17
0
LINE
5
345
100
AcDbEntity
8
0
100
AcDbLine
10
6.8720675792047352
20
10.443225849526655
30
-3.7905739983753483e-17
11
7.3067089796409226
21
11.126172182498713
31
6.1232337448177e-17
0
LINE
5
346
100
AcDbEntity
8
0
100
AcDbLine
10
7.3067089796409226
20
11.126172182498713
30
6.1232337448177012e-17
11
7.3432371183270506
21
11.272259319224611
31
7.2895647585800869e-17
0
LINE
5
347
100
AcDbEntity
8
0
100
AcDbLine
10
7.3432371183270506
20
11.272259319224611
30
7.2895647585800857e-17
11
7.2884576214484076
21
11.363566916930194
31
6.7063994227800744e-17
0
LINE
5
348
100
AcDbEntity
8
0
100
AcDbLine
10
7.2884576214484076
20
11.363566916930194
30
6.7063994227800744e-17
11
7.2081109857207482
21
11.414701204628955
31
5.5400689792882939e-17
0
LINE
5
349
100
AcDbEntity
8
0
100
AcDbLine
10
7.1715575047393401
20
10.647737588026287
30
2.0410774207047095e-17
11
6.8903442718355254
21
10.826707599972309
31
-2.0410792455706441e-17
0
LINE
5
350
100
AcDbEntity
8
0
100
AcDbLine
10
7.8753197001922368
20
10.142900464293728
30
3.4989901899341334e-17
11
8.1539263251139289
21
10.52908146083626
31
9.3306421792847949e-17
0
LINE
5
351
100
AcDbEntity
8
0
100
AcDbLine
10
8.1539263251139289
20
10.52908146083626
30
9.3306421792847949e-17
11
8.1988902419395941
21
10.672796465676878
31
1.0496973193047181e-16
0
LINE
5
352
100
AcDbEntity
8
0
100
AcDbLine
10
8.1988902419395941
20
10.672796465676878
30
1.0496973193047181e-16
11
8.1495146977429815
21
10.767135886452767
31
9.9138078572471693e-17
0
LINE
5
353
100
AcDbEntity
8
0
100
AcDbLine
10
8.1495146977429815
20
10.767135886452767
30
9.9138078572471693e-17
11
8.0336603942485176
21
10.85071787719863
31
8.1643121920094986e-17
0
LINE
5
354
100
AcDbEntity
8
0
100
AcDbLine
10
8.0336603942485176
20
10.85071787719863
30
8.1643121920094986e-17
11
7.9285635337858453
21
10.867821110750558
31
6.4148166408259489e-17
0
LINE
5
355
100
AcDbEntity
8
0
100
AcDbLine
10
7.9285635337858462
20
10.867821110750558
30
6.4148166408259477e-17
11
7.729127204748055
21
10.83554876568668
31
2.9158246260258801e-17
0
LINE
5
356
100
AcDbEntity
8
0
100
AcDbLine
10
7.450520579826363
20
10.44936776914415
30
-2.915827363324782e-17
11
7.8405698808715707
21
10.990021200557328
31
5.2484859692259252e-17
0
LINE
5
357
100
AcDbEntity
8
0
100
AcDbLine
10
9.3550261729659567
20
9.7592873477937552
30
1.4870712527222538e-16
11
8.9197674767566788
21
9.2543175887795179
31
6.7063991946718311e-17
0
LINE
5
358
100
AcDbEntity
8
0
100
AcDbLine
10
9.044127125092448
20
9.3985946869699095
30
9.0390605378718799e-17
11
8.8426495985218452
21
9.383656595446153
31
5.5400690933424162e-17
0
LINE
5
359
100
AcDbEntity
8
0
100
AcDbLine
10
8.8426495985218452
20
9.383656595446153
30
5.540069093342415e-17
11
8.7394211463447551
21
9.4097671127162705
31
3.7905731999965016e-17
0
LINE
5
360
100
AcDbEntity
8
0
100
AcDbLine
10
8.7394211463447551
20
9.4097671127162705
30
3.7905731999965034e-17
11
8.6312133368106494
21
9.5030368368071123
31
2.0410774207047111e-17
0
LINE
5
361
100
AcDbEntity
8
0
100
AcDbLine
10
8.6312133368106494
20
9.5030368368071123
30
2.0410774207047104e-17
11
8.5901647401777605
21
9.6012859253093144
31
1.4579127692294248e-17
0
LINE
5
362
100
AcDbEntity
8
0
100
AcDbLine
10
8.5901647401777605
20
9.6012859253093144
30
1.4579127692294245e-17
11
8.6473651756123147
21
9.7405836590883474
31
2.6242429846129632e-17
0
LINE
5
363
100
AcDbEntity
8
0
100
AcDbLine
10
8.6473651756123147
20
9.7405836590883474
30
2.6242429846129638e-17
11
8.9582642234858234
21
10.101276319912191
31
8.4558949739636265e-17
0
LINE
5
364
100
AcDbEntity
8
0
100
AcDbLine
10
8.6473651756123147
20
9.7405836590883474
30
2.6242429846129638e-17
11
8.4458876419873672
21
9.7256455736450818
31
-8.7474857397062029e-18
0
LINE
5
365
100
AcDbEntity
8
0
100
AcDbLine
10
8.4458876419873672
20
9.7256455736450835
30
-8.7474857397062106e-18
11
8.3426591968646218
21
9.7517560848347085
31
-2.6242443532624136e-17
0
LINE
5
366
100
AcDbEntity
8
0
100
AcDbLine
10
8.3426591968646218
20
9.7517560848347085
30
-2.6242443532624133e-17
11
8.2344514155478965
21
9.8450257846035782
31
-4.3737396763377214e-17
0
LINE
5
367
100
AcDbEntity
8
0
100
AcDbLine
10
8.2344514155478965
20
9.8450257846035782
30
-4.3737396763377202e-17
11
8.1934028189150059
21
9.9432748731057803
31
-4.9569043278130065e-17
0
LINE
5
368
100
AcDbEntity
8
0
100
AcDbLine
10
8.1934028189150059
20
9.9432748731057803
30
-4.9569043278130089e-17
11
8.2506032261321813
21
10.082572631206785
31
-3.7905745686459541e-17
0
LINE
5
369
100
AcDbEntity
8
0
100
AcDbLine
10
8.2506032261321813
20
10.082572631206785
30
-3.7905745686459516e-17
11
8.5615022740056901
21
10.443265292030631
31
2.0410774207047104e-17
0
LINE
5
370
100
AcDbEntity
8
0
100
AcDbLine
10
9.6746257754526805
20
8.8710032514944821
30
6.7063991946718335e-17
11
9.2748903052046945
21
9.2793441077277059
31
-2.9158346627885064e-18
0
LINE
5
371
100
AcDbEntity
8
0
100
AcDbLine
10
9.2748903052046945
20
9.2793441077277059
30
-2.9158346627885064e-18
11
9.2068335091428857
21
9.2127215423829316
31
-1.4579136816623895e-17
0
LINE
5
372
100
AcDbEntity
8
0
100
AcDbLine
10
9.2068335091428839
20
9.2127215423829316
30
-1.4579136816623901e-17
11
9.1720879691326722
21
9.1120705529474719
31
-2.0410792455706435e-17
0
LINE
5
373
100
AcDbEntity
8
0
100
AcDbLine
10
9.1720879691326722
20
9.1120705529474719
30
-2.0410792455706441e-17
11
9.1713708798339368
21
9.0447308456233895
31
-2.0410787893541605e-17
0
LINE
5
374
100
AcDbEntity
8
0
100
AcDbLine
10
9.1713708798339368
20
9.0447308456233895
30
-2.0410787893541605e-17
11
9.2039650205270167
21
8.9433627408294107
31
-1.4579141378788749e-17
0
LINE
5
375
100
AcDbEntity
8
0
100
AcDbLine
10
9.2039650205270149
20
8.9433627408294125
30
-1.4579141378788746e-17
11
9.3038988946039574
21
8.8412775201159093
31
2.9158164141291747e-18
0
LINE
5
376
100
AcDbEntity
8
0
100
AcDbLine
10
9.3038988946039574
20
8.8412775201159093
30
2.9158164141291786e-18
11
9.4045498911153711
21
8.8065320261310713
31
2.0410775347588312e-17
0
LINE
5
377
100
AcDbEntity
8
0
100
AcDbLine
10
9.4045498911153711
20
8.8065320261310713
30
2.0410775347588306e-17
11
9.5392292655518443
21
8.8050977821036405
31
4.3737381936341503e-17
0
LINE
5
378
100
AcDbEntity
8
0
100
AcDbLine
10
9.5392292655518443
20
8.8050977821036405
30
4.3737381936341503e-17
11
9.6746257754526805
21
8.8710032514944821
31
6.7063991946718335e-17
0
LINE
5
379
100
AcDbEntity
8
0
100
AcDbLine
10
9.6746257754526805
20
8.8710032514944821
30
6.7063991946718335e-17
11
9.7426825715144876
21
8.9376258168392546
31
7.8727294100553719e-17
0
LINE
5
380
100
AcDbEntity
8
0
100
AcDbLine
10
9.7426825715144876
20
8.9376258168392546
30
7.8727294100553707e-17
11
9.8114565296614504
21
9.0715881216620815
31
9.0390604238177564e-17
0
LINE
5
381
100
AcDbEntity
8
0
100
AcDbLine
10
9.8114565296614504
20
9.0715881216620815
30
9.0390604238177564e-17
11
9.8128907473485931
21
9.2062674963790592
31
9.0390601957095143e-17
0
LINE
5
382
100
AcDbEntity
8
0
100
AcDbLine
10
9.8128907473485931
20
9.2062674963790574
30
9.0390601957095167e-17
11
9.7802965735197809
21
9.3076355817684515
31
8.4558949739636265e-17
0
LINE
5
383
100
AcDbEntity
8
0
100
AcDbLine
10
9.7802965735197809
20
9.3076355817684515
30
8.455894973963624e-17
11
9.6803626994428367
21
9.4097208024819547
31
6.7063991946718311e-17
0
LINE
5
384
100
AcDbEntity
8
0
100
AcDbLine
10
9.6803626994428367
20
9.4097208024819547
30
6.7063991946718323e-17
11
9.5797117360671606
21
9.4444663158713773
31
4.9569038715965241e-17
0
LINE
5
385
100
AcDbEntity
8
0
100
AcDbLine
10
9.5797117360671606
20
9.4444663158713755
30
4.9569038715965247e-17
11
9.4450323486007957
21
9.4459005732092027
31
2.6242429846129632e-17
0
LINE
5
386
100
AcDbEntity
8
0
100
AcDbLine
10
10.35281709720601
20
8.6697741126071008
30
9.9138079713012891e-17
11
9.8516464361940432
21
8.2301463624757805
31
1.7494946387505816e-17
0
LINE
5
387
100
AcDbEntity
8
0
100
AcDbLine
10
10.066433870343483
20
8.4185582624080908
30
5.2484861973341679e-17
11
9.9276381719938875
21
8.3601502157997505
31
2.9158251962964859e-17
0
LINE
5
388
100
AcDbEntity
8
0
100
AcDbLine
10
9.9276381719938875
20
8.3601502157997505
30
2.9158251962964853e-17
11
9.7932384167310467
21
8.3689420722486858
31
5.831645374211652e-18
0
LINE
5
389
100
AcDbEntity
8
0
100
AcDbLine
10
9.7932384167310467
20
8.3689420722486858
30
5.8316453742116482e-18
11
9.694636535961191
21
8.4091358722635867
31
-1.1663313559247485e-17
0
LINE
5
390
100
AcDbEntity
8
0
100
AcDbLine
10
9.6946365359611892
20
8.4091358722635867
30
-1.1663313559247479e-17
11
9.6004305859950332
21
8.5165295893383064
31
-2.9158271352165399e-17
0
LINE
5
391
100
AcDbEntity
8
0
100
AcDbLine
10
10.739351003266071
20
8.1860946146792948
30
9.9138079713012891e-17
11
10.218554924309979
21
7.7699023102229781
31
1.7494946387505816e-17
0
LINE
5
392
100
AcDbEntity
8
0
100
AcDbLine
10
10.441753252177374
20
7.9482704473489854
30
5.2484861973341679e-17
11
10.300426067327388
21
7.8962860976720686
31
2.9158251962964859e-17
0
LINE
5
393
100
AcDbEntity
8
0
100
AcDbLine
10
10.300426067327388
20
7.8962860976720686
30
2.9158251962964853e-17
11
10.166570602273508
21
7.911229505239942
31
5.831645374211652e-18
0
LINE
5
394
100
AcDbEntity
8
0
100
AcDbLine
10
10.166570602273508
20
7.911229505239942
30
5.8316453742116482e-18
11
10.069914825542675
21
7.9559008973779761
31
-1.1663313559247485e-17
0
LINE
5
395
100
AcDbEntity
8
0
100
AcDbLine
10
10.069914825542677
20
7.9559008973779761
30
-1.1663313559247479e-17
11
9.9807307569796713
21
8.0675000613116747
31
-2.9158271352165399e-17
0
LINE
5
396
100
AcDbEntity
8
0
100
AcDbLine
10
10.929622828218569
20
7.2688669967170663
30
6.7063991946718335e-17
11
10.597813635590752
21
7.734090986566402
31
-2.9158346627885064e-18
0
LINE
5
397
100
AcDbEntity
8
0
100
AcDbLine
10
10.597813635590752
20
7.734090986566402
30
-2.9158346627885064e-18
11
10.520276319113771
21
7.6787894652775126
31
-1.4579136816623895e-17
0
LINE
5
398
100
AcDbEntity
8
0
100
AcDbLine
10
10.520276319113771
20
7.6787894652775135
30
-1.4579136816623901e-17
11
10.470389732952086
21
7.5847192641186387
31
-2.0410792455706435e-17
0
LINE
5
399
100
AcDbEntity
8
0
100
AcDbLine
10
10.470389732952084
20
7.5847192641186387
30
-2.0410792455706441e-17
11
10.459271856989531
21
7.5182998149065554
31
-2.0410787893541605e-17
0
LINE
5
400
100
AcDbEntity
8
0
100
AcDbLine
10
10.459271856989531
20
7.5182998149065554
30
-2.0410787893541605e-17
11
10.475804689710781
21
7.413111716153634
31
-1.4579141378788749e-17
0
LINE
5
401
100
AcDbEntity
8
0
100
AcDbLine
10
10.475804689710781
20
7.413111716153634
30
-1.4579141378788746e-17
11
10.558756993275608
21
7.2968057111090134
31
2.9158164141291747e-18
0
LINE
5
402
100
AcDbEntity
8
0
100
AcDbLine
10
10.558756993275612
20
7.2968057111090125
30
2.9158164141291786e-18
11
10.652827208540012
21
7.2469191693256816
31
2.0410775347588312e-17
0
LINE
5
403
100
AcDbEntity
8
0
100
AcDbLine
10
10.652827208540012
20
7.2469191693256825
30
2.0410775347588306e-17
11
10.785666057121631
21
7.2246833589730164
31
4.3737381936341503e-17
0
LINE
5
404
100
AcDbEntity
8
0
100
AcDbLine
10
10.785666057121631
20
7.2246833589730155
30
4.3737381936341503e-17
11
10.929622828218569
21
7.2688669967170654
31
6.7063991946718335e-17
0
LINE
5
405
100
AcDbEntity
8
0
100
AcDbLine
10
10.929622828218569
20
7.2688669967170663
30
6.7063991946718335e-17
11
11.00716014469555
21
7.3241685180059557
31
7.8727294100553719e-17
0
LINE
5
406
100
AcDbEntity
8
0
100
AcDbLine
10
11.00716014469555
20
7.3241685180059548
30
7.8727294100553707e-17
11
11.095815414017004
21
7.4458895090230559
31
9.0390604238177564e-17
0
LINE
5
407
100
AcDbEntity
8
0
100
AcDbLine
10
11.095815414017004
20
7.4458895090230559
30
9.0390604238177564e-17
11
11.118051198389349
21
7.5787283619535017
31
9.0390601957095143e-17
0
LINE
5
408
100
AcDbEntity
8
0
100
AcDbLine
10
11.118051198389349
20
7.5787283619535017
30
9.0390601957095167e-17
11
11.101518329931077
21
7.6839164466572152
31
8.4558949739636265e-17
0
LINE
5
409
100
AcDbEntity
8
0
100
AcDbLine
10
11.101518329931077
20
7.6839164466572152
30
8.455894973963624e-17
11
11.018566026366249
21
7.8002224517018357
31
6.7063991946718311e-17
0
LINE
5
410
100
AcDbEntity
8
0
100
AcDbLine
10
11.018566026366248
20
7.8002224517018357
30
6.7063991946718323e-17
11
10.924495846838866
21
7.8501090075343738
31
4.9569038715965241e-17
0
LINE
5
411
100
AcDbEntity
8
0
100
AcDbLine
10
10.92449584683887
20
7.8501090075343738
30
4.9569038715965247e-17
11
10.791656987441502
21
7.8723448330516144
31
2.6242429846129632e-17
0
LINE
5
412
100
AcDbEntity
8
0
100
AcDbLine
10
10.642166102299353
20
6.6500619011653157
30
-3.2074090047376995e-17
11
10.656316928743795
21
6.7159018726839292
31
-3.2074091187918199e-17
0
LINE
5
413
100
AcDbEntity
8
0
100
AcDbLine
10
10.656316928743792
20
6.7159018726839292
30
-3.2074091187918199e-17
11
10.590476959992767
21
6.7300527120052012
31
-4.37373944822948e-17
0
LINE
5
414
100
AcDbEntity
8
0
100
AcDbLine
10
10.590476959992767
20
6.7300527120052012
30
-4.37373944822948e-17
11
10.576326133548326
21
6.6642127404865885
31
-4.3737393341753595e-17
0
LINE
5
415
100
AcDbEntity
8
0
100
AcDbLine
10
10.576326133548328
20
6.6642127404865885
30
-4.3737393341753595e-17
11
10.642166102299353
21
6.6500619011653157
31
-3.2074090047376995e-17
0
LINE
5
416
100
AcDbEntity
8
0
100
AcDbLine
10
10.856293916732458
20
6.8451247031772819
30
-2.9158358033297276e-18
11
11.416229608256076
21
7.2069487094326243
31
7.872729752217735e-17
0
LINE
5
417
100
AcDbEntity
8
0
100
AcDbLine
10
11.325247120961759
20
6.0529222577159638
30
3.4989901899341334e-17
11
12.190033374897402
21
6.5550627388858542
31
1.5745460188760194e-16
0
LINE
5
418
100
AcDbEntity
8
0
100
AcDbLine
10
11.448788018983391
20
6.1246566148411175
30
5.2484859692259252e-17
11
11.318604540147092
21
6.1591943158735969
31
2.9158253103506057e-17
0
LINE
5
419
100
AcDbEntity
8
0
100
AcDbLine
10
11.318604540147092
20
6.1591943158735969
30
2.9158253103506051e-17
11
11.229601317696947
21
6.2176434443395445
31
1.1663293029505703e-17
0
LINE
5
420
100
AcDbEntity
8
0
100
AcDbLine
10
11.229601317696948
20
6.2176434443395445
30
1.1663293029505716e-17
11
11.157866960571795
21
6.3411843423611778
31
-5.8316647634122048e-18
0
LINE
5
421
100
AcDbEntity
8
0
100
AcDbLine
10
11.157866960571795
20
6.3411843423611778
30
-5.8316647634122048e-18
11
11.151224389110224
21
6.4474563844109145
31
-1.1663311278165058e-17
0
LINE
5
422
100
AcDbEntity
8
0
100
AcDbLine
10
11.151224389110224
20
6.4474563844109154
30
-1.166331127816507e-17
11
11.185762055328619
21
6.5776398861099139
31
-1.1663315840329909e-17
0
LINE
5
423
100
AcDbEntity
8
0
100
AcDbLine
10
11.185762055328619
20
6.577639886109913
30
-1.1663315840329901e-17
11
11.285391507210596
21
6.6905545318370141
31
-9.1243296754355289e-24
0
LINE
5
424
100
AcDbEntity
8
0
100
AcDbLine
10
11.285391507210598
20
6.6905545318370141
30
-9.1243296619540193e-24
11
11.367752084414493
21
6.738377424116325
31
1.1663293029505728e-17
0
LINE
5
425
100
AcDbEntity
8
0
100
AcDbLine
10
11.367752084414491
20
6.738377424116325
30
1.1663293029505716e-17
11
11.515204460791573
21
6.7689315113457198
31
3.498990646150617e-17
0
LINE
5
426
100
AcDbEntity
8
0
100
AcDbLine
10
11.515204460791574
20
6.7689315113457198
30
3.4989906461506164e-17
11
11.645387948980968
21
6.7343937942053431
31
5.8316515331341785e-17
0
LINE
5
427
100
AcDbEntity
8
0
100
AcDbLine
10
11.645387948980964
20
6.7343937942053431
30
5.8316515331341785e-17
11
11.734391129862223
21
6.6759446631411041
31
7.5811468562094861e-17
0
LINE
5
428
100
AcDbEntity
8
0
100
AcDbLine
10
11.734391129862225
20
6.6759446631411041
30
7.5811468562094861e-17
11
11.80612548698738
21
6.5524037651194709
31
9.3306426355012778e-17
0
LINE
5
429
100
AcDbEntity
8
0
100
AcDbLine
10
11.806125486987378
20
6.5524037651194709
30
9.3306426355012791e-17
11
11.812768100017836
21
6.4461317256680246
31
9.9138079713012903e-17
0
LINE
5
430
100
AcDbEntity
8
0
100
AcDbLine
10
11.812768100017836
20
6.4461317256680246
30
9.9138079713012903e-17
11
11.778230424446347
21
6.3159482400769242
31
9.9138081994095337e-17
0
ENDSEC
0
SECTION
2
OBJECTS
0
DICTIONARY
5
C
100
AcDbDictionary
3
ACAD_GROUP
350
D
3
ACAD_MLINESTYLE
350
17
0
DICTIONARY
5
D
100
AcDbDictionary
0
DICTIONARY
5
1A
330
C
100
AcDbDictionary
0
DICTIONARY
5
17
100
AcDbDictionary
0
ENDSEC
0
EOF
