0
SECTION
2
HEADER
9
$INSUNITS
70
4
9
$ACADVER
1
AC1014
9
$HANDSEED
5
FFFF
0
ENDSEC
0
SECTION
2
TABLES
0
TABLE
2
VPORT
5
8
100
AcDbSymbolTable
0
ENDTAB
0
TABLE
2
LTYPE
5
5
100
AcDbSymbolTable
0
LTYPE
5
14
100
AcDbSymbolTableRecord
100
AcDbLinetypeTableRecord
2
BYBLOCK
70
0
0
LTYPE
5
15
100
AcDbSymbolTableRecord
100
AcDbLinetypeTableRecord
2
BYLAYER
70
0
0
ENDTAB
0
TABLE
2
LAYER
5
2
100
AcDbSymbolTable
70
2
0
LAYER
5
50
100
AcDbSymbolTableRecord
100
AcDbLayerTableRecord
2
0
70
0
6
CONTINUOUS
0
ENDTAB
0
TABLE
2
STYLE
5
3
100
AcDbSymbolTable
70
1
0
STYLE
5
11
100
AcDbSymbolTableRecord
100
AcDbTextStyleTableRecord
2
STANDARD
70
0
0
ENDTAB
0
TABLE
2
VIEW
5
6
100
AcDbSymbolTable
70
0
0
ENDTAB
0
TABLE
2
UCS
5
7
100
AcDbSymbolTable
70
0
0
ENDTAB
0
TABLE
2
APPID
5
9
100
AcDbSymbolTable
70
2
0
APPID
5
12
100
AcDbSymbolTableRecord
100
AcDbRegAppTableRecord
2
ACAD
70
0
0
ENDTAB
0
TABLE
2
DIMSTYLE
5
A
100
AcDbSymbolTable
70
1
0
ENDTAB
0
TABLE
2
BLOCK_RECORD
5
1
100
AcDbSymbolTable
70
1
0
BLOCK_RECORD
5
1F
100
AcDbSymbolTableRecord
100
AcDbBlockTableRecord
2
*MODEL_SPACE
0
BLOCK_RECORD
5
1B
100
AcDbSymbolTableRecord
100
AcDbBlockTableRecord
2
*PAPER_SPACE
0
ENDTAB
0
ENDSEC
0
SECTION
2
BLOCKS
0
BLOCK
5
20
100
AcDbEntity
100
AcDbBlockBegin
2
*MODEL_SPACE
0
ENDBLK
5
21
100
AcDbEntity
100
AcDbBlockEnd
0
BLOCK
5
1C
100
AcDbEntity
100
AcDbBlockBegin
2
*PAPER_SPACE
0
ENDBLK
5
1D
100
AcDbEntity
100
AcDbBlockEnd
0
ENDSEC
0
SECTION
2
ENTITIES
0
LINE
5
100
100
AcDbEntity
8
0
100
AcDbLine
10
-12.62827532433575
20
0.63622149809444939
30
4.3737396763377221e-17
11
-12.536455150053889
21
0.53768394130885089
31
5.540069891721261e-17
0
LINE
5
101
100
AcDbEntity
8
0
100
AcDbLine
10
-12.536455150053889
20
0.53768394130885089
30
5.540069891721261e-17
11
-12.493903735549964
21
0.39323629672544053
31
6.1232349994130315e-17
0
LINE
5
102
100
AcDbEntity
8
0
100
AcDbLine
10
-12.493903735549964
20
0.39323629672544053
30
6.1232349994130302e-17
11
-12.50062108082397
21
0.20287856434421855
31
6.1232349994130302e-17
0
LINE
5
103
100
AcDbEntity
8
0
100
AcDbLine
10
-12.50062108082397
20
0.20287856434421858
30
6.1232349994130302e-17
11
-12.553248513238909
21
0.061789610355795915
31
5.5400698917212604e-17
0
LINE
5
104
100
AcDbEntity
8
0
100
AcDbLine
10
-12.553248513238909
20
0.061789610355795881
30
5.540069891721261e-17
11
-12.651786033451657
21
-0.030030583854692566
31
4.3737396763377221e-17
0
LINE
5
105
100
AcDbEntity
8
0
100
AcDbLine
10
-12.651786033451661
20
-0.030030583854692559
30
4.3737396763377221e-17
11
-12.746964881027406
21
-0.02667191187457001
31
3.2074094609541831e-17
0
LINE
5
106
100
AcDbEntity
8
0
100
AcDbLine
10
-12.746964881027406
20
-0.02667191187457001
30
3.2074094609541837e-17
11
-12.84046439228465
21
0.024276193200858026
31
2.0410792455706447e-17
0
LINE
5
107
100
AcDbEntity
8
0
100
AcDbLine
10
-12.84046439228465
20
0.024276193200858033
30
2.0410792455706441e-17
11
-12.88637451698375
21
0.073544963599987842
31
1.4579136816623907e-17
0
LINE
5
108
100
AcDbEntity
8
0
100
AcDbLine
10
-12.88637451698375
20
0.073544963599987828
30
1.4579136816623913e-17
11
-12.930605268134618
21
0.17040316578066012
31
8.7474857397062198e-18
0
LINE
5
109
100
AcDbEntity
8
0
100
AcDbLine
10
-12.930605268134618
20
0.17040316578066012
30
8.7474857397062183e-18
11
-13.015708135685964
21
0.45929841903151358
31
-2.9158209762940096e-18
0
LINE
5
110
100
AcDbEntity
8
0
100
AcDbLine
10
-13.015708135685964
20
0.45929841903151358
30
-2.9158209762940134e-18
11
-13.059938886179951
21
0.55615663982705099
31
-8.7474720532117084e-18
0
LINE
5
111
100
AcDbEntity
8
0
100
AcDbLine
10
-13.059938886179951
20
0.55615663982705099
30
-8.7474720532117022e-18
11
-13.105848973977762
21
0.6054253996049852
31
-1.4579123130129397e-17
0
LINE
5
112
100
AcDbEntity
8
0
100
AcDbLine
10
-13.105848973977762
20
0.60542539960498509
30
-1.4579123130129406e-17
11
-13.199348484249684
21
0.65637353260271081
31
-2.6242425283964796e-17
0
LINE
5
113
100
AcDbEntity
8
0
100
AcDbLine
10
-13.199348484249684
20
0.65637353260271081
30
-2.6242425283964784e-17
11
-13.342116830072763
21
0.66141154320042073
31
-4.3737387639047543e-17
0
LINE
5
114
100
AcDbEntity
8
0
100
AcDbLine
10
-13.342116830072763
20
0.66141154320042073
30
-4.3737387639047543e-17
11
-13.440654350942394
21
0.56959133037506715
31
-5.5400689792882939e-17
0
LINE
5
115
100
AcDbEntity
8
0
100
AcDbLine
10
-13.440654350942395
20
0.56959133037506715
30
-5.5400689792882939e-17
11
-13.493281784014215
21
0.42850235777177942
31
-6.1232340869800631e-17
0
LINE
5
116
100
AcDbEntity
8
0
100
AcDbLine
10
-13.493281784014215
20
0.42850235777177942
30
-6.1232340869800631e-17
11
-13.499999129288224
21
0.23814462539055742
31
-6.1232340869800631e-17
0
LINE
5
117
100
AcDbEntity
8
0
100
AcDbLine
10
-13.499999129288224
20
0.23814462539055747
30
-6.1232340869800631e-17
11
-13.457447714127415
21
0.09369699942201222
31
-5.5400689792882927e-17
0
LINE
5
118
100
AcDbEntity
8
0
100
AcDbLine
10
-13.457447714127415
20
0.093696999422012206
30
-5.5400689792882939e-17
11
-13.365627539188674
21
-0.0048405387487212258
31
-4.3737387639047543e-17
0
LINE
5
119
100
AcDbEntity
8
0
100
AcDbLine
10
-12.786175462238534
20
1.1198558239356431
30
2.0410792455706441e-17
11
-12.843429237049765
21
1.0300790022005457
31
1.4579136816623907e-17
0
LINE
5
120
100
AcDbEntity
8
0
100
AcDbLine
10
-12.843429237049765
20
1.0300790022005457
30
1.4579136816623913e-17
11
-12.948044449672109
21
0.94524829878184347
31
2.9158346627885256e-18
0
LINE
5
121
100
AcDbEntity
8
0
100
AcDbLine
10
-12.948044449672111
20
0.94524829878184358
30
2.9158346627885218e-18
11
-13.095075040825003
21
0.91272521383922367
31
-1.45791231301294e-17
0
LINE
5
122
100
AcDbEntity
8
0
100
AcDbLine
10
-13.095075040825003
20
0.91272521383922367
30
-1.4579123130129406e-17
11
-13.189797988615323
21
0.92261747673654149
31
-2.6242425283964796e-17
0
LINE
5
123
100
AcDbEntity
8
0
100
AcDbLine
10
-13.189797988615322
20
0.92261747673654149
30
-2.6242425283964784e-17
11
-13.326936351987593
21
0.98481736197935454
31
-4.3737387639047543e-17
0
LINE
5
124
100
AcDbEntity
8
0
100
AcDbLine
10
-13.326936351987593
20
0.98481736197935454
30
-4.3737387639047543e-17
11
-13.411767034945887
21
1.0894325911926925
31
-5.5400689792882939e-17
0
LINE
5
125
100
AcDbEntity
8
0
100
AcDbLine
10
-13.411767034945887
20
1.0894325911926928
30
-5.5400689792882939e-17
11
-13.449236244976374
21
1.1891016796945213
31
-6.1232340869800631e-17
0
LINE
5
126
100
AcDbEntity
8
0
100
AcDbLine
10
-13.449236244976376
20
1.1891016796945211
30
-6.1232340869800631e-17
11
-13.434397846760985
21
1.3311861384314019
31
-6.1232340869800631e-17
0
LINE
5
127
100
AcDbEntity
8
0
100
AcDbLine
10
-13.434397846760985
20
1.3311861384314019
30
-6.1232340869800631e-17
11
-13.377144109968508
21
1.4209629547730618
31
-5.5400689792882927e-17
0
LINE
5
128
100
AcDbEntity
8
0
100
AcDbLine
10
-13.377144109968508
20
1.4209629547730618
30
-5.5400689792882939e-17
11
-13.27252889541146
21
1.5057936767174651
31
-4.3737387639047543e-17
0
LINE
5
129
100
AcDbEntity
8
0
100
AcDbLine
10
-13.27252889541146
20
1.5057936767174651
30
-4.3737387639047543e-17
11
-13.125498268174518
21
1.5383167485278215
31
-2.6242425283964781e-17
0
LINE
5
130
100
AcDbEntity
8
0
100
AcDbLine
10
-13.125498268174516
20
1.5383167485278215
30
-2.6242425283964784e-17
11
-13.030775320384196
21
1.5284244856305036
31
-1.4579123130129394e-17
0
LINE
5
131
100
AcDbEntity
8
0
100
AcDbLine
10
-13.030775320384198
20
1.5284244856305038
30
-1.4579123130129406e-17
11
-12.893636993095976
21
1.4662246135199544
31
2.9158346627885141e-18
0
LINE
5
132
100
AcDbEntity
8
0
100
AcDbLine
10
-12.893636993095976
20
1.4662246135199541
30
2.9158346627885218e-18
11
-12.808806312072388
21
1.3616093657809147
31
1.457913681662391e-17
0
LINE
5
133
100
AcDbEntity
8
0
100
AcDbLine
10
-12.808806312072388
20
1.361609365780915
30
1.4579136816623913e-17
11
-12.771337064023143
21
1.2619402826725241
31
2.041079245570645e-17
0
LINE
5
134
100
AcDbEntity
8
0
100
AcDbLine
10
-12.771337064023145
20
1.2619402826725241
30
2.0410792455706441e-17
11
-12.786175462238536
21
1.1198558239356431
31
2.0410792455706441e-17
0
LINE
5
135
100
AcDbEntity
8
0
100
AcDbLine
10
-13.373790566483994
20
1.8514877998055019
30
-6.1232340869800631e-17
11
-12.385271171650977
21
1.7003931776215517
31
6.1232349994130315e-17
0
LINE
5
136
100
AcDbEntity
8
0
100
AcDbLine
10
-12.621740283612411
20
2.3306720555644498
30
2.0410792455706441e-17
11
-12.687271855158508
21
2.2467465792078056
31
1.4579136816623907e-17
0
LINE
5
137
100
AcDbEntity
8
0
100
AcDbLine
10
-12.687271855158508
20
2.2467465792078056
30
1.4579136816623913e-17
11
-12.799479888511435
21
2.1722486047011227
31
2.9158346627885256e-18
0
LINE
5
138
100
AcDbEntity
8
0
100
AcDbLine
10
-12.799479888511433
20
2.1722486047011227
30
2.9158346627885218e-18
11
-12.948936934660543
21
2.1538546615312262
31
-1.45791231301294e-17
0
LINE
5
139
100
AcDbEntity
8
0
100
AcDbLine
10
-12.948936934660543
20
2.1538546615312262
30
-1.4579123130129406e-17
11
-13.042289927617649
21
2.1727096982394194
31
-2.6242425283964796e-17
0
LINE
5
140
100
AcDbEntity
8
0
100
AcDbLine
10
-13.042289927617649
20
2.1727096982394194
30
-2.6242425283964784e-17
11
-13.172891969886475
21
2.2476687736596506
31
-4.3737387639047543e-17
0
LINE
5
141
100
AcDbEntity
8
0
100
AcDbLine
10
-13.172891969886479
20
2.2476687736596506
30
-4.3737387639047543e-17
11
-13.247389922447766
21
2.3598768215827199
31
-5.5400689792882939e-17
0
LINE
5
142
100
AcDbEntity
8
0
100
AcDbLine
10
-13.247389922447766
20
2.3598768215827199
30
-5.5400689792882939e-17
11
-13.275211380374312
21
2.4626573420228088
31
-6.1232340869800631e-17
0
LINE
5
143
100
AcDbEntity
8
0
100
AcDbLine
10
-13.275211380374312
20
2.4626573420228088
30
-6.1232340869800631e-17
11
-13.246928817936771
21
2.6026868679740072
31
-6.1232340869800631e-17
0
LINE
5
144
100
AcDbEntity
8
0
100
AcDbLine
10
-13.246928817936771
20
2.6026868679740076
30
-6.1232340869800631e-17
11
-13.181397284750025
21
2.686612342577019
31
-5.5400689792882927e-17
0
LINE
5
145
100
AcDbEntity
8
0
100
AcDbLine
10
-13.181397284750025
20
2.6866123425770185
30
-5.5400689792882939e-17
11
-13.069189247709472
21
2.7611103353414697
31
-4.3737387639047543e-17
0
LINE
5
146
100
AcDbEntity
8
0
100
AcDbLine
10
-13.069189247709472
20
2.7611103353414701
30
-4.3737387639047543e-17
11
-12.91973216688864
21
2.7795042620072312
31
-2.6242425283964781e-17
0
LINE
5
147
100
AcDbEntity
8
0
100
AcDbLine
10
-12.91973216688864
20
2.7795042620072312
30
-2.6242425283964784e-17
11
-12.826379173931532
21
2.760649225299038
31
-1.4579123130129394e-17
0
LINE
5
148
100
AcDbEntity
8
0
100
AcDbLine
10
-12.826379173931532
20
2.760649225299038
30
-1.4579123130129406e-17
11
-12.69577716633443
21
2.6856901663829422
31
2.9158346627885141e-18
0
LINE
5
149
100
AcDbEntity
8
0
100
AcDbLine
10
-12.69577716633443
20
2.6856901663829422
30
2.9158346627885218e-18
11
-12.621279217460765
21
2.5734821002021042
31
1.457913681662391e-17
0
LINE
5
150
100
AcDbEntity
8
0
100
AcDbLine
10
-12.621279217460765
20
2.5734821002021042
30
1.4579136816623913e-17
11
-12.593457721174868
21
2.4707015815156481
31
2.041079245570645e-17
0
LINE
5
151
100
AcDbEntity
8
0
100
AcDbLine
10
-12.59345772117487
20
2.4707015815156486
30
2.0410792455706441e-17
11
-12.621740283612411
21
2.3306720555644498
31
2.0410792455706441e-17
0
LINE
5
152
100
AcDbEntity
8
0
100
AcDbLine
10
-12.73747778299728
20
3.0003538779556589
30
-8.7474720532117022e-18
11
-12.501705833796549
21
3.8244325352373898
31
-8.7474720532117022e-18
0
LINE
5
153
100
AcDbEntity
8
0
100
AcDbLine
10
-12.804918120562611
20
4.3079517670574274
30
-6.1232340869800631e-17
11
-11.87019440507491
21
3.9525762550721333
31
6.1232349994130315e-17
0
LINE
5
154
100
AcDbEntity
8
0
100
AcDbLine
10
-11.87019440507491
20
3.9525762550721333
30
6.1232349994130302e-17
11
-12.568001094920724
21
4.9311009571441193
31
-6.1232340869800644e-17
0
LINE
5
155
100
AcDbEntity
8
0
100
AcDbLine
10
-12.568001094920724
20
4.9311009571441202
30
-6.1232340869800631e-17
11
-11.633277379433022
21
4.5757254451588256
31
6.1232349994130315e-17
0
LINE
5
156
100
AcDbEntity
8
0
100
AcDbLine
10
-11.553332556717882
20
4.8989314622826177
30
5.540069891721261e-17
11
-11.577633028984312
21
4.9617377898799297
31
4.9569047840294919e-17
0
LINE
5
157
100
AcDbEntity
8
0
100
AcDbLine
10
-11.577633028984312
20
4.9617377898799297
30
4.9569047840294919e-17
11
-11.514826706139633
21
4.9860382744298795
31
5.540069891721261e-17
0
LINE
5
158
100
AcDbEntity
8
0
100
AcDbLine
10
-11.514826706139633
20
4.9860382744298795
30
5.540069891721261e-17
11
-11.490526233873201
21
4.9232319468325674
31
6.1232349994130315e-17
0
LINE
5
159
100
AcDbEntity
8
0
100
AcDbLine
10
-11.490526233873201
20
4.9232319468325674
30
6.1232349994130302e-17
11
-11.553332556717882
21
4.8989314622826177
31
5.5400698917212604e-17
0
LINE
5
160
100
AcDbEntity
8
0
100
AcDbLine
10
-11.795400016762089
20
5.0580023974983348
30
2.0410792455706441e-17
11
-12.405147718829074
21
5.3275433590769588
31
-6.1232340869800631e-17
0
LINE
5
161
100
AcDbEntity
8
0
100
AcDbLine
10
-12.274613594204144
20
5.6345091492790411
30
-6.1232340869800631e-17
11
-11.444645868407425
21
5.8076410813032169
31
2.041079245570645e-17
0
LINE
5
162
100
AcDbEntity
8
0
100
AcDbLine
10
-12.041920294229216
20
6.1037961933711182
30
-6.1232340869800631e-17
11
-11.677339168382355
21
5.3383540372111407
31
2.041079245570645e-17
0
LINE
5
163
100
AcDbEntity
8
0
100
AcDbLine
10
-11.076995556052513
20
5.8973885821991328
30
5.540069891721261e-17
11
-11.095670303233124
21
5.9620909898542784
31
4.9569047840294919e-17
0
LINE
5
164
100
AcDbEntity
8
0
100
AcDbLine
10
-11.095670303233124
20
5.9620909898542784
30
4.9569047840294919e-17
11
-11.030967899230344
21
5.9807657496892386
31
5.540069891721261e-17
0
LINE
5
165
100
AcDbEntity
8
0
100
AcDbLine
10
-11.030967899230344
20
5.9807657496892395
30
5.540069891721261e-17
11
-11.012293152049732
21
5.9160633420340938
31
6.1232349994130315e-17
0
LINE
5
166
100
AcDbEntity
8
0
100
AcDbLine
10
-11.012293152049732
20
5.9160633420340929
30
6.1232349994130302e-17
11
-11.076995556052513
21
5.8973885821991328
31
5.5400698917212604e-17
0
LINE
5
167
100
AcDbEntity
8
0
100
AcDbLine
10
-11.304113181191601
20
6.0771601094047432
30
2.0410792455706441e-17
11
-11.887753369929065
21
6.3993537161619169
31
-6.1232340869800631e-17
0
LINE
5
168
100
AcDbEntity
8
0
100
AcDbLine
10
-11.406600358749269
20
6.4948095306067311
30
-1.4579123130129406e-17
11
-11.107793002150723
21
6.9818874142005658
31
-1.4579123130129406e-17
0
LINE
5
169
100
AcDbEntity
8
0
100
AcDbLine
10
-11.107793002150723
20
6.9818874142005658
30
-1.4579123130129406e-17
11
-11.026613370762012
21
6.9320861978408193
31
-2.9158209762940173e-18
0
LINE
5
170
100
AcDbEntity
8
0
100
AcDbLine
10
-11.026613370762014
20
6.9320861978408193
30
-2.9158209762940134e-18
11
-10.97033431579932
21
6.8416951463066962
31
8.7474857397062152e-18
0
LINE
5
171
100
AcDbEntity
8
0
100
AcDbLine
10
-10.97033431579932
20
6.8416951463066953
30
8.7474857397062183e-18
11
-10.954645127764859
21
6.7762046906786075
31
1.4579136816623913e-17
0
LINE
5
172
100
AcDbEntity
8
0
100
AcDbLine
10
-10.954645127764858
20
6.7762046906786075
30
1.4579136816623913e-17
11
-10.963856496676389
21
6.6701244316300041
31
2.041079245570645e-17
0
LINE
5
173
100
AcDbEntity
8
0
100
AcDbLine
10
-10.963856496676392
20
6.6701244316300041
30
2.0410792455706441e-17
11
-11.038558340696035
21
6.5483549527930807
31
2.0410792455706441e-17
0
LINE
5
174
100
AcDbEntity
8
0
100
AcDbLine
10
-11.038558340696035
20
6.5483549527930807
30
2.0410792455706441e-17
11
-11.128949409374
21
6.4920759411258002
31
1.4579136816623907e-17
0
LINE
5
175
100
AcDbEntity
8
0
100
AcDbLine
10
-11.128949409374
20
6.4920759411258002
30
1.4579136816623913e-17
11
-11.259930266862469
21
6.4606975102199087
31
2.9158346627885256e-18
0
LINE
5
176
100
AcDbEntity
8
0
100
AcDbLine
10
-11.259930266862469
20
6.4606975102199087
30
2.9158346627885218e-18
11
-11.406600358749269
21
6.4948095306067302
31
-1.45791231301294e-17
0
LINE
5
177
100
AcDbEntity
8
0
100
AcDbLine
10
-11.406600358749269
20
6.4948095306067311
30
-1.4579123130129406e-17
11
-11.48777999013798
21
6.5446107469664785
31
-2.6242425283964796e-17
0
LINE
5
178
100
AcDbEntity
8
0
100
AcDbLine
10
-11.487779990137978
20
6.5446107469664785
30
-2.6242425283964784e-17
11
-11.584648887678883
21
6.6599024340989601
31
-4.3737387639047543e-17
0
LINE
5
179
100
AcDbEntity
8
0
100
AcDbLine
10
-11.584648887678883
20
6.6599024340989601
30
-4.3737387639047543e-17
11
-11.616027292967834
21
6.7908832977243474
31
-5.5400689792882939e-17
0
LINE
5
180
100
AcDbEntity
8
0
100
AcDbLine
10
-11.616027292967836
20
6.7908832977243456
30
-5.5400689792882939e-17
11
-11.606815887432438
21
6.8969635452313938
31
-6.1232340869800631e-17
0
LINE
5
181
100
AcDbEntity
8
0
100
AcDbLine
10
-11.606815887432438
20
6.8969635452313947
30
-6.1232340869800631e-17
11
-11.532114043412795
21
7.018733024068319
31
-6.1232340869800631e-17
0
LINE
5
182
100
AcDbEntity
8
0
100
AcDbLine
10
-11.532114043412795
20
7.018733024068319
30
-6.1232340869800631e-17
11
-11.441723011358693
21
7.0750120472771538
31
-5.5400689792882927e-17
0
LINE
5
183
100
AcDbEntity
8
0
100
AcDbLine
10
-11.441723011358693
20
7.0750120472771538
30
-5.5400689792882939e-17
11
-11.310742144130217
21
7.1063904940599754
31
-4.3737387639047543e-17
0
LINE
5
184
100
AcDbEntity
8
0
100
AcDbLine
10
-4.8504713836769859
20
11.889996533428285
30
2.0410792455706441e-17
11
-5.1953423971504016
21
12.828646794117212
31
-1.0205390753255417e-16
0
LINE
5
185
100
AcDbEntity
8
0
100
AcDbLine
10
-4.8997386731513952
20
12.024089432807765
30
2.9158346627885218e-18
11
-4.7774985616416714
21
11.967539047374771
31
1.457913681662391e-17
0
LINE
5
186
100
AcDbEntity
8
0
100
AcDbLine
10
-4.7774985616416714
20
11.967539047374771
30
1.4579136816623913e-17
11
-4.6716808628268245
21
11.955686248445014
31
2.041079245570645e-17
0
LINE
5
187
100
AcDbEntity
8
0
100
AcDbLine
10
-4.6716808628268245
20
11.955686248445014
30
2.0410792455706441e-17
11
-4.5375879634473435
21
12.004953537919423
31
2.0410792455706441e-17
0
LINE
5
188
100
AcDbEntity
8
0
100
AcDbLine
10
-4.5375879634473435
20
12.004953537919423
30
2.0410792455706441e-17
11
-4.4646151588957492
21
12.082496045442186
31
1.4579136816623907e-17
0
LINE
5
189
100
AcDbEntity
8
0
100
AcDbLine
10
-4.4646151588957492
20
12.082496045442188
30
1.4579136816623913e-17
11
-4.4080647320715913
21
12.204736152315636
31
2.9158346627885256e-18
0
LINE
5
190
100
AcDbEntity
8
0
100
AcDbLine
10
-4.4080647320715904
20
12.204736152315634
30
2.9158346627885218e-18
11
-4.4126344000753193
21
12.355251477237436
31
-1.45791231301294e-17
0
LINE
5
191
100
AcDbEntity
8
0
100
AcDbLine
10
-4.4126344000753193
20
12.355251477237436
30
-1.4579123130129406e-17
11
-4.4454792511599619
21
12.444646720178795
31
-2.6242425283964796e-17
0
LINE
5
192
100
AcDbEntity
8
0
100
AcDbLine
10
-4.4454792511599619
20
12.444646720178799
30
-2.6242425283964784e-17
11
-4.5394441749524947
21
12.5623172289834
31
-4.3737387639047543e-17
0
LINE
5
193
100
AcDbEntity
8
0
100
AcDbLine
10
-4.5394441749524947
20
12.5623172289834
30
-4.3737387639047543e-17
11
-4.6616843039459397
21
12.618867607992673
31
-5.5400689792882939e-17
0
LINE
5
194
100
AcDbEntity
8
0
100
AcDbLine
10
-4.6616843039459397
20
12.618867607992673
30
-5.5400689792882939e-17
11
-4.7675019724296206
21
12.630720378378708
31
-6.1232340869800631e-17
0
LINE
5
195
100
AcDbEntity
8
0
100
AcDbLine
10
-4.7675019724296206
20
12.630720378378708
30
-6.1232340869800631e-17
11
-4.9015948718091025
21
12.581453088904301
31
-6.1232340869800631e-17
0
LINE
5
196
100
AcDbEntity
8
0
100
AcDbLine
10
-4.9015948718091016
20
12.581453088904301
30
-6.1232340869800631e-17
11
-4.974567706691861
21
12.503910609925255
31
-5.5400689792882927e-17
0
LINE
5
197
100
AcDbEntity
8
0
100
AcDbLine
10
-4.974567706691861
20
12.503910609925255
30
-5.5400689792882939e-17
11
-5.0311181160322977
21
12.38167050947553
31
-4.3737387639047543e-17
0
LINE
5
198
100
AcDbEntity
8
0
100
AcDbLine
10
-3.9434819018228255
20
11.91335272407628
30
5.540069891721261e-17
11
-3.9123293700728841
21
11.973057560598972
31
4.9569047840294919e-17
0
LINE
5
199
100
AcDbEntity
8
0
100
AcDbLine
10
-3.9123293700728841
20
11.973057560598972
30
4.9569047840294919e-17
11
-3.8526245274574515
21
11.941905040525967
31
5.540069891721261e-17
0
LINE
5
200
100
AcDbEntity
8
0
100
AcDbLine
10
-3.8526245274574515
20
11.941905040525969
30
5.540069891721261e-17
11
-3.8837770592073935
21
11.882200204003277
31
6.1232349994130315e-17
0
LINE
5
201
100
AcDbEntity
8
0
100
AcDbLine
10
-3.8837770592073939
20
11.882200204003276
30
6.1232349994130302e-17
11
-3.9434819018228264
21
11.91335272407628
31
5.5400698917212604e-17
0
LINE
5
202
100
AcDbEntity
8
0
100
AcDbLine
10
-3.9837101472366099
20
12.200200952088213
30
2.0410792455706441e-17
11
-4.1835763679686169
21
12.836202590415509
31
-6.1232340869800631e-17
0
LINE
5
203
100
AcDbEntity
8
0
100
AcDbLine
10
-3.7695581481983598
20
12.573126657694591
30
-1.4579123130129406e-17
11
-3.2171340314467924
21
12.719271436167553
31
-1.4579123130129406e-17
0
LINE
5
204
100
AcDbEntity
8
0
100
AcDbLine
10
-3.2171340314467924
20
12.719271436167553
30
-1.4579123130129406e-17
11
-3.1927765731317423
21
12.627200768049265
31
-2.9158209762940173e-18
0
LINE
5
205
100
AcDbEntity
8
0
100
AcDbLine
10
-3.1927765731317423
20
12.627200768049265
30
-2.9158209762940134e-18
11
-3.2144544393482821
21
12.522951334759505
31
8.7474857397062152e-18
0
LINE
5
206
100
AcDbEntity
8
0
100
AcDbLine
10
-3.2144544393482821
20
12.522951334759505
30
8.7474857397062183e-18
11
-3.2483110802638491
21
12.464737262015282
31
1.4579136816623913e-17
0
LINE
5
207
100
AcDbEntity
8
0
100
AcDbLine
10
-3.2483110802638491
20
12.464737262015282
30
1.4579136816623913e-17
11
-3.3282030096970572
21
12.39434443362714
31
2.041079245570645e-17
0
LINE
5
208
100
AcDbEntity
8
0
100
AcDbLine
10
-3.3282030096970572
20
12.39434443362714
30
2.0410792455706441e-17
11
-3.4663090478884362
21
12.357808236627012
31
2.0410792455706441e-17
0
LINE
5
209
100
AcDbEntity
8
0
100
AcDbLine
10
-3.4663090478884366
20
12.357808236627012
30
2.0410792455706441e-17
11
-3.5705584636952898
21
12.379486146003167
31
1.4579136816623907e-17
0
LINE
5
210
100
AcDbEntity
8
0
100
AcDbLine
10
-3.5705584636952894
20
12.379486146003167
30
1.4579136816623913e-17
11
-3.6869866081356002
21
12.447199351042626
31
2.9158346627885256e-18
0
LINE
5
211
100
AcDbEntity
8
0
100
AcDbLine
10
-3.6869866081356006
20
12.447199351042626
30
2.9158346627885218e-18
11
-3.7695581481983598
21
12.573126657694591
31
-1.45791231301294e-17
0
LINE
5
212
100
AcDbEntity
8
0
100
AcDbLine
10
-3.7695581481983598
20
12.573126657694591
30
-1.4579123130129406e-17
11
-3.7939156065134094
21
12.665197325812878
31
-2.6242425283964796e-17
0
LINE
5
213
100
AcDbEntity
8
0
100
AcDbLine
10
-3.7939156065134099
20
12.665197325812878
30
-2.6242425283964784e-17
11
-3.7844164699784617
21
12.815482131557619
31
-4.3737387639047543e-17
0
LINE
5
214
100
AcDbEntity
8
0
100
AcDbLine
10
-3.7844164699784617
20
12.815482131557621
30
-4.3737387639047543e-17
11
-3.7167032421682498
21
12.931910262754734
31
-5.5400689792882939e-17
0
LINE
5
215
100
AcDbEntity
8
0
100
AcDbLine
10
-3.7167032421682498
20
12.931910262754734
30
-5.5400689792882939e-17
11
-3.636811294204001
21
13.002303057510815
31
-6.1232340869800631e-17
0
LINE
5
216
100
AcDbEntity
8
0
100
AcDbLine
10
-3.636811294204001
20
13.002303057510815
30
-6.1232340869800631e-17
11
-3.4987052560126219
21
13.038839254510943
31
-6.1232340869800631e-17
0
LINE
5
217
100
AcDbEntity
8
0
100
AcDbLine
10
-3.4987052560126219
20
13.038839254510943
30
-6.1232340869800631e-17
11
-3.3944558587368103
21
13.017161378766851
31
-5.5400689792882927e-17
0
LINE
5
218
100
AcDbEntity
8
0
100
AcDbLine
10
-3.3944558587368103
20
13.017161378766851
30
-5.5400689792882939e-17
11
-3.2780276962895245
21
12.949448178491167
31
-4.3737387639047543e-17
0
LINE
5
219
100
AcDbEntity
8
0
100
AcDbLine
10
-3.0374269705373909
20
13.157501374139596
30
-6.1232340869800631e-17
11
-2.9023988766657043
21
12.504652230761067
31
2.041079245570645e-17
0
LINE
5
220
100
AcDbEntity
8
0
100
AcDbLine
10
-2.9602680619093649
20
12.784444731203518
30
-1.4579123130129406e-17
11
-2.8847013889205249
21
12.654193344560795
31
2.9158346627885141e-18
0
LINE
5
221
100
AcDbEntity
8
0
100
AcDbLine
10
-2.8847013889205249
20
12.654193344560795
30
2.9158346627885218e-18
11
-2.7721475048021391
21
12.580218929224174
31
1.457913681662391e-17
0
LINE
5
222
100
AcDbEntity
8
0
100
AcDbLine
10
-2.7721475048021391
20
12.580218929224174
30
1.4579136816623913e-17
11
-2.6692384839508509
21
12.552876546767264
31
2.041079245570645e-17
0
LINE
5
223
100
AcDbEntity
8
0
100
AcDbLine
10
-2.6692384839508509
20
12.552876546767264
30
2.0410792455706441e-17
11
-2.5293422337296256
21
12.581811139389094
31
2.0410792455706441e-17
0
LINE
5
224
100
AcDbEntity
8
0
100
AcDbLine
10
-2.4311032395228893
20
13.282904127133291
30
-6.1232340869800631e-17
11
-2.3261432420308132
21
12.624551646260649
31
2.041079245570645e-17
0
LINE
5
225
100
AcDbEntity
8
0
100
AcDbLine
10
-2.3711260997745875
20
12.906702720002725
30
-1.4579123130129406e-17
11
-2.3016094950113795
21
12.773124325600225
31
2.9158346627885141e-18
0
LINE
5
226
100
AcDbEntity
8
0
100
AcDbLine
10
-2.3016094950113795
20
12.773124325600225
30
2.9158346627885218e-18
11
-2.192564861224211
21
12.694068277148812
31
1.457913681662391e-17
0
LINE
5
227
100
AcDbEntity
8
0
100
AcDbLine
10
-2.192564861224211
20
12.694068277148812
30
1.4579136816623913e-17
11
-2.0910173717712865
21
12.662037357137063
31
2.041079245570645e-17
0
LINE
5
228
100
AcDbEntity
8
0
100
AcDbLine
10
-2.0910173717712861
20
12.662037357137063
30
2.0410792455706441e-17
11
-1.949941834900248
21
12.684528786008951
31
2.0410792455706441e-17
0
LINE
5
229
100
AcDbEntity
8
0
100
AcDbLine
10
-1.780688534987114
20
13.00470033966352
30
-1.4579123130129406e-17
11
-1.2123133142690723
21
13.06369448782567
31
-1.4579123130129406e-17
0
LINE
5
230
100
AcDbEntity
8
0
100
AcDbLine
10
-1.2123133142690723
20
13.063694487825671
30
-1.4579123130129406e-17
11
-1.2024809581650373
21
12.968965302899587
31
-2.9158209762940173e-18
0
LINE
5
231
100
AcDbEntity
8
0
100
AcDbLine
10
-1.2024809581650373
20
12.968965302899583
30
-2.9158209762940134e-18
11
-1.2400131906780649
21
12.869319902867639
31
8.7474857397062152e-18
0
LINE
5
232
100
AcDbEntity
8
0
100
AcDbLine
10
-1.2400131906780647
20
12.869319902867639
30
8.7474857397062183e-18
11
-1.2824616421429325
21
12.8170391285066
31
1.4579136816623913e-17
0
LINE
5
233
100
AcDbEntity
8
0
100
AcDbLine
10
-1.2824616421429325
20
12.8170391285066
30
1.4579136816623913e-17
11
-1.3722746451710206
21
12.759842142885681
31
2.041079245570645e-17
0
LINE
5
234
100
AcDbEntity
8
0
100
AcDbLine
10
-1.3722746451710206
20
12.759842142885681
30
2.0410792455706441e-17
11
-1.5143684596139915
21
12.745093604883648
31
2.0410792455706441e-17
0
LINE
5
235
100
AcDbEntity
8
0
100
AcDbLine
10
-1.5143684596139917
20
12.745093604883646
30
2.0410792455706441e-17
11
-1.6140138357015357
21
12.782625877335001
31
1.4579136816623907e-17
0
LINE
5
236
100
AcDbEntity
8
0
100
AcDbLine
10
-1.6140138357015357
20
12.782625877335001
30
1.4579136816623913e-17
11
-1.7185753952585778
21
12.867522704234062
31
2.9158346627885256e-18
0
LINE
5
237
100
AcDbEntity
8
0
100
AcDbLine
10
-1.7185753952585778
20
12.867522704234062
30
2.9158346627885218e-18
11
-1.780688534987114
21
13.00470033966352
31
-1.45791231301294e-17
0
LINE
5
238
100
AcDbEntity
8
0
100
AcDbLine
10
-1.780688534987114
20
13.00470033966352
30
-1.4579123130129406e-17
11
-1.7905208910911492
21
13.099429524589606
31
-2.6242425283964796e-17
0
LINE
5
239
100
AcDbEntity
8
0
100
AcDbLine
10
-1.7905208910911492
20
13.099429524589606
30
-2.6242425283964784e-17
11
-1.7579048312126586
21
13.246439555099931
31
-4.3737387639047543e-17
0
LINE
5
240
100
AcDbEntity
8
0
100
AcDbLine
10
-1.7579048312126586
20
13.246439555099931
30
-4.3737387639047543e-17
11
-1.6730079838636867
21
13.351001098053043
31
-5.5400689792882939e-17
0
LINE
5
241
100
AcDbEntity
8
0
100
AcDbLine
10
-1.6730079838636869
20
13.351001098053043
30
-5.5400689792882939e-17
11
-1.5831949677261581
21
13.408198047581617
31
-6.1232340869800631e-17
0
LINE
5
242
100
AcDbEntity
8
0
100
AcDbLine
10
-1.5831949677261579
20
13.408198047581617
30
-6.1232340869800631e-17
11
-1.4411011532831868
21
13.422946585583649
31
-6.1232340869800631e-17
0
LINE
5
243
100
AcDbEntity
8
0
100
AcDbLine
10
-1.4411011532831868
20
13.422946585583649
30
-6.1232340869800631e-17
11
-1.3414557903050834
21
13.385414349224639
31
-5.5400689792882927e-17
0
LINE
5
244
100
AcDbEntity
8
0
100
AcDbLine
10
-1.3414557903050837
20
13.385414349224639
30
-5.5400689792882939e-17
11
-1.2368942122211204
21
13.300517524248569
31
-4.3737387639047543e-17
0
LINE
5
245
100
AcDbEntity
8
0
100
AcDbLine
10
-0.96751220966348972
20
13.484217602732366
30
-6.1232340869800631e-17
11
-0.95500098867180205
21
12.817668235097834
31
2.041079245570645e-17
0
LINE
5
246
100
AcDbEntity
8
0
100
AcDbLine
10
-0.95857562384010042
20
13.00811094349028
30
-2.9158209762940134e-18
11
-0.81306264445385845
21
12.867959906671002
31
1.4579136816623907e-17
0
LINE
5
247
100
AcDbEntity
8
0
100
AcDbLine
10
-0.81306264445385845
20
12.867959906671
30
1.4579136816623913e-17
11
-0.7169476590507583
21
12.82213652800953
31
2.041079245570645e-17
0
LINE
5
248
100
AcDbEntity
8
0
100
AcDbLine
10
-0.7169476590507583
20
12.82213652800953
30
2.0410792455706441e-17
11
-0.57411564637959511
21
12.824817504036192
31
2.0410792455706441e-17
0
LINE
5
249
100
AcDbEntity
8
0
100
AcDbLine
10
-0.57411564637959511
20
12.824817504036192
30
2.0410792455706441e-17
11
-0.47978798857134852
21
12.874215516642504
31
1.4579136816623907e-17
0
LINE
5
250
100
AcDbEntity
8
0
100
AcDbLine
10
-0.47978798857134852
20
12.874215516642506
30
1.4579136816623913e-17
11
-0.43485826887673024
21
13.017941188455303
31
-2.9158209762940057e-18
0
LINE
5
251
100
AcDbEntity
8
0
100
AcDbLine
10
-0.43485826887673024
20
13.017941188455303
30
-2.9158209762940134e-18
11
-0.44379485470011959
21
13.494047847697392
31
-6.1232340869800631e-17
0
LINE
5
252
100
AcDbEntity
8
0
100
AcDbLine
10
-0.43485826887673024
20
13.017941188455303
30
-2.9158209762940134e-18
11
-0.28934528017890271
21
12.877790151810807
31
1.4579136816623907e-17
0
LINE
5
253
100
AcDbEntity
8
0
100
AcDbLine
10
-0.28934528017890271
20
12.877790151810803
30
1.4579136816623913e-17
11
-0.19323030408738812
21
12.831966772974553
31
2.041079245570645e-17
0
LINE
5
254
100
AcDbEntity
8
0
100
AcDbLine
10
-0.19323030408738812
20
12.831966772974553
30
2.0410792455706441e-17
11
-0.050398328662567216
21
12.834647748302096
31
2.0410792455706441e-17
0
LINE
5
255
100
AcDbEntity
8
0
100
AcDbLine
10
-0.050398328662567271
20
12.834647748302096
30
2.0410792455706441e-17
11
0.043929329145679319
21
12.884045760908409
31
1.4579136816623907e-17
0
LINE
5
256
100
AcDbEntity
8
0
100
AcDbLine
10
0.043929329145679374
20
12.88404576090841
30
1.4579136816623913e-17
11
0.088859086086639921
21
13.027771433420327
31
-2.9158209762940057e-18
0
LINE
5
257
100
AcDbEntity
8
0
100
AcDbLine
10
0.088859086086639921
20
13.027771433420327
30
-2.9158209762940134e-18
11
0.079922500263250595
21
13.503878092662415
31
-6.1232340869800631e-17
0
LINE
5
258
100
AcDbEntity
8
0
100
AcDbLine
10
0.4161902542430117
20
12.834557876338362
30
2.0410792455706441e-17
11
0.44838084861412603
21
13.309659106788121
31
-3.790572743780018e-17
0
LINE
5
259
100
AcDbEntity
8
0
100
AcDbLine
10
0.44838084861412597
20
13.309659106788118
30
-3.790572743780018e-17
11
0.50554815535444775
21
13.44897046839478
31
-5.5400689792882939e-17
0
LINE
5
260
100
AcDbEntity
8
0
100
AcDbLine
10
0.50554815535444775
20
13.44897046839478
30
-5.5400689792882939e-17
11
0.60378746409461848
21
13.490042464880165
31
-6.1232340869800631e-17
0
LINE
5
261
100
AcDbEntity
8
0
100
AcDbLine
10
0.60378746409461848
20
13.490042464880167
30
-6.1232340869800631e-17
11
0.74631783880469893
21
13.480385286191087
31
-6.1232340869800631e-17
0
LINE
5
262
100
AcDbEntity
8
0
100
AcDbLine
10
0.74631783880469893
20
13.480385286191087
30
-6.1232340869800631e-17
11
0.83811902967796892
21
13.426437051453597
31
-5.5400689792882927e-17
0
LINE
5
263
100
AcDbEntity
8
0
100
AcDbLine
10
0.83811902967796892
20
13.426437051453595
30
-5.5400689792882939e-17
11
0.97099223184300953
21
13.27424945096525
31
-3.790572743780018e-17
0
LINE
5
264
100
AcDbEntity
8
0
100
AcDbLine
10
0.93880163747189527
20
12.799148220515491
30
2.0410792455706441e-17
11
0.98386847261342159
21
13.464289987746376
31
-6.1232340869800631e-17
0
LINE
5
265
100
AcDbEntity
8
0
100
AcDbLine
10
1.3800419126334189
20
12.425045805821149
30
6.1232349994130302e-17
11
1.4816541001165637
21
13.228167094324945
31
-3.790572743780018e-17
0
LINE
5
266
100
AcDbEntity
8
0
100
AcDbLine
10
1.4816541001165637
20
13.228167094324945
30
-3.790572743780018e-17
11
1.5468281039423211
21
13.363917253286047
31
-5.5400689792882939e-17
0
LINE
5
267
100
AcDbEntity
8
0
100
AcDbLine
10
1.5468281039423211
20
13.363917253286047
30
-5.5400689792882939e-17
11
1.6472901581453157
21
13.399205301437744
31
-6.1232340869800631e-17
0
LINE
5
268
100
AcDbEntity
8
0
100
AcDbLine
10
1.6472901581453157
20
13.399205301437746
30
-6.1232340869800631e-17
11
1.7417750253994215
21
13.387250925201959
31
-6.1232340869800631e-17
0
LINE
5
269
100
AcDbEntity
8
0
100
AcDbLine
10
1.2801549203944802
20
12.773674340887229
30
2.0410792455706441e-17
11
1.6108519650234185
21
12.731834022892969
31
2.0410792455706441e-17
0
LINE
5
270
100
AcDbEntity
8
0
100
AcDbLine
10
2.0259833531417786
20
13.354775925558748
30
-6.1232340869800631e-17
11
1.8429667766843416
21
12.371666007209969
31
6.1232349994130315e-17
0
LINE
5
271
100
AcDbEntity
8
0
100
AcDbLine
10
1.9388326017984374
20
12.886628341904691
30
-2.9158209762940134e-18
11
2.0531316542580469
21
12.720038825733308
31
1.4579136816623907e-17
0
LINE
5
272
100
AcDbEntity
8
0
100
AcDbLine
10
2.0531316542580469
20
12.720038825733312
30
1.4579136816623913e-17
11
2.1380460849066512
21
12.655793888822966
31
2.041079245570645e-17
0
LINE
5
273
100
AcDbEntity
8
0
100
AcDbLine
10
2.1380460849066512
20
12.655793888822963
30
2.0410792455706441e-17
11
2.2784903746523462
21
12.629648660692803
31
2.0410792455706441e-17
0
LINE
5
274
100
AcDbEntity
8
0
100
AcDbLine
10
2.2784903746523462
20
12.629648660692803
30
2.0410792455706441e-17
11
2.3808349573223317
21
12.659033300815656
31
1.4579136816623907e-17
0
LINE
5
275
100
AcDbEntity
8
0
100
AcDbLine
10
2.3808349573223317
20
12.659033300815656
30
1.4579136816623913e-17
11
2.4537949731168549
21
12.7907625099727
31
-2.9158209762940057e-18
0
LINE
5
276
100
AcDbEntity
8
0
100
AcDbLine
10
2.4537949731168549
20
12.790762509972698
30
-2.9158209762940134e-18
11
2.5409457244601965
21
13.258910093626753
31
-6.1232340869800631e-17
0
LINE
5
277
100
AcDbEntity
8
0
100
AcDbLine
10
2.9385846671533828
20
13.080085749526715
30
-4.9569038715965247e-17
11
2.9033737153890633
21
13.137490772081222
31
-5.5400689792882945e-17
0
LINE
5
278
100
AcDbEntity
8
0
100
AcDbLine
10
2.9033737153890633
20
13.137490772081222
30
-5.5400689792882939e-17
11
2.9607787448300456
21
13.172701712618395
31
-6.1232340869800631e-17
0
LINE
5
279
100
AcDbEntity
8
0
100
AcDbLine
10
2.960778744830046
20
13.172701712618395
30
-6.1232340869800631e-17
11
2.9959896965943655
21
13.115296690063891
31
-5.5400689792882927e-17
0
LINE
5
280
100
AcDbEntity
8
0
100
AcDbLine
10
3.1881641051459346
20
12.442042749483695
30
2.0410792455706441e-17
11
3.5622781610708119
21
13.025793083367102
31
-6.1232340869800631e-17
0
LINE
5
281
100
AcDbEntity
8
0
100
AcDbLine
10
3.5622781610708119
20
13.025793083367102
30
-6.1232340869800631e-17
11
3.5530305438963534
21
12.332510845944169
31
2.041079245570645e-17
0
LINE
5
282
100
AcDbEntity
8
0
100
AcDbLine
10
3.5530305438963534
20
12.332510845944169
30
2.0410792455706441e-17
11
3.9271445998212307
21
12.916261179827575
31
-6.1232340869800631e-17
0
LINE
5
283
100
AcDbEntity
8
0
100
AcDbLine
10
3.9271445998212307
20
12.916261179827577
30
-6.1232340869800631e-17
11
3.9178969826467718
21
12.222978942404644
31
2.041079245570645e-17
0
LINE
5
284
100
AcDbEntity
8
0
100
AcDbLine
10
4.367987687398287
20
12.069011706858618
30
2.0410792455706441e-17
11
4.2959386089199665
21
12.147413254939094
31
1.4579136816623907e-17
0
LINE
5
285
100
AcDbEntity
8
0
100
AcDbLine
10
4.2959386089199656
20
12.147413254939096
30
1.4579136816623913e-17
11
4.2408402958514753
21
12.270314706726847
31
2.9158346627885256e-18
0
LINE
5
286
100
AcDbEntity
8
0
100
AcDbLine
10
4.2408402958514753
20
12.270314706726847
30
2.9158346627885218e-18
11
4.2471927273256469
21
12.420765337843235
31
-1.45791231301294e-17
0
LINE
5
287
100
AcDbEntity
8
0
100
AcDbLine
10
4.2471927273256469
20
12.420765337843235
30
-1.4579123130129406e-17
11
4.281094302073277
21
12.509765208252961
31
-2.6242425283964796e-17
0
LINE
5
288
100
AcDbEntity
8
0
100
AcDbLine
10
4.281094302073277
20
12.509765208252961
30
-2.6242425283964784e-17
11
4.3764466346243571
21
12.626314292804118
31
-4.3737387639047543e-17
0
LINE
5
289
100
AcDbEntity
8
0
100
AcDbLine
10
4.3764466346243571
20
12.626314292804118
30
-4.3737387639047543e-17
11
4.4993480971881077
21
12.68141258183582
31
-5.5400689792882939e-17
0
LINE
5
290
100
AcDbEntity
8
0
100
AcDbLine
10
4.4993480971881068
20
12.68141258183582
30
-5.5400689792882939e-17
11
4.6052987636748446
21
12.692010938977855
31
-6.1232340869800631e-17
0
LINE
5
291
100
AcDbEntity
8
0
100
AcDbLine
10
4.6052987636748446
20
12.692010938977855
30
-6.1232340869800631e-17
11
4.7387986041022225
21
12.641158563595623
31
-6.1232340869800631e-17
0
LINE
5
292
100
AcDbEntity
8
0
100
AcDbLine
10
4.7387986041022234
20
12.641158563595623
30
-6.1232340869800631e-17
11
4.8108476871381347
21
12.56275705364313
31
-5.5400689792882927e-17
0
LINE
5
293
100
AcDbEntity
8
0
100
AcDbLine
10
4.8108476871381347
20
12.562757053643132
30
-5.5400689792882939e-17
11
4.8659460176130196
21
12.439855595224989
31
-4.3737387639047543e-17
0
LINE
5
294
100
AcDbEntity
8
0
100
AcDbLine
10
4.8659460176130196
20
12.439855595224989
30
-4.3737387639047543e-17
11
4.8595935641748635
21
12.289404932611008
31
-2.6242425283964781e-17
0
LINE
5
295
100
AcDbEntity
8
0
100
AcDbLine
10
4.8595935641748635
20
12.289404932611006
30
-2.6242425283964784e-17
11
4.8256919894272334
21
12.200405062201281
31
-1.4579123130129394e-17
0
LINE
5
296
100
AcDbEntity
8
0
100
AcDbLine
10
4.8256919894272334
20
12.200405062201281
30
-1.4579123130129406e-17
11
4.7303396788401377
21
12.083856009147718
31
2.9158346627885141e-18
0
LINE
5
297
100
AcDbEntity
8
0
100
AcDbLine
10
4.7303396788401386
20
12.083856009147716
30
2.9158346627885218e-18
11
4.6074381988699935
21
12.028757726746406
31
1.457913681662391e-17
0
LINE
5
298
100
AcDbEntity
8
0
100
AcDbLine
10
4.6074381988699935
20
12.028757726746409
30
1.4579136816623913e-17
11
4.501487527825665
21
12.018159331476387
31
2.041079245570645e-17
0
LINE
5
299
100
AcDbEntity
8
0
100
AcDbLine
10
4.501487527825665
20
12.018159331476387
30
2.0410792455706441e-17
11
4.367987687398287
21
12.069011706858618
31
2.0410792455706441e-17
0
LINE
5
300
100
AcDbEntity
8
0
100
AcDbLine
10
5.2269443238014315
20
12.45089788118565
30
-6.1232340869800631e-17
11
4.9548692944372981
21
11.842276678349924
31
2.041079245570645e-17
0
LINE
5
301
100
AcDbEntity
8
0
100
AcDbLine
10
5.0714728827943194
20
12.10311434642505
30
-1.4579123130129406e-17
11
5.0566440304608831
21
11.953261582261598
31
2.9158346627885141e-18
0
LINE
5
302
100
AcDbEntity
8
0
100
AcDbLine
10
5.056644030460884
20
11.953261582261598
30
2.9158346627885218e-18
11
5.1047220615009428
21
11.827447855324348
31
1.457913681662391e-17
0
LINE
5
303
100
AcDbEntity
8
0
100
AcDbLine
10
5.1047220615009428
20
11.827447855324349
30
1.4579136816623913e-17
11
5.1722339951603331
21
11.745107031521325
31
2.041079245570645e-17
0
LINE
5
304
100
AcDbEntity
8
0
100
AcDbLine
10
5.1722339951603331
20
11.745107031521322
30
2.0410792455706441e-17
11
5.3026528291978972
21
11.686805237342812
31
2.0410792455706441e-17
0
LINE
5
305
100
AcDbEntity
8
0
100
AcDbLine
10
5.8427541357461426
20
11.051081133392714
30
6.1232349994130302e-17
11
6.3017130084494477
21
11.939538747452525
31
-6.1232340869800644e-17
0
LINE
5
306
100
AcDbEntity
8
0
100
AcDbLine
10
6.0613059644213614
20
11.474156157761442
30
2.9158346627885218e-18
11
5.9329805707539842
21
11.433251538920304
31
1.457913681662391e-17
0
LINE
5
307
100
AcDbEntity
8
0
100
AcDbLine
10
5.9329805707539842
20
11.433251538920302
30
1.4579136816623913e-17
11
5.8265103742444468
21
11.434654369011103
31
2.041079245570645e-17
0
LINE
5
308
100
AcDbEntity
8
0
100
AcDbLine
10
5.8265103742444468
20
11.434654369011103
30
2.0410792455706441e-17
11
5.6995878437654923
21
11.500219929581954
31
2.0410792455706441e-17
0
LINE
5
309
100
AcDbEntity
8
0
100
AcDbLine
10
5.6995878437654932
20
11.500219929581954
30
2.0410792455706441e-17
11
5.6368280354921829
21
11.586237828396609
31
1.4579136816623907e-17
0
LINE
5
310
100
AcDbEntity
8
0
100
AcDbLine
10
5.6368280354921829
20
11.586237828396609
30
1.4579136816623913e-17
11
5.5959233830046848
21
11.714563197515137
31
2.9158346627885256e-18
0
LINE
5
311
100
AcDbEntity
8
0
100
AcDbLine
10
5.5959233830046839
20
11.714563197515137
30
2.9158346627885218e-18
11
5.619181436174018
21
11.863340913426246
31
-1.45791231301294e-17
0
LINE
5
312
100
AcDbEntity
8
0
100
AcDbLine
10
5.6191814361740189
20
11.863340913426248
30
-1.4579123130129406e-17
11
5.6628917984895537
21
11.94795591168047
31
-2.6242425283964796e-17
0
LINE
5
313
100
AcDbEntity
8
0
100
AcDbLine
10
5.6628917984895537
20
11.947955911680468
30
-2.6242425283964784e-17
11
5.770764883559468
21
12.053023289824889
31
-4.3737387639047543e-17
0
LINE
5
314
100
AcDbEntity
8
0
100
AcDbLine
10
5.770764883559468
20
12.053023289824891
30
-4.3737387639047543e-17
11
5.8990902606780349
21
12.093927917214804
31
-5.5400689792882939e-17
0
LINE
5
315
100
AcDbEntity
8
0
100
AcDbLine
10
5.8990902606780349
20
12.093927917214803
30
-5.5400689792882939e-17
11
6.0055604483644291
21
12.092525049751989
31
-6.1232340869800631e-17
0
LINE
5
316
100
AcDbEntity
8
0
100
AcDbLine
10
6.0055604483644291
20
12.092525049751991
30
-6.1232340869800631e-17
11
6.1324829788433828
21
12.026959489181142
31
-6.1232340869800631e-17
0
LINE
5
317
100
AcDbEntity
8
0
100
AcDbLine
10
6.1324829788433828
20
12.026959489181142
30
-6.1232340869800631e-17
11
6.1952427959398371
21
11.940941627738496
31
-5.5400689792882927e-17
0
LINE
5
318
100
AcDbEntity
8
0
100
AcDbLine
10
6.1952427959398371
20
11.940941627738496
30
-5.5400689792882939e-17
11
6.2361474649761464
21
11.812616250071192
31
-4.3737387639047543e-17
0
LINE
5
319
100
AcDbEntity
8
0
100
AcDbLine
10
6.2532090675660523
20
11.215902396424266
30
2.0410792455706441e-17
11
6.7706369727319142
21
12.071629391897263
31
-1.0205390753255417e-16
0
LINE
5
320
100
AcDbEntity
8
0
100
AcDbLine
10
6.327127342486274
20
11.338149114617311
30
2.9158346627885218e-18
11
6.3593463122055631
21
11.20737247700662
31
1.457913681662391e-17
0
LINE
5
321
100
AcDbEntity
8
0
100
AcDbLine
10
6.3593463122055631
20
11.20737247700662
30
1.4579136816623913e-17
11
6.4162046811973408
21
11.117344702955867
31
2.041079245570645e-17
0
LINE
5
322
100
AcDbEntity
8
0
100
AcDbLine
10
6.4162046811973408
20
11.117344702955867
30
2.0410792455706441e-17
11
6.538451399390385
21
11.043426428035644
31
2.0410792455706441e-17
0
LINE
5
323
100
AcDbEntity
8
0
100
AcDbLine
10
6.538451399390385
20
11.043426428035648
30
2.0410792455706441e-17
11
6.6445886280907409
21
11.034896518255845
31
1.4579136816623907e-17
0
LINE
5
324
100
AcDbEntity
8
0
100
AcDbLine
10
6.6445886280907391
20
11.034896518255845
30
1.4579136816623913e-17
11
6.7753652879418933
21
11.067115452760293
31
2.9158346627885256e-18
0
LINE
5
325
100
AcDbEntity
8
0
100
AcDbLine
10
6.7753652879418951
20
11.067115452760293
30
2.9158346627885218e-18
11
6.89003245830036
21
11.164722752405158
31
-1.45791231301294e-17
0
LINE
5
326
100
AcDbEntity
8
0
100
AcDbLine
10
6.89003245830036
20
11.164722752405158
30
-1.4579123130129406e-17
11
6.9393112953967151
21
11.246220543281648
31
-2.6242425283964796e-17
0
LINE
5
327
100
AcDbEntity
8
0
100
AcDbLine
10
6.9393112953967151
20
11.246220543281646
30
-2.6242425283964784e-17
11
6.9724806941543802
21
11.393106711901178
31
-4.3737387639047543e-17
0
LINE
5
328
100
AcDbEntity
8
0
100
AcDbLine
10
6.9724806941543802
20
11.393106711901178
30
-4.3737387639047543e-17
11
6.940261708495937
21
11.523883359149711
31
-5.5400689792882939e-17
0
LINE
5
329
100
AcDbEntity
8
0
100
AcDbLine
10
6.940261708495937
20
11.523883359149711
30
-5.5400689792882939e-17
11
6.8834033361676248
21
11.613911091684312
31
-6.1232340869800631e-17
0
LINE
5
330
100
AcDbEntity
8
0
100
AcDbLine
10
6.8834033361676248
20
11.61391109168431
30
-6.1232340869800631e-17
11
6.7611566179745806
21
11.687829366604532
31
-6.1232340869800631e-17
0
LINE
5
331
100
AcDbEntity
8
0
100
AcDbLine
10
6.7611566179745815
20
11.687829366604532
30
-6.1232340869800631e-17
11
6.6550193926107601
21
11.696359317900487
31
-5.5400689792882927e-17
0
LINE
5
332
100
AcDbEntity
8
0
100
AcDbLine
10
6.6550193926107593
20
11.696359317900487
30
-5.5400689792882939e-17
11
6.52424274869876
21
11.664140373758196
31
-4.3737387639047543e-17
0
LINE
5
333
100
AcDbEntity
8
0
100
AcDbLine
10
7.3703780784038466
20
11.314739590163676
30
-6.1232340869800631e-17
11
6.9937957831676449
21
10.764621089239254
31
2.041079245570645e-17
0
LINE
5
334
100
AcDbEntity
8
0
100
AcDbLine
10
7.1551882014240658
20
11.000386169846939
30
-1.4579123130129406e-17
11
7.1137861698354463
21
10.855604894920623
31
2.9158346627885141e-18
0
LINE
5
335
100
AcDbEntity
8
0
100
AcDbLine
10
7.1137861698354481
20
10.855604894920623
30
2.9158346627885218e-18
11
7.1385770661912726
21
10.723219085966624
31
1.457913681662391e-17
0
LINE
5
336
100
AcDbEntity
8
0
100
AcDbLine
10
7.1385770661912726
20
10.723219085966624
30
1.4579136816623913e-17
11
7.1902666631805401
21
10.630127421387684
31
2.041079245570645e-17
0
LINE
5
337
100
AcDbEntity
8
0
100
AcDbLine
10
7.1902666631805401
20
10.630127421387686
30
2.0410792455706441e-17
11
7.3081492034843816
21
10.549431212259474
31
2.0410792455706441e-17
0
LINE
5
338
100
AcDbEntity
8
0
100
AcDbLine
10
7.6512153404684158
20
10.665457627165363
30
-1.4579123130129406e-17
11
8.1044018354300977
21
10.317387660308114
31
-1.4579123130129406e-17
0
LINE
5
339
100
AcDbEntity
8
0
100
AcDbLine
10
8.1044018354300977
20
10.317387660308112
30
-1.4579123130129406e-17
11
8.0463901856330118
21
10.241856592586696
31
-2.9158209762940173e-18
0
LINE
5
340
100
AcDbEntity
8
0
100
AcDbLine
10
8.0463901856330118
20
10.241856592586696
30
-2.9158209762940134e-18
11
7.9506129792836404
21
10.195331320219429
31
8.7474857397062152e-18
0
LINE
5
341
100
AcDbEntity
8
0
100
AcDbLine
10
7.9506129792836404
20
10.195331320219429
30
8.7474857397062183e-18
11
7.883841590979995
21
10.186571633948841
31
1.4579136816623913e-17
0
LINE
5
342
100
AcDbEntity
8
0
100
AcDbLine
10
7.883841590979995
20
10.186571633948841
30
1.4579136816623913e-17
11
7.7793046756684578
21
10.206817720340826
31
2.041079245570645e-17
0
LINE
5
343
100
AcDbEntity
8
0
100
AcDbLine
10
7.7793046756684578
20
10.206817720340826
30
2.0410792455706441e-17
11
7.6660080445419396
21
10.293835217728031
31
2.0410792455706441e-17
0
LINE
5
344
100
AcDbEntity
8
0
100
AcDbLine
10
7.6660080445419396
20
10.293835217728031
30
2.0410792455706441e-17
11
7.6194828170245446
21
10.389612436603112
31
1.4579136816623907e-17
0
LINE
5
345
100
AcDbEntity
8
0
100
AcDbLine
10
7.6194828170245446
20
10.389612436603112
30
1.4579136816623913e-17
11
7.6019633843280179
21
10.523155165467404
31
2.9158346627885256e-18
0
LINE
5
346
100
AcDbEntity
8
0
100
AcDbLine
10
7.6019633843280161
20
10.523155165467406
30
2.9158346627885218e-18
11
7.6512153404684158
21
10.665457627165363
31
-1.45791231301294e-17
0
LINE
5
347
100
AcDbEntity
8
0
100
AcDbLine
10
7.6512153404684158
20
10.665457627165363
30
-1.4579123130129406e-17
11
7.7092269902655017
21
10.740988694886779
31
-2.6242425283964796e-17
0
LINE
5
348
100
AcDbEntity
8
0
100
AcDbLine
10
7.7092269902655026
20
10.740988694886779
30
-2.6242425283964784e-17
11
7.8340100515910924
21
10.825279524986254
31
-4.3737387639047543e-17
0
LINE
5
349
100
AcDbEntity
8
0
100
AcDbLine
10
7.8340100515910915
20
10.825279524986254
30
-4.3737387639047543e-17
11
7.9675527838817919
21
10.842798931564797
31
-5.5400689792882939e-17
0
LINE
5
350
100
AcDbEntity
8
0
100
AcDbLine
10
7.9675527838817928
20
10.842798931564793
30
-5.5400689792882939e-17
11
8.0720896838878513
21
10.822552809955521
31
-6.1232340869800631e-17
0
LINE
5
351
100
AcDbEntity
8
0
100
AcDbLine
10
8.0720896838878513
20
10.822552809955523
30
-6.1232340869800631e-17
11
8.1853863150143695
21
10.735535312568318
31
-6.1232340869800631e-17
0
LINE
5
352
100
AcDbEntity
8
0
100
AcDbLine
10
8.1853863150143695
20
10.735535312568318
30
-6.1232340869800631e-17
11
8.2319115578372433
21
10.639758128910524
31
-5.5400689792882927e-17
0
LINE
5
353
100
AcDbEntity
8
0
100
AcDbLine
10
8.2319115578372433
20
10.639758128910522
30
-5.5400689792882939e-17
11
8.2494310053059667
21
10.506215388700442
31
-4.3737387639047543e-17
0
LINE
5
354
100
AcDbEntity
8
0
100
AcDbLine
10
8.6136446514546474
20
9.7057104503220941
30
2.9158346627885218e-18
11
8.5151797508620959
21
9.6651822622508021
31
1.457913681662391e-17
0
LINE
5
355
100
AcDbEntity
8
0
100
AcDbLine
10
8.5151797508620959
20
9.6651822622508021
30
1.4579136816623913e-17
11
8.3761866413446935
21
9.7231188941245392
31
2.041079245570645e-17
0
LINE
5
356
100
AcDbEntity
8
0
100
AcDbLine
10
8.3761866413446935
20
9.7231188941245392
30
2.0410792455706441e-17
11
8.2684738347031779
21
9.8169598380752419
31
2.0410792455706441e-17
0
LINE
5
357
100
AcDbEntity
8
0
100
AcDbLine
10
8.2684738347031796
20
9.8169598380752419
30
2.0410792455706441e-17
11
8.1920413660479259
21
9.946705063514246
31
1.4579136816623907e-17
0
LINE
5
358
100
AcDbEntity
8
0
100
AcDbLine
10
8.1920413660479259
20
9.946705063514246
30
1.4579136816623913e-17
11
8.2186977124946274
21
10.049793895160715
31
2.9158346627885256e-18
0
LINE
5
359
100
AcDbEntity
8
0
100
AcDbLine
10
8.2186977124946274
20
10.049793895160715
30
2.9158346627885218e-18
11
8.3171626164918848
21
10.090322129673499
31
-8.7474720532117053e-18
0
LINE
5
360
100
AcDbEntity
8
0
100
AcDbLine
10
8.3171626164918848
20
10.090322129673499
30
-8.7474720532117022e-18
11
8.4202514560647685
21
10.063665763969258
31
-1.4579123130129397e-17
0
LINE
5
361
100
AcDbEntity
8
0
100
AcDbLine
10
8.4202514560647685
20
10.063665763969258
30
-1.4579123130129406e-17
11
8.6310530952570925
21
9.9431684604320481
31
-2.0410774207047104e-17
0
LINE
5
362
100
AcDbEntity
8
0
100
AcDbLine
10
8.6310530952570925
20
9.9431684604320481
30
-2.0410774207047095e-17
11
8.7341419207858291
21
9.9165121069632711
31
-2.624242528396479e-17
0
LINE
5
363
100
AcDbEntity
8
0
100
AcDbLine
10
8.7341419207858291
20
9.9165121069632711
30
-2.6242425283964784e-17
11
8.8326068213783806
21
9.9570402950345631
31
-3.790572743780018e-17
0
LINE
5
364
100
AcDbEntity
8
0
100
AcDbLine
10
8.8326068213783788
20
9.9570402950345631
30
-3.790572743780018e-17
11
8.8638871768134937
21
9.9929446107288982
31
-4.3737387639047549e-17
0
LINE
5
365
100
AcDbEntity
8
0
100
AcDbLine
10
8.8638871768134937
20
9.9929446107288982
30
-4.3737387639047543e-17
11
8.8905435021939745
21
10.096033460728561
31
-5.5400689792882939e-17
0
LINE
5
366
100
AcDbEntity
8
0
100
AcDbLine
10
8.8905435021939727
20
10.096033460728561
30
-5.5400689792882939e-17
11
8.8141110301340149
21
10.225778639726073
31
-6.1232340869800631e-17
0
LINE
5
367
100
AcDbEntity
8
0
100
AcDbLine
10
8.8141110301340149
20
10.225778639726073
30
-6.1232340869800631e-17
11
8.7063982234924993
21
10.319619583676774
31
-6.1232340869800631e-17
0
LINE
5
368
100
AcDbEntity
8
0
100
AcDbLine
10
8.7063982234924993
20
10.319619583676774
30
-6.1232340869800631e-17
11
8.5674051173798027
21
10.377556261992005
31
-5.5400689792882927e-17
0
LINE
5
369
100
AcDbEntity
8
0
100
AcDbLine
10
8.5674051173798027
20
10.377556261992005
30
-5.5400689792882939e-17
11
8.4689402378534737
21
10.337028055567517
31
-4.3737387639047543e-17
0
LINE
5
370
100
AcDbEntity
8
0
100
AcDbLine
10
9.1798145709177064
20
9.172060508445842
30
2.9158346627885218e-18
11
9.0790978399811593
21
9.1375060472794729
31
1.457913681662391e-17
0
LINE
5
371
100
AcDbEntity
8
0
100
AcDbLine
10
9.0790978399811593
20
9.1375060472794729
30
1.4579136816623913e-17
11
8.9438266222290537
21
9.2036682377968084
31
2.041079245570645e-17
0
LINE
5
372
100
AcDbEntity
8
0
100
AcDbLine
10
8.9438266222290537
20
9.2036682377968067
30
2.0410792455706441e-17
11
8.8419311883066705
21
9.3037956167793805
31
2.0410792455706441e-17
0
LINE
5
373
100
AcDbEntity
8
0
100
AcDbLine
10
8.8419311883066705
20
9.3037956167793805
30
2.0410792455706441e-17
11
8.7734115714281309
21
9.4378881515893891
31
1.4579136816623907e-17
0
LINE
5
374
100
AcDbEntity
8
0
100
AcDbLine
10
8.7734115714281309
20
9.4378881515893873
30
1.4579136816623913e-17
11
8.8061979975831637
21
9.5391942139751151
31
2.9158346627885256e-18
0
LINE
5
375
100
AcDbEntity
8
0
100
AcDbLine
10
8.8061979975831637
20
9.5391942139751151
30
2.9158346627885218e-18
11
8.9069147347014805
21
9.5737487212954679
31
-8.7474720532117053e-18
0
LINE
5
376
100
AcDbEntity
8
0
100
AcDbLine
10
8.9069147347014805
20
9.5737487212954679
30
-8.7474720532117022e-18
11
9.0082208038452976
21
9.540962275442487
31
-1.4579123130129397e-17
0
LINE
5
377
100
AcDbEntity
8
0
100
AcDbLine
10
9.0082208038452976
20
9.540962275442487
30
-1.4579123130129406e-17
11
9.2114223002686728
21
9.4080484571344947
31
-2.0410774207047104e-17
0
LINE
5
378
100
AcDbEntity
8
0
100
AcDbLine
10
9.2114223002686728
20
9.4080484571344929
30
-2.0410774207047095e-17
11
9.3127283561268399
21
9.3752620243366351
31
-2.624242528396479e-17
0
LINE
5
379
100
AcDbEntity
8
0
100
AcDbLine
10
9.3127283561268381
20
9.3752620243366351
30
-2.6242425283964784e-17
11
9.4134450870633852
21
9.409816485503006
31
-3.790572743780018e-17
0
LINE
5
380
100
AcDbEntity
8
0
100
AcDbLine
10
9.413445087063387
20
9.409816485503006
30
-3.790572743780018e-17
11
9.4468209235746503
21
9.4437816744292995
31
-4.3737387639047549e-17
0
LINE
5
381
100
AcDbEntity
8
0
100
AcDbLine
10
9.4468209235746503
20
9.4437816744292995
30
-4.3737387639047543e-17
11
9.47960732980121
21
9.5450877563977095
31
-5.5400689792882939e-17
0
LINE
5
382
100
AcDbEntity
8
0
100
AcDbLine
10
9.47960732980121
20
9.5450877563977095
30
-5.5400689792882939e-17
11
9.4110877067409007
21
9.6791802450537325
31
-6.1232340869800631e-17
0
LINE
5
383
100
AcDbEntity
8
0
100
AcDbLine
10
9.4110877067409007
20
9.6791802450537325
30
-6.1232340869800631e-17
11
9.3091922728185175
21
9.7793076240363064
31
-6.1232340869800631e-17
0
LINE
5
384
100
AcDbEntity
8
0
100
AcDbLine
10
9.3091922728185175
20
9.7793076240363082
30
-6.1232340869800631e-17
11
9.1739210612481816
21
9.8454698607076256
31
-5.5400689792882927e-17
0
LINE
5
385
100
AcDbEntity
8
0
100
AcDbLine
10
9.1739210612481799
20
9.8454698607076256
30
-5.5400689792882939e-17
11
9.0732043502401076
21
9.8109153799585727
31
-4.3737387639047543e-17
0
LINE
5
386
100
AcDbEntity
8
0
100
AcDbLine
10
9.7104045272822326
20
9.242941467819513
30
-4.9569038715965247e-17
11
9.7130213366119449
21
9.3102341126446682
31
-5.5400689792882945e-17
0
LINE
5
387
100
AcDbEntity
8
0
100
AcDbLine
10
9.7130213366119449
20
9.3102341126446682
30
-5.5400689792882939e-17
11
9.7803139809253086
21
9.3076172901540151
31
-6.1232340869800631e-17
0
LINE
5
388
100
AcDbEntity
8
0
100
AcDbLine
10
9.7803139809253086
20
9.3076172901540133
30
-6.1232340869800631e-17
11
9.7776971715955963
21
9.2403246453288581
31
-5.5400689792882927e-17
0
LINE
5
389
100
AcDbEntity
8
0
100
AcDbLine
10
10.040258464507083
20
8.2216260752732868
30
2.9158346627885218e-18
11
9.9060955805945383
21
8.2334968411582263
31
1.457913681662391e-17
0
LINE
5
390
100
AcDbEntity
8
0
100
AcDbLine
10
9.9060955805945383
20
8.2334968411582263
30
1.4579136816623913e-17
11
9.8084410913684259
21
8.2759405852323535
31
2.041079245570645e-17
0
LINE
5
391
100
AcDbEntity
8
0
100
AcDbLine
10
9.8084410913684241
20
8.2759405852323535
30
2.0410792455706441e-17
11
9.7167219754476228
21
8.3854658117824847
31
2.0410792455706441e-17
0
LINE
5
392
100
AcDbEntity
8
0
100
AcDbLine
10
9.7167219754476246
20
8.3854658117824847
30
2.0410792455706441e-17
11
9.6920843360234237
21
8.4890556721675345
31
1.4579136816623907e-17
0
LINE
5
393
100
AcDbEntity
8
0
100
AcDbLine
10
9.6920843360234237
20
8.4890556721675328
30
1.4579136816623913e-17
11
9.7039550613886316
21
8.6232185464429207
31
2.9158346627885256e-18
0
LINE
5
394
100
AcDbEntity
8
0
100
AcDbLine
10
9.7039550613886316
20
8.6232185464429207
30
2.9158346627885218e-18
11
9.7829072512916309
21
8.7514460688336886
31
-1.45791231301294e-17
0
LINE
5
395
100
AcDbEntity
8
0
100
AcDbLine
10
9.7829072512916309
20
8.7514460688336886
30
-1.4579123130129406e-17
11
9.8559240499511027
21
8.8125921301691452
31
-2.6242425283964796e-17
0
LINE
5
396
100
AcDbEntity
8
0
100
AcDbLine
10
9.8559240499511027
20
8.8125921301691434
30
-2.6242425283964784e-17
11
9.9960223417092902
21
8.8678028635375963
31
-4.3737387639047543e-17
0
LINE
5
397
100
AcDbEntity
8
0
100
AcDbLine
10
9.9960223417092902
20
8.8678028635375963
30
-4.3737387639047543e-17
11
10.130185213663026
21
8.8559321119331162
31
-5.5400689792882939e-17
0
LINE
5
398
100
AcDbEntity
8
0
100
AcDbLine
10
10.130185213663026
20
8.8559321119331162
30
-5.5400689792882939e-17
11
10.227839680307621
21
8.8134883368011412
31
-6.1232340869800631e-17
0
LINE
5
399
100
AcDbEntity
8
0
100
AcDbLine
10
10.227839680307621
20
8.8134883368011412
30
-6.1232340869800631e-17
11
10.319558796228423
21
8.70396311025101
31
-6.1232340869800631e-17
0
LINE
5
400
100
AcDbEntity
8
0
100
AcDbLine
10
10.319558796228423
20
8.70396311025101
30
-6.1232340869800631e-17
11
10.344196458234141
21
8.6003732809238098
31
-5.5400689792882927e-17
0
LINE
5
401
100
AcDbEntity
8
0
100
AcDbLine
10
10.344196458234141
20
8.6003732809238098
30
-5.5400689792882939e-17
11
10.332325744827742
21
8.4662103923679606
31
-4.3737387639047543e-17
0
LINE
5
402
100
AcDbEntity
8
0
100
AcDbLine
10
10.228788761891378
20
7.7532083992472467
30
2.0410792455706441e-17
11
10.210958597568284
21
7.8581843855069735
31
1.4579136816623907e-17
0
LINE
5
403
100
AcDbEntity
8
0
100
AcDbLine
10
10.210958597568284
20
7.8581843855069735
30
1.4579136816623913e-17
11
10.231552742604176
21
7.991287624178204
31
2.9158346627885256e-18
0
LINE
5
404
100
AcDbEntity
8
0
100
AcDbLine
10
10.231552742604178
20
7.991287624178204
30
2.9158346627885218e-18
11
10.318698535021593
21
8.1140937993197451
31
-1.45791231301294e-17
0
LINE
5
405
100
AcDbEntity
8
0
100
AcDbLine
10
10.318698535021593
20
8.1140937993197451
30
-1.4579123130129406e-17
11
10.395547224861275
21
8.1703483331213995
31
-2.6242425283964796e-17
0
LINE
5
406
100
AcDbEntity
8
0
100
AcDbLine
10
10.395547224861275
20
8.1703483331213995
30
-2.6242425283964784e-17
11
10.53894759214227
21
8.2163058253976367
31
-4.3737387639047543e-17
0
LINE
5
407
100
AcDbEntity
8
0
100
AcDbLine
10
10.538947592142268
20
8.2163058253976349
30
-4.3737387639047543e-17
11
10.672050826785739
21
8.195711654329715
31
-5.5400689792882939e-17
0
LINE
5
408
100
AcDbEntity
8
0
100
AcDbLine
10
10.672050826785739
20
8.195711654329715
30
-5.5400689792882939e-17
11
10.766729711008303
21
8.146990223875914
31
-6.1232340869800631e-17
0
LINE
5
409
100
AcDbEntity
8
0
100
AcDbLine
10
10.766729711008303
20
8.146990223875914
30
-6.1232340869800631e-17
11
10.851111533715056
21
8.0317171590566048
31
-6.1232340869800631e-17
0
LINE
5
410
100
AcDbEntity
8
0
100
AcDbLine
10
10.851111533715056
20
8.031717159056603
30
-6.1232340869800631e-17
11
10.868941722596869
21
7.9267412023160935
31
-5.5400689792882927e-17
0
LINE
5
411
100
AcDbEntity
8
0
100
AcDbLine
10
10.868941722596869
20
7.9267412023160944
30
-5.5400689792882939e-17
11
10.848347588563115
21
7.7936379486149701
31
-4.3737387639047543e-17
0
LINE
5
412
100
AcDbEntity
8
0
100
AcDbLine
10
10.848347588563115
20
7.7936379486149683
30
-4.3737387639047543e-17
11
10.761201760584843
21
7.6708317589841046
31
-2.6242425283964781e-17
0
LINE
5
413
100
AcDbEntity
8
0
100
AcDbLine
10
10.761201760584845
20
7.6708317589841046
30
-2.6242425283964784e-17
11
10.684353070745162
21
7.6145772251824493
31
-1.4579123130129394e-17
0
LINE
5
414
100
AcDbEntity
8
0
100
AcDbLine
10
10.684353070745161
20
7.6145772251824493
30
-1.4579123130129406e-17
11
10.540952739025023
21
7.5686197473955374
31
2.9158346627885141e-18
0
LINE
5
415
100
AcDbEntity
8
0
100
AcDbLine
10
10.540952739025025
20
7.5686197473955374
30
2.9158346627885218e-18
11
10.407849493379418
21
7.5892139334933519
31
1.457913681662391e-17
0
LINE
5
416
100
AcDbEntity
8
0
100
AcDbLine
10
10.407849493379418
20
7.5892139334933519
30
1.4579136816623913e-17
11
10.313170584598133
21
7.6379353344279357
31
2.041079245570645e-17
0
LINE
5
417
100
AcDbEntity
8
0
100
AcDbLine
10
10.313170584598133
20
7.6379353344279357
30
2.0410792455706441e-17
11
10.228788761891378
21
7.7532083992472458
31
2.0410792455706441e-17
0
LINE
5
418
100
AcDbEntity
8
0
100
AcDbLine
10
11.170323625246754
20
7.6147274633396789
30
-6.1232340869800631e-17
11
10.600402009246707
21
7.2688460649375761
31
2.041079245570645e-17
0
LINE
5
419
100
AcDbEntity
8
0
100
AcDbLine
10
10.763236783972587
20
7.3676693381904279
30
-2.9158209762940134e-18
11
10.715228159295517
21
7.1714258357553256
31
1.4579136816623907e-17
0
LINE
5
420
100
AcDbEntity
8
0
100
AcDbLine
10
10.715228159295521
20
7.1714258357553256
30
1.4579136816623913e-17
11
10.723931071821333
21
7.0653026443004929
31
2.041079245570645e-17
0
LINE
5
421
100
AcDbEntity
8
0
100
AcDbLine
10
10.723931071821331
20
7.0653026443004938
30
2.0410792455706441e-17
11
10.798048517097156
21
6.9431765791795064
31
2.0410792455706441e-17
0
LINE
5
422
100
AcDbEntity
8
0
100
AcDbLine
10
10.798048517097156
20
6.9431765791795055
30
2.0410792455706441e-17
11
10.88816884400085
21
6.8864650516404371
31
1.4579136816623907e-17
0
LINE
5
423
100
AcDbEntity
8
0
100
AcDbLine
10
10.888168844000852
20
6.8864650516404371
30
1.4579136816623913e-17
11
11.035000737098866
21
6.9198737873113689
31
-2.9158209762940057e-18
0
LINE
5
424
100
AcDbEntity
8
0
100
AcDbLine
10
11.035000737098866
20
6.9198737873113689
30
-2.9158209762940134e-18
11
11.44208757837303
21
7.1669319124606199
31
-6.1232340869800631e-17
0
LINE
5
425
100
AcDbEntity
8
0
100
AcDbLine
10
11.035000737098866
20
6.9198737873113689
30
-2.9158209762940134e-18
11
10.986992117253703
21
6.7236302769145553
31
1.4579136816623907e-17
0
LINE
5
426
100
AcDbEntity
8
0
100
AcDbLine
10
10.986992117253703
20
6.7236302769145553
30
1.4579136816623913e-17
11
10.995695024947608
21
6.6175070934214357
31
2.041079245570645e-17
0
LINE
5
427
100
AcDbEntity
8
0
100
AcDbLine
10
10.995695024947608
20
6.617507093421434
30
2.0410792455706441e-17
11
11.069812450895807
21
6.4953810601472926
31
2.0410792455706441e-17
0
LINE
5
428
100
AcDbEntity
8
0
100
AcDbLine
10
11.069812450895808
20
6.4953810601472926
30
2.0410792455706441e-17
11
11.159932777799501
21
6.4386695326082242
31
1.4579136816623907e-17
0
LINE
5
429
100
AcDbEntity
8
0
100
AcDbLine
10
11.159932777799501
20
6.4386695326082242
30
1.4579136816623913e-17
11
11.306764690225142
21
6.4720782364323091
31
-2.9158209762940057e-18
0
LINE
5
430
100
AcDbEntity
8
0
100
AcDbLine
10
11.306764690225142
20
6.4720782364323091
30
-2.9158209762940134e-18
11
11.713851531499307
21
6.71913636158156
31
-6.1232340869800631e-17
0
ENDSEC
0
SECTION
2
OBJECTS
0
DICTIONARY
5
C
100
AcDbDictionary
3
ACAD_GROUP
350
D
3
ACAD_MLINESTYLE
350
17
0
DICTIONARY
5
D
100
AcDbDictionary
0
DICTIONARY
5
1A
330
C
100
AcDbDictionary
0
DICTIONARY
5
17
100
AcDbDictionary
0
ENDSEC
0
EOF
